G04 #@! TF.GenerationSoftware,KiCad,Pcbnew,5.1.10*
G04 #@! TF.CreationDate,2021-11-28T22:13:15+08:00*
G04 #@! TF.ProjectId,air_mon2,6169725f-6d6f-46e3-922e-6b696361645f,rev?*
G04 #@! TF.SameCoordinates,Original*
G04 #@! TF.FileFunction,Soldermask,Top*
G04 #@! TF.FilePolarity,Negative*
%FSLAX46Y46*%
G04 Gerber Fmt 4.6, Leading zero omitted, Abs format (unit mm)*
G04 Created by KiCad (PCBNEW 5.1.10) date 2021-11-28 22:13:15*
%MOMM*%
%LPD*%
G01*
G04 APERTURE LIST*
%ADD10O,1.200000X2.000000*%
%ADD11R,1.200000X2.000000*%
%ADD12O,2.000000X1.200000*%
%ADD13C,1.524000*%
%ADD14R,3.500000X3.500000*%
%ADD15C,1.350000*%
%ADD16R,1.350000X1.350000*%
%ADD17R,1.700000X1.700000*%
%ADD18O,1.700000X1.700000*%
%ADD19C,4.400000*%
%ADD20C,0.870000*%
G04 APERTURE END LIST*
D10*
X130673000Y-87107000D03*
X130673000Y-109967000D03*
X133213000Y-87107000D03*
X133213000Y-109967000D03*
X135753000Y-87107000D03*
X135753000Y-109967000D03*
X138293000Y-87107000D03*
X138293000Y-109967000D03*
X140833000Y-87107000D03*
X140833000Y-109967000D03*
X143373000Y-87107000D03*
X143373000Y-109967000D03*
X145913000Y-87107000D03*
X145913000Y-109967000D03*
X148453000Y-87107000D03*
X148453000Y-109967000D03*
X150993000Y-87107000D03*
X150993000Y-109967000D03*
X153533000Y-87107000D03*
X153533000Y-109967000D03*
X156073000Y-87107000D03*
X156073000Y-109967000D03*
X158613000Y-87107000D03*
X158613000Y-109967000D03*
X161153000Y-87107000D03*
X161153000Y-109967000D03*
X163693000Y-87107000D03*
X163693000Y-109967000D03*
X166233000Y-87107000D03*
X166233000Y-109967000D03*
D11*
X168773000Y-87107000D03*
X168773000Y-109967000D03*
D10*
X171313000Y-87107000D03*
X171313000Y-109967000D03*
X173853000Y-87107000D03*
X173853000Y-109967000D03*
X176393000Y-87107000D03*
X176393000Y-109967000D03*
D12*
X152517000Y-69073000D03*
X152517000Y-66533000D03*
X152517000Y-63993000D03*
X152517000Y-61453000D03*
D13*
X158867000Y-79741000D03*
X158867000Y-82281000D03*
X148707000Y-82281000D03*
X148707000Y-79741000D03*
X148707000Y-77201000D03*
X148707000Y-74661000D03*
G36*
G01*
X168951000Y-73912000D02*
X168951000Y-75662000D01*
G75*
G02*
X168076000Y-76537000I-875000J0D01*
G01*
X166326000Y-76537000D01*
G75*
G02*
X165451000Y-75662000I0J875000D01*
G01*
X165451000Y-73912000D01*
G75*
G02*
X166326000Y-73037000I875000J0D01*
G01*
X168076000Y-73037000D01*
G75*
G02*
X168951000Y-73912000I0J-875000D01*
G01*
G37*
G36*
G01*
X171701000Y-78487000D02*
X171701000Y-80487000D01*
G75*
G02*
X170951000Y-81237000I-750000J0D01*
G01*
X169451000Y-81237000D01*
G75*
G02*
X168701000Y-80487000I0J750000D01*
G01*
X168701000Y-78487000D01*
G75*
G02*
X169451000Y-77737000I750000J0D01*
G01*
X170951000Y-77737000D01*
G75*
G02*
X171701000Y-78487000I0J-750000D01*
G01*
G37*
D14*
X164201000Y-79487000D03*
D15*
X120768000Y-69320001D03*
X120768000Y-71320001D03*
X120768000Y-73320001D03*
X120768000Y-75320001D03*
X120768000Y-77320001D03*
X143468000Y-67320001D03*
X143468000Y-69320001D03*
X143468000Y-71320001D03*
X143468000Y-73320001D03*
X143468000Y-75320001D03*
X143468000Y-77320001D03*
D16*
X143468000Y-79320001D03*
D15*
X125568000Y-81550001D03*
X130648000Y-81550001D03*
X128108000Y-81550001D03*
X133188000Y-81550001D03*
X135728000Y-81550001D03*
X138268000Y-81550001D03*
D17*
X130673000Y-90663000D03*
D18*
X133213000Y-90663000D03*
X135753000Y-90663000D03*
X138293000Y-90663000D03*
X140833000Y-90663000D03*
X143373000Y-90663000D03*
X145913000Y-90663000D03*
X148453000Y-90663000D03*
X150993000Y-90663000D03*
X153533000Y-90663000D03*
X156073000Y-90663000D03*
X158613000Y-90663000D03*
X161153000Y-90663000D03*
X163693000Y-90663000D03*
X166233000Y-90663000D03*
X168773000Y-90663000D03*
X171313000Y-90663000D03*
X173853000Y-90663000D03*
X176393000Y-90663000D03*
D19*
X82365000Y-61095000D03*
X176365000Y-61095000D03*
X82365000Y-115095000D03*
X176365000Y-115095000D03*
D17*
X130673000Y-105680001D03*
D18*
X133213000Y-105680001D03*
X135753000Y-105680001D03*
X138293000Y-105680001D03*
X140833000Y-105680001D03*
X143373000Y-105680001D03*
X145913000Y-105680001D03*
X148453000Y-105680001D03*
X150993000Y-105680001D03*
X153533000Y-105680001D03*
X156073000Y-105680001D03*
X158613000Y-105680001D03*
X161153000Y-105680001D03*
X163693000Y-105680001D03*
X166233000Y-105680001D03*
X168773000Y-105680001D03*
X171313000Y-105680001D03*
X173853000Y-105680001D03*
X176393000Y-105680001D03*
D20*
X85690000Y-68850001D03*
X85690000Y-70120001D03*
X86960000Y-68850001D03*
X86960000Y-70120001D03*
X88230000Y-68850001D03*
X88230000Y-70120001D03*
X89500000Y-68850001D03*
X89500000Y-70120001D03*
X90770000Y-68850001D03*
X90770000Y-70120001D03*
M02*
