%FSLAX45Y45*%
G04 Gerber Fmt 4.5, Leading zero omitted, Abs format (unit mm)*
G04 Created by KiCad (PCBNEW 5.1.10) date 2021-11-28 22:13:20*
%MOMM*%
%LPD*%
G01*
G04 APERTURE LIST*
%TA.AperFunction,Profile*%
%ADD10C,0.050000*%
%TD*%
%ADD11C,0.200000*%
%ADD12C,0.300000*%
G04 APERTURE END LIST*
D10*
X7936500Y-5809500D02*
X17936500Y-5809500D01*
X17936500Y-5809500D02*
X17936500Y-11809500D01*
X17936500Y-11809500D02*
X7936500Y-11809500D01*
X7936500Y-11809500D02*
X7936500Y-5809500D01*
D11*
X9542100Y-7115900D02*
X9582100Y-7155900D01*
X9582100Y-7115900D02*
X9542100Y-7155900D01*
X9742500Y-6813900D02*
X9782500Y-6853900D01*
X9782500Y-6813900D02*
X9742500Y-6853900D01*
X10354900Y-7268300D02*
X10394900Y-7308300D01*
X10394900Y-7268300D02*
X10354900Y-7308300D01*
X11025500Y-6484000D02*
X11065500Y-6524000D01*
X11065500Y-6484000D02*
X11025500Y-6524000D01*
X11216000Y-9405000D02*
X11256000Y-9445000D01*
X11256000Y-9405000D02*
X11216000Y-9445000D01*
X11343000Y-6484000D02*
X11383000Y-6524000D01*
X11383000Y-6484000D02*
X11343000Y-6524000D01*
X11406500Y-9659000D02*
X11446500Y-9699000D01*
X11446500Y-9659000D02*
X11406500Y-9699000D01*
X11624900Y-10570300D02*
X11664900Y-10610300D01*
X11664900Y-10570300D02*
X11624900Y-10610300D01*
X11624900Y-10976700D02*
X11664900Y-11016700D01*
X11664900Y-10976700D02*
X11624900Y-11016700D01*
X11851000Y-6801500D02*
X11891000Y-6841500D01*
X11891000Y-6801500D02*
X11851000Y-6841500D01*
X11851000Y-7182500D02*
X11891000Y-7222500D01*
X11891000Y-7182500D02*
X11851000Y-7222500D01*
X12041500Y-9659000D02*
X12081500Y-9699000D01*
X12081500Y-9659000D02*
X12041500Y-9699000D01*
X12041500Y-9976500D02*
X12081500Y-10016500D01*
X12081500Y-9976500D02*
X12041500Y-10016500D01*
X12132900Y-10570300D02*
X12172900Y-10610300D01*
X12172900Y-10570300D02*
X12132900Y-10610300D01*
X12132900Y-10976700D02*
X12172900Y-11016700D01*
X12172900Y-10976700D02*
X12132900Y-11016700D01*
X15180900Y-7268300D02*
X15220900Y-7308300D01*
X15220900Y-7268300D02*
X15180900Y-7308300D01*
X15333300Y-7268300D02*
X15373300Y-7308300D01*
X15373300Y-7268300D02*
X15333300Y-7308300D01*
X8599000Y-6885000D02*
G75*
G03*
X8599000Y-6885000I-30000J0D01*
G01*
X8599000Y-7012000D02*
G75*
G03*
X8599000Y-7012000I-30000J0D01*
G01*
X8726000Y-6885000D02*
G75*
G03*
X8726000Y-6885000I-30000J0D01*
G01*
X8726000Y-7012000D02*
G75*
G03*
X8726000Y-7012000I-30000J0D01*
G01*
X8853000Y-6885000D02*
G75*
G03*
X8853000Y-6885000I-30000J0D01*
G01*
X8853000Y-7012000D02*
G75*
G03*
X8853000Y-7012000I-30000J0D01*
G01*
X8980000Y-6885000D02*
G75*
G03*
X8980000Y-6885000I-30000J0D01*
G01*
X8980000Y-7012000D02*
G75*
G03*
X8980000Y-7012000I-30000J0D01*
G01*
X9107000Y-6885000D02*
G75*
G03*
X9107000Y-6885000I-30000J0D01*
G01*
X9107000Y-7012000D02*
G75*
G03*
X9107000Y-7012000I-30000J0D01*
G01*
X14870700Y-7428000D02*
X14870700Y-7504200D01*
X14832600Y-7466100D02*
X14908800Y-7466100D01*
X14870700Y-7682000D02*
X14870700Y-7758200D01*
X14832600Y-7720100D02*
X14908800Y-7720100D01*
X14870700Y-7936000D02*
X14870700Y-8012200D01*
X14832600Y-7974100D02*
X14908800Y-7974100D01*
X14870700Y-8190000D02*
X14870700Y-8266200D01*
X14832600Y-8228100D02*
X14908800Y-8228100D01*
X15886700Y-7936000D02*
X15886700Y-8012200D01*
X15848600Y-7974100D02*
X15924800Y-7974100D01*
X15886700Y-8190000D02*
X15886700Y-8266200D01*
X15848600Y-8228100D02*
X15924800Y-8228100D01*
X12105084Y-6960285D02*
X12105084Y-6903716D01*
X12048515Y-6903716D01*
X12048515Y-6960285D01*
X12105084Y-6960285D01*
X12105084Y-7160285D02*
X12105084Y-7103716D01*
X12048515Y-7103716D01*
X12048515Y-7160285D01*
X12105084Y-7160285D01*
X12105084Y-7360285D02*
X12105084Y-7303716D01*
X12048515Y-7303716D01*
X12048515Y-7360285D01*
X12105084Y-7360285D01*
X12105084Y-7560285D02*
X12105084Y-7503716D01*
X12048515Y-7503716D01*
X12048515Y-7560285D01*
X12105084Y-7560285D01*
X12105084Y-7760285D02*
X12105084Y-7703716D01*
X12048515Y-7703716D01*
X12048515Y-7760285D01*
X12105084Y-7760285D01*
X12585084Y-8183285D02*
X12585084Y-8126716D01*
X12528515Y-8126716D01*
X12528515Y-8183285D01*
X12585084Y-8183285D01*
X12839084Y-8183285D02*
X12839084Y-8126716D01*
X12782515Y-8126716D01*
X12782515Y-8183285D01*
X12839084Y-8183285D01*
X13093084Y-8183285D02*
X13093084Y-8126716D01*
X13036515Y-8126716D01*
X13036515Y-8183285D01*
X13093084Y-8183285D01*
X13095584Y-8738985D02*
X13095584Y-8682416D01*
X13039015Y-8682416D01*
X13039015Y-8738985D01*
X13095584Y-8738985D01*
X13095584Y-11024985D02*
X13095584Y-10968416D01*
X13039015Y-10968416D01*
X13039015Y-11024985D01*
X13095584Y-11024985D01*
X13347084Y-8183285D02*
X13347084Y-8126716D01*
X13290515Y-8126716D01*
X13290515Y-8183285D01*
X13347084Y-8183285D01*
X13349584Y-8738985D02*
X13349584Y-8682416D01*
X13293015Y-8682416D01*
X13293015Y-8738985D01*
X13349584Y-8738985D01*
X13349584Y-11024985D02*
X13349584Y-10968416D01*
X13293015Y-10968416D01*
X13293015Y-11024985D01*
X13349584Y-11024985D01*
X13601084Y-8183285D02*
X13601084Y-8126716D01*
X13544515Y-8126716D01*
X13544515Y-8183285D01*
X13601084Y-8183285D01*
X13603584Y-8738985D02*
X13603584Y-8682416D01*
X13547015Y-8682416D01*
X13547015Y-8738985D01*
X13603584Y-8738985D01*
X13603584Y-11024985D02*
X13603584Y-10968416D01*
X13547015Y-10968416D01*
X13547015Y-11024985D01*
X13603584Y-11024985D01*
X13855084Y-8183285D02*
X13855084Y-8126716D01*
X13798515Y-8126716D01*
X13798515Y-8183285D01*
X13855084Y-8183285D01*
X13857584Y-8738985D02*
X13857584Y-8682416D01*
X13801015Y-8682416D01*
X13801015Y-8738985D01*
X13857584Y-8738985D01*
X13857584Y-11024985D02*
X13857584Y-10968416D01*
X13801015Y-10968416D01*
X13801015Y-11024985D01*
X13857584Y-11024985D01*
X14111584Y-8738985D02*
X14111584Y-8682416D01*
X14055015Y-8682416D01*
X14055015Y-8738985D01*
X14111584Y-8738985D01*
X14111584Y-11024985D02*
X14111584Y-10968416D01*
X14055015Y-10968416D01*
X14055015Y-11024985D01*
X14111584Y-11024985D01*
X14365584Y-8738985D02*
X14365584Y-8682416D01*
X14309015Y-8682416D01*
X14309015Y-8738985D01*
X14365584Y-8738985D01*
X14365584Y-11024985D02*
X14365584Y-10968416D01*
X14309015Y-10968416D01*
X14309015Y-11024985D01*
X14365584Y-11024985D01*
X14375084Y-6760285D02*
X14375084Y-6703716D01*
X14318515Y-6703716D01*
X14318515Y-6760285D01*
X14375084Y-6760285D01*
X14375084Y-6960285D02*
X14375084Y-6903716D01*
X14318515Y-6903716D01*
X14318515Y-6960285D01*
X14375084Y-6960285D01*
X14375084Y-7160285D02*
X14375084Y-7103716D01*
X14318515Y-7103716D01*
X14318515Y-7160285D01*
X14375084Y-7160285D01*
X14375084Y-7360285D02*
X14375084Y-7303716D01*
X14318515Y-7303716D01*
X14318515Y-7360285D01*
X14375084Y-7360285D01*
X14375084Y-7560285D02*
X14375084Y-7503716D01*
X14318515Y-7503716D01*
X14318515Y-7560285D01*
X14375084Y-7560285D01*
X14375084Y-7760285D02*
X14375084Y-7703716D01*
X14318515Y-7703716D01*
X14318515Y-7760285D01*
X14375084Y-7760285D01*
X14375084Y-7960285D02*
X14375084Y-7903716D01*
X14318515Y-7903716D01*
X14318515Y-7960285D01*
X14375084Y-7960285D01*
X14619584Y-8738985D02*
X14619584Y-8682416D01*
X14563015Y-8682416D01*
X14563015Y-8738985D01*
X14619584Y-8738985D01*
X14619584Y-11024985D02*
X14619584Y-10968416D01*
X14563015Y-10968416D01*
X14563015Y-11024985D01*
X14619584Y-11024985D01*
X14873584Y-8738985D02*
X14873584Y-8682416D01*
X14817015Y-8682416D01*
X14817015Y-8738985D01*
X14873584Y-8738985D01*
X14873584Y-11024985D02*
X14873584Y-10968416D01*
X14817015Y-10968416D01*
X14817015Y-11024985D01*
X14873584Y-11024985D01*
X15127584Y-8738985D02*
X15127584Y-8682416D01*
X15071015Y-8682416D01*
X15071015Y-8738985D01*
X15127584Y-8738985D01*
X15127584Y-11024985D02*
X15127584Y-10968416D01*
X15071015Y-10968416D01*
X15071015Y-11024985D01*
X15127584Y-11024985D01*
X15279984Y-6173584D02*
X15279984Y-6117015D01*
X15223415Y-6117015D01*
X15223415Y-6173584D01*
X15279984Y-6173584D01*
X15279984Y-6427584D02*
X15279984Y-6371015D01*
X15223415Y-6371015D01*
X15223415Y-6427584D01*
X15279984Y-6427584D01*
X15279984Y-6681584D02*
X15279984Y-6625015D01*
X15223415Y-6625015D01*
X15223415Y-6681584D01*
X15279984Y-6681584D01*
X15279984Y-6935584D02*
X15279984Y-6879015D01*
X15223415Y-6879015D01*
X15223415Y-6935584D01*
X15279984Y-6935584D01*
X15381584Y-8738985D02*
X15381584Y-8682416D01*
X15325015Y-8682416D01*
X15325015Y-8738985D01*
X15381584Y-8738985D01*
X15381584Y-11024985D02*
X15381584Y-10968416D01*
X15325015Y-10968416D01*
X15325015Y-11024985D01*
X15381584Y-11024985D01*
X15635584Y-8738985D02*
X15635584Y-8682416D01*
X15579015Y-8682416D01*
X15579015Y-8738985D01*
X15635584Y-8738985D01*
X15635584Y-11024985D02*
X15635584Y-10968416D01*
X15579015Y-10968416D01*
X15579015Y-11024985D01*
X15635584Y-11024985D01*
X15889584Y-8738985D02*
X15889584Y-8682416D01*
X15833015Y-8682416D01*
X15833015Y-8738985D01*
X15889584Y-8738985D01*
X15889584Y-11024985D02*
X15889584Y-10968416D01*
X15833015Y-10968416D01*
X15833015Y-11024985D01*
X15889584Y-11024985D01*
X16143584Y-8738985D02*
X16143584Y-8682416D01*
X16087015Y-8682416D01*
X16087015Y-8738985D01*
X16143584Y-8738985D01*
X16143584Y-11024985D02*
X16143584Y-10968416D01*
X16087015Y-10968416D01*
X16087015Y-11024985D01*
X16143584Y-11024985D01*
X16397584Y-8738985D02*
X16397584Y-8682416D01*
X16341015Y-8682416D01*
X16341015Y-8738985D01*
X16397584Y-8738985D01*
X16397584Y-11024985D02*
X16397584Y-10968416D01*
X16341015Y-10968416D01*
X16341015Y-11024985D01*
X16397584Y-11024985D01*
X16651584Y-8738985D02*
X16651584Y-8682416D01*
X16595015Y-8682416D01*
X16595015Y-8738985D01*
X16651584Y-8738985D01*
X16651584Y-11024985D02*
X16651584Y-10968416D01*
X16595015Y-10968416D01*
X16595015Y-11024985D01*
X16651584Y-11024985D01*
X16905585Y-8738985D02*
X16905585Y-8682416D01*
X16849016Y-8682416D01*
X16849016Y-8738985D01*
X16905585Y-8738985D01*
X16905585Y-11024985D02*
X16905585Y-10968416D01*
X16849016Y-10968416D01*
X16849016Y-11024985D01*
X16905585Y-11024985D01*
X17159585Y-8738985D02*
X17159585Y-8682416D01*
X17103016Y-8682416D01*
X17103016Y-8738985D01*
X17159585Y-8738985D01*
X17159585Y-11024985D02*
X17159585Y-10968416D01*
X17103016Y-10968416D01*
X17103016Y-11024985D01*
X17159585Y-11024985D01*
X17413585Y-8738985D02*
X17413585Y-8682416D01*
X17357016Y-8682416D01*
X17357016Y-8738985D01*
X17413585Y-8738985D01*
X17413585Y-11024985D02*
X17413585Y-10968416D01*
X17357016Y-10968416D01*
X17357016Y-11024985D01*
X17413585Y-11024985D01*
X17667585Y-8738985D02*
X17667585Y-8682416D01*
X17611016Y-8682416D01*
X17611016Y-8738985D01*
X17667585Y-8738985D01*
X17667585Y-11024985D02*
X17667585Y-10968416D01*
X17611016Y-10968416D01*
X17611016Y-11024985D01*
X17667585Y-11024985D01*
X13067300Y-9116300D02*
X13117300Y-9066300D01*
X13067300Y-9016300D01*
X13017300Y-9066300D01*
X13067300Y-9116300D01*
X13067300Y-10618000D02*
X13117300Y-10568000D01*
X13067300Y-10518000D01*
X13017300Y-10568000D01*
X13067300Y-10618000D01*
X13321300Y-9116300D02*
X13371300Y-9066300D01*
X13321300Y-9016300D01*
X13271300Y-9066300D01*
X13321300Y-9116300D01*
X13321300Y-10618000D02*
X13371300Y-10568000D01*
X13321300Y-10518000D01*
X13271300Y-10568000D01*
X13321300Y-10618000D01*
X13575300Y-9116300D02*
X13625300Y-9066300D01*
X13575300Y-9016300D01*
X13525300Y-9066300D01*
X13575300Y-9116300D01*
X13575300Y-10618000D02*
X13625300Y-10568000D01*
X13575300Y-10518000D01*
X13525300Y-10568000D01*
X13575300Y-10618000D01*
X13829300Y-9116300D02*
X13879300Y-9066300D01*
X13829300Y-9016300D01*
X13779300Y-9066300D01*
X13829300Y-9116300D01*
X13829300Y-10618000D02*
X13879300Y-10568000D01*
X13829300Y-10518000D01*
X13779300Y-10568000D01*
X13829300Y-10618000D01*
X14083300Y-9116300D02*
X14133300Y-9066300D01*
X14083300Y-9016300D01*
X14033300Y-9066300D01*
X14083300Y-9116300D01*
X14083300Y-10618000D02*
X14133300Y-10568000D01*
X14083300Y-10518000D01*
X14033300Y-10568000D01*
X14083300Y-10618000D01*
X14337300Y-9116300D02*
X14387300Y-9066300D01*
X14337300Y-9016300D01*
X14287300Y-9066300D01*
X14337300Y-9116300D01*
X14337300Y-10618000D02*
X14387300Y-10568000D01*
X14337300Y-10518000D01*
X14287300Y-10568000D01*
X14337300Y-10618000D01*
X14591300Y-9116300D02*
X14641300Y-9066300D01*
X14591300Y-9016300D01*
X14541300Y-9066300D01*
X14591300Y-9116300D01*
X14591300Y-10618000D02*
X14641300Y-10568000D01*
X14591300Y-10518000D01*
X14541300Y-10568000D01*
X14591300Y-10618000D01*
X14845300Y-9116300D02*
X14895300Y-9066300D01*
X14845300Y-9016300D01*
X14795300Y-9066300D01*
X14845300Y-9116300D01*
X14845300Y-10618000D02*
X14895300Y-10568000D01*
X14845300Y-10518000D01*
X14795300Y-10568000D01*
X14845300Y-10618000D01*
X15099300Y-9116300D02*
X15149300Y-9066300D01*
X15099300Y-9016300D01*
X15049300Y-9066300D01*
X15099300Y-9116300D01*
X15099300Y-10618000D02*
X15149300Y-10568000D01*
X15099300Y-10518000D01*
X15049300Y-10568000D01*
X15099300Y-10618000D01*
X15353300Y-9116300D02*
X15403300Y-9066300D01*
X15353300Y-9016300D01*
X15303300Y-9066300D01*
X15353300Y-9116300D01*
X15353300Y-10618000D02*
X15403300Y-10568000D01*
X15353300Y-10518000D01*
X15303300Y-10568000D01*
X15353300Y-10618000D01*
X15607300Y-9116300D02*
X15657300Y-9066300D01*
X15607300Y-9016300D01*
X15557300Y-9066300D01*
X15607300Y-9116300D01*
X15607300Y-10618000D02*
X15657300Y-10568000D01*
X15607300Y-10518000D01*
X15557300Y-10568000D01*
X15607300Y-10618000D01*
X15861300Y-9116300D02*
X15911300Y-9066300D01*
X15861300Y-9016300D01*
X15811300Y-9066300D01*
X15861300Y-9116300D01*
X15861300Y-10618000D02*
X15911300Y-10568000D01*
X15861300Y-10518000D01*
X15811300Y-10568000D01*
X15861300Y-10618000D01*
X16115300Y-9116300D02*
X16165300Y-9066300D01*
X16115300Y-9016300D01*
X16065300Y-9066300D01*
X16115300Y-9116300D01*
X16115300Y-10618000D02*
X16165300Y-10568000D01*
X16115300Y-10518000D01*
X16065300Y-10568000D01*
X16115300Y-10618000D01*
X16369300Y-9116300D02*
X16419300Y-9066300D01*
X16369300Y-9016300D01*
X16319300Y-9066300D01*
X16369300Y-9116300D01*
X16369300Y-10618000D02*
X16419300Y-10568000D01*
X16369300Y-10518000D01*
X16319300Y-10568000D01*
X16369300Y-10618000D01*
X16420100Y-7998700D02*
X16470100Y-7948700D01*
X16420100Y-7898700D01*
X16370100Y-7948700D01*
X16420100Y-7998700D01*
X16460100Y-8048700D02*
X16460100Y-7848700D01*
X16380100Y-8048700D02*
X16380100Y-7848700D01*
X16460100Y-7848700D02*
G75*
G03*
X16380100Y-7848700I-40000J0D01*
G01*
X16380100Y-8048700D02*
G75*
G03*
X16460100Y-8048700I40000J0D01*
G01*
X16623300Y-9116300D02*
X16673300Y-9066300D01*
X16623300Y-9016300D01*
X16573300Y-9066300D01*
X16623300Y-9116300D01*
X16623300Y-10618000D02*
X16673300Y-10568000D01*
X16623300Y-10518000D01*
X16573300Y-10568000D01*
X16623300Y-10618000D01*
X16720100Y-7528700D02*
X16770100Y-7478700D01*
X16720100Y-7428700D01*
X16670100Y-7478700D01*
X16720100Y-7528700D01*
X16820100Y-7438700D02*
X16620100Y-7438700D01*
X16820100Y-7518700D02*
X16620100Y-7518700D01*
X16620100Y-7438700D02*
G75*
G03*
X16620100Y-7518700I0J-40000D01*
G01*
X16820100Y-7518700D02*
G75*
G03*
X16820100Y-7438700I0J40000D01*
G01*
X16877300Y-9116300D02*
X16927300Y-9066300D01*
X16877300Y-9016300D01*
X16827300Y-9066300D01*
X16877300Y-9116300D01*
X16877300Y-10618000D02*
X16927300Y-10568000D01*
X16877300Y-10518000D01*
X16827300Y-10568000D01*
X16877300Y-10618000D01*
X17020100Y-7998700D02*
X17070100Y-7948700D01*
X17020100Y-7898700D01*
X16970100Y-7948700D01*
X17020100Y-7998700D01*
X17060100Y-8048700D02*
X17060100Y-7848700D01*
X16980100Y-8048700D02*
X16980100Y-7848700D01*
X17060100Y-7848700D02*
G75*
G03*
X16980100Y-7848700I-40000J0D01*
G01*
X16980100Y-8048700D02*
G75*
G03*
X17060100Y-8048700I40000J0D01*
G01*
X17131300Y-9116300D02*
X17181300Y-9066300D01*
X17131300Y-9016300D01*
X17081300Y-9066300D01*
X17131300Y-9116300D01*
X17131300Y-10618000D02*
X17181300Y-10568000D01*
X17131300Y-10518000D01*
X17081300Y-10568000D01*
X17131300Y-10618000D01*
X17385300Y-9116300D02*
X17435300Y-9066300D01*
X17385300Y-9016300D01*
X17335300Y-9066300D01*
X17385300Y-9116300D01*
X17385300Y-10618000D02*
X17435300Y-10568000D01*
X17385300Y-10518000D01*
X17335300Y-10568000D01*
X17385300Y-10618000D01*
X17639300Y-9116300D02*
X17689300Y-9066300D01*
X17639300Y-9016300D01*
X17589300Y-9066300D01*
X17639300Y-9116300D01*
X17639300Y-10618000D02*
X17689300Y-10568000D01*
X17639300Y-10518000D01*
X17589300Y-10568000D01*
X17639300Y-10618000D01*
X8126500Y-5999500D02*
X8346500Y-6219500D01*
X8346500Y-5999500D02*
X8126500Y-6219500D01*
X8346500Y-6109500D02*
G75*
G03*
X8346500Y-6109500I-110000J0D01*
G01*
X8126500Y-11399500D02*
X8346500Y-11619500D01*
X8346500Y-11399500D02*
X8126500Y-11619500D01*
X8346500Y-11509500D02*
G75*
G03*
X8346500Y-11509500I-110000J0D01*
G01*
X17526500Y-5999500D02*
X17746500Y-6219500D01*
X17746500Y-5999500D02*
X17526500Y-6219500D01*
X17746500Y-6109500D02*
G75*
G03*
X17746500Y-6109500I-110000J0D01*
G01*
X17526500Y-11399500D02*
X17746500Y-11619500D01*
X17746500Y-11399500D02*
X17526500Y-11619500D01*
X17746500Y-11509500D02*
G75*
G03*
X17746500Y-11509500I-110000J0D01*
G01*
D12*
X7972928Y-12525214D02*
X7972928Y-12225214D01*
X8044357Y-12225214D01*
X8087214Y-12239500D01*
X8115786Y-12268071D01*
X8130071Y-12296643D01*
X8144357Y-12353786D01*
X8144357Y-12396643D01*
X8130071Y-12453786D01*
X8115786Y-12482357D01*
X8087214Y-12510928D01*
X8044357Y-12525214D01*
X7972928Y-12525214D01*
X8272928Y-12525214D02*
X8272928Y-12325214D01*
X8272928Y-12382357D02*
X8287214Y-12353786D01*
X8301500Y-12339500D01*
X8330071Y-12325214D01*
X8358643Y-12325214D01*
X8458643Y-12525214D02*
X8458643Y-12325214D01*
X8458643Y-12225214D02*
X8444357Y-12239500D01*
X8458643Y-12253786D01*
X8472929Y-12239500D01*
X8458643Y-12225214D01*
X8458643Y-12253786D01*
X8644357Y-12525214D02*
X8615786Y-12510928D01*
X8601500Y-12482357D01*
X8601500Y-12225214D01*
X8801500Y-12525214D02*
X8772929Y-12510928D01*
X8758643Y-12482357D01*
X8758643Y-12225214D01*
X9144357Y-12525214D02*
X9144357Y-12225214D01*
X9244357Y-12439500D01*
X9344357Y-12225214D01*
X9344357Y-12525214D01*
X9615786Y-12525214D02*
X9615786Y-12368071D01*
X9601500Y-12339500D01*
X9572929Y-12325214D01*
X9515786Y-12325214D01*
X9487214Y-12339500D01*
X9615786Y-12510928D02*
X9587214Y-12525214D01*
X9515786Y-12525214D01*
X9487214Y-12510928D01*
X9472929Y-12482357D01*
X9472929Y-12453786D01*
X9487214Y-12425214D01*
X9515786Y-12410928D01*
X9587214Y-12410928D01*
X9615786Y-12396643D01*
X9758643Y-12325214D02*
X9758643Y-12625214D01*
X9758643Y-12339500D02*
X9787214Y-12325214D01*
X9844357Y-12325214D01*
X9872929Y-12339500D01*
X9887214Y-12353786D01*
X9901500Y-12382357D01*
X9901500Y-12468071D01*
X9887214Y-12496643D01*
X9872929Y-12510928D01*
X9844357Y-12525214D01*
X9787214Y-12525214D01*
X9758643Y-12510928D01*
X10030071Y-12496643D02*
X10044357Y-12510928D01*
X10030071Y-12525214D01*
X10015786Y-12510928D01*
X10030071Y-12496643D01*
X10030071Y-12525214D01*
X10030071Y-12339500D02*
X10044357Y-12353786D01*
X10030071Y-12368071D01*
X10015786Y-12353786D01*
X10030071Y-12339500D01*
X10030071Y-12368071D01*
X7646500Y-12999500D02*
X7686500Y-13039500D01*
X7686500Y-12999500D02*
X7646500Y-13039500D01*
X8030071Y-12855214D02*
X8058643Y-12855214D01*
X8087214Y-12869500D01*
X8101500Y-12883786D01*
X8115786Y-12912357D01*
X8130071Y-12969500D01*
X8130071Y-13040928D01*
X8115786Y-13098071D01*
X8101500Y-13126643D01*
X8087214Y-13140928D01*
X8058643Y-13155214D01*
X8030071Y-13155214D01*
X8001500Y-13140928D01*
X7987214Y-13126643D01*
X7972928Y-13098071D01*
X7958643Y-13040928D01*
X7958643Y-12969500D01*
X7972928Y-12912357D01*
X7987214Y-12883786D01*
X8001500Y-12869500D01*
X8030071Y-12855214D01*
X8258643Y-13126643D02*
X8272928Y-13140928D01*
X8258643Y-13155214D01*
X8244357Y-13140928D01*
X8258643Y-13126643D01*
X8258643Y-13155214D01*
X8530071Y-12955214D02*
X8530071Y-13155214D01*
X8458643Y-12840928D02*
X8387214Y-13055214D01*
X8572929Y-13055214D01*
X8744357Y-12855214D02*
X8772929Y-12855214D01*
X8801500Y-12869500D01*
X8815786Y-12883786D01*
X8830071Y-12912357D01*
X8844357Y-12969500D01*
X8844357Y-13040928D01*
X8830071Y-13098071D01*
X8815786Y-13126643D01*
X8801500Y-13140928D01*
X8772929Y-13155214D01*
X8744357Y-13155214D01*
X8715786Y-13140928D01*
X8701500Y-13126643D01*
X8687214Y-13098071D01*
X8672929Y-13040928D01*
X8672929Y-12969500D01*
X8687214Y-12912357D01*
X8701500Y-12883786D01*
X8715786Y-12869500D01*
X8744357Y-12855214D01*
X9030071Y-12855214D02*
X9058643Y-12855214D01*
X9087214Y-12869500D01*
X9101500Y-12883786D01*
X9115786Y-12912357D01*
X9130071Y-12969500D01*
X9130071Y-13040928D01*
X9115786Y-13098071D01*
X9101500Y-13126643D01*
X9087214Y-13140928D01*
X9058643Y-13155214D01*
X9030071Y-13155214D01*
X9001500Y-13140928D01*
X8987214Y-13126643D01*
X8972929Y-13098071D01*
X8958643Y-13040928D01*
X8958643Y-12969500D01*
X8972929Y-12912357D01*
X8987214Y-12883786D01*
X9001500Y-12869500D01*
X9030071Y-12855214D01*
X9258643Y-13155214D02*
X9258643Y-12955214D01*
X9258643Y-12983786D02*
X9272929Y-12969500D01*
X9301500Y-12955214D01*
X9344357Y-12955214D01*
X9372929Y-12969500D01*
X9387214Y-12998071D01*
X9387214Y-13155214D01*
X9387214Y-12998071D02*
X9401500Y-12969500D01*
X9430071Y-12955214D01*
X9472929Y-12955214D01*
X9501500Y-12969500D01*
X9515786Y-12998071D01*
X9515786Y-13155214D01*
X9658643Y-13155214D02*
X9658643Y-12955214D01*
X9658643Y-12983786D02*
X9672929Y-12969500D01*
X9701500Y-12955214D01*
X9744357Y-12955214D01*
X9772929Y-12969500D01*
X9787214Y-12998071D01*
X9787214Y-13155214D01*
X9787214Y-12998071D02*
X9801500Y-12969500D01*
X9830071Y-12955214D01*
X9872929Y-12955214D01*
X9901500Y-12969500D01*
X9915786Y-12998071D01*
X9915786Y-13155214D01*
X10501500Y-12840928D02*
X10244357Y-13226643D01*
X10887214Y-12855214D02*
X10915786Y-12855214D01*
X10944357Y-12869500D01*
X10958643Y-12883786D01*
X10972929Y-12912357D01*
X10987214Y-12969500D01*
X10987214Y-13040928D01*
X10972929Y-13098071D01*
X10958643Y-13126643D01*
X10944357Y-13140928D01*
X10915786Y-13155214D01*
X10887214Y-13155214D01*
X10858643Y-13140928D01*
X10844357Y-13126643D01*
X10830071Y-13098071D01*
X10815786Y-13040928D01*
X10815786Y-12969500D01*
X10830071Y-12912357D01*
X10844357Y-12883786D01*
X10858643Y-12869500D01*
X10887214Y-12855214D01*
X11115786Y-13126643D02*
X11130071Y-13140928D01*
X11115786Y-13155214D01*
X11101500Y-13140928D01*
X11115786Y-13126643D01*
X11115786Y-13155214D01*
X11315786Y-12855214D02*
X11344357Y-12855214D01*
X11372928Y-12869500D01*
X11387214Y-12883786D01*
X11401500Y-12912357D01*
X11415786Y-12969500D01*
X11415786Y-13040928D01*
X11401500Y-13098071D01*
X11387214Y-13126643D01*
X11372928Y-13140928D01*
X11344357Y-13155214D01*
X11315786Y-13155214D01*
X11287214Y-13140928D01*
X11272928Y-13126643D01*
X11258643Y-13098071D01*
X11244357Y-13040928D01*
X11244357Y-12969500D01*
X11258643Y-12912357D01*
X11272928Y-12883786D01*
X11287214Y-12869500D01*
X11315786Y-12855214D01*
X11701500Y-13155214D02*
X11530071Y-13155214D01*
X11615786Y-13155214D02*
X11615786Y-12855214D01*
X11587214Y-12898071D01*
X11558643Y-12926643D01*
X11530071Y-12940928D01*
X11972928Y-12855214D02*
X11830071Y-12855214D01*
X11815786Y-12998071D01*
X11830071Y-12983786D01*
X11858643Y-12969500D01*
X11930071Y-12969500D01*
X11958643Y-12983786D01*
X11972928Y-12998071D01*
X11987214Y-13026643D01*
X11987214Y-13098071D01*
X11972928Y-13126643D01*
X11958643Y-13140928D01*
X11930071Y-13155214D01*
X11858643Y-13155214D01*
X11830071Y-13140928D01*
X11815786Y-13126643D01*
X12087214Y-12855214D02*
X12287214Y-12855214D01*
X12158643Y-13155214D01*
X12387214Y-12855214D02*
X12387214Y-12912357D01*
X12501500Y-12855214D02*
X12501500Y-12912357D01*
X12944357Y-13269500D02*
X12930071Y-13255214D01*
X12901500Y-13212357D01*
X12887214Y-13183786D01*
X12872928Y-13140928D01*
X12858643Y-13069500D01*
X12858643Y-13012357D01*
X12872928Y-12940928D01*
X12887214Y-12898071D01*
X12901500Y-12869500D01*
X12930071Y-12826643D01*
X12944357Y-12812357D01*
X13215786Y-13155214D02*
X13044357Y-13155214D01*
X13130071Y-13155214D02*
X13130071Y-12855214D01*
X13101500Y-12898071D01*
X13072928Y-12926643D01*
X13044357Y-12940928D01*
X13315786Y-12855214D02*
X13515786Y-12855214D01*
X13387214Y-13155214D01*
X13858643Y-13155214D02*
X13858643Y-12855214D01*
X13987214Y-13155214D02*
X13987214Y-12998071D01*
X13972928Y-12969500D01*
X13944357Y-12955214D01*
X13901500Y-12955214D01*
X13872928Y-12969500D01*
X13858643Y-12983786D01*
X14172928Y-13155214D02*
X14144357Y-13140928D01*
X14130071Y-13126643D01*
X14115786Y-13098071D01*
X14115786Y-13012357D01*
X14130071Y-12983786D01*
X14144357Y-12969500D01*
X14172928Y-12955214D01*
X14215786Y-12955214D01*
X14244357Y-12969500D01*
X14258643Y-12983786D01*
X14272928Y-13012357D01*
X14272928Y-13098071D01*
X14258643Y-13126643D01*
X14244357Y-13140928D01*
X14215786Y-13155214D01*
X14172928Y-13155214D01*
X14444357Y-13155214D02*
X14415786Y-13140928D01*
X14401500Y-13112357D01*
X14401500Y-12855214D01*
X14672928Y-13140928D02*
X14644357Y-13155214D01*
X14587214Y-13155214D01*
X14558643Y-13140928D01*
X14544357Y-13112357D01*
X14544357Y-12998071D01*
X14558643Y-12969500D01*
X14587214Y-12955214D01*
X14644357Y-12955214D01*
X14672928Y-12969500D01*
X14687214Y-12998071D01*
X14687214Y-13026643D01*
X14544357Y-13055214D01*
X14801500Y-13140928D02*
X14830071Y-13155214D01*
X14887214Y-13155214D01*
X14915786Y-13140928D01*
X14930071Y-13112357D01*
X14930071Y-13098071D01*
X14915786Y-13069500D01*
X14887214Y-13055214D01*
X14844357Y-13055214D01*
X14815786Y-13040928D01*
X14801500Y-13012357D01*
X14801500Y-12998071D01*
X14815786Y-12969500D01*
X14844357Y-12955214D01*
X14887214Y-12955214D01*
X14915786Y-12969500D01*
X15030071Y-13269500D02*
X15044357Y-13255214D01*
X15072928Y-13212357D01*
X15087214Y-13183786D01*
X15101500Y-13140928D01*
X15115786Y-13069500D01*
X15115786Y-13012357D01*
X15101500Y-12940928D01*
X15087214Y-12898071D01*
X15072928Y-12869500D01*
X15044357Y-12826643D01*
X15030071Y-12812357D01*
X7686500Y-13415500D02*
G75*
G03*
X7686500Y-13415500I-30000J0D01*
G01*
X8030071Y-13251214D02*
X8058643Y-13251214D01*
X8087214Y-13265500D01*
X8101500Y-13279786D01*
X8115786Y-13308357D01*
X8130071Y-13365500D01*
X8130071Y-13436928D01*
X8115786Y-13494071D01*
X8101500Y-13522643D01*
X8087214Y-13536928D01*
X8058643Y-13551214D01*
X8030071Y-13551214D01*
X8001500Y-13536928D01*
X7987214Y-13522643D01*
X7972928Y-13494071D01*
X7958643Y-13436928D01*
X7958643Y-13365500D01*
X7972928Y-13308357D01*
X7987214Y-13279786D01*
X8001500Y-13265500D01*
X8030071Y-13251214D01*
X8258643Y-13522643D02*
X8272928Y-13536928D01*
X8258643Y-13551214D01*
X8244357Y-13536928D01*
X8258643Y-13522643D01*
X8258643Y-13551214D01*
X8530071Y-13251214D02*
X8472929Y-13251214D01*
X8444357Y-13265500D01*
X8430071Y-13279786D01*
X8401500Y-13322643D01*
X8387214Y-13379786D01*
X8387214Y-13494071D01*
X8401500Y-13522643D01*
X8415786Y-13536928D01*
X8444357Y-13551214D01*
X8501500Y-13551214D01*
X8530071Y-13536928D01*
X8544357Y-13522643D01*
X8558643Y-13494071D01*
X8558643Y-13422643D01*
X8544357Y-13394071D01*
X8530071Y-13379786D01*
X8501500Y-13365500D01*
X8444357Y-13365500D01*
X8415786Y-13379786D01*
X8401500Y-13394071D01*
X8387214Y-13422643D01*
X8744357Y-13251214D02*
X8772929Y-13251214D01*
X8801500Y-13265500D01*
X8815786Y-13279786D01*
X8830071Y-13308357D01*
X8844357Y-13365500D01*
X8844357Y-13436928D01*
X8830071Y-13494071D01*
X8815786Y-13522643D01*
X8801500Y-13536928D01*
X8772929Y-13551214D01*
X8744357Y-13551214D01*
X8715786Y-13536928D01*
X8701500Y-13522643D01*
X8687214Y-13494071D01*
X8672929Y-13436928D01*
X8672929Y-13365500D01*
X8687214Y-13308357D01*
X8701500Y-13279786D01*
X8715786Y-13265500D01*
X8744357Y-13251214D01*
X9030071Y-13251214D02*
X9058643Y-13251214D01*
X9087214Y-13265500D01*
X9101500Y-13279786D01*
X9115786Y-13308357D01*
X9130071Y-13365500D01*
X9130071Y-13436928D01*
X9115786Y-13494071D01*
X9101500Y-13522643D01*
X9087214Y-13536928D01*
X9058643Y-13551214D01*
X9030071Y-13551214D01*
X9001500Y-13536928D01*
X8987214Y-13522643D01*
X8972929Y-13494071D01*
X8958643Y-13436928D01*
X8958643Y-13365500D01*
X8972929Y-13308357D01*
X8987214Y-13279786D01*
X9001500Y-13265500D01*
X9030071Y-13251214D01*
X9258643Y-13551214D02*
X9258643Y-13351214D01*
X9258643Y-13379786D02*
X9272929Y-13365500D01*
X9301500Y-13351214D01*
X9344357Y-13351214D01*
X9372929Y-13365500D01*
X9387214Y-13394071D01*
X9387214Y-13551214D01*
X9387214Y-13394071D02*
X9401500Y-13365500D01*
X9430071Y-13351214D01*
X9472929Y-13351214D01*
X9501500Y-13365500D01*
X9515786Y-13394071D01*
X9515786Y-13551214D01*
X9658643Y-13551214D02*
X9658643Y-13351214D01*
X9658643Y-13379786D02*
X9672929Y-13365500D01*
X9701500Y-13351214D01*
X9744357Y-13351214D01*
X9772929Y-13365500D01*
X9787214Y-13394071D01*
X9787214Y-13551214D01*
X9787214Y-13394071D02*
X9801500Y-13365500D01*
X9830071Y-13351214D01*
X9872929Y-13351214D01*
X9901500Y-13365500D01*
X9915786Y-13394071D01*
X9915786Y-13551214D01*
X10501500Y-13236928D02*
X10244357Y-13622643D01*
X10887214Y-13251214D02*
X10915786Y-13251214D01*
X10944357Y-13265500D01*
X10958643Y-13279786D01*
X10972929Y-13308357D01*
X10987214Y-13365500D01*
X10987214Y-13436928D01*
X10972929Y-13494071D01*
X10958643Y-13522643D01*
X10944357Y-13536928D01*
X10915786Y-13551214D01*
X10887214Y-13551214D01*
X10858643Y-13536928D01*
X10844357Y-13522643D01*
X10830071Y-13494071D01*
X10815786Y-13436928D01*
X10815786Y-13365500D01*
X10830071Y-13308357D01*
X10844357Y-13279786D01*
X10858643Y-13265500D01*
X10887214Y-13251214D01*
X11115786Y-13522643D02*
X11130071Y-13536928D01*
X11115786Y-13551214D01*
X11101500Y-13536928D01*
X11115786Y-13522643D01*
X11115786Y-13551214D01*
X11315786Y-13251214D02*
X11344357Y-13251214D01*
X11372928Y-13265500D01*
X11387214Y-13279786D01*
X11401500Y-13308357D01*
X11415786Y-13365500D01*
X11415786Y-13436928D01*
X11401500Y-13494071D01*
X11387214Y-13522643D01*
X11372928Y-13536928D01*
X11344357Y-13551214D01*
X11315786Y-13551214D01*
X11287214Y-13536928D01*
X11272928Y-13522643D01*
X11258643Y-13494071D01*
X11244357Y-13436928D01*
X11244357Y-13365500D01*
X11258643Y-13308357D01*
X11272928Y-13279786D01*
X11287214Y-13265500D01*
X11315786Y-13251214D01*
X11530071Y-13279786D02*
X11544357Y-13265500D01*
X11572928Y-13251214D01*
X11644357Y-13251214D01*
X11672928Y-13265500D01*
X11687214Y-13279786D01*
X11701500Y-13308357D01*
X11701500Y-13336928D01*
X11687214Y-13379786D01*
X11515786Y-13551214D01*
X11701500Y-13551214D01*
X11801500Y-13251214D02*
X11987214Y-13251214D01*
X11887214Y-13365500D01*
X11930071Y-13365500D01*
X11958643Y-13379786D01*
X11972928Y-13394071D01*
X11987214Y-13422643D01*
X11987214Y-13494071D01*
X11972928Y-13522643D01*
X11958643Y-13536928D01*
X11930071Y-13551214D01*
X11844357Y-13551214D01*
X11815786Y-13536928D01*
X11801500Y-13522643D01*
X12244357Y-13251214D02*
X12187214Y-13251214D01*
X12158643Y-13265500D01*
X12144357Y-13279786D01*
X12115786Y-13322643D01*
X12101500Y-13379786D01*
X12101500Y-13494071D01*
X12115786Y-13522643D01*
X12130071Y-13536928D01*
X12158643Y-13551214D01*
X12215786Y-13551214D01*
X12244357Y-13536928D01*
X12258643Y-13522643D01*
X12272928Y-13494071D01*
X12272928Y-13422643D01*
X12258643Y-13394071D01*
X12244357Y-13379786D01*
X12215786Y-13365500D01*
X12158643Y-13365500D01*
X12130071Y-13379786D01*
X12115786Y-13394071D01*
X12101500Y-13422643D01*
X12387214Y-13251214D02*
X12387214Y-13308357D01*
X12501500Y-13251214D02*
X12501500Y-13308357D01*
X12944357Y-13665500D02*
X12930071Y-13651214D01*
X12901500Y-13608357D01*
X12887214Y-13579786D01*
X12872928Y-13536928D01*
X12858643Y-13465500D01*
X12858643Y-13408357D01*
X12872928Y-13336928D01*
X12887214Y-13294071D01*
X12901500Y-13265500D01*
X12930071Y-13222643D01*
X12944357Y-13208357D01*
X13215786Y-13551214D02*
X13044357Y-13551214D01*
X13130071Y-13551214D02*
X13130071Y-13251214D01*
X13101500Y-13294071D01*
X13072928Y-13322643D01*
X13044357Y-13336928D01*
X13401500Y-13251214D02*
X13430071Y-13251214D01*
X13458643Y-13265500D01*
X13472928Y-13279786D01*
X13487214Y-13308357D01*
X13501500Y-13365500D01*
X13501500Y-13436928D01*
X13487214Y-13494071D01*
X13472928Y-13522643D01*
X13458643Y-13536928D01*
X13430071Y-13551214D01*
X13401500Y-13551214D01*
X13372928Y-13536928D01*
X13358643Y-13522643D01*
X13344357Y-13494071D01*
X13330071Y-13436928D01*
X13330071Y-13365500D01*
X13344357Y-13308357D01*
X13358643Y-13279786D01*
X13372928Y-13265500D01*
X13401500Y-13251214D01*
X13858643Y-13551214D02*
X13858643Y-13251214D01*
X13987214Y-13551214D02*
X13987214Y-13394071D01*
X13972928Y-13365500D01*
X13944357Y-13351214D01*
X13901500Y-13351214D01*
X13872928Y-13365500D01*
X13858643Y-13379786D01*
X14172928Y-13551214D02*
X14144357Y-13536928D01*
X14130071Y-13522643D01*
X14115786Y-13494071D01*
X14115786Y-13408357D01*
X14130071Y-13379786D01*
X14144357Y-13365500D01*
X14172928Y-13351214D01*
X14215786Y-13351214D01*
X14244357Y-13365500D01*
X14258643Y-13379786D01*
X14272928Y-13408357D01*
X14272928Y-13494071D01*
X14258643Y-13522643D01*
X14244357Y-13536928D01*
X14215786Y-13551214D01*
X14172928Y-13551214D01*
X14444357Y-13551214D02*
X14415786Y-13536928D01*
X14401500Y-13508357D01*
X14401500Y-13251214D01*
X14672928Y-13536928D02*
X14644357Y-13551214D01*
X14587214Y-13551214D01*
X14558643Y-13536928D01*
X14544357Y-13508357D01*
X14544357Y-13394071D01*
X14558643Y-13365500D01*
X14587214Y-13351214D01*
X14644357Y-13351214D01*
X14672928Y-13365500D01*
X14687214Y-13394071D01*
X14687214Y-13422643D01*
X14544357Y-13451214D01*
X14801500Y-13536928D02*
X14830071Y-13551214D01*
X14887214Y-13551214D01*
X14915786Y-13536928D01*
X14930071Y-13508357D01*
X14930071Y-13494071D01*
X14915786Y-13465500D01*
X14887214Y-13451214D01*
X14844357Y-13451214D01*
X14815786Y-13436928D01*
X14801500Y-13408357D01*
X14801500Y-13394071D01*
X14815786Y-13365500D01*
X14844357Y-13351214D01*
X14887214Y-13351214D01*
X14915786Y-13365500D01*
X15030071Y-13665500D02*
X15044357Y-13651214D01*
X15072928Y-13608357D01*
X15087214Y-13579786D01*
X15101500Y-13536928D01*
X15115786Y-13465500D01*
X15115786Y-13408357D01*
X15101500Y-13336928D01*
X15087214Y-13294071D01*
X15072928Y-13265500D01*
X15044357Y-13222643D01*
X15030071Y-13208357D01*
X7648400Y-13773400D02*
X7648400Y-13849600D01*
X7610300Y-13811500D02*
X7686500Y-13811500D01*
X8030071Y-13647214D02*
X8058643Y-13647214D01*
X8087214Y-13661500D01*
X8101500Y-13675786D01*
X8115786Y-13704357D01*
X8130071Y-13761500D01*
X8130071Y-13832928D01*
X8115786Y-13890071D01*
X8101500Y-13918643D01*
X8087214Y-13932928D01*
X8058643Y-13947214D01*
X8030071Y-13947214D01*
X8001500Y-13932928D01*
X7987214Y-13918643D01*
X7972928Y-13890071D01*
X7958643Y-13832928D01*
X7958643Y-13761500D01*
X7972928Y-13704357D01*
X7987214Y-13675786D01*
X8001500Y-13661500D01*
X8030071Y-13647214D01*
X8258643Y-13918643D02*
X8272928Y-13932928D01*
X8258643Y-13947214D01*
X8244357Y-13932928D01*
X8258643Y-13918643D01*
X8258643Y-13947214D01*
X8372928Y-13647214D02*
X8572929Y-13647214D01*
X8444357Y-13947214D01*
X8815786Y-13647214D02*
X8758643Y-13647214D01*
X8730071Y-13661500D01*
X8715786Y-13675786D01*
X8687214Y-13718643D01*
X8672929Y-13775786D01*
X8672929Y-13890071D01*
X8687214Y-13918643D01*
X8701500Y-13932928D01*
X8730071Y-13947214D01*
X8787214Y-13947214D01*
X8815786Y-13932928D01*
X8830071Y-13918643D01*
X8844357Y-13890071D01*
X8844357Y-13818643D01*
X8830071Y-13790071D01*
X8815786Y-13775786D01*
X8787214Y-13761500D01*
X8730071Y-13761500D01*
X8701500Y-13775786D01*
X8687214Y-13790071D01*
X8672929Y-13818643D01*
X8958643Y-13675786D02*
X8972929Y-13661500D01*
X9001500Y-13647214D01*
X9072929Y-13647214D01*
X9101500Y-13661500D01*
X9115786Y-13675786D01*
X9130071Y-13704357D01*
X9130071Y-13732928D01*
X9115786Y-13775786D01*
X8944357Y-13947214D01*
X9130071Y-13947214D01*
X9258643Y-13947214D02*
X9258643Y-13747214D01*
X9258643Y-13775786D02*
X9272929Y-13761500D01*
X9301500Y-13747214D01*
X9344357Y-13747214D01*
X9372929Y-13761500D01*
X9387214Y-13790071D01*
X9387214Y-13947214D01*
X9387214Y-13790071D02*
X9401500Y-13761500D01*
X9430071Y-13747214D01*
X9472929Y-13747214D01*
X9501500Y-13761500D01*
X9515786Y-13790071D01*
X9515786Y-13947214D01*
X9658643Y-13947214D02*
X9658643Y-13747214D01*
X9658643Y-13775786D02*
X9672929Y-13761500D01*
X9701500Y-13747214D01*
X9744357Y-13747214D01*
X9772929Y-13761500D01*
X9787214Y-13790071D01*
X9787214Y-13947214D01*
X9787214Y-13790071D02*
X9801500Y-13761500D01*
X9830071Y-13747214D01*
X9872929Y-13747214D01*
X9901500Y-13761500D01*
X9915786Y-13790071D01*
X9915786Y-13947214D01*
X10501500Y-13632928D02*
X10244357Y-14018643D01*
X10887214Y-13647214D02*
X10915786Y-13647214D01*
X10944357Y-13661500D01*
X10958643Y-13675786D01*
X10972929Y-13704357D01*
X10987214Y-13761500D01*
X10987214Y-13832928D01*
X10972929Y-13890071D01*
X10958643Y-13918643D01*
X10944357Y-13932928D01*
X10915786Y-13947214D01*
X10887214Y-13947214D01*
X10858643Y-13932928D01*
X10844357Y-13918643D01*
X10830071Y-13890071D01*
X10815786Y-13832928D01*
X10815786Y-13761500D01*
X10830071Y-13704357D01*
X10844357Y-13675786D01*
X10858643Y-13661500D01*
X10887214Y-13647214D01*
X11115786Y-13918643D02*
X11130071Y-13932928D01*
X11115786Y-13947214D01*
X11101500Y-13932928D01*
X11115786Y-13918643D01*
X11115786Y-13947214D01*
X11315786Y-13647214D02*
X11344357Y-13647214D01*
X11372928Y-13661500D01*
X11387214Y-13675786D01*
X11401500Y-13704357D01*
X11415786Y-13761500D01*
X11415786Y-13832928D01*
X11401500Y-13890071D01*
X11387214Y-13918643D01*
X11372928Y-13932928D01*
X11344357Y-13947214D01*
X11315786Y-13947214D01*
X11287214Y-13932928D01*
X11272928Y-13918643D01*
X11258643Y-13890071D01*
X11244357Y-13832928D01*
X11244357Y-13761500D01*
X11258643Y-13704357D01*
X11272928Y-13675786D01*
X11287214Y-13661500D01*
X11315786Y-13647214D01*
X11515786Y-13647214D02*
X11701500Y-13647214D01*
X11601500Y-13761500D01*
X11644357Y-13761500D01*
X11672928Y-13775786D01*
X11687214Y-13790071D01*
X11701500Y-13818643D01*
X11701500Y-13890071D01*
X11687214Y-13918643D01*
X11672928Y-13932928D01*
X11644357Y-13947214D01*
X11558643Y-13947214D01*
X11530071Y-13932928D01*
X11515786Y-13918643D01*
X11887214Y-13647214D02*
X11915786Y-13647214D01*
X11944357Y-13661500D01*
X11958643Y-13675786D01*
X11972928Y-13704357D01*
X11987214Y-13761500D01*
X11987214Y-13832928D01*
X11972928Y-13890071D01*
X11958643Y-13918643D01*
X11944357Y-13932928D01*
X11915786Y-13947214D01*
X11887214Y-13947214D01*
X11858643Y-13932928D01*
X11844357Y-13918643D01*
X11830071Y-13890071D01*
X11815786Y-13832928D01*
X11815786Y-13761500D01*
X11830071Y-13704357D01*
X11844357Y-13675786D01*
X11858643Y-13661500D01*
X11887214Y-13647214D01*
X12172928Y-13647214D02*
X12201500Y-13647214D01*
X12230071Y-13661500D01*
X12244357Y-13675786D01*
X12258643Y-13704357D01*
X12272928Y-13761500D01*
X12272928Y-13832928D01*
X12258643Y-13890071D01*
X12244357Y-13918643D01*
X12230071Y-13932928D01*
X12201500Y-13947214D01*
X12172928Y-13947214D01*
X12144357Y-13932928D01*
X12130071Y-13918643D01*
X12115786Y-13890071D01*
X12101500Y-13832928D01*
X12101500Y-13761500D01*
X12115786Y-13704357D01*
X12130071Y-13675786D01*
X12144357Y-13661500D01*
X12172928Y-13647214D01*
X12387214Y-13647214D02*
X12387214Y-13704357D01*
X12501500Y-13647214D02*
X12501500Y-13704357D01*
X12944357Y-14061500D02*
X12930071Y-14047214D01*
X12901500Y-14004357D01*
X12887214Y-13975786D01*
X12872928Y-13932928D01*
X12858643Y-13861500D01*
X12858643Y-13804357D01*
X12872928Y-13732928D01*
X12887214Y-13690071D01*
X12901500Y-13661500D01*
X12930071Y-13618643D01*
X12944357Y-13604357D01*
X13187214Y-13647214D02*
X13130071Y-13647214D01*
X13101500Y-13661500D01*
X13087214Y-13675786D01*
X13058643Y-13718643D01*
X13044357Y-13775786D01*
X13044357Y-13890071D01*
X13058643Y-13918643D01*
X13072928Y-13932928D01*
X13101500Y-13947214D01*
X13158643Y-13947214D01*
X13187214Y-13932928D01*
X13201500Y-13918643D01*
X13215786Y-13890071D01*
X13215786Y-13818643D01*
X13201500Y-13790071D01*
X13187214Y-13775786D01*
X13158643Y-13761500D01*
X13101500Y-13761500D01*
X13072928Y-13775786D01*
X13058643Y-13790071D01*
X13044357Y-13818643D01*
X13572928Y-13947214D02*
X13572928Y-13647214D01*
X13701500Y-13947214D02*
X13701500Y-13790071D01*
X13687214Y-13761500D01*
X13658643Y-13747214D01*
X13615786Y-13747214D01*
X13587214Y-13761500D01*
X13572928Y-13775786D01*
X13887214Y-13947214D02*
X13858643Y-13932928D01*
X13844357Y-13918643D01*
X13830071Y-13890071D01*
X13830071Y-13804357D01*
X13844357Y-13775786D01*
X13858643Y-13761500D01*
X13887214Y-13747214D01*
X13930071Y-13747214D01*
X13958643Y-13761500D01*
X13972928Y-13775786D01*
X13987214Y-13804357D01*
X13987214Y-13890071D01*
X13972928Y-13918643D01*
X13958643Y-13932928D01*
X13930071Y-13947214D01*
X13887214Y-13947214D01*
X14158643Y-13947214D02*
X14130071Y-13932928D01*
X14115786Y-13904357D01*
X14115786Y-13647214D01*
X14387214Y-13932928D02*
X14358643Y-13947214D01*
X14301500Y-13947214D01*
X14272928Y-13932928D01*
X14258643Y-13904357D01*
X14258643Y-13790071D01*
X14272928Y-13761500D01*
X14301500Y-13747214D01*
X14358643Y-13747214D01*
X14387214Y-13761500D01*
X14401500Y-13790071D01*
X14401500Y-13818643D01*
X14258643Y-13847214D01*
X14515786Y-13932928D02*
X14544357Y-13947214D01*
X14601500Y-13947214D01*
X14630071Y-13932928D01*
X14644357Y-13904357D01*
X14644357Y-13890071D01*
X14630071Y-13861500D01*
X14601500Y-13847214D01*
X14558643Y-13847214D01*
X14530071Y-13832928D01*
X14515786Y-13804357D01*
X14515786Y-13790071D01*
X14530071Y-13761500D01*
X14558643Y-13747214D01*
X14601500Y-13747214D01*
X14630071Y-13761500D01*
X14744357Y-14061500D02*
X14758643Y-14047214D01*
X14787214Y-14004357D01*
X14801500Y-13975786D01*
X14815786Y-13932928D01*
X14830071Y-13861500D01*
X14830071Y-13804357D01*
X14815786Y-13732928D01*
X14801500Y-13690071D01*
X14787214Y-13661500D01*
X14758643Y-13618643D01*
X14744357Y-13604357D01*
X7674784Y-14235784D02*
X7674784Y-14179215D01*
X7618215Y-14179215D01*
X7618215Y-14235784D01*
X7674784Y-14235784D01*
X8030071Y-14043214D02*
X8058643Y-14043214D01*
X8087214Y-14057500D01*
X8101500Y-14071786D01*
X8115786Y-14100357D01*
X8130071Y-14157500D01*
X8130071Y-14228928D01*
X8115786Y-14286071D01*
X8101500Y-14314643D01*
X8087214Y-14328928D01*
X8058643Y-14343214D01*
X8030071Y-14343214D01*
X8001500Y-14328928D01*
X7987214Y-14314643D01*
X7972928Y-14286071D01*
X7958643Y-14228928D01*
X7958643Y-14157500D01*
X7972928Y-14100357D01*
X7987214Y-14071786D01*
X8001500Y-14057500D01*
X8030071Y-14043214D01*
X8258643Y-14314643D02*
X8272928Y-14328928D01*
X8258643Y-14343214D01*
X8244357Y-14328928D01*
X8258643Y-14314643D01*
X8258643Y-14343214D01*
X8444357Y-14171786D02*
X8415786Y-14157500D01*
X8401500Y-14143214D01*
X8387214Y-14114643D01*
X8387214Y-14100357D01*
X8401500Y-14071786D01*
X8415786Y-14057500D01*
X8444357Y-14043214D01*
X8501500Y-14043214D01*
X8530071Y-14057500D01*
X8544357Y-14071786D01*
X8558643Y-14100357D01*
X8558643Y-14114643D01*
X8544357Y-14143214D01*
X8530071Y-14157500D01*
X8501500Y-14171786D01*
X8444357Y-14171786D01*
X8415786Y-14186071D01*
X8401500Y-14200357D01*
X8387214Y-14228928D01*
X8387214Y-14286071D01*
X8401500Y-14314643D01*
X8415786Y-14328928D01*
X8444357Y-14343214D01*
X8501500Y-14343214D01*
X8530071Y-14328928D01*
X8544357Y-14314643D01*
X8558643Y-14286071D01*
X8558643Y-14228928D01*
X8544357Y-14200357D01*
X8530071Y-14186071D01*
X8501500Y-14171786D01*
X8744357Y-14043214D02*
X8772929Y-14043214D01*
X8801500Y-14057500D01*
X8815786Y-14071786D01*
X8830071Y-14100357D01*
X8844357Y-14157500D01*
X8844357Y-14228928D01*
X8830071Y-14286071D01*
X8815786Y-14314643D01*
X8801500Y-14328928D01*
X8772929Y-14343214D01*
X8744357Y-14343214D01*
X8715786Y-14328928D01*
X8701500Y-14314643D01*
X8687214Y-14286071D01*
X8672929Y-14228928D01*
X8672929Y-14157500D01*
X8687214Y-14100357D01*
X8701500Y-14071786D01*
X8715786Y-14057500D01*
X8744357Y-14043214D01*
X9030071Y-14043214D02*
X9058643Y-14043214D01*
X9087214Y-14057500D01*
X9101500Y-14071786D01*
X9115786Y-14100357D01*
X9130071Y-14157500D01*
X9130071Y-14228928D01*
X9115786Y-14286071D01*
X9101500Y-14314643D01*
X9087214Y-14328928D01*
X9058643Y-14343214D01*
X9030071Y-14343214D01*
X9001500Y-14328928D01*
X8987214Y-14314643D01*
X8972929Y-14286071D01*
X8958643Y-14228928D01*
X8958643Y-14157500D01*
X8972929Y-14100357D01*
X8987214Y-14071786D01*
X9001500Y-14057500D01*
X9030071Y-14043214D01*
X9258643Y-14343214D02*
X9258643Y-14143214D01*
X9258643Y-14171786D02*
X9272929Y-14157500D01*
X9301500Y-14143214D01*
X9344357Y-14143214D01*
X9372929Y-14157500D01*
X9387214Y-14186071D01*
X9387214Y-14343214D01*
X9387214Y-14186071D02*
X9401500Y-14157500D01*
X9430071Y-14143214D01*
X9472929Y-14143214D01*
X9501500Y-14157500D01*
X9515786Y-14186071D01*
X9515786Y-14343214D01*
X9658643Y-14343214D02*
X9658643Y-14143214D01*
X9658643Y-14171786D02*
X9672929Y-14157500D01*
X9701500Y-14143214D01*
X9744357Y-14143214D01*
X9772929Y-14157500D01*
X9787214Y-14186071D01*
X9787214Y-14343214D01*
X9787214Y-14186071D02*
X9801500Y-14157500D01*
X9830071Y-14143214D01*
X9872929Y-14143214D01*
X9901500Y-14157500D01*
X9915786Y-14186071D01*
X9915786Y-14343214D01*
X10501500Y-14028928D02*
X10244357Y-14414643D01*
X10887214Y-14043214D02*
X10915786Y-14043214D01*
X10944357Y-14057500D01*
X10958643Y-14071786D01*
X10972929Y-14100357D01*
X10987214Y-14157500D01*
X10987214Y-14228928D01*
X10972929Y-14286071D01*
X10958643Y-14314643D01*
X10944357Y-14328928D01*
X10915786Y-14343214D01*
X10887214Y-14343214D01*
X10858643Y-14328928D01*
X10844357Y-14314643D01*
X10830071Y-14286071D01*
X10815786Y-14228928D01*
X10815786Y-14157500D01*
X10830071Y-14100357D01*
X10844357Y-14071786D01*
X10858643Y-14057500D01*
X10887214Y-14043214D01*
X11115786Y-14314643D02*
X11130071Y-14328928D01*
X11115786Y-14343214D01*
X11101500Y-14328928D01*
X11115786Y-14314643D01*
X11115786Y-14343214D01*
X11315786Y-14043214D02*
X11344357Y-14043214D01*
X11372928Y-14057500D01*
X11387214Y-14071786D01*
X11401500Y-14100357D01*
X11415786Y-14157500D01*
X11415786Y-14228928D01*
X11401500Y-14286071D01*
X11387214Y-14314643D01*
X11372928Y-14328928D01*
X11344357Y-14343214D01*
X11315786Y-14343214D01*
X11287214Y-14328928D01*
X11272928Y-14314643D01*
X11258643Y-14286071D01*
X11244357Y-14228928D01*
X11244357Y-14157500D01*
X11258643Y-14100357D01*
X11272928Y-14071786D01*
X11287214Y-14057500D01*
X11315786Y-14043214D01*
X11515786Y-14043214D02*
X11701500Y-14043214D01*
X11601500Y-14157500D01*
X11644357Y-14157500D01*
X11672928Y-14171786D01*
X11687214Y-14186071D01*
X11701500Y-14214643D01*
X11701500Y-14286071D01*
X11687214Y-14314643D01*
X11672928Y-14328928D01*
X11644357Y-14343214D01*
X11558643Y-14343214D01*
X11530071Y-14328928D01*
X11515786Y-14314643D01*
X11987214Y-14343214D02*
X11815786Y-14343214D01*
X11901500Y-14343214D02*
X11901500Y-14043214D01*
X11872928Y-14086071D01*
X11844357Y-14114643D01*
X11815786Y-14128928D01*
X12258643Y-14043214D02*
X12115786Y-14043214D01*
X12101500Y-14186071D01*
X12115786Y-14171786D01*
X12144357Y-14157500D01*
X12215786Y-14157500D01*
X12244357Y-14171786D01*
X12258643Y-14186071D01*
X12272928Y-14214643D01*
X12272928Y-14286071D01*
X12258643Y-14314643D01*
X12244357Y-14328928D01*
X12215786Y-14343214D01*
X12144357Y-14343214D01*
X12115786Y-14328928D01*
X12101500Y-14314643D01*
X12387214Y-14043214D02*
X12387214Y-14100357D01*
X12501500Y-14043214D02*
X12501500Y-14100357D01*
X12944357Y-14457500D02*
X12930071Y-14443214D01*
X12901500Y-14400357D01*
X12887214Y-14371786D01*
X12872928Y-14328928D01*
X12858643Y-14257500D01*
X12858643Y-14200357D01*
X12872928Y-14128928D01*
X12887214Y-14086071D01*
X12901500Y-14057500D01*
X12930071Y-14014643D01*
X12944357Y-14000357D01*
X13187214Y-14043214D02*
X13130071Y-14043214D01*
X13101500Y-14057500D01*
X13087214Y-14071786D01*
X13058643Y-14114643D01*
X13044357Y-14171786D01*
X13044357Y-14286071D01*
X13058643Y-14314643D01*
X13072928Y-14328928D01*
X13101500Y-14343214D01*
X13158643Y-14343214D01*
X13187214Y-14328928D01*
X13201500Y-14314643D01*
X13215786Y-14286071D01*
X13215786Y-14214643D01*
X13201500Y-14186071D01*
X13187214Y-14171786D01*
X13158643Y-14157500D01*
X13101500Y-14157500D01*
X13072928Y-14171786D01*
X13058643Y-14186071D01*
X13044357Y-14214643D01*
X13401500Y-14043214D02*
X13430071Y-14043214D01*
X13458643Y-14057500D01*
X13472928Y-14071786D01*
X13487214Y-14100357D01*
X13501500Y-14157500D01*
X13501500Y-14228928D01*
X13487214Y-14286071D01*
X13472928Y-14314643D01*
X13458643Y-14328928D01*
X13430071Y-14343214D01*
X13401500Y-14343214D01*
X13372928Y-14328928D01*
X13358643Y-14314643D01*
X13344357Y-14286071D01*
X13330071Y-14228928D01*
X13330071Y-14157500D01*
X13344357Y-14100357D01*
X13358643Y-14071786D01*
X13372928Y-14057500D01*
X13401500Y-14043214D01*
X13858643Y-14343214D02*
X13858643Y-14043214D01*
X13987214Y-14343214D02*
X13987214Y-14186071D01*
X13972928Y-14157500D01*
X13944357Y-14143214D01*
X13901500Y-14143214D01*
X13872928Y-14157500D01*
X13858643Y-14171786D01*
X14172928Y-14343214D02*
X14144357Y-14328928D01*
X14130071Y-14314643D01*
X14115786Y-14286071D01*
X14115786Y-14200357D01*
X14130071Y-14171786D01*
X14144357Y-14157500D01*
X14172928Y-14143214D01*
X14215786Y-14143214D01*
X14244357Y-14157500D01*
X14258643Y-14171786D01*
X14272928Y-14200357D01*
X14272928Y-14286071D01*
X14258643Y-14314643D01*
X14244357Y-14328928D01*
X14215786Y-14343214D01*
X14172928Y-14343214D01*
X14444357Y-14343214D02*
X14415786Y-14328928D01*
X14401500Y-14300357D01*
X14401500Y-14043214D01*
X14672928Y-14328928D02*
X14644357Y-14343214D01*
X14587214Y-14343214D01*
X14558643Y-14328928D01*
X14544357Y-14300357D01*
X14544357Y-14186071D01*
X14558643Y-14157500D01*
X14587214Y-14143214D01*
X14644357Y-14143214D01*
X14672928Y-14157500D01*
X14687214Y-14186071D01*
X14687214Y-14214643D01*
X14544357Y-14243214D01*
X14801500Y-14328928D02*
X14830071Y-14343214D01*
X14887214Y-14343214D01*
X14915786Y-14328928D01*
X14930071Y-14300357D01*
X14930071Y-14286071D01*
X14915786Y-14257500D01*
X14887214Y-14243214D01*
X14844357Y-14243214D01*
X14815786Y-14228928D01*
X14801500Y-14200357D01*
X14801500Y-14186071D01*
X14815786Y-14157500D01*
X14844357Y-14143214D01*
X14887214Y-14143214D01*
X14915786Y-14157500D01*
X15030071Y-14457500D02*
X15044357Y-14443214D01*
X15072928Y-14400357D01*
X15087214Y-14371786D01*
X15101500Y-14328928D01*
X15115786Y-14257500D01*
X15115786Y-14200357D01*
X15101500Y-14128928D01*
X15087214Y-14086071D01*
X15072928Y-14057500D01*
X15044357Y-14014643D01*
X15030071Y-14000357D01*
X7636500Y-14653500D02*
X7686500Y-14603500D01*
X7636500Y-14553500D01*
X7586500Y-14603500D01*
X7636500Y-14653500D01*
X8130071Y-14739214D02*
X7958643Y-14739214D01*
X8044357Y-14739214D02*
X8044357Y-14439214D01*
X8015786Y-14482071D01*
X7987214Y-14510643D01*
X7958643Y-14524928D01*
X8258643Y-14710643D02*
X8272928Y-14724928D01*
X8258643Y-14739214D01*
X8244357Y-14724928D01*
X8258643Y-14710643D01*
X8258643Y-14739214D01*
X8458643Y-14439214D02*
X8487214Y-14439214D01*
X8515786Y-14453500D01*
X8530071Y-14467786D01*
X8544357Y-14496357D01*
X8558643Y-14553500D01*
X8558643Y-14624928D01*
X8544357Y-14682071D01*
X8530071Y-14710643D01*
X8515786Y-14724928D01*
X8487214Y-14739214D01*
X8458643Y-14739214D01*
X8430071Y-14724928D01*
X8415786Y-14710643D01*
X8401500Y-14682071D01*
X8387214Y-14624928D01*
X8387214Y-14553500D01*
X8401500Y-14496357D01*
X8415786Y-14467786D01*
X8430071Y-14453500D01*
X8458643Y-14439214D01*
X8744357Y-14439214D02*
X8772929Y-14439214D01*
X8801500Y-14453500D01*
X8815786Y-14467786D01*
X8830071Y-14496357D01*
X8844357Y-14553500D01*
X8844357Y-14624928D01*
X8830071Y-14682071D01*
X8815786Y-14710643D01*
X8801500Y-14724928D01*
X8772929Y-14739214D01*
X8744357Y-14739214D01*
X8715786Y-14724928D01*
X8701500Y-14710643D01*
X8687214Y-14682071D01*
X8672929Y-14624928D01*
X8672929Y-14553500D01*
X8687214Y-14496357D01*
X8701500Y-14467786D01*
X8715786Y-14453500D01*
X8744357Y-14439214D01*
X9030071Y-14439214D02*
X9058643Y-14439214D01*
X9087214Y-14453500D01*
X9101500Y-14467786D01*
X9115786Y-14496357D01*
X9130071Y-14553500D01*
X9130071Y-14624928D01*
X9115786Y-14682071D01*
X9101500Y-14710643D01*
X9087214Y-14724928D01*
X9058643Y-14739214D01*
X9030071Y-14739214D01*
X9001500Y-14724928D01*
X8987214Y-14710643D01*
X8972929Y-14682071D01*
X8958643Y-14624928D01*
X8958643Y-14553500D01*
X8972929Y-14496357D01*
X8987214Y-14467786D01*
X9001500Y-14453500D01*
X9030071Y-14439214D01*
X9258643Y-14739214D02*
X9258643Y-14539214D01*
X9258643Y-14567786D02*
X9272929Y-14553500D01*
X9301500Y-14539214D01*
X9344357Y-14539214D01*
X9372929Y-14553500D01*
X9387214Y-14582071D01*
X9387214Y-14739214D01*
X9387214Y-14582071D02*
X9401500Y-14553500D01*
X9430071Y-14539214D01*
X9472929Y-14539214D01*
X9501500Y-14553500D01*
X9515786Y-14582071D01*
X9515786Y-14739214D01*
X9658643Y-14739214D02*
X9658643Y-14539214D01*
X9658643Y-14567786D02*
X9672929Y-14553500D01*
X9701500Y-14539214D01*
X9744357Y-14539214D01*
X9772929Y-14553500D01*
X9787214Y-14582071D01*
X9787214Y-14739214D01*
X9787214Y-14582071D02*
X9801500Y-14553500D01*
X9830071Y-14539214D01*
X9872929Y-14539214D01*
X9901500Y-14553500D01*
X9915786Y-14582071D01*
X9915786Y-14739214D01*
X10501500Y-14424928D02*
X10244357Y-14810643D01*
X10887214Y-14439214D02*
X10915786Y-14439214D01*
X10944357Y-14453500D01*
X10958643Y-14467786D01*
X10972929Y-14496357D01*
X10987214Y-14553500D01*
X10987214Y-14624928D01*
X10972929Y-14682071D01*
X10958643Y-14710643D01*
X10944357Y-14724928D01*
X10915786Y-14739214D01*
X10887214Y-14739214D01*
X10858643Y-14724928D01*
X10844357Y-14710643D01*
X10830071Y-14682071D01*
X10815786Y-14624928D01*
X10815786Y-14553500D01*
X10830071Y-14496357D01*
X10844357Y-14467786D01*
X10858643Y-14453500D01*
X10887214Y-14439214D01*
X11115786Y-14710643D02*
X11130071Y-14724928D01*
X11115786Y-14739214D01*
X11101500Y-14724928D01*
X11115786Y-14710643D01*
X11115786Y-14739214D01*
X11315786Y-14439214D02*
X11344357Y-14439214D01*
X11372928Y-14453500D01*
X11387214Y-14467786D01*
X11401500Y-14496357D01*
X11415786Y-14553500D01*
X11415786Y-14624928D01*
X11401500Y-14682071D01*
X11387214Y-14710643D01*
X11372928Y-14724928D01*
X11344357Y-14739214D01*
X11315786Y-14739214D01*
X11287214Y-14724928D01*
X11272928Y-14710643D01*
X11258643Y-14682071D01*
X11244357Y-14624928D01*
X11244357Y-14553500D01*
X11258643Y-14496357D01*
X11272928Y-14467786D01*
X11287214Y-14453500D01*
X11315786Y-14439214D01*
X11515786Y-14439214D02*
X11701500Y-14439214D01*
X11601500Y-14553500D01*
X11644357Y-14553500D01*
X11672928Y-14567786D01*
X11687214Y-14582071D01*
X11701500Y-14610643D01*
X11701500Y-14682071D01*
X11687214Y-14710643D01*
X11672928Y-14724928D01*
X11644357Y-14739214D01*
X11558643Y-14739214D01*
X11530071Y-14724928D01*
X11515786Y-14710643D01*
X11844357Y-14739214D02*
X11901500Y-14739214D01*
X11930071Y-14724928D01*
X11944357Y-14710643D01*
X11972928Y-14667786D01*
X11987214Y-14610643D01*
X11987214Y-14496357D01*
X11972928Y-14467786D01*
X11958643Y-14453500D01*
X11930071Y-14439214D01*
X11872928Y-14439214D01*
X11844357Y-14453500D01*
X11830071Y-14467786D01*
X11815786Y-14496357D01*
X11815786Y-14567786D01*
X11830071Y-14596357D01*
X11844357Y-14610643D01*
X11872928Y-14624928D01*
X11930071Y-14624928D01*
X11958643Y-14610643D01*
X11972928Y-14596357D01*
X11987214Y-14567786D01*
X12244357Y-14539214D02*
X12244357Y-14739214D01*
X12172928Y-14424928D02*
X12101500Y-14639214D01*
X12287214Y-14639214D01*
X12387214Y-14439214D02*
X12387214Y-14496357D01*
X12501500Y-14439214D02*
X12501500Y-14496357D01*
X12944357Y-14853500D02*
X12930071Y-14839214D01*
X12901500Y-14796357D01*
X12887214Y-14767786D01*
X12872928Y-14724928D01*
X12858643Y-14653500D01*
X12858643Y-14596357D01*
X12872928Y-14524928D01*
X12887214Y-14482071D01*
X12901500Y-14453500D01*
X12930071Y-14410643D01*
X12944357Y-14396357D01*
X13030071Y-14439214D02*
X13215786Y-14439214D01*
X13115786Y-14553500D01*
X13158643Y-14553500D01*
X13187214Y-14567786D01*
X13201500Y-14582071D01*
X13215786Y-14610643D01*
X13215786Y-14682071D01*
X13201500Y-14710643D01*
X13187214Y-14724928D01*
X13158643Y-14739214D01*
X13072928Y-14739214D01*
X13044357Y-14724928D01*
X13030071Y-14710643D01*
X13387214Y-14567786D02*
X13358643Y-14553500D01*
X13344357Y-14539214D01*
X13330071Y-14510643D01*
X13330071Y-14496357D01*
X13344357Y-14467786D01*
X13358643Y-14453500D01*
X13387214Y-14439214D01*
X13444357Y-14439214D01*
X13472928Y-14453500D01*
X13487214Y-14467786D01*
X13501500Y-14496357D01*
X13501500Y-14510643D01*
X13487214Y-14539214D01*
X13472928Y-14553500D01*
X13444357Y-14567786D01*
X13387214Y-14567786D01*
X13358643Y-14582071D01*
X13344357Y-14596357D01*
X13330071Y-14624928D01*
X13330071Y-14682071D01*
X13344357Y-14710643D01*
X13358643Y-14724928D01*
X13387214Y-14739214D01*
X13444357Y-14739214D01*
X13472928Y-14724928D01*
X13487214Y-14710643D01*
X13501500Y-14682071D01*
X13501500Y-14624928D01*
X13487214Y-14596357D01*
X13472928Y-14582071D01*
X13444357Y-14567786D01*
X13858643Y-14739214D02*
X13858643Y-14439214D01*
X13987214Y-14739214D02*
X13987214Y-14582071D01*
X13972928Y-14553500D01*
X13944357Y-14539214D01*
X13901500Y-14539214D01*
X13872928Y-14553500D01*
X13858643Y-14567786D01*
X14172928Y-14739214D02*
X14144357Y-14724928D01*
X14130071Y-14710643D01*
X14115786Y-14682071D01*
X14115786Y-14596357D01*
X14130071Y-14567786D01*
X14144357Y-14553500D01*
X14172928Y-14539214D01*
X14215786Y-14539214D01*
X14244357Y-14553500D01*
X14258643Y-14567786D01*
X14272928Y-14596357D01*
X14272928Y-14682071D01*
X14258643Y-14710643D01*
X14244357Y-14724928D01*
X14215786Y-14739214D01*
X14172928Y-14739214D01*
X14444357Y-14739214D02*
X14415786Y-14724928D01*
X14401500Y-14696357D01*
X14401500Y-14439214D01*
X14672928Y-14724928D02*
X14644357Y-14739214D01*
X14587214Y-14739214D01*
X14558643Y-14724928D01*
X14544357Y-14696357D01*
X14544357Y-14582071D01*
X14558643Y-14553500D01*
X14587214Y-14539214D01*
X14644357Y-14539214D01*
X14672928Y-14553500D01*
X14687214Y-14582071D01*
X14687214Y-14610643D01*
X14544357Y-14639214D01*
X14801500Y-14724928D02*
X14830071Y-14739214D01*
X14887214Y-14739214D01*
X14915786Y-14724928D01*
X14930071Y-14696357D01*
X14930071Y-14682071D01*
X14915786Y-14653500D01*
X14887214Y-14639214D01*
X14844357Y-14639214D01*
X14815786Y-14624928D01*
X14801500Y-14596357D01*
X14801500Y-14582071D01*
X14815786Y-14553500D01*
X14844357Y-14539214D01*
X14887214Y-14539214D01*
X14915786Y-14553500D01*
X15287214Y-14624928D02*
X15515786Y-14624928D01*
X15401500Y-14739214D02*
X15401500Y-14510643D01*
X15858643Y-14439214D02*
X16044357Y-14439214D01*
X15944357Y-14553500D01*
X15987214Y-14553500D01*
X16015786Y-14567786D01*
X16030071Y-14582071D01*
X16044357Y-14610643D01*
X16044357Y-14682071D01*
X16030071Y-14710643D01*
X16015786Y-14724928D01*
X15987214Y-14739214D01*
X15901500Y-14739214D01*
X15872928Y-14724928D01*
X15858643Y-14710643D01*
X16387214Y-14724928D02*
X16415786Y-14739214D01*
X16472928Y-14739214D01*
X16501500Y-14724928D01*
X16515786Y-14696357D01*
X16515786Y-14682071D01*
X16501500Y-14653500D01*
X16472928Y-14639214D01*
X16430071Y-14639214D01*
X16401500Y-14624928D01*
X16387214Y-14596357D01*
X16387214Y-14582071D01*
X16401500Y-14553500D01*
X16430071Y-14539214D01*
X16472928Y-14539214D01*
X16501500Y-14553500D01*
X16687214Y-14739214D02*
X16658643Y-14724928D01*
X16644357Y-14696357D01*
X16644357Y-14439214D01*
X16844357Y-14739214D02*
X16815786Y-14724928D01*
X16801500Y-14710643D01*
X16787214Y-14682071D01*
X16787214Y-14596357D01*
X16801500Y-14567786D01*
X16815786Y-14553500D01*
X16844357Y-14539214D01*
X16887214Y-14539214D01*
X16915786Y-14553500D01*
X16930071Y-14567786D01*
X16944357Y-14596357D01*
X16944357Y-14682071D01*
X16930071Y-14710643D01*
X16915786Y-14724928D01*
X16887214Y-14739214D01*
X16844357Y-14739214D01*
X17030071Y-14539214D02*
X17144357Y-14539214D01*
X17072929Y-14439214D02*
X17072929Y-14696357D01*
X17087214Y-14724928D01*
X17115786Y-14739214D01*
X17144357Y-14739214D01*
X17230071Y-14724928D02*
X17258643Y-14739214D01*
X17315786Y-14739214D01*
X17344357Y-14724928D01*
X17358643Y-14696357D01*
X17358643Y-14682071D01*
X17344357Y-14653500D01*
X17315786Y-14639214D01*
X17272929Y-14639214D01*
X17244357Y-14624928D01*
X17230071Y-14596357D01*
X17230071Y-14582071D01*
X17244357Y-14553500D01*
X17272929Y-14539214D01*
X17315786Y-14539214D01*
X17344357Y-14553500D01*
X17458643Y-14853500D02*
X17472929Y-14839214D01*
X17501500Y-14796357D01*
X17515786Y-14767786D01*
X17530071Y-14724928D01*
X17544357Y-14653500D01*
X17544357Y-14596357D01*
X17530071Y-14524928D01*
X17515786Y-14482071D01*
X17501500Y-14453500D01*
X17472929Y-14410643D01*
X17458643Y-14396357D01*
X7466500Y-14889500D02*
X7686500Y-15109500D01*
X7686500Y-14889500D02*
X7466500Y-15109500D01*
X7686500Y-14999500D02*
G75*
G03*
X7686500Y-14999500I-110000J0D01*
G01*
X7958643Y-14863786D02*
X7972928Y-14849500D01*
X8001500Y-14835214D01*
X8072928Y-14835214D01*
X8101500Y-14849500D01*
X8115786Y-14863786D01*
X8130071Y-14892357D01*
X8130071Y-14920928D01*
X8115786Y-14963786D01*
X7944357Y-15135214D01*
X8130071Y-15135214D01*
X8258643Y-15106643D02*
X8272928Y-15120928D01*
X8258643Y-15135214D01*
X8244357Y-15120928D01*
X8258643Y-15106643D01*
X8258643Y-15135214D01*
X8387214Y-14863786D02*
X8401500Y-14849500D01*
X8430071Y-14835214D01*
X8501500Y-14835214D01*
X8530071Y-14849500D01*
X8544357Y-14863786D01*
X8558643Y-14892357D01*
X8558643Y-14920928D01*
X8544357Y-14963786D01*
X8372928Y-15135214D01*
X8558643Y-15135214D01*
X8744357Y-14835214D02*
X8772929Y-14835214D01*
X8801500Y-14849500D01*
X8815786Y-14863786D01*
X8830071Y-14892357D01*
X8844357Y-14949500D01*
X8844357Y-15020928D01*
X8830071Y-15078071D01*
X8815786Y-15106643D01*
X8801500Y-15120928D01*
X8772929Y-15135214D01*
X8744357Y-15135214D01*
X8715786Y-15120928D01*
X8701500Y-15106643D01*
X8687214Y-15078071D01*
X8672929Y-15020928D01*
X8672929Y-14949500D01*
X8687214Y-14892357D01*
X8701500Y-14863786D01*
X8715786Y-14849500D01*
X8744357Y-14835214D01*
X9030071Y-14835214D02*
X9058643Y-14835214D01*
X9087214Y-14849500D01*
X9101500Y-14863786D01*
X9115786Y-14892357D01*
X9130071Y-14949500D01*
X9130071Y-15020928D01*
X9115786Y-15078071D01*
X9101500Y-15106643D01*
X9087214Y-15120928D01*
X9058643Y-15135214D01*
X9030071Y-15135214D01*
X9001500Y-15120928D01*
X8987214Y-15106643D01*
X8972929Y-15078071D01*
X8958643Y-15020928D01*
X8958643Y-14949500D01*
X8972929Y-14892357D01*
X8987214Y-14863786D01*
X9001500Y-14849500D01*
X9030071Y-14835214D01*
X9258643Y-15135214D02*
X9258643Y-14935214D01*
X9258643Y-14963786D02*
X9272929Y-14949500D01*
X9301500Y-14935214D01*
X9344357Y-14935214D01*
X9372929Y-14949500D01*
X9387214Y-14978071D01*
X9387214Y-15135214D01*
X9387214Y-14978071D02*
X9401500Y-14949500D01*
X9430071Y-14935214D01*
X9472929Y-14935214D01*
X9501500Y-14949500D01*
X9515786Y-14978071D01*
X9515786Y-15135214D01*
X9658643Y-15135214D02*
X9658643Y-14935214D01*
X9658643Y-14963786D02*
X9672929Y-14949500D01*
X9701500Y-14935214D01*
X9744357Y-14935214D01*
X9772929Y-14949500D01*
X9787214Y-14978071D01*
X9787214Y-15135214D01*
X9787214Y-14978071D02*
X9801500Y-14949500D01*
X9830071Y-14935214D01*
X9872929Y-14935214D01*
X9901500Y-14949500D01*
X9915786Y-14978071D01*
X9915786Y-15135214D01*
X10501500Y-14820928D02*
X10244357Y-15206643D01*
X10887214Y-14835214D02*
X10915786Y-14835214D01*
X10944357Y-14849500D01*
X10958643Y-14863786D01*
X10972929Y-14892357D01*
X10987214Y-14949500D01*
X10987214Y-15020928D01*
X10972929Y-15078071D01*
X10958643Y-15106643D01*
X10944357Y-15120928D01*
X10915786Y-15135214D01*
X10887214Y-15135214D01*
X10858643Y-15120928D01*
X10844357Y-15106643D01*
X10830071Y-15078071D01*
X10815786Y-15020928D01*
X10815786Y-14949500D01*
X10830071Y-14892357D01*
X10844357Y-14863786D01*
X10858643Y-14849500D01*
X10887214Y-14835214D01*
X11115786Y-15106643D02*
X11130071Y-15120928D01*
X11115786Y-15135214D01*
X11101500Y-15120928D01*
X11115786Y-15106643D01*
X11115786Y-15135214D01*
X11315786Y-14835214D02*
X11344357Y-14835214D01*
X11372928Y-14849500D01*
X11387214Y-14863786D01*
X11401500Y-14892357D01*
X11415786Y-14949500D01*
X11415786Y-15020928D01*
X11401500Y-15078071D01*
X11387214Y-15106643D01*
X11372928Y-15120928D01*
X11344357Y-15135214D01*
X11315786Y-15135214D01*
X11287214Y-15120928D01*
X11272928Y-15106643D01*
X11258643Y-15078071D01*
X11244357Y-15020928D01*
X11244357Y-14949500D01*
X11258643Y-14892357D01*
X11272928Y-14863786D01*
X11287214Y-14849500D01*
X11315786Y-14835214D01*
X11587214Y-14963786D02*
X11558643Y-14949500D01*
X11544357Y-14935214D01*
X11530071Y-14906643D01*
X11530071Y-14892357D01*
X11544357Y-14863786D01*
X11558643Y-14849500D01*
X11587214Y-14835214D01*
X11644357Y-14835214D01*
X11672928Y-14849500D01*
X11687214Y-14863786D01*
X11701500Y-14892357D01*
X11701500Y-14906643D01*
X11687214Y-14935214D01*
X11672928Y-14949500D01*
X11644357Y-14963786D01*
X11587214Y-14963786D01*
X11558643Y-14978071D01*
X11544357Y-14992357D01*
X11530071Y-15020928D01*
X11530071Y-15078071D01*
X11544357Y-15106643D01*
X11558643Y-15120928D01*
X11587214Y-15135214D01*
X11644357Y-15135214D01*
X11672928Y-15120928D01*
X11687214Y-15106643D01*
X11701500Y-15078071D01*
X11701500Y-15020928D01*
X11687214Y-14992357D01*
X11672928Y-14978071D01*
X11644357Y-14963786D01*
X11958643Y-14835214D02*
X11901500Y-14835214D01*
X11872928Y-14849500D01*
X11858643Y-14863786D01*
X11830071Y-14906643D01*
X11815786Y-14963786D01*
X11815786Y-15078071D01*
X11830071Y-15106643D01*
X11844357Y-15120928D01*
X11872928Y-15135214D01*
X11930071Y-15135214D01*
X11958643Y-15120928D01*
X11972928Y-15106643D01*
X11987214Y-15078071D01*
X11987214Y-15006643D01*
X11972928Y-14978071D01*
X11958643Y-14963786D01*
X11930071Y-14949500D01*
X11872928Y-14949500D01*
X11844357Y-14963786D01*
X11830071Y-14978071D01*
X11815786Y-15006643D01*
X12244357Y-14835214D02*
X12187214Y-14835214D01*
X12158643Y-14849500D01*
X12144357Y-14863786D01*
X12115786Y-14906643D01*
X12101500Y-14963786D01*
X12101500Y-15078071D01*
X12115786Y-15106643D01*
X12130071Y-15120928D01*
X12158643Y-15135214D01*
X12215786Y-15135214D01*
X12244357Y-15120928D01*
X12258643Y-15106643D01*
X12272928Y-15078071D01*
X12272928Y-15006643D01*
X12258643Y-14978071D01*
X12244357Y-14963786D01*
X12215786Y-14949500D01*
X12158643Y-14949500D01*
X12130071Y-14963786D01*
X12115786Y-14978071D01*
X12101500Y-15006643D01*
X12387214Y-14835214D02*
X12387214Y-14892357D01*
X12501500Y-14835214D02*
X12501500Y-14892357D01*
X12944357Y-15249500D02*
X12930071Y-15235214D01*
X12901500Y-15192357D01*
X12887214Y-15163786D01*
X12872928Y-15120928D01*
X12858643Y-15049500D01*
X12858643Y-14992357D01*
X12872928Y-14920928D01*
X12887214Y-14878071D01*
X12901500Y-14849500D01*
X12930071Y-14806643D01*
X12944357Y-14792357D01*
X13187214Y-14935214D02*
X13187214Y-15135214D01*
X13115786Y-14820928D02*
X13044357Y-15035214D01*
X13230071Y-15035214D01*
X13572928Y-15135214D02*
X13572928Y-14835214D01*
X13701500Y-15135214D02*
X13701500Y-14978071D01*
X13687214Y-14949500D01*
X13658643Y-14935214D01*
X13615786Y-14935214D01*
X13587214Y-14949500D01*
X13572928Y-14963786D01*
X13887214Y-15135214D02*
X13858643Y-15120928D01*
X13844357Y-15106643D01*
X13830071Y-15078071D01*
X13830071Y-14992357D01*
X13844357Y-14963786D01*
X13858643Y-14949500D01*
X13887214Y-14935214D01*
X13930071Y-14935214D01*
X13958643Y-14949500D01*
X13972928Y-14963786D01*
X13987214Y-14992357D01*
X13987214Y-15078071D01*
X13972928Y-15106643D01*
X13958643Y-15120928D01*
X13930071Y-15135214D01*
X13887214Y-15135214D01*
X14158643Y-15135214D02*
X14130071Y-15120928D01*
X14115786Y-15092357D01*
X14115786Y-14835214D01*
X14387214Y-15120928D02*
X14358643Y-15135214D01*
X14301500Y-15135214D01*
X14272928Y-15120928D01*
X14258643Y-15092357D01*
X14258643Y-14978071D01*
X14272928Y-14949500D01*
X14301500Y-14935214D01*
X14358643Y-14935214D01*
X14387214Y-14949500D01*
X14401500Y-14978071D01*
X14401500Y-15006643D01*
X14258643Y-15035214D01*
X14515786Y-15120928D02*
X14544357Y-15135214D01*
X14601500Y-15135214D01*
X14630071Y-15120928D01*
X14644357Y-15092357D01*
X14644357Y-15078071D01*
X14630071Y-15049500D01*
X14601500Y-15035214D01*
X14558643Y-15035214D01*
X14530071Y-15020928D01*
X14515786Y-14992357D01*
X14515786Y-14978071D01*
X14530071Y-14949500D01*
X14558643Y-14935214D01*
X14601500Y-14935214D01*
X14630071Y-14949500D01*
X14744357Y-15249500D02*
X14758643Y-15235214D01*
X14787214Y-15192357D01*
X14801500Y-15163786D01*
X14815786Y-15120928D01*
X14830071Y-15049500D01*
X14830071Y-14992357D01*
X14815786Y-14920928D01*
X14801500Y-14878071D01*
X14787214Y-14849500D01*
X14758643Y-14806643D01*
X14744357Y-14792357D01*
M02*
