M48
; DRILL file {KiCad 5.1.10} date Sat Nov 20 20:15:05 2021
; FORMAT={-:-/ absolute / metric / decimal}
; #@! TF.CreationDate,2021-11-20T20:15:05+08:00
; #@! TF.GenerationSoftware,Kicad,Pcbnew,5.1.10
FMAT,2
METRIC
T1C0.400
T2C0.600
T3C0.800
T4C1.000
T5C2.200
%
G90
G05
T1
X110.455Y-65.04
X112.36Y-94.25
X113.63Y-65.04
X114.265Y-96.79
X116.17Y-102.505
X116.17Y-105.68
X116.17Y-108.855
X118.71Y-68.215
X118.71Y-72.025
X120.615Y-96.79
X120.615Y-99.965
X136.49Y-76.47
X138.395Y-76.47
X153.635Y-79.645
X153.635Y-84.09
X155.54Y-78.375
X155.54Y-83.455
X156.355Y-69.485
T2
X85.69Y-68.85
X85.69Y-70.12
X86.96Y-68.85
X86.96Y-70.12
X88.23Y-68.85
X88.23Y-70.12
X89.5Y-68.85
X89.5Y-70.12
X90.77Y-68.85
X90.77Y-70.12
T3
X122.8Y-69.32
X122.8Y-71.32
X122.8Y-73.32
X122.8Y-75.32
X122.8Y-77.32
X124.46Y-86.63
X124.46Y-109.49
X127.0Y-86.63
X127.0Y-109.49
X127.6Y-81.55
X129.54Y-86.63
X129.54Y-109.49
X130.14Y-81.55
X132.08Y-86.63
X132.08Y-109.49
X132.68Y-81.55
X134.62Y-86.63
X134.62Y-109.49
X135.22Y-81.55
X137.16Y-86.63
X137.16Y-109.49
X137.76Y-81.55
X139.7Y-86.63
X139.7Y-109.49
X140.3Y-81.55
X142.24Y-86.63
X142.24Y-109.49
X144.78Y-86.63
X144.78Y-109.49
X145.5Y-67.32
X145.5Y-69.32
X145.5Y-71.32
X145.5Y-73.32
X145.5Y-75.32
X145.5Y-77.32
X145.5Y-79.32
X147.32Y-86.63
X147.32Y-109.49
X149.86Y-86.63
X149.86Y-109.49
X152.365Y-69.485
X152.365Y-72.025
X152.365Y-74.565
X152.365Y-77.105
X152.4Y-86.63
X152.4Y-109.49
X154.94Y-86.63
X154.94Y-109.49
X157.48Y-86.63
X157.48Y-109.49
X160.02Y-86.63
X160.02Y-109.49
X162.56Y-86.63
X162.56Y-109.49
X165.1Y-86.63
X165.1Y-109.49
X167.64Y-86.63
X167.64Y-109.49
X170.18Y-86.63
X170.18Y-109.49
T4
X124.46Y-90.44
X124.46Y-105.68
X127.0Y-90.44
X127.0Y-105.68
X129.54Y-90.44
X129.54Y-105.68
X132.08Y-90.44
X132.08Y-105.68
X134.62Y-90.44
X134.62Y-105.68
X137.16Y-90.44
X137.16Y-105.68
X139.7Y-90.44
X139.7Y-105.68
X142.24Y-90.44
X142.24Y-105.68
X144.78Y-90.44
X144.78Y-105.68
X147.32Y-90.44
X147.32Y-105.68
X149.86Y-90.44
X149.86Y-105.68
X152.4Y-90.44
X152.4Y-105.68
X154.94Y-90.44
X154.94Y-105.68
X157.48Y-90.44
X157.48Y-105.68
X160.02Y-90.44
X160.02Y-105.68
X162.56Y-90.44
X162.56Y-105.68
X165.1Y-90.44
X165.1Y-105.68
X167.64Y-90.44
X167.64Y-105.68
X170.18Y-90.44
X170.18Y-105.68
T5
X82.365Y-61.095
X82.365Y-115.095
X171.365Y-61.095
X171.365Y-115.095
T4
G00X159.985Y-78.105
M15
G01X159.985Y-76.105
M16
G05
G00X163.985Y-72.405
M15
G01X161.985Y-72.405
M16
G05
G00X165.985Y-78.105
M15
G01X165.985Y-76.105
M16
G05
T0
M30
