G04 #@! TF.GenerationSoftware,KiCad,Pcbnew,5.1.10*
G04 #@! TF.CreationDate,2021-11-28T22:13:14+08:00*
G04 #@! TF.ProjectId,air_mon2,6169725f-6d6f-46e3-922e-6b696361645f,rev?*
G04 #@! TF.SameCoordinates,Original*
G04 #@! TF.FileFunction,Legend,Top*
G04 #@! TF.FilePolarity,Positive*
%FSLAX46Y46*%
G04 Gerber Fmt 4.6, Leading zero omitted, Abs format (unit mm)*
G04 Created by KiCad (PCBNEW 5.1.10) date 2021-11-28 22:13:14*
%MOMM*%
%LPD*%
G01*
G04 APERTURE LIST*
%ADD10C,0.150000*%
%ADD11C,0.120000*%
%ADD12O,1.200000X2.000000*%
%ADD13R,1.200000X2.000000*%
%ADD14O,2.000000X1.200000*%
%ADD15C,1.524000*%
%ADD16R,3.500000X3.500000*%
%ADD17C,1.350000*%
%ADD18R,1.350000X1.350000*%
%ADD19R,1.700000X1.700000*%
%ADD20O,1.700000X1.700000*%
%ADD21C,4.400000*%
%ADD22C,0.870000*%
G04 APERTURE END LIST*
D10*
X162026714Y-117023380D02*
X162026714Y-116499571D01*
X161979095Y-116404333D01*
X161883857Y-116356714D01*
X161693380Y-116356714D01*
X161598142Y-116404333D01*
X162026714Y-116975761D02*
X161931476Y-117023380D01*
X161693380Y-117023380D01*
X161598142Y-116975761D01*
X161550523Y-116880523D01*
X161550523Y-116785285D01*
X161598142Y-116690047D01*
X161693380Y-116642428D01*
X161931476Y-116642428D01*
X162026714Y-116594809D01*
X162502904Y-117023380D02*
X162502904Y-116356714D01*
X162502904Y-116023380D02*
X162455285Y-116071000D01*
X162502904Y-116118619D01*
X162550523Y-116071000D01*
X162502904Y-116023380D01*
X162502904Y-116118619D01*
X162979095Y-117023380D02*
X162979095Y-116356714D01*
X162979095Y-116547190D02*
X163026714Y-116451952D01*
X163074333Y-116404333D01*
X163169571Y-116356714D01*
X163264809Y-116356714D01*
X163360047Y-117118619D02*
X164121952Y-117118619D01*
X164360047Y-117023380D02*
X164360047Y-116356714D01*
X164360047Y-116451952D02*
X164407666Y-116404333D01*
X164502904Y-116356714D01*
X164645761Y-116356714D01*
X164741000Y-116404333D01*
X164788619Y-116499571D01*
X164788619Y-117023380D01*
X164788619Y-116499571D02*
X164836238Y-116404333D01*
X164931476Y-116356714D01*
X165074333Y-116356714D01*
X165169571Y-116404333D01*
X165217190Y-116499571D01*
X165217190Y-117023380D01*
X165836238Y-117023380D02*
X165741000Y-116975761D01*
X165693380Y-116928142D01*
X165645761Y-116832904D01*
X165645761Y-116547190D01*
X165693380Y-116451952D01*
X165741000Y-116404333D01*
X165836238Y-116356714D01*
X165979095Y-116356714D01*
X166074333Y-116404333D01*
X166121952Y-116451952D01*
X166169571Y-116547190D01*
X166169571Y-116832904D01*
X166121952Y-116928142D01*
X166074333Y-116975761D01*
X165979095Y-117023380D01*
X165836238Y-117023380D01*
X166598142Y-116356714D02*
X166598142Y-117023380D01*
X166598142Y-116451952D02*
X166645761Y-116404333D01*
X166741000Y-116356714D01*
X166883857Y-116356714D01*
X166979095Y-116404333D01*
X167026714Y-116499571D01*
X167026714Y-117023380D01*
X167455285Y-116118619D02*
X167502904Y-116071000D01*
X167598142Y-116023380D01*
X167836238Y-116023380D01*
X167931476Y-116071000D01*
X167979095Y-116118619D01*
X168026714Y-116213857D01*
X168026714Y-116309095D01*
X167979095Y-116451952D01*
X167407666Y-117023380D01*
X168026714Y-117023380D01*
X169121952Y-116356714D02*
X169360047Y-117023380D01*
X169598142Y-116356714D01*
X170502904Y-117023380D02*
X169931476Y-117023380D01*
X170217190Y-117023380D02*
X170217190Y-116023380D01*
X170121952Y-116166238D01*
X170026714Y-116261476D01*
X169931476Y-116309095D01*
X170931476Y-116928142D02*
X170979095Y-116975761D01*
X170931476Y-117023380D01*
X170883857Y-116975761D01*
X170931476Y-116928142D01*
X170931476Y-117023380D01*
X171931476Y-117023380D02*
X171360047Y-117023380D01*
X171645761Y-117023380D02*
X171645761Y-116023380D01*
X171550523Y-116166238D01*
X171455285Y-116261476D01*
X171360047Y-116309095D01*
D11*
X128803000Y-112236999D02*
X178263000Y-112237000D01*
X178263000Y-112237000D02*
X178263000Y-84837001D01*
X178263000Y-84837001D02*
X128803000Y-84837000D01*
X128803000Y-84837000D02*
X128803000Y-93970334D01*
X128803000Y-93970334D02*
X129163000Y-93970334D01*
X129163000Y-93970334D02*
X129163000Y-103103666D01*
X129163000Y-103103666D02*
X128803000Y-103103666D01*
X128803000Y-103103666D02*
X128803000Y-112236999D01*
X129403000Y-90917000D02*
X152263000Y-90917000D01*
X152263000Y-90917000D02*
X152263000Y-104887000D01*
X152263000Y-104887000D02*
X129403000Y-104887000D01*
X129403000Y-104887000D02*
X129403000Y-90917000D01*
X178298000Y-94727000D02*
X175758000Y-94727000D01*
X175758000Y-94727000D02*
X175758000Y-99172000D01*
X175758000Y-99172000D02*
X178298000Y-99172000D01*
X154017000Y-60353000D02*
X154017000Y-70173000D01*
X154017000Y-70173000D02*
X151017000Y-70173000D01*
X151017000Y-70173000D02*
X151017000Y-60353000D01*
X151017000Y-60353000D02*
X154017000Y-60353000D01*
X154017000Y-62723000D02*
X151017000Y-62723000D01*
X150993000Y-58659000D02*
X145913000Y-58659000D01*
X145913000Y-58659000D02*
X145913000Y-71867000D01*
X145913000Y-71867000D02*
X150993000Y-71867000D01*
X150993000Y-71867000D02*
X150993000Y-58659000D01*
X159393051Y-75931000D02*
G75*
G03*
X159393051Y-75931000I-1796051J0D01*
G01*
X160137000Y-73391000D02*
X147437000Y-73391000D01*
X160137000Y-83551000D02*
X160137000Y-73391000D01*
X147437000Y-83551000D02*
X160137000Y-83551000D01*
X147437000Y-73391000D02*
X147437000Y-83551000D01*
X163301000Y-84087000D02*
X163301000Y-81487000D01*
X178001000Y-84087000D02*
X163301000Y-84087000D01*
X163301000Y-74887000D02*
X165201000Y-74887000D01*
X163301000Y-77587000D02*
X163301000Y-74887000D01*
X178001000Y-74887000D02*
X178001000Y-84087000D01*
X169201000Y-74887000D02*
X178001000Y-74887000D01*
X164151000Y-84287000D02*
X163101000Y-84287000D01*
X163101000Y-83237000D02*
X163101000Y-84287000D01*
X136090136Y-71820001D02*
G75*
G03*
X136090136Y-71820001I-4472136J0D01*
G01*
X141618000Y-62820001D02*
X141618000Y-80820001D01*
X122618000Y-62820001D02*
X141618000Y-62820001D01*
X122618000Y-80820001D02*
X122618000Y-62820001D01*
X141618000Y-80820001D02*
X122618000Y-80820001D01*
X135618000Y-80820001D02*
X135618000Y-81820001D01*
X128618000Y-80820001D02*
X135618000Y-80820001D01*
X128618000Y-81820001D02*
X128618000Y-80820001D01*
X135618000Y-81820001D02*
X128618000Y-81820001D01*
X119618000Y-60320001D02*
X144618000Y-60320001D01*
X119618000Y-82820001D02*
X119618000Y-60320001D01*
X144618000Y-82820001D02*
X119618000Y-82820001D01*
X144618000Y-60320001D02*
X144618000Y-82820001D01*
X121250000Y-81296001D02*
G75*
G03*
X121250000Y-81296001I-508000J0D01*
G01*
X121250000Y-61484001D02*
G75*
G03*
X121250000Y-61484001I-508000J0D01*
G01*
X143983000Y-61230001D02*
G75*
G03*
X143983000Y-61230001I-635000J0D01*
G01*
X143983000Y-81550001D02*
G75*
G03*
X143983000Y-81550001I-635000J0D01*
G01*
X136820136Y-71836001D02*
G75*
G03*
X136820136Y-71836001I-4472136J0D01*
G01*
X123348000Y-61836001D02*
X141348000Y-61836001D01*
X123348000Y-80836001D02*
X123348000Y-61836001D01*
X141348000Y-80836001D02*
X123348000Y-80836001D01*
X141348000Y-61836001D02*
X141348000Y-80836001D01*
X141348000Y-67836001D02*
X142348000Y-67836001D01*
X141348000Y-74836001D02*
X141348000Y-67836001D01*
X142348000Y-74836001D02*
X141348000Y-74836001D01*
X142348000Y-67836001D02*
X142348000Y-74836001D01*
X119618000Y-82820001D02*
X119618000Y-60320001D01*
X144618000Y-82820001D02*
X119618000Y-82820001D01*
X144618000Y-60320001D02*
X144618000Y-82820001D01*
X119618000Y-60320001D02*
X144618000Y-60320001D01*
X177723000Y-91993000D02*
X177723000Y-89333000D01*
X131943000Y-91993000D02*
X177723000Y-91993000D01*
X131943000Y-89333000D02*
X177723000Y-89333000D01*
X131943000Y-91993000D02*
X131943000Y-89333000D01*
X130673000Y-91993000D02*
X129343000Y-91993000D01*
X129343000Y-91993000D02*
X129343000Y-90663000D01*
X177723000Y-107010001D02*
X177723000Y-104350001D01*
X131943000Y-107010001D02*
X177723000Y-107010001D01*
X131943000Y-104350001D02*
X177723000Y-104350001D01*
X131943000Y-107010001D02*
X131943000Y-104350001D01*
X130673000Y-107010001D02*
X129343000Y-107010001D01*
X129343000Y-107010001D02*
X129343000Y-105680001D01*
X118202000Y-63770001D02*
X80610000Y-63770001D01*
X80610000Y-63770001D02*
X80610000Y-111522001D01*
X80610000Y-111522001D02*
X118202000Y-111522001D01*
X118202000Y-111522001D02*
X118202000Y-63770001D01*
X80610000Y-67580001D02*
X81880000Y-67580001D01*
X81880000Y-67580001D02*
X81880000Y-72660001D01*
X81880000Y-72660001D02*
X80610000Y-72660001D01*
X80610000Y-105680001D02*
X84420000Y-105680001D01*
X84420000Y-105680001D02*
X84420000Y-92980001D01*
X84420000Y-92980001D02*
X80610000Y-92980001D01*
X80610000Y-95520001D02*
X84420000Y-95520001D01*
X80610000Y-103140001D02*
X84420000Y-103140001D01*
X80610000Y-99330001D02*
X84420000Y-99330001D01*
D10*
X127255380Y-99298904D02*
X128064904Y-99298904D01*
X128160142Y-99251285D01*
X128207761Y-99203666D01*
X128255380Y-99108428D01*
X128255380Y-98917952D01*
X128207761Y-98822714D01*
X128160142Y-98775095D01*
X128064904Y-98727476D01*
X127255380Y-98727476D01*
X128255380Y-97727476D02*
X128255380Y-98298904D01*
X128255380Y-98013190D02*
X127255380Y-98013190D01*
X127398238Y-98108428D01*
X127493476Y-98203666D01*
X127541095Y-98298904D01*
X134959904Y-98465571D02*
X135293238Y-98465571D01*
X135436095Y-98989380D02*
X134959904Y-98989380D01*
X134959904Y-97989380D01*
X135436095Y-97989380D01*
X135817047Y-98941761D02*
X135959904Y-98989380D01*
X136198000Y-98989380D01*
X136293238Y-98941761D01*
X136340857Y-98894142D01*
X136388476Y-98798904D01*
X136388476Y-98703666D01*
X136340857Y-98608428D01*
X136293238Y-98560809D01*
X136198000Y-98513190D01*
X136007523Y-98465571D01*
X135912285Y-98417952D01*
X135864666Y-98370333D01*
X135817047Y-98275095D01*
X135817047Y-98179857D01*
X135864666Y-98084619D01*
X135912285Y-98037000D01*
X136007523Y-97989380D01*
X136245619Y-97989380D01*
X136388476Y-98037000D01*
X136817047Y-98989380D02*
X136817047Y-97989380D01*
X137198000Y-97989380D01*
X137293238Y-98037000D01*
X137340857Y-98084619D01*
X137388476Y-98179857D01*
X137388476Y-98322714D01*
X137340857Y-98417952D01*
X137293238Y-98465571D01*
X137198000Y-98513190D01*
X136817047Y-98513190D01*
X137721809Y-97989380D02*
X138340857Y-97989380D01*
X138007523Y-98370333D01*
X138150380Y-98370333D01*
X138245619Y-98417952D01*
X138293238Y-98465571D01*
X138340857Y-98560809D01*
X138340857Y-98798904D01*
X138293238Y-98894142D01*
X138245619Y-98941761D01*
X138150380Y-98989380D01*
X137864666Y-98989380D01*
X137769428Y-98941761D01*
X137721809Y-98894142D01*
X138721809Y-98084619D02*
X138769428Y-98037000D01*
X138864666Y-97989380D01*
X139102761Y-97989380D01*
X139198000Y-98037000D01*
X139245619Y-98084619D01*
X139293238Y-98179857D01*
X139293238Y-98275095D01*
X139245619Y-98417952D01*
X138674190Y-98989380D01*
X139293238Y-98989380D01*
X140483714Y-98989380D02*
X140483714Y-98322714D01*
X140483714Y-98417952D02*
X140531333Y-98370333D01*
X140626571Y-98322714D01*
X140769428Y-98322714D01*
X140864666Y-98370333D01*
X140912285Y-98465571D01*
X140912285Y-98989380D01*
X140912285Y-98465571D02*
X140959904Y-98370333D01*
X141055142Y-98322714D01*
X141198000Y-98322714D01*
X141293238Y-98370333D01*
X141340857Y-98465571D01*
X141340857Y-98989380D01*
X141959904Y-98989380D02*
X141864666Y-98941761D01*
X141817047Y-98894142D01*
X141769428Y-98798904D01*
X141769428Y-98513190D01*
X141817047Y-98417952D01*
X141864666Y-98370333D01*
X141959904Y-98322714D01*
X142102761Y-98322714D01*
X142198000Y-98370333D01*
X142245619Y-98417952D01*
X142293238Y-98513190D01*
X142293238Y-98798904D01*
X142245619Y-98894142D01*
X142198000Y-98941761D01*
X142102761Y-98989380D01*
X141959904Y-98989380D01*
X143150380Y-98989380D02*
X143150380Y-97989380D01*
X143150380Y-98941761D02*
X143055142Y-98989380D01*
X142864666Y-98989380D01*
X142769428Y-98941761D01*
X142721809Y-98894142D01*
X142674190Y-98798904D01*
X142674190Y-98513190D01*
X142721809Y-98417952D01*
X142769428Y-98370333D01*
X142864666Y-98322714D01*
X143055142Y-98322714D01*
X143150380Y-98370333D01*
X144055142Y-98322714D02*
X144055142Y-98989380D01*
X143626571Y-98322714D02*
X143626571Y-98846523D01*
X143674190Y-98941761D01*
X143769428Y-98989380D01*
X143912285Y-98989380D01*
X144007523Y-98941761D01*
X144055142Y-98894142D01*
X144674190Y-98989380D02*
X144578952Y-98941761D01*
X144531333Y-98846523D01*
X144531333Y-97989380D01*
X145436095Y-98941761D02*
X145340857Y-98989380D01*
X145150380Y-98989380D01*
X145055142Y-98941761D01*
X145007523Y-98846523D01*
X145007523Y-98465571D01*
X145055142Y-98370333D01*
X145150380Y-98322714D01*
X145340857Y-98322714D01*
X145436095Y-98370333D01*
X145483714Y-98465571D01*
X145483714Y-98560809D01*
X145007523Y-98656047D01*
X174940380Y-100814619D02*
X174273714Y-100814619D01*
X174368952Y-100814619D02*
X174321333Y-100767000D01*
X174273714Y-100671761D01*
X174273714Y-100528904D01*
X174321333Y-100433666D01*
X174416571Y-100386047D01*
X174940380Y-100386047D01*
X174416571Y-100386047D02*
X174321333Y-100338428D01*
X174273714Y-100243190D01*
X174273714Y-100100333D01*
X174321333Y-100005095D01*
X174416571Y-99957476D01*
X174940380Y-99957476D01*
X174940380Y-99481285D02*
X174273714Y-99481285D01*
X173940380Y-99481285D02*
X173988000Y-99528904D01*
X174035619Y-99481285D01*
X173988000Y-99433666D01*
X173940380Y-99481285D01*
X174035619Y-99481285D01*
X174892761Y-98576523D02*
X174940380Y-98671761D01*
X174940380Y-98862238D01*
X174892761Y-98957476D01*
X174845142Y-99005095D01*
X174749904Y-99052714D01*
X174464190Y-99052714D01*
X174368952Y-99005095D01*
X174321333Y-98957476D01*
X174273714Y-98862238D01*
X174273714Y-98671761D01*
X174321333Y-98576523D01*
X174940380Y-98147952D02*
X174273714Y-98147952D01*
X174464190Y-98147952D02*
X174368952Y-98100333D01*
X174321333Y-98052714D01*
X174273714Y-97957476D01*
X174273714Y-97862238D01*
X174940380Y-97386047D02*
X174892761Y-97481285D01*
X174845142Y-97528904D01*
X174749904Y-97576523D01*
X174464190Y-97576523D01*
X174368952Y-97528904D01*
X174321333Y-97481285D01*
X174273714Y-97386047D01*
X174273714Y-97243190D01*
X174321333Y-97147952D01*
X174368952Y-97100333D01*
X174464190Y-97052714D01*
X174749904Y-97052714D01*
X174845142Y-97100333D01*
X174892761Y-97147952D01*
X174940380Y-97243190D01*
X174940380Y-97386047D01*
X174273714Y-95433666D02*
X174940380Y-95433666D01*
X174273714Y-95862238D02*
X174797523Y-95862238D01*
X174892761Y-95814619D01*
X174940380Y-95719380D01*
X174940380Y-95576523D01*
X174892761Y-95481285D01*
X174845142Y-95433666D01*
X174892761Y-95005095D02*
X174940380Y-94909857D01*
X174940380Y-94719380D01*
X174892761Y-94624142D01*
X174797523Y-94576523D01*
X174749904Y-94576523D01*
X174654666Y-94624142D01*
X174607047Y-94719380D01*
X174607047Y-94862238D01*
X174559428Y-94957476D01*
X174464190Y-95005095D01*
X174416571Y-95005095D01*
X174321333Y-94957476D01*
X174273714Y-94862238D01*
X174273714Y-94719380D01*
X174321333Y-94624142D01*
X174940380Y-94147952D02*
X173940380Y-94147952D01*
X174321333Y-94147952D02*
X174273714Y-94052714D01*
X174273714Y-93862238D01*
X174321333Y-93767000D01*
X174368952Y-93719380D01*
X174464190Y-93671761D01*
X174749904Y-93671761D01*
X174845142Y-93719380D01*
X174892761Y-93767000D01*
X174940380Y-93862238D01*
X174940380Y-94052714D01*
X174892761Y-94147952D01*
X147905380Y-60436904D02*
X148714904Y-60436904D01*
X148810142Y-60389285D01*
X148857761Y-60341666D01*
X148905380Y-60246428D01*
X148905380Y-60055952D01*
X148857761Y-59960714D01*
X148810142Y-59913095D01*
X148714904Y-59865476D01*
X147905380Y-59865476D01*
X147905380Y-58913095D02*
X147905380Y-59389285D01*
X148381571Y-59436904D01*
X148333952Y-59389285D01*
X148286333Y-59294047D01*
X148286333Y-59055952D01*
X148333952Y-58960714D01*
X148381571Y-58913095D01*
X148476809Y-58865476D01*
X148714904Y-58865476D01*
X148810142Y-58913095D01*
X148857761Y-58960714D01*
X148905380Y-59055952D01*
X148905380Y-59294047D01*
X148857761Y-59389285D01*
X148810142Y-59436904D01*
X155414142Y-69168238D02*
X155461761Y-69215857D01*
X155509380Y-69358714D01*
X155509380Y-69453952D01*
X155461761Y-69596809D01*
X155366523Y-69692047D01*
X155271285Y-69739666D01*
X155080809Y-69787285D01*
X154937952Y-69787285D01*
X154747476Y-69739666D01*
X154652238Y-69692047D01*
X154557000Y-69596809D01*
X154509380Y-69453952D01*
X154509380Y-69358714D01*
X154557000Y-69215857D01*
X154604619Y-69168238D01*
X155509380Y-68263476D02*
X155509380Y-68739666D01*
X154509380Y-68739666D01*
X155509380Y-67223476D02*
X154509380Y-67223476D01*
X154509380Y-66985380D01*
X154557000Y-66842523D01*
X154652238Y-66747285D01*
X154747476Y-66699666D01*
X154937952Y-66652047D01*
X155080809Y-66652047D01*
X155271285Y-66699666D01*
X155366523Y-66747285D01*
X155461761Y-66842523D01*
X155509380Y-66985380D01*
X155509380Y-67223476D01*
X155223666Y-66271095D02*
X155223666Y-65794904D01*
X155509380Y-66366333D02*
X154509380Y-66033000D01*
X155509380Y-65699666D01*
X154557000Y-63731095D02*
X154509380Y-63826333D01*
X154509380Y-63969190D01*
X154557000Y-64112047D01*
X154652238Y-64207285D01*
X154747476Y-64254904D01*
X154937952Y-64302523D01*
X155080809Y-64302523D01*
X155271285Y-64254904D01*
X155366523Y-64207285D01*
X155461761Y-64112047D01*
X155509380Y-63969190D01*
X155509380Y-63873952D01*
X155461761Y-63731095D01*
X155414142Y-63683476D01*
X155080809Y-63683476D01*
X155080809Y-63873952D01*
X154509380Y-61786333D02*
X155509380Y-61453000D01*
X154509380Y-61119666D01*
X150445380Y-75676904D02*
X151254904Y-75676904D01*
X151350142Y-75629285D01*
X151397761Y-75581666D01*
X151445380Y-75486428D01*
X151445380Y-75295952D01*
X151397761Y-75200714D01*
X151350142Y-75153095D01*
X151254904Y-75105476D01*
X150445380Y-75105476D01*
X150445380Y-74200714D02*
X150445380Y-74391190D01*
X150493000Y-74486428D01*
X150540619Y-74534047D01*
X150683476Y-74629285D01*
X150873952Y-74676904D01*
X151254904Y-74676904D01*
X151350142Y-74629285D01*
X151397761Y-74581666D01*
X151445380Y-74486428D01*
X151445380Y-74295952D01*
X151397761Y-74200714D01*
X151350142Y-74153095D01*
X151254904Y-74105476D01*
X151016809Y-74105476D01*
X150921571Y-74153095D01*
X150873952Y-74200714D01*
X150826333Y-74295952D01*
X150826333Y-74486428D01*
X150873952Y-74581666D01*
X150921571Y-74629285D01*
X151016809Y-74676904D01*
X172317666Y-73189380D02*
X172317666Y-73903666D01*
X172270047Y-74046523D01*
X172174809Y-74141761D01*
X172031952Y-74189380D01*
X171936714Y-74189380D01*
X172698619Y-73189380D02*
X173317666Y-73189380D01*
X172984333Y-73570333D01*
X173127190Y-73570333D01*
X173222428Y-73617952D01*
X173270047Y-73665571D01*
X173317666Y-73760809D01*
X173317666Y-73998904D01*
X173270047Y-74094142D01*
X173222428Y-74141761D01*
X173127190Y-74189380D01*
X172841476Y-74189380D01*
X172746238Y-74141761D01*
X172698619Y-74094142D01*
X130356095Y-58372381D02*
X130356095Y-59181905D01*
X130403714Y-59277143D01*
X130451333Y-59324762D01*
X130546571Y-59372381D01*
X130737047Y-59372381D01*
X130832285Y-59324762D01*
X130879904Y-59277143D01*
X130927523Y-59181905D01*
X130927523Y-58372381D01*
X131832285Y-58705715D02*
X131832285Y-59372381D01*
X131594190Y-58324762D02*
X131356095Y-59039048D01*
X131975142Y-59039048D01*
X117400380Y-72151905D02*
X118209904Y-72151905D01*
X118305142Y-72104286D01*
X118352761Y-72056667D01*
X118400380Y-71961429D01*
X118400380Y-71770953D01*
X118352761Y-71675715D01*
X118305142Y-71628096D01*
X118209904Y-71580477D01*
X117400380Y-71580477D01*
X117400380Y-71199524D02*
X117400380Y-70580477D01*
X117781333Y-70913810D01*
X117781333Y-70770953D01*
X117828952Y-70675715D01*
X117876571Y-70628096D01*
X117971809Y-70580477D01*
X118209904Y-70580477D01*
X118305142Y-70628096D01*
X118352761Y-70675715D01*
X118400380Y-70770953D01*
X118400380Y-71056667D01*
X118352761Y-71151905D01*
X118305142Y-71199524D01*
X127795380Y-90996333D02*
X128509666Y-90996333D01*
X128652523Y-91043952D01*
X128747761Y-91139190D01*
X128795380Y-91282047D01*
X128795380Y-91377285D01*
X127890619Y-90567761D02*
X127843000Y-90520142D01*
X127795380Y-90424904D01*
X127795380Y-90186809D01*
X127843000Y-90091571D01*
X127890619Y-90043952D01*
X127985857Y-89996333D01*
X128081095Y-89996333D01*
X128223952Y-90043952D01*
X128795380Y-90615380D01*
X128795380Y-89996333D01*
X81603095Y-58347380D02*
X81603095Y-57347380D01*
X81603095Y-57823571D02*
X82174523Y-57823571D01*
X82174523Y-58347380D02*
X82174523Y-57347380D01*
X83079285Y-57680714D02*
X83079285Y-58347380D01*
X82841190Y-57299761D02*
X82603095Y-58014047D01*
X83222142Y-58014047D01*
X175603095Y-58347380D02*
X175603095Y-57347380D01*
X175603095Y-57823571D02*
X176174523Y-57823571D01*
X176174523Y-58347380D02*
X176174523Y-57347380D01*
X176555476Y-57347380D02*
X177174523Y-57347380D01*
X176841190Y-57728333D01*
X176984047Y-57728333D01*
X177079285Y-57775952D01*
X177126904Y-57823571D01*
X177174523Y-57918809D01*
X177174523Y-58156904D01*
X177126904Y-58252142D01*
X177079285Y-58299761D01*
X176984047Y-58347380D01*
X176698333Y-58347380D01*
X176603095Y-58299761D01*
X176555476Y-58252142D01*
X81603095Y-112347380D02*
X81603095Y-111347380D01*
X81603095Y-111823571D02*
X82174523Y-111823571D01*
X82174523Y-112347380D02*
X82174523Y-111347380D01*
X82603095Y-111442619D02*
X82650714Y-111395000D01*
X82745952Y-111347380D01*
X82984047Y-111347380D01*
X83079285Y-111395000D01*
X83126904Y-111442619D01*
X83174523Y-111537857D01*
X83174523Y-111633095D01*
X83126904Y-111775952D01*
X82555476Y-112347380D01*
X83174523Y-112347380D01*
X175603095Y-112347380D02*
X175603095Y-111347380D01*
X175603095Y-111823571D02*
X176174523Y-111823571D01*
X176174523Y-112347380D02*
X176174523Y-111347380D01*
X177174523Y-112347380D02*
X176603095Y-112347380D01*
X176888809Y-112347380D02*
X176888809Y-111347380D01*
X176793571Y-111490238D01*
X176698333Y-111585476D01*
X176603095Y-111633095D01*
X127795380Y-106013334D02*
X128509666Y-106013334D01*
X128652523Y-106060953D01*
X128747761Y-106156191D01*
X128795380Y-106299048D01*
X128795380Y-106394286D01*
X128795380Y-105013334D02*
X128795380Y-105584762D01*
X128795380Y-105299048D02*
X127795380Y-105299048D01*
X127938238Y-105394286D01*
X128033476Y-105489524D01*
X128081095Y-105584762D01*
X82602380Y-82311905D02*
X83411904Y-82311905D01*
X83507142Y-82264286D01*
X83554761Y-82216667D01*
X83602380Y-82121429D01*
X83602380Y-81930953D01*
X83554761Y-81835715D01*
X83507142Y-81788096D01*
X83411904Y-81740477D01*
X82602380Y-81740477D01*
X82697619Y-81311905D02*
X82650000Y-81264286D01*
X82602380Y-81169048D01*
X82602380Y-80930953D01*
X82650000Y-80835715D01*
X82697619Y-80788096D01*
X82792857Y-80740477D01*
X82888095Y-80740477D01*
X83030952Y-80788096D01*
X83602380Y-81359524D01*
X83602380Y-80740477D01*
%LPC*%
D12*
X130673000Y-87107000D03*
X130673000Y-109967000D03*
X133213000Y-87107000D03*
X133213000Y-109967000D03*
X135753000Y-87107000D03*
X135753000Y-109967000D03*
X138293000Y-87107000D03*
X138293000Y-109967000D03*
X140833000Y-87107000D03*
X140833000Y-109967000D03*
X143373000Y-87107000D03*
X143373000Y-109967000D03*
X145913000Y-87107000D03*
X145913000Y-109967000D03*
X148453000Y-87107000D03*
X148453000Y-109967000D03*
X150993000Y-87107000D03*
X150993000Y-109967000D03*
X153533000Y-87107000D03*
X153533000Y-109967000D03*
X156073000Y-87107000D03*
X156073000Y-109967000D03*
X158613000Y-87107000D03*
X158613000Y-109967000D03*
X161153000Y-87107000D03*
X161153000Y-109967000D03*
X163693000Y-87107000D03*
X163693000Y-109967000D03*
X166233000Y-87107000D03*
X166233000Y-109967000D03*
D13*
X168773000Y-87107000D03*
X168773000Y-109967000D03*
D12*
X171313000Y-87107000D03*
X171313000Y-109967000D03*
X173853000Y-87107000D03*
X173853000Y-109967000D03*
X176393000Y-87107000D03*
X176393000Y-109967000D03*
D14*
X152517000Y-69073000D03*
X152517000Y-66533000D03*
X152517000Y-63993000D03*
X152517000Y-61453000D03*
D15*
X158867000Y-79741000D03*
X158867000Y-82281000D03*
X148707000Y-82281000D03*
X148707000Y-79741000D03*
X148707000Y-77201000D03*
X148707000Y-74661000D03*
G36*
G01*
X168951000Y-73912000D02*
X168951000Y-75662000D01*
G75*
G02*
X168076000Y-76537000I-875000J0D01*
G01*
X166326000Y-76537000D01*
G75*
G02*
X165451000Y-75662000I0J875000D01*
G01*
X165451000Y-73912000D01*
G75*
G02*
X166326000Y-73037000I875000J0D01*
G01*
X168076000Y-73037000D01*
G75*
G02*
X168951000Y-73912000I0J-875000D01*
G01*
G37*
G36*
G01*
X171701000Y-78487000D02*
X171701000Y-80487000D01*
G75*
G02*
X170951000Y-81237000I-750000J0D01*
G01*
X169451000Y-81237000D01*
G75*
G02*
X168701000Y-80487000I0J750000D01*
G01*
X168701000Y-78487000D01*
G75*
G02*
X169451000Y-77737000I750000J0D01*
G01*
X170951000Y-77737000D01*
G75*
G02*
X171701000Y-78487000I0J-750000D01*
G01*
G37*
D16*
X164201000Y-79487000D03*
D17*
X120768000Y-69320001D03*
X120768000Y-71320001D03*
X120768000Y-73320001D03*
X120768000Y-75320001D03*
X120768000Y-77320001D03*
X143468000Y-67320001D03*
X143468000Y-69320001D03*
X143468000Y-71320001D03*
X143468000Y-73320001D03*
X143468000Y-75320001D03*
X143468000Y-77320001D03*
D18*
X143468000Y-79320001D03*
D17*
X125568000Y-81550001D03*
X130648000Y-81550001D03*
X128108000Y-81550001D03*
X133188000Y-81550001D03*
X135728000Y-81550001D03*
X138268000Y-81550001D03*
D19*
X130673000Y-90663000D03*
D20*
X133213000Y-90663000D03*
X135753000Y-90663000D03*
X138293000Y-90663000D03*
X140833000Y-90663000D03*
X143373000Y-90663000D03*
X145913000Y-90663000D03*
X148453000Y-90663000D03*
X150993000Y-90663000D03*
X153533000Y-90663000D03*
X156073000Y-90663000D03*
X158613000Y-90663000D03*
X161153000Y-90663000D03*
X163693000Y-90663000D03*
X166233000Y-90663000D03*
X168773000Y-90663000D03*
X171313000Y-90663000D03*
X173853000Y-90663000D03*
X176393000Y-90663000D03*
D21*
X82365000Y-61095000D03*
X176365000Y-61095000D03*
X82365000Y-115095000D03*
X176365000Y-115095000D03*
D19*
X130673000Y-105680001D03*
D20*
X133213000Y-105680001D03*
X135753000Y-105680001D03*
X138293000Y-105680001D03*
X140833000Y-105680001D03*
X143373000Y-105680001D03*
X145913000Y-105680001D03*
X148453000Y-105680001D03*
X150993000Y-105680001D03*
X153533000Y-105680001D03*
X156073000Y-105680001D03*
X158613000Y-105680001D03*
X161153000Y-105680001D03*
X163693000Y-105680001D03*
X166233000Y-105680001D03*
X168773000Y-105680001D03*
X171313000Y-105680001D03*
X173853000Y-105680001D03*
X176393000Y-105680001D03*
D22*
X85690000Y-68850001D03*
X85690000Y-70120001D03*
X86960000Y-68850001D03*
X86960000Y-70120001D03*
X88230000Y-68850001D03*
X88230000Y-70120001D03*
X89500000Y-68850001D03*
X89500000Y-70120001D03*
X90770000Y-68850001D03*
X90770000Y-70120001D03*
M02*
