G04 #@! TF.GenerationSoftware,KiCad,Pcbnew,5.1.10*
G04 #@! TF.CreationDate,2021-11-28T23:53:09+08:00*
G04 #@! TF.ProjectId,air_mon2,6169725f-6d6f-46e3-922e-6b696361645f,rev?*
G04 #@! TF.SameCoordinates,Original*
G04 #@! TF.FileFunction,Copper,L2,Bot*
G04 #@! TF.FilePolarity,Positive*
%FSLAX46Y46*%
G04 Gerber Fmt 4.6, Leading zero omitted, Abs format (unit mm)*
G04 Created by KiCad (PCBNEW 5.1.10) date 2021-11-28 23:53:09*
%MOMM*%
%LPD*%
G01*
G04 APERTURE LIST*
G04 #@! TA.AperFunction,ComponentPad*
%ADD10O,1.200000X2.000000*%
G04 #@! TD*
G04 #@! TA.AperFunction,ComponentPad*
%ADD11R,1.200000X2.000000*%
G04 #@! TD*
G04 #@! TA.AperFunction,ComponentPad*
%ADD12O,2.000000X1.200000*%
G04 #@! TD*
G04 #@! TA.AperFunction,ComponentPad*
%ADD13C,1.524000*%
G04 #@! TD*
G04 #@! TA.AperFunction,ComponentPad*
%ADD14R,3.500000X3.500000*%
G04 #@! TD*
G04 #@! TA.AperFunction,ComponentPad*
%ADD15C,1.350000*%
G04 #@! TD*
G04 #@! TA.AperFunction,ComponentPad*
%ADD16R,1.350000X1.350000*%
G04 #@! TD*
G04 #@! TA.AperFunction,ComponentPad*
%ADD17R,1.700000X1.700000*%
G04 #@! TD*
G04 #@! TA.AperFunction,ComponentPad*
%ADD18O,1.700000X1.700000*%
G04 #@! TD*
G04 #@! TA.AperFunction,ComponentPad*
%ADD19C,4.400000*%
G04 #@! TD*
G04 #@! TA.AperFunction,ComponentPad*
%ADD20C,0.870000*%
G04 #@! TD*
G04 #@! TA.AperFunction,ViaPad*
%ADD21C,0.800000*%
G04 #@! TD*
G04 #@! TA.AperFunction,Conductor*
%ADD22C,1.500000*%
G04 #@! TD*
G04 #@! TA.AperFunction,Conductor*
%ADD23C,0.800000*%
G04 #@! TD*
G04 #@! TA.AperFunction,Conductor*
%ADD24C,1.000000*%
G04 #@! TD*
G04 #@! TA.AperFunction,Conductor*
%ADD25C,0.400000*%
G04 #@! TD*
G04 APERTURE END LIST*
D10*
X130673000Y-87107000D03*
X130673000Y-109967000D03*
X133213000Y-87107000D03*
X133213000Y-109967000D03*
X135753000Y-87107000D03*
X135753000Y-109967000D03*
X138293000Y-87107000D03*
X138293000Y-109967000D03*
X140833000Y-87107000D03*
X140833000Y-109967000D03*
X143373000Y-87107000D03*
X143373000Y-109967000D03*
X145913000Y-87107000D03*
X145913000Y-109967000D03*
X148453000Y-87107000D03*
X148453000Y-109967000D03*
X150993000Y-87107000D03*
X150993000Y-109967000D03*
X153533000Y-87107000D03*
X153533000Y-109967000D03*
X156073000Y-87107000D03*
X156073000Y-109967000D03*
X158613000Y-87107000D03*
X158613000Y-109967000D03*
X161153000Y-87107000D03*
X161153000Y-109967000D03*
X163693000Y-87107000D03*
X163693000Y-109967000D03*
X166233000Y-87107000D03*
X166233000Y-109967000D03*
D11*
X168773000Y-87107000D03*
X168773000Y-109967000D03*
D10*
X171313000Y-87107000D03*
X171313000Y-109967000D03*
X173853000Y-87107000D03*
X173853000Y-109967000D03*
X176393000Y-87107000D03*
X176393000Y-109967000D03*
D12*
X152517000Y-69073000D03*
X152517000Y-66533000D03*
X152517000Y-63993000D03*
X152517000Y-61453000D03*
D13*
X158867000Y-79741000D03*
X158867000Y-82281000D03*
X148707000Y-82281000D03*
X148707000Y-79741000D03*
X148707000Y-77201000D03*
X148707000Y-74661000D03*
G04 #@! TA.AperFunction,SMDPad,CuDef*
G36*
G01*
X156523001Y-96343000D02*
X155622999Y-96343000D01*
G75*
G02*
X155373000Y-96093001I0J249999D01*
G01*
X155373000Y-95392999D01*
G75*
G02*
X155622999Y-95143000I249999J0D01*
G01*
X156523001Y-95143000D01*
G75*
G02*
X156773000Y-95392999I0J-249999D01*
G01*
X156773000Y-96093001D01*
G75*
G02*
X156523001Y-96343000I-249999J0D01*
G01*
G37*
G04 #@! TD.AperFunction*
G04 #@! TA.AperFunction,SMDPad,CuDef*
G36*
G01*
X156523001Y-94343000D02*
X155622999Y-94343000D01*
G75*
G02*
X155373000Y-94093001I0J249999D01*
G01*
X155373000Y-93392999D01*
G75*
G02*
X155622999Y-93143000I249999J0D01*
G01*
X156523001Y-93143000D01*
G75*
G02*
X156773000Y-93392999I0J-249999D01*
G01*
X156773000Y-94093001D01*
G75*
G02*
X156523001Y-94343000I-249999J0D01*
G01*
G37*
G04 #@! TD.AperFunction*
G04 #@! TA.AperFunction,SMDPad,CuDef*
G36*
G01*
X159063001Y-96327000D02*
X158162999Y-96327000D01*
G75*
G02*
X157913000Y-96077001I0J249999D01*
G01*
X157913000Y-95376999D01*
G75*
G02*
X158162999Y-95127000I249999J0D01*
G01*
X159063001Y-95127000D01*
G75*
G02*
X159313000Y-95376999I0J-249999D01*
G01*
X159313000Y-96077001D01*
G75*
G02*
X159063001Y-96327000I-249999J0D01*
G01*
G37*
G04 #@! TD.AperFunction*
G04 #@! TA.AperFunction,SMDPad,CuDef*
G36*
G01*
X159063001Y-94327000D02*
X158162999Y-94327000D01*
G75*
G02*
X157913000Y-94077001I0J249999D01*
G01*
X157913000Y-93376999D01*
G75*
G02*
X158162999Y-93127000I249999J0D01*
G01*
X159063001Y-93127000D01*
G75*
G02*
X159313000Y-93376999I0J-249999D01*
G01*
X159313000Y-94077001D01*
G75*
G02*
X159063001Y-94327000I-249999J0D01*
G01*
G37*
G04 #@! TD.AperFunction*
G04 #@! TA.AperFunction,SMDPad,CuDef*
G36*
G01*
X100577000Y-71809001D02*
X100577000Y-70908999D01*
G75*
G02*
X100826999Y-70659000I249999J0D01*
G01*
X101527001Y-70659000D01*
G75*
G02*
X101777000Y-70908999I0J-249999D01*
G01*
X101777000Y-71809001D01*
G75*
G02*
X101527001Y-72059000I-249999J0D01*
G01*
X100826999Y-72059000D01*
G75*
G02*
X100577000Y-71809001I0J249999D01*
G01*
G37*
G04 #@! TD.AperFunction*
G04 #@! TA.AperFunction,SMDPad,CuDef*
G36*
G01*
X98577000Y-71809001D02*
X98577000Y-70908999D01*
G75*
G02*
X98826999Y-70659000I249999J0D01*
G01*
X99527001Y-70659000D01*
G75*
G02*
X99777000Y-70908999I0J-249999D01*
G01*
X99777000Y-71809001D01*
G75*
G02*
X99527001Y-72059000I-249999J0D01*
G01*
X98826999Y-72059000D01*
G75*
G02*
X98577000Y-71809001I0J249999D01*
G01*
G37*
G04 #@! TD.AperFunction*
G04 #@! TA.AperFunction,SMDPad,CuDef*
G36*
G01*
X98577000Y-69269001D02*
X98577000Y-68368999D01*
G75*
G02*
X98826999Y-68119000I249999J0D01*
G01*
X99527001Y-68119000D01*
G75*
G02*
X99777000Y-68368999I0J-249999D01*
G01*
X99777000Y-69269001D01*
G75*
G02*
X99527001Y-69519000I-249999J0D01*
G01*
X98826999Y-69519000D01*
G75*
G02*
X98577000Y-69269001I0J249999D01*
G01*
G37*
G04 #@! TD.AperFunction*
G04 #@! TA.AperFunction,SMDPad,CuDef*
G36*
G01*
X100577000Y-69269001D02*
X100577000Y-68368999D01*
G75*
G02*
X100826999Y-68119000I249999J0D01*
G01*
X101527001Y-68119000D01*
G75*
G02*
X101777000Y-68368999I0J-249999D01*
G01*
X101777000Y-69269001D01*
G75*
G02*
X101527001Y-69519000I-249999J0D01*
G01*
X100826999Y-69519000D01*
G75*
G02*
X100577000Y-69269001I0J249999D01*
G01*
G37*
G04 #@! TD.AperFunction*
G04 #@! TA.AperFunction,ComponentPad*
G36*
G01*
X168951000Y-73912000D02*
X168951000Y-75662000D01*
G75*
G02*
X168076000Y-76537000I-875000J0D01*
G01*
X166326000Y-76537000D01*
G75*
G02*
X165451000Y-75662000I0J875000D01*
G01*
X165451000Y-73912000D01*
G75*
G02*
X166326000Y-73037000I875000J0D01*
G01*
X168076000Y-73037000D01*
G75*
G02*
X168951000Y-73912000I0J-875000D01*
G01*
G37*
G04 #@! TD.AperFunction*
G04 #@! TA.AperFunction,ComponentPad*
G36*
G01*
X171701000Y-78487000D02*
X171701000Y-80487000D01*
G75*
G02*
X170951000Y-81237000I-750000J0D01*
G01*
X169451000Y-81237000D01*
G75*
G02*
X168701000Y-80487000I0J750000D01*
G01*
X168701000Y-78487000D01*
G75*
G02*
X169451000Y-77737000I750000J0D01*
G01*
X170951000Y-77737000D01*
G75*
G02*
X171701000Y-78487000I0J-750000D01*
G01*
G37*
G04 #@! TD.AperFunction*
D14*
X164201000Y-79487000D03*
G04 #@! TA.AperFunction,SMDPad,CuDef*
G36*
G01*
X140741000Y-95050001D02*
X140741000Y-94149999D01*
G75*
G02*
X140990999Y-93900000I249999J0D01*
G01*
X141691001Y-93900000D01*
G75*
G02*
X141941000Y-94149999I0J-249999D01*
G01*
X141941000Y-95050001D01*
G75*
G02*
X141691001Y-95300000I-249999J0D01*
G01*
X140990999Y-95300000D01*
G75*
G02*
X140741000Y-95050001I0J249999D01*
G01*
G37*
G04 #@! TD.AperFunction*
G04 #@! TA.AperFunction,SMDPad,CuDef*
G36*
G01*
X142741000Y-95050001D02*
X142741000Y-94149999D01*
G75*
G02*
X142990999Y-93900000I249999J0D01*
G01*
X143691001Y-93900000D01*
G75*
G02*
X143941000Y-94149999I0J-249999D01*
G01*
X143941000Y-95050001D01*
G75*
G02*
X143691001Y-95300000I-249999J0D01*
G01*
X142990999Y-95300000D01*
G75*
G02*
X142741000Y-95050001I0J249999D01*
G01*
G37*
G04 #@! TD.AperFunction*
G04 #@! TA.AperFunction,SMDPad,CuDef*
G36*
G01*
X138353000Y-94149999D02*
X138353000Y-95050001D01*
G75*
G02*
X138103001Y-95300000I-249999J0D01*
G01*
X137402999Y-95300000D01*
G75*
G02*
X137153000Y-95050001I0J249999D01*
G01*
X137153000Y-94149999D01*
G75*
G02*
X137402999Y-93900000I249999J0D01*
G01*
X138103001Y-93900000D01*
G75*
G02*
X138353000Y-94149999I0J-249999D01*
G01*
G37*
G04 #@! TD.AperFunction*
G04 #@! TA.AperFunction,SMDPad,CuDef*
G36*
G01*
X136353000Y-94149999D02*
X136353000Y-95050001D01*
G75*
G02*
X136103001Y-95300000I-249999J0D01*
G01*
X135402999Y-95300000D01*
G75*
G02*
X135153000Y-95050001I0J249999D01*
G01*
X135153000Y-94149999D01*
G75*
G02*
X135402999Y-93900000I249999J0D01*
G01*
X136103001Y-93900000D01*
G75*
G02*
X136353000Y-94149999I0J-249999D01*
G01*
G37*
G04 #@! TD.AperFunction*
D15*
X120768000Y-69320001D03*
X120768000Y-71320001D03*
X120768000Y-73320001D03*
X120768000Y-75320001D03*
X120768000Y-77320001D03*
X143468000Y-67320001D03*
X143468000Y-69320001D03*
X143468000Y-71320001D03*
X143468000Y-73320001D03*
X143468000Y-75320001D03*
X143468000Y-77320001D03*
D16*
X143468000Y-79320001D03*
D15*
X125568000Y-81550001D03*
X130648000Y-81550001D03*
X128108000Y-81550001D03*
X133188000Y-81550001D03*
X135728000Y-81550001D03*
X138268000Y-81550001D03*
D17*
X130673000Y-90663000D03*
D18*
X133213000Y-90663000D03*
X135753000Y-90663000D03*
X138293000Y-90663000D03*
X140833000Y-90663000D03*
X143373000Y-90663000D03*
X145913000Y-90663000D03*
X148453000Y-90663000D03*
X150993000Y-90663000D03*
X153533000Y-90663000D03*
X156073000Y-90663000D03*
X158613000Y-90663000D03*
X161153000Y-90663000D03*
X163693000Y-90663000D03*
X166233000Y-90663000D03*
X168773000Y-90663000D03*
X171313000Y-90663000D03*
X173853000Y-90663000D03*
X176393000Y-90663000D03*
D19*
X82365000Y-61095000D03*
X176365000Y-61095000D03*
X82365000Y-115095000D03*
X176365000Y-115095000D03*
D17*
X130673000Y-105680001D03*
D18*
X133213000Y-105680001D03*
X135753000Y-105680001D03*
X138293000Y-105680001D03*
X140833000Y-105680001D03*
X143373000Y-105680001D03*
X145913000Y-105680001D03*
X148453000Y-105680001D03*
X150993000Y-105680001D03*
X153533000Y-105680001D03*
X156073000Y-105680001D03*
X158613000Y-105680001D03*
X161153000Y-105680001D03*
X163693000Y-105680001D03*
X166233000Y-105680001D03*
X168773000Y-105680001D03*
X171313000Y-105680001D03*
X173853000Y-105680001D03*
X176393000Y-105680001D03*
D20*
X85690000Y-68850001D03*
X85690000Y-70120001D03*
X86960000Y-68850001D03*
X86960000Y-70120001D03*
X88230000Y-68850001D03*
X88230000Y-70120001D03*
X89500000Y-68850001D03*
X89500000Y-70120001D03*
X90770000Y-68850001D03*
X90770000Y-70120001D03*
D21*
X113630000Y-65040001D03*
X118710000Y-68215001D03*
X110455000Y-65040001D03*
X118710000Y-72025001D03*
X121529000Y-109967000D03*
X116449000Y-109967000D03*
X121529000Y-105903000D03*
X116449000Y-105903000D03*
X103749000Y-72883000D03*
X120615000Y-99965001D03*
X112360000Y-94250001D03*
X97625000Y-68339000D03*
X153533000Y-72883000D03*
X152009000Y-72883000D03*
X120615000Y-96790001D03*
X114265000Y-96790001D03*
X95621000Y-71359000D03*
D22*
X115535000Y-65040001D02*
X118710000Y-68215001D01*
X113630000Y-65040001D02*
X115535000Y-65040001D01*
X110455000Y-65040001D02*
X110455000Y-65161000D01*
X110455000Y-65161000D02*
X117161000Y-71867000D01*
X118551999Y-71867000D02*
X118710000Y-72025001D01*
X117161000Y-71867000D02*
X118551999Y-71867000D01*
X162642999Y-77928999D02*
X164201000Y-79487000D01*
X143468000Y-67320001D02*
X145430001Y-67320001D01*
X145430001Y-67320001D02*
X148961000Y-70851000D01*
X155565000Y-70851000D02*
X164201000Y-79487000D01*
X148961000Y-70851000D02*
X155565000Y-70851000D01*
D23*
X86960000Y-70120001D02*
X86960000Y-68850001D01*
D22*
X120090001Y-115095000D02*
X157969999Y-115095000D01*
D24*
X86960000Y-70120001D02*
X86960000Y-71390001D01*
X86960000Y-68850001D02*
X86960000Y-67580001D01*
D22*
X86960000Y-65690000D02*
X82365000Y-61095000D01*
X86960000Y-67580001D02*
X86960000Y-65690000D01*
X86960000Y-71390001D02*
X86960000Y-72660001D01*
X86960000Y-72660001D02*
X85205000Y-74415001D01*
X85205000Y-74415001D02*
X82365000Y-74415001D01*
X82365000Y-74415001D02*
X82365000Y-115095000D01*
X82365000Y-61095000D02*
X82365000Y-74415001D01*
X82365000Y-115095000D02*
X120090001Y-115095000D01*
X130673000Y-87107000D02*
X130673000Y-90663000D01*
X145913000Y-87107000D02*
X145913000Y-90663000D01*
X163693000Y-105680001D02*
X163693000Y-109967000D01*
X161105000Y-115055000D02*
X161105000Y-115095000D01*
X163693000Y-112467000D02*
X161105000Y-115055000D01*
X163693000Y-109967000D02*
X163693000Y-112467000D01*
X161105000Y-115095000D02*
X171365000Y-115095000D01*
X157969999Y-115095000D02*
X161105000Y-115095000D01*
X171365000Y-115095000D02*
X176365000Y-115095000D01*
D24*
X178043001Y-62773001D02*
X176365000Y-61095000D01*
X176365000Y-115095000D02*
X178043001Y-113416999D01*
X178043001Y-113416999D02*
X178043001Y-76057001D01*
X178043001Y-76057001D02*
X178043001Y-62773001D01*
D22*
X82365000Y-61095000D02*
X83533000Y-61095000D01*
X175072990Y-59802990D02*
X176365000Y-61095000D01*
X83533000Y-61095000D02*
X84825010Y-59802990D01*
X141213010Y-68019605D02*
X141213010Y-59802990D01*
X143468000Y-69320001D02*
X142513406Y-69320001D01*
X142513406Y-69320001D02*
X141213010Y-68019605D01*
X84825010Y-59802990D02*
X141213010Y-59802990D01*
X150357010Y-62026476D02*
X150357010Y-59802990D01*
X152517000Y-63993000D02*
X152323534Y-63993000D01*
X152323534Y-63993000D02*
X150357010Y-62026476D01*
X150357010Y-59802990D02*
X175072990Y-59802990D01*
X141213010Y-59802990D02*
X150357010Y-59802990D01*
X143468000Y-69320001D02*
X143468000Y-69422000D01*
X167201000Y-70259000D02*
X176365000Y-61095000D01*
X167201000Y-74787000D02*
X167201000Y-70259000D01*
X167201000Y-76487000D02*
X170201000Y-79487000D01*
X167201000Y-74787000D02*
X167201000Y-76487000D01*
X174613002Y-79487000D02*
X178043001Y-76057001D01*
X170201000Y-79487000D02*
X174613002Y-79487000D01*
X146894999Y-71792406D02*
X146894999Y-75530761D01*
X146894999Y-75530761D02*
X148565238Y-77201000D01*
X144422594Y-69320001D02*
X146894999Y-71792406D01*
X143468000Y-69320001D02*
X144422594Y-69320001D01*
X145913000Y-79853238D02*
X145913000Y-87107000D01*
X148565238Y-77201000D02*
X145913000Y-79853238D01*
X148707000Y-77201000D02*
X148565238Y-77201000D01*
X143468000Y-69320001D02*
X134235999Y-69320001D01*
X125568000Y-77988000D02*
X125568000Y-81550001D01*
X134235999Y-69320001D02*
X125568000Y-77988000D01*
X121529000Y-109967000D02*
X116449000Y-109967000D01*
X121529000Y-105903000D02*
X116449000Y-105903000D01*
D24*
X101177000Y-71359000D02*
X101177000Y-68819000D01*
D25*
X156089000Y-95727000D02*
X156073000Y-95743000D01*
X158613000Y-95727000D02*
X156089000Y-95727000D01*
X137753000Y-98600001D02*
X130673000Y-105680001D01*
X137753000Y-94600000D02*
X137753000Y-98600001D01*
X102225000Y-71359000D02*
X103749000Y-72883000D01*
X101177000Y-71359000D02*
X102225000Y-71359000D01*
X137753000Y-94600000D02*
X141341000Y-94600000D01*
X156015990Y-95800010D02*
X156073000Y-95743000D01*
X142541010Y-95800010D02*
X156015990Y-95800010D01*
X141341000Y-94600000D02*
X142541010Y-95800010D01*
X120615000Y-99965001D02*
X113630000Y-99965001D01*
X113630000Y-99965001D02*
X112995000Y-99330001D01*
X112995000Y-99330001D02*
X112360000Y-98695001D01*
X112360000Y-98695001D02*
X112360000Y-94250001D01*
X97625000Y-68339000D02*
X97653000Y-68311000D01*
X98161000Y-68819000D02*
X99177000Y-68819000D01*
X97653000Y-68311000D02*
X98161000Y-68819000D01*
X143341000Y-90695000D02*
X143373000Y-90663000D01*
X143341000Y-94600000D02*
X143341000Y-90695000D01*
X153533000Y-77455000D02*
X153533000Y-72883000D01*
X148707000Y-82281000D02*
X153533000Y-77455000D01*
X135753000Y-94600000D02*
X135753000Y-90663000D01*
X152009000Y-76439000D02*
X152009000Y-72883000D01*
X148707000Y-79741000D02*
X152009000Y-76439000D01*
X120615000Y-96790001D02*
X114265000Y-96790001D01*
X95621000Y-71359000D02*
X99177000Y-71359000D01*
X143718002Y-77320001D02*
X143468000Y-77320001D01*
X159004000Y-86630001D02*
X158969000Y-86630001D01*
X158613000Y-90663000D02*
X158613000Y-93727000D01*
X156464000Y-86630001D02*
X156429000Y-86630001D01*
X156073000Y-93743000D02*
X156073000Y-90663000D01*
M02*
