M48
; DRILL file {KiCad 5.1.10} date Sun Nov 28 22:13:18 2021
; FORMAT={-:-/ absolute / metric / decimal}
; #@! TF.CreationDate,2021-11-28T22:13:18+08:00
; #@! TF.GenerationSoftware,Kicad,Pcbnew,5.1.10
FMAT,2
METRIC
T1C0.400
T2C0.600
T3C0.762
T4C0.800
T5C1.000
T6C2.200
%
G90
G05
T1
X95.621Y-71.359
X97.625Y-68.339
X103.749Y-72.883
X110.455Y-65.04
X112.36Y-94.25
X113.63Y-65.04
X114.265Y-96.79
X116.449Y-105.903
X116.449Y-109.967
X118.71Y-68.215
X118.71Y-72.025
X120.615Y-96.79
X120.615Y-99.965
X121.529Y-105.903
X121.529Y-109.967
X152.009Y-72.883
X153.533Y-72.883
T2
X85.69Y-68.85
X85.69Y-70.12
X86.96Y-68.85
X86.96Y-70.12
X88.23Y-68.85
X88.23Y-70.12
X89.5Y-68.85
X89.5Y-70.12
X90.77Y-68.85
X90.77Y-70.12
T3
X148.707Y-74.661
X148.707Y-77.201
X148.707Y-79.741
X148.707Y-82.281
X158.867Y-79.741
X158.867Y-82.281
T4
X120.768Y-69.32
X120.768Y-71.32
X120.768Y-73.32
X120.768Y-75.32
X120.768Y-77.32
X125.568Y-81.55
X128.108Y-81.55
X130.648Y-81.55
X130.673Y-87.107
X130.673Y-109.967
X133.188Y-81.55
X133.213Y-87.107
X133.213Y-109.967
X135.728Y-81.55
X135.753Y-87.107
X135.753Y-109.967
X138.268Y-81.55
X138.293Y-87.107
X138.293Y-109.967
X140.833Y-87.107
X140.833Y-109.967
X143.373Y-87.107
X143.373Y-109.967
X143.468Y-67.32
X143.468Y-69.32
X143.468Y-71.32
X143.468Y-73.32
X143.468Y-75.32
X143.468Y-77.32
X143.468Y-79.32
X145.913Y-87.107
X145.913Y-109.967
X148.453Y-87.107
X148.453Y-109.967
X150.993Y-87.107
X150.993Y-109.967
X152.517Y-61.453
X152.517Y-63.993
X152.517Y-66.533
X152.517Y-69.073
X153.533Y-87.107
X153.533Y-109.967
X156.073Y-87.107
X156.073Y-109.967
X158.613Y-87.107
X158.613Y-109.967
X161.153Y-87.107
X161.153Y-109.967
X163.693Y-87.107
X163.693Y-109.967
X166.233Y-87.107
X166.233Y-109.967
X168.773Y-87.107
X168.773Y-109.967
X171.313Y-87.107
X171.313Y-109.967
X173.853Y-87.107
X173.853Y-109.967
X176.393Y-87.107
X176.393Y-109.967
T5
X130.673Y-90.663
X130.673Y-105.68
X133.213Y-90.663
X133.213Y-105.68
X135.753Y-90.663
X135.753Y-105.68
X138.293Y-90.663
X138.293Y-105.68
X140.833Y-90.663
X140.833Y-105.68
X143.373Y-90.663
X143.373Y-105.68
X145.913Y-90.663
X145.913Y-105.68
X148.453Y-90.663
X148.453Y-105.68
X150.993Y-90.663
X150.993Y-105.68
X153.533Y-90.663
X153.533Y-105.68
X156.073Y-90.663
X156.073Y-105.68
X158.613Y-90.663
X158.613Y-105.68
X161.153Y-90.663
X161.153Y-105.68
X163.693Y-90.663
X163.693Y-105.68
X166.233Y-90.663
X166.233Y-105.68
X168.773Y-90.663
X168.773Y-105.68
X171.313Y-90.663
X171.313Y-105.68
X173.853Y-90.663
X173.853Y-105.68
X176.393Y-90.663
X176.393Y-105.68
T6
X82.365Y-61.095
X82.365Y-115.095
X176.365Y-61.095
X176.365Y-115.095
T5
G00X164.201Y-80.487
M15
G01X164.201Y-78.487
M16
G05
G00X168.201Y-74.787
M15
G01X166.201Y-74.787
M16
G05
G00X170.201Y-80.487
M15
G01X170.201Y-78.487
M16
G05
T0
M30
