G04 #@! TF.GenerationSoftware,KiCad,Pcbnew,5.1.10*
G04 #@! TF.CreationDate,2021-11-28T22:13:15+08:00*
G04 #@! TF.ProjectId,air_mon2,6169725f-6d6f-46e3-922e-6b696361645f,rev?*
G04 #@! TF.SameCoordinates,Original*
G04 #@! TF.FileFunction,Legend,Bot*
G04 #@! TF.FilePolarity,Positive*
%FSLAX46Y46*%
G04 Gerber Fmt 4.6, Leading zero omitted, Abs format (unit mm)*
G04 Created by KiCad (PCBNEW 5.1.10) date 2021-11-28 22:13:15*
%MOMM*%
%LPD*%
G01*
G04 APERTURE LIST*
%ADD10C,0.120000*%
%ADD11C,0.150000*%
%ADD12O,1.200000X2.000000*%
%ADD13R,1.200000X2.000000*%
%ADD14O,2.000000X1.200000*%
%ADD15C,1.524000*%
%ADD16R,3.500000X3.500000*%
%ADD17C,1.350000*%
%ADD18R,1.350000X1.350000*%
%ADD19R,1.700000X1.700000*%
%ADD20O,1.700000X1.700000*%
%ADD21C,4.400000*%
%ADD22C,0.870000*%
G04 APERTURE END LIST*
D10*
X156808000Y-94970064D02*
X156808000Y-94515936D01*
X155338000Y-94970064D02*
X155338000Y-94515936D01*
X159348000Y-94954064D02*
X159348000Y-94499936D01*
X157878000Y-94954064D02*
X157878000Y-94499936D01*
X99949936Y-70624000D02*
X100404064Y-70624000D01*
X99949936Y-72094000D02*
X100404064Y-72094000D01*
X99949936Y-69554000D02*
X100404064Y-69554000D01*
X99949936Y-68084000D02*
X100404064Y-68084000D01*
X142113936Y-95335000D02*
X142568064Y-95335000D01*
X142113936Y-93865000D02*
X142568064Y-93865000D01*
X136980064Y-93865000D02*
X136525936Y-93865000D01*
X136980064Y-95335000D02*
X136525936Y-95335000D01*
D11*
X154493380Y-94052333D02*
X154017190Y-93719000D01*
X154493380Y-93480904D02*
X153493380Y-93480904D01*
X153493380Y-93861857D01*
X153541000Y-93957095D01*
X153588619Y-94004714D01*
X153683857Y-94052333D01*
X153826714Y-94052333D01*
X153921952Y-94004714D01*
X153969571Y-93957095D01*
X154017190Y-93861857D01*
X154017190Y-93480904D01*
X153493380Y-94909476D02*
X153493380Y-94719000D01*
X153541000Y-94623761D01*
X153588619Y-94576142D01*
X153731476Y-94480904D01*
X153921952Y-94433285D01*
X154302904Y-94433285D01*
X154398142Y-94480904D01*
X154445761Y-94528523D01*
X154493380Y-94623761D01*
X154493380Y-94814238D01*
X154445761Y-94909476D01*
X154398142Y-94957095D01*
X154302904Y-95004714D01*
X154064809Y-95004714D01*
X153969571Y-94957095D01*
X153921952Y-94909476D01*
X153874333Y-94814238D01*
X153874333Y-94623761D01*
X153921952Y-94528523D01*
X153969571Y-94480904D01*
X154064809Y-94433285D01*
X161097380Y-94560333D02*
X160621190Y-94227000D01*
X161097380Y-93988904D02*
X160097380Y-93988904D01*
X160097380Y-94369857D01*
X160145000Y-94465095D01*
X160192619Y-94512714D01*
X160287857Y-94560333D01*
X160430714Y-94560333D01*
X160525952Y-94512714D01*
X160573571Y-94465095D01*
X160621190Y-94369857D01*
X160621190Y-93988904D01*
X160097380Y-95465095D02*
X160097380Y-94988904D01*
X160573571Y-94941285D01*
X160525952Y-94988904D01*
X160478333Y-95084142D01*
X160478333Y-95322238D01*
X160525952Y-95417476D01*
X160573571Y-95465095D01*
X160668809Y-95512714D01*
X160906904Y-95512714D01*
X161002142Y-95465095D01*
X161049761Y-95417476D01*
X161097380Y-95322238D01*
X161097380Y-95084142D01*
X161049761Y-94988904D01*
X161002142Y-94941285D01*
X99851666Y-73843380D02*
X100185000Y-73367190D01*
X100423095Y-73843380D02*
X100423095Y-72843380D01*
X100042142Y-72843380D01*
X99946904Y-72891000D01*
X99899285Y-72938619D01*
X99851666Y-73033857D01*
X99851666Y-73176714D01*
X99899285Y-73271952D01*
X99946904Y-73319571D01*
X100042142Y-73367190D01*
X100423095Y-73367190D01*
X98994523Y-73176714D02*
X98994523Y-73843380D01*
X99232619Y-72795761D02*
X99470714Y-73510047D01*
X98851666Y-73510047D01*
X99851666Y-67239380D02*
X100185000Y-66763190D01*
X100423095Y-67239380D02*
X100423095Y-66239380D01*
X100042142Y-66239380D01*
X99946904Y-66287000D01*
X99899285Y-66334619D01*
X99851666Y-66429857D01*
X99851666Y-66572714D01*
X99899285Y-66667952D01*
X99946904Y-66715571D01*
X100042142Y-66763190D01*
X100423095Y-66763190D01*
X99518333Y-66239380D02*
X98899285Y-66239380D01*
X99232619Y-66620333D01*
X99089761Y-66620333D01*
X98994523Y-66667952D01*
X98946904Y-66715571D01*
X98899285Y-66810809D01*
X98899285Y-67048904D01*
X98946904Y-67144142D01*
X98994523Y-67191761D01*
X99089761Y-67239380D01*
X99375476Y-67239380D01*
X99470714Y-67191761D01*
X99518333Y-67144142D01*
X145571666Y-95052380D02*
X145905000Y-94576190D01*
X146143095Y-95052380D02*
X146143095Y-94052380D01*
X145762142Y-94052380D01*
X145666904Y-94100000D01*
X145619285Y-94147619D01*
X145571666Y-94242857D01*
X145571666Y-94385714D01*
X145619285Y-94480952D01*
X145666904Y-94528571D01*
X145762142Y-94576190D01*
X146143095Y-94576190D01*
X145190714Y-94147619D02*
X145143095Y-94100000D01*
X145047857Y-94052380D01*
X144809761Y-94052380D01*
X144714523Y-94100000D01*
X144666904Y-94147619D01*
X144619285Y-94242857D01*
X144619285Y-94338095D01*
X144666904Y-94480952D01*
X145238333Y-95052380D01*
X144619285Y-95052380D01*
X133887666Y-95052380D02*
X134221000Y-94576190D01*
X134459095Y-95052380D02*
X134459095Y-94052380D01*
X134078142Y-94052380D01*
X133982904Y-94100000D01*
X133935285Y-94147619D01*
X133887666Y-94242857D01*
X133887666Y-94385714D01*
X133935285Y-94480952D01*
X133982904Y-94528571D01*
X134078142Y-94576190D01*
X134459095Y-94576190D01*
X132935285Y-95052380D02*
X133506714Y-95052380D01*
X133221000Y-95052380D02*
X133221000Y-94052380D01*
X133316238Y-94195238D01*
X133411476Y-94290476D01*
X133506714Y-94338095D01*
%LPC*%
D12*
X130673000Y-87107000D03*
X130673000Y-109967000D03*
X133213000Y-87107000D03*
X133213000Y-109967000D03*
X135753000Y-87107000D03*
X135753000Y-109967000D03*
X138293000Y-87107000D03*
X138293000Y-109967000D03*
X140833000Y-87107000D03*
X140833000Y-109967000D03*
X143373000Y-87107000D03*
X143373000Y-109967000D03*
X145913000Y-87107000D03*
X145913000Y-109967000D03*
X148453000Y-87107000D03*
X148453000Y-109967000D03*
X150993000Y-87107000D03*
X150993000Y-109967000D03*
X153533000Y-87107000D03*
X153533000Y-109967000D03*
X156073000Y-87107000D03*
X156073000Y-109967000D03*
X158613000Y-87107000D03*
X158613000Y-109967000D03*
X161153000Y-87107000D03*
X161153000Y-109967000D03*
X163693000Y-87107000D03*
X163693000Y-109967000D03*
X166233000Y-87107000D03*
X166233000Y-109967000D03*
D13*
X168773000Y-87107000D03*
X168773000Y-109967000D03*
D12*
X171313000Y-87107000D03*
X171313000Y-109967000D03*
X173853000Y-87107000D03*
X173853000Y-109967000D03*
X176393000Y-87107000D03*
X176393000Y-109967000D03*
D14*
X152517000Y-69073000D03*
X152517000Y-66533000D03*
X152517000Y-63993000D03*
X152517000Y-61453000D03*
D15*
X158867000Y-79741000D03*
X158867000Y-82281000D03*
X148707000Y-82281000D03*
X148707000Y-79741000D03*
X148707000Y-77201000D03*
X148707000Y-74661000D03*
G36*
G01*
X156523001Y-96343000D02*
X155622999Y-96343000D01*
G75*
G02*
X155373000Y-96093001I0J249999D01*
G01*
X155373000Y-95392999D01*
G75*
G02*
X155622999Y-95143000I249999J0D01*
G01*
X156523001Y-95143000D01*
G75*
G02*
X156773000Y-95392999I0J-249999D01*
G01*
X156773000Y-96093001D01*
G75*
G02*
X156523001Y-96343000I-249999J0D01*
G01*
G37*
G36*
G01*
X156523001Y-94343000D02*
X155622999Y-94343000D01*
G75*
G02*
X155373000Y-94093001I0J249999D01*
G01*
X155373000Y-93392999D01*
G75*
G02*
X155622999Y-93143000I249999J0D01*
G01*
X156523001Y-93143000D01*
G75*
G02*
X156773000Y-93392999I0J-249999D01*
G01*
X156773000Y-94093001D01*
G75*
G02*
X156523001Y-94343000I-249999J0D01*
G01*
G37*
G36*
G01*
X159063001Y-96327000D02*
X158162999Y-96327000D01*
G75*
G02*
X157913000Y-96077001I0J249999D01*
G01*
X157913000Y-95376999D01*
G75*
G02*
X158162999Y-95127000I249999J0D01*
G01*
X159063001Y-95127000D01*
G75*
G02*
X159313000Y-95376999I0J-249999D01*
G01*
X159313000Y-96077001D01*
G75*
G02*
X159063001Y-96327000I-249999J0D01*
G01*
G37*
G36*
G01*
X159063001Y-94327000D02*
X158162999Y-94327000D01*
G75*
G02*
X157913000Y-94077001I0J249999D01*
G01*
X157913000Y-93376999D01*
G75*
G02*
X158162999Y-93127000I249999J0D01*
G01*
X159063001Y-93127000D01*
G75*
G02*
X159313000Y-93376999I0J-249999D01*
G01*
X159313000Y-94077001D01*
G75*
G02*
X159063001Y-94327000I-249999J0D01*
G01*
G37*
G36*
G01*
X100577000Y-71809001D02*
X100577000Y-70908999D01*
G75*
G02*
X100826999Y-70659000I249999J0D01*
G01*
X101527001Y-70659000D01*
G75*
G02*
X101777000Y-70908999I0J-249999D01*
G01*
X101777000Y-71809001D01*
G75*
G02*
X101527001Y-72059000I-249999J0D01*
G01*
X100826999Y-72059000D01*
G75*
G02*
X100577000Y-71809001I0J249999D01*
G01*
G37*
G36*
G01*
X98577000Y-71809001D02*
X98577000Y-70908999D01*
G75*
G02*
X98826999Y-70659000I249999J0D01*
G01*
X99527001Y-70659000D01*
G75*
G02*
X99777000Y-70908999I0J-249999D01*
G01*
X99777000Y-71809001D01*
G75*
G02*
X99527001Y-72059000I-249999J0D01*
G01*
X98826999Y-72059000D01*
G75*
G02*
X98577000Y-71809001I0J249999D01*
G01*
G37*
G36*
G01*
X98577000Y-69269001D02*
X98577000Y-68368999D01*
G75*
G02*
X98826999Y-68119000I249999J0D01*
G01*
X99527001Y-68119000D01*
G75*
G02*
X99777000Y-68368999I0J-249999D01*
G01*
X99777000Y-69269001D01*
G75*
G02*
X99527001Y-69519000I-249999J0D01*
G01*
X98826999Y-69519000D01*
G75*
G02*
X98577000Y-69269001I0J249999D01*
G01*
G37*
G36*
G01*
X100577000Y-69269001D02*
X100577000Y-68368999D01*
G75*
G02*
X100826999Y-68119000I249999J0D01*
G01*
X101527001Y-68119000D01*
G75*
G02*
X101777000Y-68368999I0J-249999D01*
G01*
X101777000Y-69269001D01*
G75*
G02*
X101527001Y-69519000I-249999J0D01*
G01*
X100826999Y-69519000D01*
G75*
G02*
X100577000Y-69269001I0J249999D01*
G01*
G37*
G36*
G01*
X168951000Y-73912000D02*
X168951000Y-75662000D01*
G75*
G02*
X168076000Y-76537000I-875000J0D01*
G01*
X166326000Y-76537000D01*
G75*
G02*
X165451000Y-75662000I0J875000D01*
G01*
X165451000Y-73912000D01*
G75*
G02*
X166326000Y-73037000I875000J0D01*
G01*
X168076000Y-73037000D01*
G75*
G02*
X168951000Y-73912000I0J-875000D01*
G01*
G37*
G36*
G01*
X171701000Y-78487000D02*
X171701000Y-80487000D01*
G75*
G02*
X170951000Y-81237000I-750000J0D01*
G01*
X169451000Y-81237000D01*
G75*
G02*
X168701000Y-80487000I0J750000D01*
G01*
X168701000Y-78487000D01*
G75*
G02*
X169451000Y-77737000I750000J0D01*
G01*
X170951000Y-77737000D01*
G75*
G02*
X171701000Y-78487000I0J-750000D01*
G01*
G37*
D16*
X164201000Y-79487000D03*
G36*
G01*
X140741000Y-95050001D02*
X140741000Y-94149999D01*
G75*
G02*
X140990999Y-93900000I249999J0D01*
G01*
X141691001Y-93900000D01*
G75*
G02*
X141941000Y-94149999I0J-249999D01*
G01*
X141941000Y-95050001D01*
G75*
G02*
X141691001Y-95300000I-249999J0D01*
G01*
X140990999Y-95300000D01*
G75*
G02*
X140741000Y-95050001I0J249999D01*
G01*
G37*
G36*
G01*
X142741000Y-95050001D02*
X142741000Y-94149999D01*
G75*
G02*
X142990999Y-93900000I249999J0D01*
G01*
X143691001Y-93900000D01*
G75*
G02*
X143941000Y-94149999I0J-249999D01*
G01*
X143941000Y-95050001D01*
G75*
G02*
X143691001Y-95300000I-249999J0D01*
G01*
X142990999Y-95300000D01*
G75*
G02*
X142741000Y-95050001I0J249999D01*
G01*
G37*
G36*
G01*
X138353000Y-94149999D02*
X138353000Y-95050001D01*
G75*
G02*
X138103001Y-95300000I-249999J0D01*
G01*
X137402999Y-95300000D01*
G75*
G02*
X137153000Y-95050001I0J249999D01*
G01*
X137153000Y-94149999D01*
G75*
G02*
X137402999Y-93900000I249999J0D01*
G01*
X138103001Y-93900000D01*
G75*
G02*
X138353000Y-94149999I0J-249999D01*
G01*
G37*
G36*
G01*
X136353000Y-94149999D02*
X136353000Y-95050001D01*
G75*
G02*
X136103001Y-95300000I-249999J0D01*
G01*
X135402999Y-95300000D01*
G75*
G02*
X135153000Y-95050001I0J249999D01*
G01*
X135153000Y-94149999D01*
G75*
G02*
X135402999Y-93900000I249999J0D01*
G01*
X136103001Y-93900000D01*
G75*
G02*
X136353000Y-94149999I0J-249999D01*
G01*
G37*
D17*
X120768000Y-69320001D03*
X120768000Y-71320001D03*
X120768000Y-73320001D03*
X120768000Y-75320001D03*
X120768000Y-77320001D03*
X143468000Y-67320001D03*
X143468000Y-69320001D03*
X143468000Y-71320001D03*
X143468000Y-73320001D03*
X143468000Y-75320001D03*
X143468000Y-77320001D03*
D18*
X143468000Y-79320001D03*
D17*
X125568000Y-81550001D03*
X130648000Y-81550001D03*
X128108000Y-81550001D03*
X133188000Y-81550001D03*
X135728000Y-81550001D03*
X138268000Y-81550001D03*
D19*
X130673000Y-90663000D03*
D20*
X133213000Y-90663000D03*
X135753000Y-90663000D03*
X138293000Y-90663000D03*
X140833000Y-90663000D03*
X143373000Y-90663000D03*
X145913000Y-90663000D03*
X148453000Y-90663000D03*
X150993000Y-90663000D03*
X153533000Y-90663000D03*
X156073000Y-90663000D03*
X158613000Y-90663000D03*
X161153000Y-90663000D03*
X163693000Y-90663000D03*
X166233000Y-90663000D03*
X168773000Y-90663000D03*
X171313000Y-90663000D03*
X173853000Y-90663000D03*
X176393000Y-90663000D03*
D21*
X82365000Y-61095000D03*
X176365000Y-61095000D03*
X82365000Y-115095000D03*
X176365000Y-115095000D03*
D19*
X130673000Y-105680001D03*
D20*
X133213000Y-105680001D03*
X135753000Y-105680001D03*
X138293000Y-105680001D03*
X140833000Y-105680001D03*
X143373000Y-105680001D03*
X145913000Y-105680001D03*
X148453000Y-105680001D03*
X150993000Y-105680001D03*
X153533000Y-105680001D03*
X156073000Y-105680001D03*
X158613000Y-105680001D03*
X161153000Y-105680001D03*
X163693000Y-105680001D03*
X166233000Y-105680001D03*
X168773000Y-105680001D03*
X171313000Y-105680001D03*
X173853000Y-105680001D03*
X176393000Y-105680001D03*
D22*
X85690000Y-68850001D03*
X85690000Y-70120001D03*
X86960000Y-68850001D03*
X86960000Y-70120001D03*
X88230000Y-68850001D03*
X88230000Y-70120001D03*
X89500000Y-68850001D03*
X89500000Y-70120001D03*
X90770000Y-68850001D03*
X90770000Y-70120001D03*
M02*
