G04 #@! TF.GenerationSoftware,KiCad,Pcbnew,5.1.10*
G04 #@! TF.CreationDate,2021-11-20T20:14:31+08:00*
G04 #@! TF.ProjectId,air_mon2,6169725f-6d6f-46e3-922e-6b696361645f,rev?*
G04 #@! TF.SameCoordinates,Original*
G04 #@! TF.FileFunction,Copper,L1,Top*
G04 #@! TF.FilePolarity,Positive*
%FSLAX46Y46*%
G04 Gerber Fmt 4.6, Leading zero omitted, Abs format (unit mm)*
G04 Created by KiCad (PCBNEW 5.1.10) date 2021-11-20 20:14:31*
%MOMM*%
%LPD*%
G01*
G04 APERTURE LIST*
G04 #@! TA.AperFunction,EtchedComponent*
%ADD10C,0.010000*%
G04 #@! TD*
G04 #@! TA.AperFunction,ComponentPad*
%ADD11R,3.500000X3.500000*%
G04 #@! TD*
G04 #@! TA.AperFunction,ComponentPad*
%ADD12O,2.000000X1.200000*%
G04 #@! TD*
G04 #@! TA.AperFunction,ComponentPad*
%ADD13C,1.350000*%
G04 #@! TD*
G04 #@! TA.AperFunction,ComponentPad*
%ADD14R,1.350000X1.350000*%
G04 #@! TD*
G04 #@! TA.AperFunction,ComponentPad*
%ADD15O,1.700000X1.700000*%
G04 #@! TD*
G04 #@! TA.AperFunction,ComponentPad*
%ADD16R,1.700000X1.700000*%
G04 #@! TD*
G04 #@! TA.AperFunction,ComponentPad*
%ADD17C,4.400000*%
G04 #@! TD*
G04 #@! TA.AperFunction,ComponentPad*
%ADD18O,1.200000X2.000000*%
G04 #@! TD*
G04 #@! TA.AperFunction,ComponentPad*
%ADD19R,1.200000X2.000000*%
G04 #@! TD*
G04 #@! TA.AperFunction,ComponentPad*
%ADD20C,0.870000*%
G04 #@! TD*
G04 #@! TA.AperFunction,ViaPad*
%ADD21C,0.800000*%
G04 #@! TD*
G04 #@! TA.AperFunction,Conductor*
%ADD22C,0.800000*%
G04 #@! TD*
G04 #@! TA.AperFunction,Conductor*
%ADD23C,1.500000*%
G04 #@! TD*
G04 #@! TA.AperFunction,Conductor*
%ADD24C,1.000000*%
G04 #@! TD*
G04 #@! TA.AperFunction,Conductor*
%ADD25C,0.400000*%
G04 #@! TD*
G04 APERTURE END LIST*
D10*
G36*
X169388823Y-67314534D02*
G01*
X169420202Y-67336777D01*
X169447911Y-67364486D01*
X169447911Y-67673921D01*
X169447838Y-67765800D01*
X169447495Y-67837841D01*
X169446692Y-67892781D01*
X169445241Y-67933361D01*
X169442952Y-67962318D01*
X169439636Y-67982392D01*
X169435105Y-67996322D01*
X169429169Y-68006846D01*
X169424514Y-68013101D01*
X169393783Y-68037674D01*
X169358496Y-68040342D01*
X169326245Y-68025272D01*
X169315588Y-68016375D01*
X169308464Y-68004558D01*
X169304167Y-67985527D01*
X169301991Y-67954993D01*
X169301228Y-67908663D01*
X169301155Y-67872872D01*
X169301155Y-67738046D01*
X168804444Y-67738046D01*
X168804444Y-67860701D01*
X168803931Y-67916788D01*
X168801876Y-67955334D01*
X168797508Y-67981362D01*
X168790056Y-67999898D01*
X168781047Y-68013101D01*
X168750144Y-68037605D01*
X168715196Y-68040507D01*
X168681738Y-68023090D01*
X168672604Y-68013960D01*
X168666152Y-68001856D01*
X168661897Y-67983002D01*
X168659352Y-67953621D01*
X168658029Y-67909938D01*
X168657443Y-67848176D01*
X168657375Y-67834001D01*
X168656891Y-67717632D01*
X168656641Y-67621728D01*
X168656723Y-67544178D01*
X168657231Y-67482870D01*
X168658262Y-67435691D01*
X168659913Y-67400531D01*
X168662279Y-67375277D01*
X168665457Y-67357818D01*
X168669544Y-67346042D01*
X168674634Y-67337836D01*
X168680266Y-67331646D01*
X168712128Y-67311845D01*
X168745357Y-67314534D01*
X168776735Y-67336777D01*
X168789433Y-67351127D01*
X168797526Y-67366979D01*
X168802042Y-67389555D01*
X168804006Y-67424079D01*
X168804444Y-67475777D01*
X168804444Y-67591290D01*
X169301155Y-67591290D01*
X169301155Y-67472757D01*
X169301662Y-67418149D01*
X169303698Y-67381276D01*
X169308035Y-67357308D01*
X169315447Y-67341416D01*
X169323733Y-67331646D01*
X169355594Y-67311845D01*
X169388823Y-67314534D01*
G37*
X169388823Y-67314534D02*
X169420202Y-67336777D01*
X169447911Y-67364486D01*
X169447911Y-67673921D01*
X169447838Y-67765800D01*
X169447495Y-67837841D01*
X169446692Y-67892781D01*
X169445241Y-67933361D01*
X169442952Y-67962318D01*
X169439636Y-67982392D01*
X169435105Y-67996322D01*
X169429169Y-68006846D01*
X169424514Y-68013101D01*
X169393783Y-68037674D01*
X169358496Y-68040342D01*
X169326245Y-68025272D01*
X169315588Y-68016375D01*
X169308464Y-68004558D01*
X169304167Y-67985527D01*
X169301991Y-67954993D01*
X169301228Y-67908663D01*
X169301155Y-67872872D01*
X169301155Y-67738046D01*
X168804444Y-67738046D01*
X168804444Y-67860701D01*
X168803931Y-67916788D01*
X168801876Y-67955334D01*
X168797508Y-67981362D01*
X168790056Y-67999898D01*
X168781047Y-68013101D01*
X168750144Y-68037605D01*
X168715196Y-68040507D01*
X168681738Y-68023090D01*
X168672604Y-68013960D01*
X168666152Y-68001856D01*
X168661897Y-67983002D01*
X168659352Y-67953621D01*
X168658029Y-67909938D01*
X168657443Y-67848176D01*
X168657375Y-67834001D01*
X168656891Y-67717632D01*
X168656641Y-67621728D01*
X168656723Y-67544178D01*
X168657231Y-67482870D01*
X168658262Y-67435691D01*
X168659913Y-67400531D01*
X168662279Y-67375277D01*
X168665457Y-67357818D01*
X168669544Y-67346042D01*
X168674634Y-67337836D01*
X168680266Y-67331646D01*
X168712128Y-67311845D01*
X168745357Y-67314534D01*
X168776735Y-67336777D01*
X168789433Y-67351127D01*
X168797526Y-67366979D01*
X168802042Y-67389555D01*
X168804006Y-67424079D01*
X168804444Y-67475777D01*
X168804444Y-67591290D01*
X169301155Y-67591290D01*
X169301155Y-67472757D01*
X169301662Y-67418149D01*
X169303698Y-67381276D01*
X169308035Y-67357308D01*
X169315447Y-67341416D01*
X169323733Y-67331646D01*
X169355594Y-67311845D01*
X169388823Y-67314534D01*
G36*
X168123065Y-67309164D02*
G01*
X168201772Y-67309543D01*
X168262863Y-67310334D01*
X168308817Y-67311671D01*
X168342114Y-67313684D01*
X168365236Y-67316507D01*
X168380662Y-67320270D01*
X168390871Y-67325106D01*
X168395813Y-67328823D01*
X168421457Y-67361359D01*
X168424559Y-67395139D01*
X168408711Y-67425827D01*
X168398348Y-67438090D01*
X168387196Y-67446451D01*
X168371035Y-67451658D01*
X168345642Y-67454458D01*
X168306798Y-67455597D01*
X168250280Y-67455822D01*
X168239180Y-67455823D01*
X168093244Y-67455823D01*
X168093244Y-67726757D01*
X168093148Y-67812155D01*
X168092711Y-67877865D01*
X168091712Y-67926775D01*
X168089928Y-67961774D01*
X168087137Y-67985750D01*
X168083117Y-68001594D01*
X168077645Y-68012192D01*
X168070666Y-68020268D01*
X168037734Y-68040113D01*
X168003354Y-68038549D01*
X167972176Y-68015907D01*
X167969886Y-68013101D01*
X167962429Y-68002493D01*
X167956747Y-67990082D01*
X167952601Y-67972851D01*
X167949750Y-67947785D01*
X167947954Y-67911868D01*
X167946972Y-67862084D01*
X167946564Y-67795418D01*
X167946489Y-67719590D01*
X167946489Y-67455823D01*
X167807127Y-67455823D01*
X167747322Y-67455419D01*
X167705918Y-67453841D01*
X167678748Y-67450548D01*
X167661646Y-67444993D01*
X167650443Y-67436632D01*
X167649083Y-67435179D01*
X167632725Y-67401940D01*
X167634172Y-67364363D01*
X167652978Y-67331646D01*
X167660250Y-67325299D01*
X167669627Y-67320267D01*
X167683609Y-67316397D01*
X167704696Y-67313538D01*
X167735389Y-67311536D01*
X167778189Y-67310240D01*
X167835595Y-67309499D01*
X167910110Y-67309159D01*
X168004233Y-67309069D01*
X168024260Y-67309068D01*
X168123065Y-67309164D01*
G37*
X168123065Y-67309164D02*
X168201772Y-67309543D01*
X168262863Y-67310334D01*
X168308817Y-67311671D01*
X168342114Y-67313684D01*
X168365236Y-67316507D01*
X168380662Y-67320270D01*
X168390871Y-67325106D01*
X168395813Y-67328823D01*
X168421457Y-67361359D01*
X168424559Y-67395139D01*
X168408711Y-67425827D01*
X168398348Y-67438090D01*
X168387196Y-67446451D01*
X168371035Y-67451658D01*
X168345642Y-67454458D01*
X168306798Y-67455597D01*
X168250280Y-67455822D01*
X168239180Y-67455823D01*
X168093244Y-67455823D01*
X168093244Y-67726757D01*
X168093148Y-67812155D01*
X168092711Y-67877865D01*
X168091712Y-67926775D01*
X168089928Y-67961774D01*
X168087137Y-67985750D01*
X168083117Y-68001594D01*
X168077645Y-68012192D01*
X168070666Y-68020268D01*
X168037734Y-68040113D01*
X168003354Y-68038549D01*
X167972176Y-68015907D01*
X167969886Y-68013101D01*
X167962429Y-68002493D01*
X167956747Y-67990082D01*
X167952601Y-67972851D01*
X167949750Y-67947785D01*
X167947954Y-67911868D01*
X167946972Y-67862084D01*
X167946564Y-67795418D01*
X167946489Y-67719590D01*
X167946489Y-67455823D01*
X167807127Y-67455823D01*
X167747322Y-67455419D01*
X167705918Y-67453841D01*
X167678748Y-67450548D01*
X167661646Y-67444993D01*
X167650443Y-67436632D01*
X167649083Y-67435179D01*
X167632725Y-67401940D01*
X167634172Y-67364363D01*
X167652978Y-67331646D01*
X167660250Y-67325299D01*
X167669627Y-67320267D01*
X167683609Y-67316397D01*
X167704696Y-67313538D01*
X167735389Y-67311536D01*
X167778189Y-67310240D01*
X167835595Y-67309499D01*
X167910110Y-67309159D01*
X168004233Y-67309069D01*
X168024260Y-67309068D01*
X168123065Y-67309164D01*
G36*
X167348614Y-67315878D02*
G01*
X167372327Y-67330648D01*
X167398978Y-67352228D01*
X167398978Y-67673774D01*
X167398893Y-67767831D01*
X167398529Y-67841933D01*
X167397724Y-67898705D01*
X167396313Y-67940769D01*
X167394133Y-67970749D01*
X167391021Y-67991268D01*
X167386814Y-68004950D01*
X167381348Y-68014417D01*
X167377472Y-68019083D01*
X167346034Y-68039576D01*
X167310233Y-68038740D01*
X167278873Y-68021265D01*
X167252222Y-67999685D01*
X167252222Y-67352228D01*
X167278873Y-67330648D01*
X167304594Y-67314950D01*
X167325600Y-67309068D01*
X167348614Y-67315878D01*
G37*
X167348614Y-67315878D02*
X167372327Y-67330648D01*
X167398978Y-67352228D01*
X167398978Y-67673774D01*
X167398893Y-67767831D01*
X167398529Y-67841933D01*
X167397724Y-67898705D01*
X167396313Y-67940769D01*
X167394133Y-67970749D01*
X167391021Y-67991268D01*
X167386814Y-68004950D01*
X167381348Y-68014417D01*
X167377472Y-68019083D01*
X167346034Y-68039576D01*
X167310233Y-68038740D01*
X167278873Y-68021265D01*
X167252222Y-67999685D01*
X167252222Y-67352228D01*
X167278873Y-67330648D01*
X167304594Y-67314950D01*
X167325600Y-67309068D01*
X167348614Y-67315878D01*
G36*
X166904665Y-67311035D02*
G01*
X166924255Y-67318036D01*
X166925010Y-67318378D01*
X166951613Y-67338679D01*
X166966270Y-67359562D01*
X166969138Y-67369353D01*
X166968996Y-67382362D01*
X166964961Y-67400896D01*
X166956146Y-67427258D01*
X166941669Y-67463753D01*
X166920645Y-67512688D01*
X166892188Y-67576366D01*
X166855415Y-67657094D01*
X166835175Y-67701217D01*
X166798625Y-67779986D01*
X166764315Y-67852424D01*
X166733552Y-67915881D01*
X166707648Y-67967709D01*
X166687910Y-68005260D01*
X166675650Y-68025885D01*
X166673224Y-68028734D01*
X166642183Y-68041303D01*
X166607121Y-68039620D01*
X166579000Y-68024333D01*
X166577854Y-68023090D01*
X166566668Y-68006155D01*
X166547904Y-67973171D01*
X166523875Y-67928381D01*
X166496897Y-67876033D01*
X166487201Y-67856743D01*
X166414014Y-67710151D01*
X166334240Y-67869394D01*
X166305767Y-67924416D01*
X166279350Y-67972133D01*
X166257148Y-68008894D01*
X166241319Y-68031045D01*
X166235954Y-68035742D01*
X166194257Y-68042103D01*
X166159849Y-68028734D01*
X166149728Y-68014447D01*
X166132214Y-67982693D01*
X166108735Y-67936598D01*
X166080720Y-67879286D01*
X166049599Y-67813881D01*
X166016799Y-67743508D01*
X165983750Y-67671292D01*
X165951881Y-67600356D01*
X165922619Y-67533826D01*
X165897395Y-67474827D01*
X165877636Y-67426482D01*
X165864772Y-67391916D01*
X165860231Y-67374254D01*
X165860277Y-67373614D01*
X165871326Y-67351389D01*
X165893410Y-67328754D01*
X165894710Y-67327769D01*
X165921853Y-67312426D01*
X165946958Y-67312575D01*
X165956368Y-67315467D01*
X165967834Y-67321719D01*
X165980010Y-67334015D01*
X165994357Y-67354909D01*
X166012336Y-67386950D01*
X166035407Y-67432689D01*
X166065030Y-67494678D01*
X166091745Y-67551899D01*
X166122480Y-67618227D01*
X166150021Y-67677875D01*
X166172938Y-67727726D01*
X166189798Y-67764665D01*
X166199173Y-67785574D01*
X166200540Y-67788846D01*
X166206689Y-67783498D01*
X166220822Y-67761110D01*
X166241057Y-67724947D01*
X166265515Y-67678278D01*
X166275248Y-67659023D01*
X166308217Y-67594005D01*
X166333643Y-67546655D01*
X166353612Y-67514220D01*
X166370210Y-67493947D01*
X166385524Y-67483083D01*
X166401640Y-67478876D01*
X166412143Y-67478401D01*
X166430670Y-67480043D01*
X166446904Y-67486832D01*
X166463035Y-67501567D01*
X166481251Y-67527045D01*
X166503739Y-67566062D01*
X166532689Y-67621415D01*
X166548662Y-67652904D01*
X166574570Y-67703088D01*
X166597167Y-67744705D01*
X166614458Y-67774243D01*
X166624450Y-67788190D01*
X166625809Y-67788771D01*
X166632261Y-67777794D01*
X166646708Y-67749291D01*
X166667703Y-67706245D01*
X166693797Y-67651639D01*
X166723546Y-67588455D01*
X166738180Y-67557072D01*
X166776250Y-67476079D01*
X166806905Y-67413757D01*
X166831737Y-67368072D01*
X166852337Y-67336990D01*
X166870298Y-67318479D01*
X166887210Y-67310505D01*
X166904665Y-67311035D01*
G37*
X166904665Y-67311035D02*
X166924255Y-67318036D01*
X166925010Y-67318378D01*
X166951613Y-67338679D01*
X166966270Y-67359562D01*
X166969138Y-67369353D01*
X166968996Y-67382362D01*
X166964961Y-67400896D01*
X166956146Y-67427258D01*
X166941669Y-67463753D01*
X166920645Y-67512688D01*
X166892188Y-67576366D01*
X166855415Y-67657094D01*
X166835175Y-67701217D01*
X166798625Y-67779986D01*
X166764315Y-67852424D01*
X166733552Y-67915881D01*
X166707648Y-67967709D01*
X166687910Y-68005260D01*
X166675650Y-68025885D01*
X166673224Y-68028734D01*
X166642183Y-68041303D01*
X166607121Y-68039620D01*
X166579000Y-68024333D01*
X166577854Y-68023090D01*
X166566668Y-68006155D01*
X166547904Y-67973171D01*
X166523875Y-67928381D01*
X166496897Y-67876033D01*
X166487201Y-67856743D01*
X166414014Y-67710151D01*
X166334240Y-67869394D01*
X166305767Y-67924416D01*
X166279350Y-67972133D01*
X166257148Y-68008894D01*
X166241319Y-68031045D01*
X166235954Y-68035742D01*
X166194257Y-68042103D01*
X166159849Y-68028734D01*
X166149728Y-68014447D01*
X166132214Y-67982693D01*
X166108735Y-67936598D01*
X166080720Y-67879286D01*
X166049599Y-67813881D01*
X166016799Y-67743508D01*
X165983750Y-67671292D01*
X165951881Y-67600356D01*
X165922619Y-67533826D01*
X165897395Y-67474827D01*
X165877636Y-67426482D01*
X165864772Y-67391916D01*
X165860231Y-67374254D01*
X165860277Y-67373614D01*
X165871326Y-67351389D01*
X165893410Y-67328754D01*
X165894710Y-67327769D01*
X165921853Y-67312426D01*
X165946958Y-67312575D01*
X165956368Y-67315467D01*
X165967834Y-67321719D01*
X165980010Y-67334015D01*
X165994357Y-67354909D01*
X166012336Y-67386950D01*
X166035407Y-67432689D01*
X166065030Y-67494678D01*
X166091745Y-67551899D01*
X166122480Y-67618227D01*
X166150021Y-67677875D01*
X166172938Y-67727726D01*
X166189798Y-67764665D01*
X166199173Y-67785574D01*
X166200540Y-67788846D01*
X166206689Y-67783498D01*
X166220822Y-67761110D01*
X166241057Y-67724947D01*
X166265515Y-67678278D01*
X166275248Y-67659023D01*
X166308217Y-67594005D01*
X166333643Y-67546655D01*
X166353612Y-67514220D01*
X166370210Y-67493947D01*
X166385524Y-67483083D01*
X166401640Y-67478876D01*
X166412143Y-67478401D01*
X166430670Y-67480043D01*
X166446904Y-67486832D01*
X166463035Y-67501567D01*
X166481251Y-67527045D01*
X166503739Y-67566062D01*
X166532689Y-67621415D01*
X166548662Y-67652904D01*
X166574570Y-67703088D01*
X166597167Y-67744705D01*
X166614458Y-67774243D01*
X166624450Y-67788190D01*
X166625809Y-67788771D01*
X166632261Y-67777794D01*
X166646708Y-67749291D01*
X166667703Y-67706245D01*
X166693797Y-67651639D01*
X166723546Y-67588455D01*
X166738180Y-67557072D01*
X166776250Y-67476079D01*
X166806905Y-67413757D01*
X166831737Y-67368072D01*
X166852337Y-67336990D01*
X166870298Y-67318479D01*
X166887210Y-67310505D01*
X166904665Y-67311035D01*
G36*
X164178309Y-67309276D02*
G01*
X164307288Y-67313637D01*
X164416991Y-67326862D01*
X164509226Y-67349742D01*
X164585802Y-67383071D01*
X164648527Y-67427639D01*
X164699212Y-67484237D01*
X164739663Y-67553659D01*
X164740459Y-67555352D01*
X164764601Y-67617484D01*
X164773203Y-67672510D01*
X164766231Y-67727888D01*
X164743654Y-67791074D01*
X164739372Y-67800690D01*
X164710172Y-67856967D01*
X164677356Y-67900452D01*
X164635002Y-67937418D01*
X164577190Y-67974136D01*
X164573831Y-67976053D01*
X164523504Y-68000228D01*
X164466621Y-68018283D01*
X164399527Y-68030840D01*
X164318565Y-68038523D01*
X164220082Y-68041954D01*
X164185286Y-68042252D01*
X164019594Y-68042846D01*
X163996197Y-68013101D01*
X163989257Y-68003320D01*
X163983842Y-67991898D01*
X163979765Y-67976096D01*
X163976837Y-67953176D01*
X163974867Y-67920397D01*
X163974225Y-67896090D01*
X164130844Y-67896090D01*
X164224726Y-67896090D01*
X164279664Y-67894484D01*
X164336060Y-67890256D01*
X164382345Y-67884293D01*
X164385139Y-67883791D01*
X164467348Y-67861737D01*
X164531114Y-67828601D01*
X164578452Y-67782848D01*
X164611382Y-67722940D01*
X164617108Y-67707062D01*
X164622721Y-67682334D01*
X164620291Y-67657903D01*
X164608467Y-67625401D01*
X164601340Y-67609435D01*
X164578000Y-67567007D01*
X164549880Y-67537241D01*
X164518940Y-67516512D01*
X164456966Y-67489538D01*
X164377651Y-67469999D01*
X164285253Y-67458747D01*
X164218333Y-67456271D01*
X164130844Y-67455823D01*
X164130844Y-67896090D01*
X163974225Y-67896090D01*
X163973668Y-67875022D01*
X163973050Y-67814312D01*
X163972825Y-67735527D01*
X163972800Y-67673921D01*
X163972800Y-67364486D01*
X164000509Y-67336777D01*
X164012806Y-67325545D01*
X164026103Y-67317854D01*
X164044672Y-67313041D01*
X164072786Y-67310447D01*
X164114717Y-67309411D01*
X164174737Y-67309271D01*
X164178309Y-67309276D01*
G37*
X164178309Y-67309276D02*
X164307288Y-67313637D01*
X164416991Y-67326862D01*
X164509226Y-67349742D01*
X164585802Y-67383071D01*
X164648527Y-67427639D01*
X164699212Y-67484237D01*
X164739663Y-67553659D01*
X164740459Y-67555352D01*
X164764601Y-67617484D01*
X164773203Y-67672510D01*
X164766231Y-67727888D01*
X164743654Y-67791074D01*
X164739372Y-67800690D01*
X164710172Y-67856967D01*
X164677356Y-67900452D01*
X164635002Y-67937418D01*
X164577190Y-67974136D01*
X164573831Y-67976053D01*
X164523504Y-68000228D01*
X164466621Y-68018283D01*
X164399527Y-68030840D01*
X164318565Y-68038523D01*
X164220082Y-68041954D01*
X164185286Y-68042252D01*
X164019594Y-68042846D01*
X163996197Y-68013101D01*
X163989257Y-68003320D01*
X163983842Y-67991898D01*
X163979765Y-67976096D01*
X163976837Y-67953176D01*
X163974867Y-67920397D01*
X163974225Y-67896090D01*
X164130844Y-67896090D01*
X164224726Y-67896090D01*
X164279664Y-67894484D01*
X164336060Y-67890256D01*
X164382345Y-67884293D01*
X164385139Y-67883791D01*
X164467348Y-67861737D01*
X164531114Y-67828601D01*
X164578452Y-67782848D01*
X164611382Y-67722940D01*
X164617108Y-67707062D01*
X164622721Y-67682334D01*
X164620291Y-67657903D01*
X164608467Y-67625401D01*
X164601340Y-67609435D01*
X164578000Y-67567007D01*
X164549880Y-67537241D01*
X164518940Y-67516512D01*
X164456966Y-67489538D01*
X164377651Y-67469999D01*
X164285253Y-67458747D01*
X164218333Y-67456271D01*
X164130844Y-67455823D01*
X164130844Y-67896090D01*
X163974225Y-67896090D01*
X163973668Y-67875022D01*
X163973050Y-67814312D01*
X163972825Y-67735527D01*
X163972800Y-67673921D01*
X163972800Y-67364486D01*
X164000509Y-67336777D01*
X164012806Y-67325545D01*
X164026103Y-67317854D01*
X164044672Y-67313041D01*
X164072786Y-67310447D01*
X164114717Y-67309411D01*
X164174737Y-67309271D01*
X164178309Y-67309276D01*
G36*
X163390343Y-67309261D02*
G01*
X163466701Y-67310175D01*
X163525217Y-67312312D01*
X163568255Y-67316176D01*
X163598183Y-67322268D01*
X163617368Y-67331091D01*
X163628176Y-67343147D01*
X163632973Y-67358940D01*
X163634127Y-67378971D01*
X163634133Y-67381336D01*
X163633131Y-67403993D01*
X163628396Y-67421504D01*
X163617333Y-67434575D01*
X163597348Y-67443914D01*
X163565846Y-67450228D01*
X163520232Y-67454223D01*
X163457913Y-67456607D01*
X163376293Y-67458087D01*
X163351277Y-67458415D01*
X163109200Y-67461468D01*
X163105814Y-67526379D01*
X163102429Y-67591290D01*
X163270576Y-67591290D01*
X163336266Y-67591532D01*
X163383172Y-67592557D01*
X163415083Y-67594812D01*
X163435791Y-67598743D01*
X163449084Y-67604799D01*
X163458755Y-67613425D01*
X163458817Y-67613494D01*
X163476356Y-67647113D01*
X163475722Y-67683449D01*
X163457314Y-67714424D01*
X163453671Y-67717608D01*
X163440741Y-67725813D01*
X163423024Y-67731522D01*
X163396570Y-67735163D01*
X163357432Y-67737168D01*
X163301662Y-67737965D01*
X163265994Y-67738046D01*
X163103555Y-67738046D01*
X163103555Y-67896090D01*
X163350161Y-67896090D01*
X163431580Y-67896232D01*
X163493410Y-67896815D01*
X163538637Y-67898069D01*
X163570248Y-67900228D01*
X163591231Y-67903524D01*
X163604573Y-67908190D01*
X163613261Y-67914458D01*
X163615450Y-67916734D01*
X163631614Y-67948281D01*
X163632797Y-67984169D01*
X163619536Y-68015286D01*
X163609043Y-68025272D01*
X163598129Y-68030770D01*
X163581217Y-68035023D01*
X163555633Y-68038181D01*
X163518701Y-68040393D01*
X163467746Y-68041807D01*
X163400094Y-68042573D01*
X163313069Y-68042839D01*
X163293394Y-68042846D01*
X163204911Y-68042788D01*
X163136227Y-68042468D01*
X163084564Y-68041668D01*
X163047145Y-68040168D01*
X163021190Y-68037750D01*
X163003922Y-68034195D01*
X162992562Y-68029283D01*
X162984332Y-68022796D01*
X162979817Y-68018139D01*
X162973021Y-68009890D01*
X162967712Y-67999670D01*
X162963706Y-67984801D01*
X162960821Y-67962603D01*
X162958874Y-67930394D01*
X162957681Y-67885497D01*
X162957061Y-67825229D01*
X162956829Y-67746912D01*
X162956800Y-67680995D01*
X162956871Y-67588629D01*
X162957208Y-67516118D01*
X162957998Y-67460738D01*
X162959426Y-67419766D01*
X162961679Y-67390479D01*
X162964943Y-67370154D01*
X162969404Y-67356067D01*
X162975248Y-67345496D01*
X162980197Y-67338812D01*
X163003594Y-67309068D01*
X163293774Y-67309068D01*
X163390343Y-67309261D01*
G37*
X163390343Y-67309261D02*
X163466701Y-67310175D01*
X163525217Y-67312312D01*
X163568255Y-67316176D01*
X163598183Y-67322268D01*
X163617368Y-67331091D01*
X163628176Y-67343147D01*
X163632973Y-67358940D01*
X163634127Y-67378971D01*
X163634133Y-67381336D01*
X163633131Y-67403993D01*
X163628396Y-67421504D01*
X163617333Y-67434575D01*
X163597348Y-67443914D01*
X163565846Y-67450228D01*
X163520232Y-67454223D01*
X163457913Y-67456607D01*
X163376293Y-67458087D01*
X163351277Y-67458415D01*
X163109200Y-67461468D01*
X163105814Y-67526379D01*
X163102429Y-67591290D01*
X163270576Y-67591290D01*
X163336266Y-67591532D01*
X163383172Y-67592557D01*
X163415083Y-67594812D01*
X163435791Y-67598743D01*
X163449084Y-67604799D01*
X163458755Y-67613425D01*
X163458817Y-67613494D01*
X163476356Y-67647113D01*
X163475722Y-67683449D01*
X163457314Y-67714424D01*
X163453671Y-67717608D01*
X163440741Y-67725813D01*
X163423024Y-67731522D01*
X163396570Y-67735163D01*
X163357432Y-67737168D01*
X163301662Y-67737965D01*
X163265994Y-67738046D01*
X163103555Y-67738046D01*
X163103555Y-67896090D01*
X163350161Y-67896090D01*
X163431580Y-67896232D01*
X163493410Y-67896815D01*
X163538637Y-67898069D01*
X163570248Y-67900228D01*
X163591231Y-67903524D01*
X163604573Y-67908190D01*
X163613261Y-67914458D01*
X163615450Y-67916734D01*
X163631614Y-67948281D01*
X163632797Y-67984169D01*
X163619536Y-68015286D01*
X163609043Y-68025272D01*
X163598129Y-68030770D01*
X163581217Y-68035023D01*
X163555633Y-68038181D01*
X163518701Y-68040393D01*
X163467746Y-68041807D01*
X163400094Y-68042573D01*
X163313069Y-68042839D01*
X163293394Y-68042846D01*
X163204911Y-68042788D01*
X163136227Y-68042468D01*
X163084564Y-68041668D01*
X163047145Y-68040168D01*
X163021190Y-68037750D01*
X163003922Y-68034195D01*
X162992562Y-68029283D01*
X162984332Y-68022796D01*
X162979817Y-68018139D01*
X162973021Y-68009890D01*
X162967712Y-67999670D01*
X162963706Y-67984801D01*
X162960821Y-67962603D01*
X162958874Y-67930394D01*
X162957681Y-67885497D01*
X162957061Y-67825229D01*
X162956829Y-67746912D01*
X162956800Y-67680995D01*
X162956871Y-67588629D01*
X162957208Y-67516118D01*
X162957998Y-67460738D01*
X162959426Y-67419766D01*
X162961679Y-67390479D01*
X162964943Y-67370154D01*
X162969404Y-67356067D01*
X162975248Y-67345496D01*
X162980197Y-67338812D01*
X163003594Y-67309068D01*
X163293774Y-67309068D01*
X163390343Y-67309261D01*
G36*
X161859886Y-67313449D02*
G01*
X161883452Y-67327274D01*
X161914265Y-67349882D01*
X161953922Y-67382339D01*
X162004020Y-67425709D01*
X162066157Y-67481059D01*
X162141928Y-67549452D01*
X162228666Y-67628085D01*
X162409289Y-67791879D01*
X162414933Y-67572030D01*
X162416971Y-67496352D01*
X162418937Y-67439995D01*
X162421266Y-67399707D01*
X162424394Y-67372236D01*
X162428755Y-67354330D01*
X162434784Y-67342738D01*
X162442916Y-67334209D01*
X162447228Y-67330624D01*
X162481759Y-67311671D01*
X162514617Y-67314442D01*
X162540682Y-67330634D01*
X162567333Y-67352200D01*
X162570648Y-67667152D01*
X162571565Y-67759780D01*
X162572032Y-67832545D01*
X162571887Y-67888162D01*
X162570968Y-67929343D01*
X162569113Y-67958804D01*
X162566161Y-67979256D01*
X162561950Y-67993414D01*
X162556318Y-68003992D01*
X162550073Y-68012475D01*
X162536561Y-68028208D01*
X162523117Y-68038637D01*
X162507876Y-68042640D01*
X162488974Y-68039095D01*
X162464545Y-68026880D01*
X162432727Y-68004872D01*
X162391652Y-67971950D01*
X162339458Y-67926992D01*
X162274278Y-67868876D01*
X162200444Y-67802100D01*
X161935155Y-67561459D01*
X161929511Y-67780590D01*
X161927469Y-67856129D01*
X161925498Y-67912355D01*
X161923161Y-67952525D01*
X161920019Y-67979897D01*
X161915636Y-67997729D01*
X161909576Y-68009280D01*
X161901400Y-68017808D01*
X161897216Y-68021283D01*
X161860235Y-68040373D01*
X161825292Y-68037494D01*
X161794864Y-68013101D01*
X161787903Y-68003287D01*
X161782477Y-67991827D01*
X161778397Y-67975969D01*
X161775471Y-67952964D01*
X161773508Y-67920063D01*
X161772317Y-67874517D01*
X161771708Y-67813574D01*
X161771489Y-67734487D01*
X161771466Y-67675957D01*
X161771540Y-67584408D01*
X161771887Y-67512688D01*
X161772699Y-67458046D01*
X161774167Y-67417733D01*
X161776481Y-67388999D01*
X161779833Y-67369094D01*
X161784412Y-67355269D01*
X161790411Y-67344773D01*
X161794864Y-67338812D01*
X161806150Y-67324692D01*
X161816699Y-67314030D01*
X161828107Y-67307893D01*
X161841970Y-67307344D01*
X161859886Y-67313449D01*
G37*
X161859886Y-67313449D02*
X161883452Y-67327274D01*
X161914265Y-67349882D01*
X161953922Y-67382339D01*
X162004020Y-67425709D01*
X162066157Y-67481059D01*
X162141928Y-67549452D01*
X162228666Y-67628085D01*
X162409289Y-67791879D01*
X162414933Y-67572030D01*
X162416971Y-67496352D01*
X162418937Y-67439995D01*
X162421266Y-67399707D01*
X162424394Y-67372236D01*
X162428755Y-67354330D01*
X162434784Y-67342738D01*
X162442916Y-67334209D01*
X162447228Y-67330624D01*
X162481759Y-67311671D01*
X162514617Y-67314442D01*
X162540682Y-67330634D01*
X162567333Y-67352200D01*
X162570648Y-67667152D01*
X162571565Y-67759780D01*
X162572032Y-67832545D01*
X162571887Y-67888162D01*
X162570968Y-67929343D01*
X162569113Y-67958804D01*
X162566161Y-67979256D01*
X162561950Y-67993414D01*
X162556318Y-68003992D01*
X162550073Y-68012475D01*
X162536561Y-68028208D01*
X162523117Y-68038637D01*
X162507876Y-68042640D01*
X162488974Y-68039095D01*
X162464545Y-68026880D01*
X162432727Y-68004872D01*
X162391652Y-67971950D01*
X162339458Y-67926992D01*
X162274278Y-67868876D01*
X162200444Y-67802100D01*
X161935155Y-67561459D01*
X161929511Y-67780590D01*
X161927469Y-67856129D01*
X161925498Y-67912355D01*
X161923161Y-67952525D01*
X161920019Y-67979897D01*
X161915636Y-67997729D01*
X161909576Y-68009280D01*
X161901400Y-68017808D01*
X161897216Y-68021283D01*
X161860235Y-68040373D01*
X161825292Y-68037494D01*
X161794864Y-68013101D01*
X161787903Y-68003287D01*
X161782477Y-67991827D01*
X161778397Y-67975969D01*
X161775471Y-67952964D01*
X161773508Y-67920063D01*
X161772317Y-67874517D01*
X161771708Y-67813574D01*
X161771489Y-67734487D01*
X161771466Y-67675957D01*
X161771540Y-67584408D01*
X161771887Y-67512688D01*
X161772699Y-67458046D01*
X161774167Y-67417733D01*
X161776481Y-67388999D01*
X161779833Y-67369094D01*
X161784412Y-67355269D01*
X161790411Y-67344773D01*
X161794864Y-67338812D01*
X161806150Y-67324692D01*
X161816699Y-67314030D01*
X161828107Y-67307893D01*
X161841970Y-67307344D01*
X161859886Y-67313449D01*
G36*
X161209919Y-67314600D02*
G01*
X161278435Y-67326096D01*
X161331057Y-67343968D01*
X161365292Y-67367500D01*
X161374621Y-67380925D01*
X161384107Y-67412149D01*
X161377723Y-67440396D01*
X161357570Y-67467183D01*
X161326255Y-67479714D01*
X161280817Y-67478697D01*
X161245674Y-67471907D01*
X161167581Y-67458972D01*
X161087774Y-67457743D01*
X160998445Y-67468242D01*
X160973771Y-67472691D01*
X160890709Y-67496109D01*
X160825727Y-67530946D01*
X160779539Y-67576605D01*
X160752855Y-67632495D01*
X160747337Y-67661389D01*
X160750949Y-67720013D01*
X160774271Y-67771880D01*
X160815176Y-67815979D01*
X160871541Y-67851300D01*
X160941240Y-67876830D01*
X161022148Y-67891560D01*
X161112140Y-67894479D01*
X161209090Y-67884576D01*
X161214564Y-67883642D01*
X161253125Y-67876460D01*
X161274506Y-67869522D01*
X161283773Y-67859228D01*
X161285994Y-67841977D01*
X161286044Y-67832842D01*
X161286044Y-67794490D01*
X161217569Y-67794490D01*
X161157100Y-67790348D01*
X161115835Y-67777148D01*
X161091825Y-67753731D01*
X161083123Y-67718937D01*
X161083017Y-67714395D01*
X161088108Y-67684655D01*
X161105567Y-67663420D01*
X161138061Y-67649367D01*
X161188257Y-67641174D01*
X161236877Y-67638162D01*
X161307544Y-67636434D01*
X161358802Y-67639071D01*
X161393761Y-67648801D01*
X161415530Y-67668354D01*
X161427220Y-67700457D01*
X161431940Y-67747839D01*
X161432800Y-67810072D01*
X161431391Y-67879536D01*
X161427152Y-67926787D01*
X161420064Y-67952013D01*
X161418689Y-67953989D01*
X161379772Y-67985509D01*
X161322714Y-68010471D01*
X161251131Y-68028341D01*
X161168642Y-68038587D01*
X161078861Y-68040674D01*
X160985408Y-68034069D01*
X160930444Y-68025957D01*
X160844234Y-68001555D01*
X160764108Y-67961663D01*
X160697023Y-67909888D01*
X160686827Y-67899540D01*
X160653698Y-67856036D01*
X160623806Y-67802119D01*
X160600643Y-67745593D01*
X160587702Y-67694260D01*
X160586142Y-67674545D01*
X160592782Y-67633420D01*
X160610432Y-67582253D01*
X160635703Y-67528395D01*
X160665211Y-67479196D01*
X160691281Y-67446335D01*
X160752235Y-67397453D01*
X160831031Y-67358546D01*
X160924843Y-67330495D01*
X161030850Y-67314180D01*
X161128000Y-67310193D01*
X161209919Y-67314600D01*
G37*
X161209919Y-67314600D02*
X161278435Y-67326096D01*
X161331057Y-67343968D01*
X161365292Y-67367500D01*
X161374621Y-67380925D01*
X161384107Y-67412149D01*
X161377723Y-67440396D01*
X161357570Y-67467183D01*
X161326255Y-67479714D01*
X161280817Y-67478697D01*
X161245674Y-67471907D01*
X161167581Y-67458972D01*
X161087774Y-67457743D01*
X160998445Y-67468242D01*
X160973771Y-67472691D01*
X160890709Y-67496109D01*
X160825727Y-67530946D01*
X160779539Y-67576605D01*
X160752855Y-67632495D01*
X160747337Y-67661389D01*
X160750949Y-67720013D01*
X160774271Y-67771880D01*
X160815176Y-67815979D01*
X160871541Y-67851300D01*
X160941240Y-67876830D01*
X161022148Y-67891560D01*
X161112140Y-67894479D01*
X161209090Y-67884576D01*
X161214564Y-67883642D01*
X161253125Y-67876460D01*
X161274506Y-67869522D01*
X161283773Y-67859228D01*
X161285994Y-67841977D01*
X161286044Y-67832842D01*
X161286044Y-67794490D01*
X161217569Y-67794490D01*
X161157100Y-67790348D01*
X161115835Y-67777148D01*
X161091825Y-67753731D01*
X161083123Y-67718937D01*
X161083017Y-67714395D01*
X161088108Y-67684655D01*
X161105567Y-67663420D01*
X161138061Y-67649367D01*
X161188257Y-67641174D01*
X161236877Y-67638162D01*
X161307544Y-67636434D01*
X161358802Y-67639071D01*
X161393761Y-67648801D01*
X161415530Y-67668354D01*
X161427220Y-67700457D01*
X161431940Y-67747839D01*
X161432800Y-67810072D01*
X161431391Y-67879536D01*
X161427152Y-67926787D01*
X161420064Y-67952013D01*
X161418689Y-67953989D01*
X161379772Y-67985509D01*
X161322714Y-68010471D01*
X161251131Y-68028341D01*
X161168642Y-68038587D01*
X161078861Y-68040674D01*
X160985408Y-68034069D01*
X160930444Y-68025957D01*
X160844234Y-68001555D01*
X160764108Y-67961663D01*
X160697023Y-67909888D01*
X160686827Y-67899540D01*
X160653698Y-67856036D01*
X160623806Y-67802119D01*
X160600643Y-67745593D01*
X160587702Y-67694260D01*
X160586142Y-67674545D01*
X160592782Y-67633420D01*
X160610432Y-67582253D01*
X160635703Y-67528395D01*
X160665211Y-67479196D01*
X160691281Y-67446335D01*
X160752235Y-67397453D01*
X160831031Y-67358546D01*
X160924843Y-67330495D01*
X161030850Y-67314180D01*
X161128000Y-67310193D01*
X161209919Y-67314600D01*
G36*
X160236178Y-67331646D02*
G01*
X160242758Y-67339219D01*
X160247921Y-67348988D01*
X160251836Y-67363572D01*
X160254676Y-67385586D01*
X160256613Y-67417649D01*
X160257817Y-67462376D01*
X160258461Y-67522386D01*
X160258716Y-67600295D01*
X160258755Y-67675957D01*
X160258686Y-67769803D01*
X160258362Y-67843690D01*
X160257614Y-67900233D01*
X160256268Y-67942050D01*
X160254154Y-67971758D01*
X160251100Y-67991974D01*
X160246934Y-68005315D01*
X160241484Y-68014399D01*
X160236178Y-68020268D01*
X160203174Y-68039948D01*
X160168009Y-68038182D01*
X160136545Y-68016718D01*
X160129316Y-68008338D01*
X160123666Y-67998615D01*
X160119401Y-67984862D01*
X160116327Y-67964390D01*
X160114248Y-67934513D01*
X160112970Y-67892542D01*
X160112299Y-67835790D01*
X160112041Y-67761568D01*
X160112000Y-67677538D01*
X160112000Y-67364486D01*
X160139709Y-67336777D01*
X160173863Y-67313464D01*
X160206994Y-67312624D01*
X160236178Y-67331646D01*
G37*
X160236178Y-67331646D02*
X160242758Y-67339219D01*
X160247921Y-67348988D01*
X160251836Y-67363572D01*
X160254676Y-67385586D01*
X160256613Y-67417649D01*
X160257817Y-67462376D01*
X160258461Y-67522386D01*
X160258716Y-67600295D01*
X160258755Y-67675957D01*
X160258686Y-67769803D01*
X160258362Y-67843690D01*
X160257614Y-67900233D01*
X160256268Y-67942050D01*
X160254154Y-67971758D01*
X160251100Y-67991974D01*
X160246934Y-68005315D01*
X160241484Y-68014399D01*
X160236178Y-68020268D01*
X160203174Y-68039948D01*
X160168009Y-68038182D01*
X160136545Y-68016718D01*
X160129316Y-68008338D01*
X160123666Y-67998615D01*
X160119401Y-67984862D01*
X160116327Y-67964390D01*
X160114248Y-67934513D01*
X160112970Y-67892542D01*
X160112299Y-67835790D01*
X160112041Y-67761568D01*
X160112000Y-67677538D01*
X160112000Y-67364486D01*
X160139709Y-67336777D01*
X160173863Y-67313464D01*
X160206994Y-67312624D01*
X160236178Y-67331646D01*
G36*
X159468297Y-67310352D02*
G01*
X159543112Y-67315582D01*
X159612694Y-67323751D01*
X159672998Y-67334551D01*
X159719980Y-67347674D01*
X159749594Y-67362814D01*
X159754140Y-67367270D01*
X159769946Y-67401851D01*
X159765153Y-67437352D01*
X159740636Y-67467726D01*
X159739466Y-67468597D01*
X159725046Y-67477955D01*
X159709992Y-67482877D01*
X159688995Y-67483474D01*
X159656743Y-67479862D01*
X159607927Y-67472155D01*
X159604000Y-67471506D01*
X159531261Y-67462570D01*
X159452783Y-67458162D01*
X159374073Y-67458120D01*
X159300639Y-67462280D01*
X159237989Y-67470480D01*
X159191630Y-67482558D01*
X159188584Y-67483772D01*
X159154952Y-67502616D01*
X159143136Y-67521686D01*
X159152386Y-67540440D01*
X159181953Y-67558338D01*
X159231089Y-67574838D01*
X159299043Y-67589397D01*
X159344355Y-67596407D01*
X159438544Y-67609890D01*
X159513456Y-67622215D01*
X159572283Y-67634450D01*
X159618215Y-67647662D01*
X159654445Y-67662918D01*
X159684162Y-67681286D01*
X159710558Y-67703832D01*
X159731770Y-67725972D01*
X159756935Y-67756820D01*
X159769319Y-67783346D01*
X159773192Y-67816027D01*
X159773333Y-67827996D01*
X159770424Y-67867713D01*
X159758798Y-67897260D01*
X159738677Y-67923487D01*
X159697784Y-67963577D01*
X159652183Y-67994150D01*
X159598487Y-68016204D01*
X159533308Y-68030736D01*
X159453256Y-68038742D01*
X159354943Y-68041219D01*
X159338711Y-68041178D01*
X159273151Y-68039819D01*
X159208134Y-68036731D01*
X159150748Y-68032357D01*
X159108078Y-68027141D01*
X159104628Y-68026542D01*
X159062204Y-68016492D01*
X159026220Y-68003797D01*
X159005850Y-67992191D01*
X158986893Y-67961573D01*
X158985573Y-67925919D01*
X159001915Y-67894145D01*
X159005571Y-67890552D01*
X159020685Y-67879877D01*
X159039585Y-67875277D01*
X159068838Y-67876060D01*
X159104349Y-67880128D01*
X159144030Y-67883763D01*
X159199655Y-67886829D01*
X159264594Y-67889054D01*
X159332215Y-67890165D01*
X159350000Y-67890238D01*
X159417872Y-67889965D01*
X159467546Y-67888647D01*
X159503390Y-67885828D01*
X159529776Y-67881051D01*
X159551074Y-67873858D01*
X159563874Y-67867868D01*
X159592000Y-67851234D01*
X159609932Y-67836169D01*
X159612553Y-67831898D01*
X159607024Y-67814264D01*
X159580740Y-67797193D01*
X159535522Y-67781459D01*
X159473192Y-67767839D01*
X159454829Y-67764805D01*
X159358910Y-67749739D01*
X159282359Y-67737147D01*
X159222220Y-67726112D01*
X159175540Y-67715721D01*
X159139363Y-67705057D01*
X159110735Y-67693206D01*
X159086702Y-67679252D01*
X159064308Y-67662282D01*
X159040598Y-67641379D01*
X159032620Y-67634050D01*
X159004647Y-67606700D01*
X158989840Y-67585030D01*
X158984048Y-67560233D01*
X158983111Y-67528984D01*
X158993425Y-67467706D01*
X159024248Y-67415641D01*
X159075405Y-67372959D01*
X159146717Y-67339826D01*
X159197600Y-67324965D01*
X159252900Y-67315367D01*
X159319147Y-67309937D01*
X159392294Y-67308368D01*
X159468297Y-67310352D01*
G37*
X159468297Y-67310352D02*
X159543112Y-67315582D01*
X159612694Y-67323751D01*
X159672998Y-67334551D01*
X159719980Y-67347674D01*
X159749594Y-67362814D01*
X159754140Y-67367270D01*
X159769946Y-67401851D01*
X159765153Y-67437352D01*
X159740636Y-67467726D01*
X159739466Y-67468597D01*
X159725046Y-67477955D01*
X159709992Y-67482877D01*
X159688995Y-67483474D01*
X159656743Y-67479862D01*
X159607927Y-67472155D01*
X159604000Y-67471506D01*
X159531261Y-67462570D01*
X159452783Y-67458162D01*
X159374073Y-67458120D01*
X159300639Y-67462280D01*
X159237989Y-67470480D01*
X159191630Y-67482558D01*
X159188584Y-67483772D01*
X159154952Y-67502616D01*
X159143136Y-67521686D01*
X159152386Y-67540440D01*
X159181953Y-67558338D01*
X159231089Y-67574838D01*
X159299043Y-67589397D01*
X159344355Y-67596407D01*
X159438544Y-67609890D01*
X159513456Y-67622215D01*
X159572283Y-67634450D01*
X159618215Y-67647662D01*
X159654445Y-67662918D01*
X159684162Y-67681286D01*
X159710558Y-67703832D01*
X159731770Y-67725972D01*
X159756935Y-67756820D01*
X159769319Y-67783346D01*
X159773192Y-67816027D01*
X159773333Y-67827996D01*
X159770424Y-67867713D01*
X159758798Y-67897260D01*
X159738677Y-67923487D01*
X159697784Y-67963577D01*
X159652183Y-67994150D01*
X159598487Y-68016204D01*
X159533308Y-68030736D01*
X159453256Y-68038742D01*
X159354943Y-68041219D01*
X159338711Y-68041178D01*
X159273151Y-68039819D01*
X159208134Y-68036731D01*
X159150748Y-68032357D01*
X159108078Y-68027141D01*
X159104628Y-68026542D01*
X159062204Y-68016492D01*
X159026220Y-68003797D01*
X159005850Y-67992191D01*
X158986893Y-67961573D01*
X158985573Y-67925919D01*
X159001915Y-67894145D01*
X159005571Y-67890552D01*
X159020685Y-67879877D01*
X159039585Y-67875277D01*
X159068838Y-67876060D01*
X159104349Y-67880128D01*
X159144030Y-67883763D01*
X159199655Y-67886829D01*
X159264594Y-67889054D01*
X159332215Y-67890165D01*
X159350000Y-67890238D01*
X159417872Y-67889965D01*
X159467546Y-67888647D01*
X159503390Y-67885828D01*
X159529776Y-67881051D01*
X159551074Y-67873858D01*
X159563874Y-67867868D01*
X159592000Y-67851234D01*
X159609932Y-67836169D01*
X159612553Y-67831898D01*
X159607024Y-67814264D01*
X159580740Y-67797193D01*
X159535522Y-67781459D01*
X159473192Y-67767839D01*
X159454829Y-67764805D01*
X159358910Y-67749739D01*
X159282359Y-67737147D01*
X159222220Y-67726112D01*
X159175540Y-67715721D01*
X159139363Y-67705057D01*
X159110735Y-67693206D01*
X159086702Y-67679252D01*
X159064308Y-67662282D01*
X159040598Y-67641379D01*
X159032620Y-67634050D01*
X159004647Y-67606700D01*
X158989840Y-67585030D01*
X158984048Y-67560233D01*
X158983111Y-67528984D01*
X158993425Y-67467706D01*
X159024248Y-67415641D01*
X159075405Y-67372959D01*
X159146717Y-67339826D01*
X159197600Y-67324965D01*
X159252900Y-67315367D01*
X159319147Y-67309937D01*
X159392294Y-67308368D01*
X159468297Y-67310352D01*
G36*
X158447206Y-67309147D02*
G01*
X158516614Y-67309519D01*
X158569003Y-67310386D01*
X158607153Y-67311947D01*
X158633841Y-67314404D01*
X158651847Y-67317958D01*
X158663951Y-67322811D01*
X158672931Y-67329162D01*
X158676182Y-67332085D01*
X158695957Y-67363143D01*
X158699518Y-67398829D01*
X158686509Y-67430511D01*
X158680494Y-67436914D01*
X158670765Y-67443122D01*
X158655099Y-67447911D01*
X158630592Y-67451515D01*
X158594339Y-67454165D01*
X158543435Y-67456096D01*
X158474974Y-67457540D01*
X158412383Y-67458419D01*
X158164666Y-67461468D01*
X158161281Y-67526379D01*
X158157895Y-67591290D01*
X158326042Y-67591290D01*
X158399041Y-67591920D01*
X158452483Y-67594554D01*
X158489372Y-67600310D01*
X158512712Y-67610305D01*
X158525506Y-67625657D01*
X158530758Y-67647483D01*
X158531555Y-67667739D01*
X158529077Y-67692593D01*
X158519723Y-67710907D01*
X158500617Y-67723638D01*
X158468882Y-67731742D01*
X158421641Y-67736177D01*
X158356017Y-67737900D01*
X158320199Y-67738046D01*
X158159022Y-67738046D01*
X158159022Y-67896090D01*
X158407378Y-67896090D01*
X158488787Y-67896203D01*
X158550658Y-67896713D01*
X158596032Y-67897871D01*
X158627946Y-67899931D01*
X158649441Y-67903147D01*
X158663557Y-67907773D01*
X158673332Y-67914060D01*
X158678311Y-67918668D01*
X158695390Y-67945561D01*
X158700889Y-67969468D01*
X158693037Y-67998668D01*
X158678311Y-68020268D01*
X158670454Y-68027067D01*
X158660312Y-68032347D01*
X158645156Y-68036299D01*
X158622259Y-68039114D01*
X158588891Y-68040983D01*
X158542325Y-68042099D01*
X158479833Y-68042652D01*
X158398686Y-68042834D01*
X158356578Y-68042846D01*
X158266402Y-68042766D01*
X158196076Y-68042399D01*
X158142871Y-68041553D01*
X158104060Y-68040037D01*
X158076913Y-68037660D01*
X158058702Y-68034230D01*
X158046700Y-68029555D01*
X158038178Y-68023445D01*
X158034844Y-68020268D01*
X158028245Y-68012671D01*
X158023073Y-68002871D01*
X158019154Y-67988240D01*
X158016316Y-67966153D01*
X158014385Y-67933983D01*
X158013188Y-67889104D01*
X158012552Y-67828890D01*
X158012303Y-67750714D01*
X158012266Y-67677924D01*
X158012300Y-67584708D01*
X158012535Y-67511432D01*
X158013170Y-67455459D01*
X158014406Y-67414152D01*
X158016444Y-67384873D01*
X158019483Y-67364985D01*
X158023723Y-67351851D01*
X158029365Y-67342833D01*
X158036609Y-67335294D01*
X158038394Y-67333613D01*
X158047055Y-67326173D01*
X158057118Y-67320410D01*
X158071375Y-67316113D01*
X158092617Y-67313065D01*
X158123636Y-67311052D01*
X158167223Y-67309861D01*
X158226169Y-67309276D01*
X158303266Y-67309084D01*
X158357999Y-67309068D01*
X158447206Y-67309147D01*
G37*
X158447206Y-67309147D02*
X158516614Y-67309519D01*
X158569003Y-67310386D01*
X158607153Y-67311947D01*
X158633841Y-67314404D01*
X158651847Y-67317958D01*
X158663951Y-67322811D01*
X158672931Y-67329162D01*
X158676182Y-67332085D01*
X158695957Y-67363143D01*
X158699518Y-67398829D01*
X158686509Y-67430511D01*
X158680494Y-67436914D01*
X158670765Y-67443122D01*
X158655099Y-67447911D01*
X158630592Y-67451515D01*
X158594339Y-67454165D01*
X158543435Y-67456096D01*
X158474974Y-67457540D01*
X158412383Y-67458419D01*
X158164666Y-67461468D01*
X158161281Y-67526379D01*
X158157895Y-67591290D01*
X158326042Y-67591290D01*
X158399041Y-67591920D01*
X158452483Y-67594554D01*
X158489372Y-67600310D01*
X158512712Y-67610305D01*
X158525506Y-67625657D01*
X158530758Y-67647483D01*
X158531555Y-67667739D01*
X158529077Y-67692593D01*
X158519723Y-67710907D01*
X158500617Y-67723638D01*
X158468882Y-67731742D01*
X158421641Y-67736177D01*
X158356017Y-67737900D01*
X158320199Y-67738046D01*
X158159022Y-67738046D01*
X158159022Y-67896090D01*
X158407378Y-67896090D01*
X158488787Y-67896203D01*
X158550658Y-67896713D01*
X158596032Y-67897871D01*
X158627946Y-67899931D01*
X158649441Y-67903147D01*
X158663557Y-67907773D01*
X158673332Y-67914060D01*
X158678311Y-67918668D01*
X158695390Y-67945561D01*
X158700889Y-67969468D01*
X158693037Y-67998668D01*
X158678311Y-68020268D01*
X158670454Y-68027067D01*
X158660312Y-68032347D01*
X158645156Y-68036299D01*
X158622259Y-68039114D01*
X158588891Y-68040983D01*
X158542325Y-68042099D01*
X158479833Y-68042652D01*
X158398686Y-68042834D01*
X158356578Y-68042846D01*
X158266402Y-68042766D01*
X158196076Y-68042399D01*
X158142871Y-68041553D01*
X158104060Y-68040037D01*
X158076913Y-68037660D01*
X158058702Y-68034230D01*
X158046700Y-68029555D01*
X158038178Y-68023445D01*
X158034844Y-68020268D01*
X158028245Y-68012671D01*
X158023073Y-68002871D01*
X158019154Y-67988240D01*
X158016316Y-67966153D01*
X158014385Y-67933983D01*
X158013188Y-67889104D01*
X158012552Y-67828890D01*
X158012303Y-67750714D01*
X158012266Y-67677924D01*
X158012300Y-67584708D01*
X158012535Y-67511432D01*
X158013170Y-67455459D01*
X158014406Y-67414152D01*
X158016444Y-67384873D01*
X158019483Y-67364985D01*
X158023723Y-67351851D01*
X158029365Y-67342833D01*
X158036609Y-67335294D01*
X158038394Y-67333613D01*
X158047055Y-67326173D01*
X158057118Y-67320410D01*
X158071375Y-67316113D01*
X158092617Y-67313065D01*
X158123636Y-67311052D01*
X158167223Y-67309861D01*
X158226169Y-67309276D01*
X158303266Y-67309084D01*
X158357999Y-67309068D01*
X158447206Y-67309147D01*
G36*
X157038629Y-67309067D02*
G01*
X157078111Y-67309468D01*
X157193800Y-67312260D01*
X157290689Y-67320551D01*
X157372081Y-67335233D01*
X157441277Y-67357194D01*
X157501580Y-67387323D01*
X157556292Y-67426511D01*
X157575833Y-67443533D01*
X157608250Y-67483364D01*
X157637480Y-67537414D01*
X157660009Y-67597324D01*
X157672321Y-67654740D01*
X157673600Y-67675957D01*
X157665583Y-67734770D01*
X157644101Y-67799014D01*
X157613001Y-67859822D01*
X157576134Y-67908331D01*
X157570146Y-67914183D01*
X157519421Y-67955322D01*
X157463875Y-67987436D01*
X157400304Y-68011366D01*
X157325506Y-68027954D01*
X157236278Y-68038042D01*
X157129418Y-68042470D01*
X157080472Y-68042846D01*
X157018238Y-68042546D01*
X156974472Y-68041293D01*
X156945069Y-68038555D01*
X156925921Y-68033802D01*
X156912923Y-68026502D01*
X156905955Y-68020268D01*
X156899374Y-68012695D01*
X156894212Y-68002925D01*
X156890297Y-67988341D01*
X156887457Y-67966327D01*
X156885520Y-67934265D01*
X156884316Y-67889537D01*
X156883672Y-67829527D01*
X156883417Y-67751618D01*
X156883378Y-67675957D01*
X156883130Y-67575042D01*
X156883183Y-67494428D01*
X156884143Y-67455823D01*
X157030133Y-67455823D01*
X157030133Y-67896090D01*
X157123266Y-67896005D01*
X157179307Y-67894397D01*
X157238001Y-67890257D01*
X157286972Y-67884465D01*
X157288462Y-67884227D01*
X157367608Y-67865091D01*
X157428998Y-67835288D01*
X157475695Y-67792879D01*
X157505365Y-67746962D01*
X157523647Y-67696027D01*
X157522229Y-67648201D01*
X157501012Y-67596934D01*
X157459511Y-67543900D01*
X157402002Y-67504601D01*
X157327250Y-67478332D01*
X157277292Y-67469036D01*
X157220584Y-67462508D01*
X157160481Y-67457783D01*
X157109361Y-67455818D01*
X157106333Y-67455809D01*
X157030133Y-67455823D01*
X156884143Y-67455823D01*
X156884740Y-67431852D01*
X156889002Y-67385056D01*
X156897170Y-67351779D01*
X156910444Y-67329760D01*
X156930026Y-67316740D01*
X156957117Y-67310458D01*
X156992918Y-67308654D01*
X157038629Y-67309067D01*
G37*
X157038629Y-67309067D02*
X157078111Y-67309468D01*
X157193800Y-67312260D01*
X157290689Y-67320551D01*
X157372081Y-67335233D01*
X157441277Y-67357194D01*
X157501580Y-67387323D01*
X157556292Y-67426511D01*
X157575833Y-67443533D01*
X157608250Y-67483364D01*
X157637480Y-67537414D01*
X157660009Y-67597324D01*
X157672321Y-67654740D01*
X157673600Y-67675957D01*
X157665583Y-67734770D01*
X157644101Y-67799014D01*
X157613001Y-67859822D01*
X157576134Y-67908331D01*
X157570146Y-67914183D01*
X157519421Y-67955322D01*
X157463875Y-67987436D01*
X157400304Y-68011366D01*
X157325506Y-68027954D01*
X157236278Y-68038042D01*
X157129418Y-68042470D01*
X157080472Y-68042846D01*
X157018238Y-68042546D01*
X156974472Y-68041293D01*
X156945069Y-68038555D01*
X156925921Y-68033802D01*
X156912923Y-68026502D01*
X156905955Y-68020268D01*
X156899374Y-68012695D01*
X156894212Y-68002925D01*
X156890297Y-67988341D01*
X156887457Y-67966327D01*
X156885520Y-67934265D01*
X156884316Y-67889537D01*
X156883672Y-67829527D01*
X156883417Y-67751618D01*
X156883378Y-67675957D01*
X156883130Y-67575042D01*
X156883183Y-67494428D01*
X156884143Y-67455823D01*
X157030133Y-67455823D01*
X157030133Y-67896090D01*
X157123266Y-67896005D01*
X157179307Y-67894397D01*
X157238001Y-67890257D01*
X157286972Y-67884465D01*
X157288462Y-67884227D01*
X157367608Y-67865091D01*
X157428998Y-67835288D01*
X157475695Y-67792879D01*
X157505365Y-67746962D01*
X157523647Y-67696027D01*
X157522229Y-67648201D01*
X157501012Y-67596934D01*
X157459511Y-67543900D01*
X157402002Y-67504601D01*
X157327250Y-67478332D01*
X157277292Y-67469036D01*
X157220584Y-67462508D01*
X157160481Y-67457783D01*
X157109361Y-67455818D01*
X157106333Y-67455809D01*
X157030133Y-67455823D01*
X156884143Y-67455823D01*
X156884740Y-67431852D01*
X156889002Y-67385056D01*
X156897170Y-67351779D01*
X156910444Y-67329760D01*
X156930026Y-67316740D01*
X156957117Y-67310458D01*
X156992918Y-67308654D01*
X157038629Y-67309067D01*
G36*
X160886957Y-62066572D02*
G01*
X160983232Y-62090810D01*
X161069816Y-62133642D01*
X161144627Y-62193420D01*
X161205582Y-62268495D01*
X161250601Y-62357221D01*
X161276864Y-62453531D01*
X161282714Y-62550796D01*
X161267860Y-62644655D01*
X161234160Y-62732512D01*
X161183472Y-62811771D01*
X161117655Y-62879837D01*
X161038566Y-62934113D01*
X160948066Y-62972003D01*
X160896800Y-62984427D01*
X160852302Y-62991948D01*
X160818001Y-62994920D01*
X160785040Y-62993095D01*
X160744566Y-62986226D01*
X160711469Y-62979251D01*
X160618053Y-62947742D01*
X160534381Y-62896618D01*
X160462335Y-62827430D01*
X160403800Y-62741729D01*
X160389852Y-62714490D01*
X160373414Y-62678123D01*
X160363106Y-62647583D01*
X160357540Y-62615451D01*
X160355331Y-62574308D01*
X160355052Y-62528223D01*
X160359139Y-62443866D01*
X160372554Y-62374587D01*
X160397744Y-62313962D01*
X160437154Y-62255568D01*
X160475702Y-62211303D01*
X160547594Y-62145485D01*
X160622687Y-62100054D01*
X160705438Y-62072851D01*
X160783072Y-62062577D01*
X160886957Y-62066572D01*
G37*
X160886957Y-62066572D02*
X160983232Y-62090810D01*
X161069816Y-62133642D01*
X161144627Y-62193420D01*
X161205582Y-62268495D01*
X161250601Y-62357221D01*
X161276864Y-62453531D01*
X161282714Y-62550796D01*
X161267860Y-62644655D01*
X161234160Y-62732512D01*
X161183472Y-62811771D01*
X161117655Y-62879837D01*
X161038566Y-62934113D01*
X160948066Y-62972003D01*
X160896800Y-62984427D01*
X160852302Y-62991948D01*
X160818001Y-62994920D01*
X160785040Y-62993095D01*
X160744566Y-62986226D01*
X160711469Y-62979251D01*
X160618053Y-62947742D01*
X160534381Y-62896618D01*
X160462335Y-62827430D01*
X160403800Y-62741729D01*
X160389852Y-62714490D01*
X160373414Y-62678123D01*
X160363106Y-62647583D01*
X160357540Y-62615451D01*
X160355331Y-62574308D01*
X160355052Y-62528223D01*
X160359139Y-62443866D01*
X160372554Y-62374587D01*
X160397744Y-62313962D01*
X160437154Y-62255568D01*
X160475702Y-62211303D01*
X160547594Y-62145485D01*
X160622687Y-62100054D01*
X160705438Y-62072851D01*
X160783072Y-62062577D01*
X160886957Y-62066572D01*
G36*
X169346507Y-64512246D02*
G01*
X169346526Y-64746663D01*
X169346552Y-64959604D01*
X169346625Y-65152169D01*
X169346782Y-65325460D01*
X169347064Y-65480577D01*
X169347509Y-65618621D01*
X169348156Y-65740693D01*
X169349045Y-65847895D01*
X169350213Y-65941327D01*
X169351701Y-66022091D01*
X169353546Y-66091287D01*
X169355789Y-66150016D01*
X169358469Y-66199380D01*
X169361623Y-66240479D01*
X169365292Y-66274414D01*
X169369513Y-66302287D01*
X169374327Y-66325199D01*
X169379773Y-66344250D01*
X169385888Y-66360541D01*
X169392712Y-66375174D01*
X169400285Y-66389250D01*
X169408645Y-66403869D01*
X169413839Y-66412975D01*
X169448104Y-66473690D01*
X168589955Y-66473690D01*
X168589955Y-66377734D01*
X168589224Y-66334371D01*
X168587272Y-66301206D01*
X168584463Y-66283425D01*
X168583221Y-66281779D01*
X168571799Y-66288663D01*
X168549084Y-66306506D01*
X168526385Y-66325880D01*
X168471800Y-66366615D01*
X168402321Y-66407618D01*
X168325270Y-66445124D01*
X168247965Y-66475365D01*
X168217113Y-66485013D01*
X168148616Y-66499579D01*
X168065764Y-66509540D01*
X167976371Y-66514584D01*
X167888248Y-66514397D01*
X167809207Y-66508667D01*
X167771511Y-66502859D01*
X167633414Y-66464798D01*
X167506113Y-66407074D01*
X167390292Y-66330212D01*
X167286637Y-66234740D01*
X167195833Y-66121180D01*
X167129031Y-66010382D01*
X167074164Y-65893626D01*
X167032163Y-65774277D01*
X167002167Y-65648284D01*
X166983311Y-65511595D01*
X166974732Y-65360159D01*
X166974006Y-65282712D01*
X166976100Y-65225935D01*
X167805217Y-65225935D01*
X167805424Y-65319003D01*
X167808337Y-65406693D01*
X167814000Y-65483773D01*
X167822455Y-65545010D01*
X167825038Y-65557351D01*
X167856840Y-65664634D01*
X167898498Y-65751659D01*
X167950363Y-65818643D01*
X168012781Y-65865806D01*
X168086100Y-65893366D01*
X168170669Y-65901542D01*
X168266835Y-65890552D01*
X168330311Y-65874830D01*
X168379454Y-65856640D01*
X168433583Y-65830792D01*
X168474244Y-65807090D01*
X168544800Y-65760722D01*
X168544800Y-64610531D01*
X168477392Y-64566963D01*
X168398867Y-64526041D01*
X168314681Y-64499390D01*
X168229557Y-64487466D01*
X168148216Y-64490723D01*
X168075380Y-64509616D01*
X168043426Y-64525185D01*
X167985501Y-64568182D01*
X167936544Y-64624954D01*
X167895390Y-64697576D01*
X167860874Y-64788122D01*
X167831833Y-64898667D01*
X167830552Y-64904534D01*
X167820381Y-64966789D01*
X167812739Y-65044595D01*
X167807670Y-65132721D01*
X167805217Y-65225935D01*
X166976100Y-65225935D01*
X166981857Y-65069896D01*
X167003802Y-64874060D01*
X167039786Y-64695333D01*
X167089759Y-64533846D01*
X167153668Y-64389727D01*
X167231462Y-64263107D01*
X167323089Y-64154116D01*
X167428497Y-64062884D01*
X167473662Y-64031933D01*
X167574611Y-63975786D01*
X167677901Y-63936175D01*
X167787989Y-63912015D01*
X167909330Y-63902220D01*
X168001836Y-63903266D01*
X168131490Y-63914232D01*
X168244084Y-63936047D01*
X168342875Y-63969715D01*
X168431121Y-64016237D01*
X168479986Y-64050449D01*
X168509353Y-64072363D01*
X168531043Y-64087334D01*
X168539253Y-64091734D01*
X168540868Y-64080905D01*
X168542159Y-64050252D01*
X168543138Y-64002527D01*
X168543817Y-63940480D01*
X168544210Y-63866863D01*
X168544330Y-63784428D01*
X168544188Y-63695926D01*
X168543797Y-63604108D01*
X168543171Y-63511725D01*
X168542320Y-63421529D01*
X168541260Y-63336272D01*
X168540001Y-63258704D01*
X168538556Y-63191577D01*
X168536938Y-63137642D01*
X168535161Y-63099651D01*
X168534669Y-63092668D01*
X168527092Y-63022252D01*
X168515531Y-62967103D01*
X168497792Y-62919982D01*
X168471682Y-62873648D01*
X168465415Y-62864068D01*
X168440983Y-62827379D01*
X169346311Y-62827379D01*
X169346507Y-64512246D01*
G37*
X169346507Y-64512246D02*
X169346526Y-64746663D01*
X169346552Y-64959604D01*
X169346625Y-65152169D01*
X169346782Y-65325460D01*
X169347064Y-65480577D01*
X169347509Y-65618621D01*
X169348156Y-65740693D01*
X169349045Y-65847895D01*
X169350213Y-65941327D01*
X169351701Y-66022091D01*
X169353546Y-66091287D01*
X169355789Y-66150016D01*
X169358469Y-66199380D01*
X169361623Y-66240479D01*
X169365292Y-66274414D01*
X169369513Y-66302287D01*
X169374327Y-66325199D01*
X169379773Y-66344250D01*
X169385888Y-66360541D01*
X169392712Y-66375174D01*
X169400285Y-66389250D01*
X169408645Y-66403869D01*
X169413839Y-66412975D01*
X169448104Y-66473690D01*
X168589955Y-66473690D01*
X168589955Y-66377734D01*
X168589224Y-66334371D01*
X168587272Y-66301206D01*
X168584463Y-66283425D01*
X168583221Y-66281779D01*
X168571799Y-66288663D01*
X168549084Y-66306506D01*
X168526385Y-66325880D01*
X168471800Y-66366615D01*
X168402321Y-66407618D01*
X168325270Y-66445124D01*
X168247965Y-66475365D01*
X168217113Y-66485013D01*
X168148616Y-66499579D01*
X168065764Y-66509540D01*
X167976371Y-66514584D01*
X167888248Y-66514397D01*
X167809207Y-66508667D01*
X167771511Y-66502859D01*
X167633414Y-66464798D01*
X167506113Y-66407074D01*
X167390292Y-66330212D01*
X167286637Y-66234740D01*
X167195833Y-66121180D01*
X167129031Y-66010382D01*
X167074164Y-65893626D01*
X167032163Y-65774277D01*
X167002167Y-65648284D01*
X166983311Y-65511595D01*
X166974732Y-65360159D01*
X166974006Y-65282712D01*
X166976100Y-65225935D01*
X167805217Y-65225935D01*
X167805424Y-65319003D01*
X167808337Y-65406693D01*
X167814000Y-65483773D01*
X167822455Y-65545010D01*
X167825038Y-65557351D01*
X167856840Y-65664634D01*
X167898498Y-65751659D01*
X167950363Y-65818643D01*
X168012781Y-65865806D01*
X168086100Y-65893366D01*
X168170669Y-65901542D01*
X168266835Y-65890552D01*
X168330311Y-65874830D01*
X168379454Y-65856640D01*
X168433583Y-65830792D01*
X168474244Y-65807090D01*
X168544800Y-65760722D01*
X168544800Y-64610531D01*
X168477392Y-64566963D01*
X168398867Y-64526041D01*
X168314681Y-64499390D01*
X168229557Y-64487466D01*
X168148216Y-64490723D01*
X168075380Y-64509616D01*
X168043426Y-64525185D01*
X167985501Y-64568182D01*
X167936544Y-64624954D01*
X167895390Y-64697576D01*
X167860874Y-64788122D01*
X167831833Y-64898667D01*
X167830552Y-64904534D01*
X167820381Y-64966789D01*
X167812739Y-65044595D01*
X167807670Y-65132721D01*
X167805217Y-65225935D01*
X166976100Y-65225935D01*
X166981857Y-65069896D01*
X167003802Y-64874060D01*
X167039786Y-64695333D01*
X167089759Y-64533846D01*
X167153668Y-64389727D01*
X167231462Y-64263107D01*
X167323089Y-64154116D01*
X167428497Y-64062884D01*
X167473662Y-64031933D01*
X167574611Y-63975786D01*
X167677901Y-63936175D01*
X167787989Y-63912015D01*
X167909330Y-63902220D01*
X168001836Y-63903266D01*
X168131490Y-63914232D01*
X168244084Y-63936047D01*
X168342875Y-63969715D01*
X168431121Y-64016237D01*
X168479986Y-64050449D01*
X168509353Y-64072363D01*
X168531043Y-64087334D01*
X168539253Y-64091734D01*
X168540868Y-64080905D01*
X168542159Y-64050252D01*
X168543138Y-64002527D01*
X168543817Y-63940480D01*
X168544210Y-63866863D01*
X168544330Y-63784428D01*
X168544188Y-63695926D01*
X168543797Y-63604108D01*
X168543171Y-63511725D01*
X168542320Y-63421529D01*
X168541260Y-63336272D01*
X168540001Y-63258704D01*
X168538556Y-63191577D01*
X168536938Y-63137642D01*
X168535161Y-63099651D01*
X168534669Y-63092668D01*
X168527092Y-63022252D01*
X168515531Y-62967103D01*
X168497792Y-62919982D01*
X168471682Y-62873648D01*
X168465415Y-62864068D01*
X168440983Y-62827379D01*
X169346311Y-62827379D01*
X169346507Y-64512246D01*
G36*
X165833574Y-63906553D02*
G01*
X165985492Y-63926568D01*
X166120756Y-63960203D01*
X166240239Y-64007726D01*
X166344815Y-64069406D01*
X166422424Y-64132966D01*
X166491265Y-64207100D01*
X166545006Y-64286872D01*
X166587910Y-64379092D01*
X166603384Y-64422162D01*
X166616244Y-64461143D01*
X166627446Y-64497290D01*
X166637120Y-64532435D01*
X166645396Y-64568411D01*
X166652403Y-64607051D01*
X166658272Y-64650186D01*
X166663131Y-64699650D01*
X166667110Y-64757274D01*
X166670340Y-64824892D01*
X166672949Y-64904335D01*
X166675067Y-64997437D01*
X166676824Y-65106028D01*
X166678349Y-65231943D01*
X166679772Y-65377013D01*
X166681025Y-65519779D01*
X166682351Y-65675969D01*
X166683556Y-65811240D01*
X166684766Y-65927247D01*
X166686106Y-66025646D01*
X166687700Y-66108094D01*
X166689675Y-66176247D01*
X166692156Y-66231761D01*
X166695269Y-66276293D01*
X166699138Y-66311499D01*
X166703889Y-66339035D01*
X166709648Y-66360557D01*
X166716539Y-66377723D01*
X166724689Y-66392187D01*
X166734223Y-66405607D01*
X166745266Y-66419639D01*
X166749566Y-66425072D01*
X166765386Y-66447911D01*
X166772422Y-66463464D01*
X166772444Y-66463923D01*
X166761567Y-66466122D01*
X166730582Y-66468148D01*
X166681957Y-66469943D01*
X166618163Y-66471452D01*
X166541669Y-66472617D01*
X166454944Y-66473381D01*
X166360457Y-66473687D01*
X166349550Y-66473690D01*
X165926657Y-66473690D01*
X165923395Y-66377623D01*
X165920133Y-66281557D01*
X165858044Y-66332544D01*
X165760714Y-66400058D01*
X165650813Y-66454750D01*
X165564349Y-66484979D01*
X165495278Y-66499667D01*
X165411925Y-66509660D01*
X165322159Y-66514647D01*
X165233845Y-66514314D01*
X165154851Y-66508352D01*
X165118622Y-66502639D01*
X164978603Y-66464777D01*
X164852178Y-66409933D01*
X164740260Y-66338925D01*
X164643762Y-66252569D01*
X164563600Y-66151680D01*
X164500687Y-66037077D01*
X164456312Y-65910985D01*
X164443978Y-65854402D01*
X164436368Y-65792203D01*
X164432739Y-65717364D01*
X164432245Y-65683468D01*
X164432310Y-65680283D01*
X165192248Y-65680283D01*
X165201541Y-65755334D01*
X165229728Y-65819161D01*
X165278197Y-65874799D01*
X165283254Y-65879212D01*
X165331548Y-65914038D01*
X165383257Y-65936621D01*
X165443989Y-65948541D01*
X165519352Y-65951384D01*
X165537459Y-65950979D01*
X165591278Y-65948326D01*
X165631308Y-65942910D01*
X165666324Y-65932746D01*
X165705103Y-65915851D01*
X165715745Y-65910673D01*
X165776396Y-65874845D01*
X165823215Y-65832213D01*
X165835952Y-65816974D01*
X165880622Y-65760463D01*
X165880622Y-65564587D01*
X165880086Y-65485940D01*
X165878396Y-65427989D01*
X165875428Y-65388876D01*
X165871057Y-65366742D01*
X165866972Y-65360275D01*
X165851047Y-65357112D01*
X165817264Y-65354489D01*
X165770340Y-65352656D01*
X165714993Y-65351858D01*
X165706106Y-65351843D01*
X165585330Y-65357097D01*
X165482660Y-65373264D01*
X165396106Y-65400962D01*
X165323681Y-65440809D01*
X165268751Y-65487759D01*
X165224204Y-65545646D01*
X165199480Y-65608694D01*
X165192248Y-65680283D01*
X164432310Y-65680283D01*
X164434178Y-65589713D01*
X164442522Y-65510813D01*
X164458768Y-65439591D01*
X164484405Y-65368865D01*
X164508401Y-65316494D01*
X164567020Y-65221197D01*
X164645117Y-65133171D01*
X164740315Y-65054018D01*
X164850238Y-64985341D01*
X164972510Y-64928742D01*
X165104755Y-64885822D01*
X165169422Y-64870883D01*
X165305604Y-64848778D01*
X165454049Y-64834195D01*
X165605505Y-64827814D01*
X165732064Y-64829446D01*
X165893950Y-64836225D01*
X165886530Y-64777246D01*
X165867238Y-64678093D01*
X165836104Y-64597373D01*
X165792269Y-64534467D01*
X165734871Y-64488757D01*
X165663048Y-64459623D01*
X165575941Y-64446448D01*
X165472686Y-64448612D01*
X165434711Y-64452613D01*
X165293520Y-64477781D01*
X165156707Y-64518815D01*
X165062178Y-64556816D01*
X165017018Y-64576191D01*
X164978585Y-64591761D01*
X164952234Y-64601406D01*
X164944546Y-64603453D01*
X164934802Y-64594375D01*
X164918083Y-64565406D01*
X164894232Y-64516218D01*
X164863093Y-64446485D01*
X164824507Y-64355880D01*
X164817910Y-64340090D01*
X164787853Y-64267773D01*
X164760874Y-64202426D01*
X164738136Y-64146907D01*
X164720806Y-64104073D01*
X164710048Y-64076782D01*
X164706941Y-64067943D01*
X164716940Y-64063188D01*
X164743217Y-64057911D01*
X164771489Y-64054232D01*
X164801646Y-64049475D01*
X164849433Y-64040029D01*
X164910612Y-64026821D01*
X164980946Y-64010777D01*
X165056194Y-63992821D01*
X165084755Y-63985798D01*
X165189816Y-63960210D01*
X165277480Y-63940148D01*
X165352068Y-63924970D01*
X165417903Y-63914036D01*
X165479307Y-63906705D01*
X165540602Y-63902336D01*
X165606110Y-63900288D01*
X165664128Y-63899890D01*
X165833574Y-63906553D01*
G37*
X165833574Y-63906553D02*
X165985492Y-63926568D01*
X166120756Y-63960203D01*
X166240239Y-64007726D01*
X166344815Y-64069406D01*
X166422424Y-64132966D01*
X166491265Y-64207100D01*
X166545006Y-64286872D01*
X166587910Y-64379092D01*
X166603384Y-64422162D01*
X166616244Y-64461143D01*
X166627446Y-64497290D01*
X166637120Y-64532435D01*
X166645396Y-64568411D01*
X166652403Y-64607051D01*
X166658272Y-64650186D01*
X166663131Y-64699650D01*
X166667110Y-64757274D01*
X166670340Y-64824892D01*
X166672949Y-64904335D01*
X166675067Y-64997437D01*
X166676824Y-65106028D01*
X166678349Y-65231943D01*
X166679772Y-65377013D01*
X166681025Y-65519779D01*
X166682351Y-65675969D01*
X166683556Y-65811240D01*
X166684766Y-65927247D01*
X166686106Y-66025646D01*
X166687700Y-66108094D01*
X166689675Y-66176247D01*
X166692156Y-66231761D01*
X166695269Y-66276293D01*
X166699138Y-66311499D01*
X166703889Y-66339035D01*
X166709648Y-66360557D01*
X166716539Y-66377723D01*
X166724689Y-66392187D01*
X166734223Y-66405607D01*
X166745266Y-66419639D01*
X166749566Y-66425072D01*
X166765386Y-66447911D01*
X166772422Y-66463464D01*
X166772444Y-66463923D01*
X166761567Y-66466122D01*
X166730582Y-66468148D01*
X166681957Y-66469943D01*
X166618163Y-66471452D01*
X166541669Y-66472617D01*
X166454944Y-66473381D01*
X166360457Y-66473687D01*
X166349550Y-66473690D01*
X165926657Y-66473690D01*
X165923395Y-66377623D01*
X165920133Y-66281557D01*
X165858044Y-66332544D01*
X165760714Y-66400058D01*
X165650813Y-66454750D01*
X165564349Y-66484979D01*
X165495278Y-66499667D01*
X165411925Y-66509660D01*
X165322159Y-66514647D01*
X165233845Y-66514314D01*
X165154851Y-66508352D01*
X165118622Y-66502639D01*
X164978603Y-66464777D01*
X164852178Y-66409933D01*
X164740260Y-66338925D01*
X164643762Y-66252569D01*
X164563600Y-66151680D01*
X164500687Y-66037077D01*
X164456312Y-65910985D01*
X164443978Y-65854402D01*
X164436368Y-65792203D01*
X164432739Y-65717364D01*
X164432245Y-65683468D01*
X164432310Y-65680283D01*
X165192248Y-65680283D01*
X165201541Y-65755334D01*
X165229728Y-65819161D01*
X165278197Y-65874799D01*
X165283254Y-65879212D01*
X165331548Y-65914038D01*
X165383257Y-65936621D01*
X165443989Y-65948541D01*
X165519352Y-65951384D01*
X165537459Y-65950979D01*
X165591278Y-65948326D01*
X165631308Y-65942910D01*
X165666324Y-65932746D01*
X165705103Y-65915851D01*
X165715745Y-65910673D01*
X165776396Y-65874845D01*
X165823215Y-65832213D01*
X165835952Y-65816974D01*
X165880622Y-65760463D01*
X165880622Y-65564587D01*
X165880086Y-65485940D01*
X165878396Y-65427989D01*
X165875428Y-65388876D01*
X165871057Y-65366742D01*
X165866972Y-65360275D01*
X165851047Y-65357112D01*
X165817264Y-65354489D01*
X165770340Y-65352656D01*
X165714993Y-65351858D01*
X165706106Y-65351843D01*
X165585330Y-65357097D01*
X165482660Y-65373264D01*
X165396106Y-65400962D01*
X165323681Y-65440809D01*
X165268751Y-65487759D01*
X165224204Y-65545646D01*
X165199480Y-65608694D01*
X165192248Y-65680283D01*
X164432310Y-65680283D01*
X164434178Y-65589713D01*
X164442522Y-65510813D01*
X164458768Y-65439591D01*
X164484405Y-65368865D01*
X164508401Y-65316494D01*
X164567020Y-65221197D01*
X164645117Y-65133171D01*
X164740315Y-65054018D01*
X164850238Y-64985341D01*
X164972510Y-64928742D01*
X165104755Y-64885822D01*
X165169422Y-64870883D01*
X165305604Y-64848778D01*
X165454049Y-64834195D01*
X165605505Y-64827814D01*
X165732064Y-64829446D01*
X165893950Y-64836225D01*
X165886530Y-64777246D01*
X165867238Y-64678093D01*
X165836104Y-64597373D01*
X165792269Y-64534467D01*
X165734871Y-64488757D01*
X165663048Y-64459623D01*
X165575941Y-64446448D01*
X165472686Y-64448612D01*
X165434711Y-64452613D01*
X165293520Y-64477781D01*
X165156707Y-64518815D01*
X165062178Y-64556816D01*
X165017018Y-64576191D01*
X164978585Y-64591761D01*
X164952234Y-64601406D01*
X164944546Y-64603453D01*
X164934802Y-64594375D01*
X164918083Y-64565406D01*
X164894232Y-64516218D01*
X164863093Y-64446485D01*
X164824507Y-64355880D01*
X164817910Y-64340090D01*
X164787853Y-64267773D01*
X164760874Y-64202426D01*
X164738136Y-64146907D01*
X164720806Y-64104073D01*
X164710048Y-64076782D01*
X164706941Y-64067943D01*
X164716940Y-64063188D01*
X164743217Y-64057911D01*
X164771489Y-64054232D01*
X164801646Y-64049475D01*
X164849433Y-64040029D01*
X164910612Y-64026821D01*
X164980946Y-64010777D01*
X165056194Y-63992821D01*
X165084755Y-63985798D01*
X165189816Y-63960210D01*
X165277480Y-63940148D01*
X165352068Y-63924970D01*
X165417903Y-63914036D01*
X165479307Y-63906705D01*
X165540602Y-63902336D01*
X165606110Y-63900288D01*
X165664128Y-63899890D01*
X165833574Y-63906553D01*
G36*
X163488429Y-62989072D02*
G01*
X163648570Y-63010246D01*
X163812510Y-63050386D01*
X163982313Y-63109890D01*
X164160043Y-63189155D01*
X164171310Y-63194700D01*
X164229005Y-63222726D01*
X164280552Y-63246803D01*
X164322191Y-63265250D01*
X164350162Y-63276387D01*
X164359733Y-63278934D01*
X164378950Y-63283942D01*
X164383561Y-63288148D01*
X164378458Y-63298581D01*
X164362418Y-63324869D01*
X164337288Y-63364258D01*
X164304914Y-63413992D01*
X164267143Y-63471316D01*
X164225822Y-63533477D01*
X164182798Y-63597719D01*
X164139917Y-63661286D01*
X164099026Y-63721426D01*
X164061971Y-63775381D01*
X164030600Y-63820398D01*
X164006759Y-63853722D01*
X163992294Y-63872598D01*
X163990309Y-63874788D01*
X163980191Y-63870139D01*
X163957850Y-63852963D01*
X163927280Y-63826441D01*
X163911536Y-63811965D01*
X163815047Y-63736683D01*
X163708336Y-63681242D01*
X163592832Y-63646142D01*
X163469962Y-63631881D01*
X163400561Y-63633052D01*
X163279423Y-63650213D01*
X163170205Y-63686095D01*
X163072582Y-63740960D01*
X162986228Y-63815071D01*
X162910815Y-63908689D01*
X162846018Y-64022077D01*
X162808601Y-64108668D01*
X162764748Y-64244367D01*
X162732428Y-64391851D01*
X162711557Y-64547315D01*
X162702051Y-64706957D01*
X162703827Y-64866974D01*
X162716803Y-65023562D01*
X162740894Y-65172919D01*
X162776018Y-65311241D01*
X162822092Y-65434725D01*
X162838373Y-65468979D01*
X162906620Y-65583065D01*
X162987079Y-65679558D01*
X163078570Y-65757671D01*
X163179911Y-65816618D01*
X163289920Y-65855613D01*
X163407415Y-65873869D01*
X163448883Y-65875212D01*
X163570441Y-65864291D01*
X163690878Y-65831475D01*
X163808666Y-65777440D01*
X163922277Y-65702866D01*
X164013685Y-65624540D01*
X164060215Y-65580009D01*
X164241483Y-65877272D01*
X164286580Y-65951434D01*
X164327819Y-66019647D01*
X164363735Y-66079460D01*
X164392866Y-66128421D01*
X164413750Y-66164080D01*
X164424924Y-66183985D01*
X164426375Y-66187080D01*
X164418146Y-66196719D01*
X164392567Y-66214000D01*
X164352873Y-66237284D01*
X164302297Y-66264935D01*
X164244074Y-66295316D01*
X164181437Y-66326791D01*
X164117621Y-66357723D01*
X164055860Y-66386474D01*
X163999388Y-66411409D01*
X163951438Y-66430890D01*
X163927986Y-66439319D01*
X163794221Y-66477134D01*
X163656327Y-66502137D01*
X163508622Y-66515141D01*
X163381833Y-66517469D01*
X163313878Y-66516374D01*
X163248277Y-66514276D01*
X163190847Y-66511435D01*
X163147403Y-66508107D01*
X163133298Y-66506423D01*
X162994284Y-66477588D01*
X162852757Y-66432469D01*
X162715275Y-66373751D01*
X162588394Y-66304121D01*
X162510889Y-66251442D01*
X162383481Y-66143240D01*
X162265178Y-66016672D01*
X162158172Y-65874867D01*
X162064652Y-65720952D01*
X161986810Y-65558054D01*
X161942956Y-65440757D01*
X161892708Y-65257129D01*
X161859209Y-65062582D01*
X161842449Y-64861326D01*
X161842416Y-64657569D01*
X161859101Y-64455522D01*
X161892493Y-64259393D01*
X161942580Y-64073392D01*
X161946397Y-64061804D01*
X162009281Y-63899751D01*
X162086028Y-63751833D01*
X162179242Y-63613866D01*
X162291527Y-63481662D01*
X162335392Y-63436400D01*
X162471534Y-63312458D01*
X162611491Y-63209916D01*
X162757411Y-63127657D01*
X162911442Y-63064565D01*
X163075732Y-63019524D01*
X163171289Y-63002034D01*
X163330023Y-62986467D01*
X163488429Y-62989072D01*
G37*
X163488429Y-62989072D02*
X163648570Y-63010246D01*
X163812510Y-63050386D01*
X163982313Y-63109890D01*
X164160043Y-63189155D01*
X164171310Y-63194700D01*
X164229005Y-63222726D01*
X164280552Y-63246803D01*
X164322191Y-63265250D01*
X164350162Y-63276387D01*
X164359733Y-63278934D01*
X164378950Y-63283942D01*
X164383561Y-63288148D01*
X164378458Y-63298581D01*
X164362418Y-63324869D01*
X164337288Y-63364258D01*
X164304914Y-63413992D01*
X164267143Y-63471316D01*
X164225822Y-63533477D01*
X164182798Y-63597719D01*
X164139917Y-63661286D01*
X164099026Y-63721426D01*
X164061971Y-63775381D01*
X164030600Y-63820398D01*
X164006759Y-63853722D01*
X163992294Y-63872598D01*
X163990309Y-63874788D01*
X163980191Y-63870139D01*
X163957850Y-63852963D01*
X163927280Y-63826441D01*
X163911536Y-63811965D01*
X163815047Y-63736683D01*
X163708336Y-63681242D01*
X163592832Y-63646142D01*
X163469962Y-63631881D01*
X163400561Y-63633052D01*
X163279423Y-63650213D01*
X163170205Y-63686095D01*
X163072582Y-63740960D01*
X162986228Y-63815071D01*
X162910815Y-63908689D01*
X162846018Y-64022077D01*
X162808601Y-64108668D01*
X162764748Y-64244367D01*
X162732428Y-64391851D01*
X162711557Y-64547315D01*
X162702051Y-64706957D01*
X162703827Y-64866974D01*
X162716803Y-65023562D01*
X162740894Y-65172919D01*
X162776018Y-65311241D01*
X162822092Y-65434725D01*
X162838373Y-65468979D01*
X162906620Y-65583065D01*
X162987079Y-65679558D01*
X163078570Y-65757671D01*
X163179911Y-65816618D01*
X163289920Y-65855613D01*
X163407415Y-65873869D01*
X163448883Y-65875212D01*
X163570441Y-65864291D01*
X163690878Y-65831475D01*
X163808666Y-65777440D01*
X163922277Y-65702866D01*
X164013685Y-65624540D01*
X164060215Y-65580009D01*
X164241483Y-65877272D01*
X164286580Y-65951434D01*
X164327819Y-66019647D01*
X164363735Y-66079460D01*
X164392866Y-66128421D01*
X164413750Y-66164080D01*
X164424924Y-66183985D01*
X164426375Y-66187080D01*
X164418146Y-66196719D01*
X164392567Y-66214000D01*
X164352873Y-66237284D01*
X164302297Y-66264935D01*
X164244074Y-66295316D01*
X164181437Y-66326791D01*
X164117621Y-66357723D01*
X164055860Y-66386474D01*
X163999388Y-66411409D01*
X163951438Y-66430890D01*
X163927986Y-66439319D01*
X163794221Y-66477134D01*
X163656327Y-66502137D01*
X163508622Y-66515141D01*
X163381833Y-66517469D01*
X163313878Y-66516374D01*
X163248277Y-66514276D01*
X163190847Y-66511435D01*
X163147403Y-66508107D01*
X163133298Y-66506423D01*
X162994284Y-66477588D01*
X162852757Y-66432469D01*
X162715275Y-66373751D01*
X162588394Y-66304121D01*
X162510889Y-66251442D01*
X162383481Y-66143240D01*
X162265178Y-66016672D01*
X162158172Y-65874867D01*
X162064652Y-65720952D01*
X161986810Y-65558054D01*
X161942956Y-65440757D01*
X161892708Y-65257129D01*
X161859209Y-65062582D01*
X161842449Y-64861326D01*
X161842416Y-64657569D01*
X161859101Y-64455522D01*
X161892493Y-64259393D01*
X161942580Y-64073392D01*
X161946397Y-64061804D01*
X162009281Y-63899751D01*
X162086028Y-63751833D01*
X162179242Y-63613866D01*
X162291527Y-63481662D01*
X162335392Y-63436400D01*
X162471534Y-63312458D01*
X162611491Y-63209916D01*
X162757411Y-63127657D01*
X162911442Y-63064565D01*
X163075732Y-63019524D01*
X163171289Y-63002034D01*
X163330023Y-62986467D01*
X163488429Y-62989072D01*
G36*
X160213600Y-62529055D02*
G01*
X160224465Y-62642994D01*
X160256082Y-62750617D01*
X160306985Y-62849616D01*
X160375707Y-62937685D01*
X160460781Y-63012517D01*
X160557768Y-63070385D01*
X160664036Y-63110006D01*
X160771050Y-63128574D01*
X160876700Y-63127435D01*
X160978875Y-63107931D01*
X161075466Y-63071407D01*
X161164362Y-63019206D01*
X161243454Y-62952674D01*
X161310631Y-62873153D01*
X161363783Y-62781988D01*
X161400801Y-62680524D01*
X161419573Y-62570103D01*
X161421511Y-62520207D01*
X161421511Y-62432268D01*
X161473440Y-62432268D01*
X161509747Y-62435112D01*
X161536645Y-62446912D01*
X161563751Y-62470650D01*
X161602133Y-62509032D01*
X161602133Y-64700603D01*
X161602124Y-64962740D01*
X161602092Y-65203242D01*
X161602028Y-65423049D01*
X161601924Y-65623102D01*
X161601773Y-65804345D01*
X161601566Y-65967717D01*
X161601294Y-66114161D01*
X161600950Y-66244618D01*
X161600526Y-66360030D01*
X161600013Y-66461339D01*
X161599403Y-66549485D01*
X161598688Y-66625411D01*
X161597860Y-66690058D01*
X161596911Y-66744368D01*
X161595833Y-66789281D01*
X161594617Y-66825741D01*
X161593255Y-66854688D01*
X161591739Y-66877064D01*
X161590062Y-66893810D01*
X161588214Y-66905869D01*
X161586187Y-66914181D01*
X161583975Y-66919688D01*
X161582892Y-66921538D01*
X161578729Y-66928550D01*
X161575195Y-66934997D01*
X161571365Y-66940901D01*
X161566318Y-66946287D01*
X161559129Y-66951179D01*
X161548877Y-66955599D01*
X161534636Y-66959573D01*
X161515486Y-66963122D01*
X161490501Y-66966271D01*
X161458760Y-66969043D01*
X161419338Y-66971462D01*
X161371314Y-66973552D01*
X161313763Y-66975336D01*
X161245763Y-66976838D01*
X161166390Y-66978081D01*
X161074721Y-66979090D01*
X160969834Y-66979886D01*
X160850804Y-66980495D01*
X160716710Y-66980940D01*
X160566627Y-66981244D01*
X160399633Y-66981431D01*
X160214804Y-66981525D01*
X160011217Y-66981549D01*
X159787950Y-66981526D01*
X159544078Y-66981481D01*
X159278679Y-66981438D01*
X159240296Y-66981433D01*
X158973318Y-66981390D01*
X158727998Y-66981319D01*
X158503417Y-66981214D01*
X158298655Y-66981067D01*
X158112794Y-66980870D01*
X157944912Y-66980617D01*
X157794092Y-66980301D01*
X157659413Y-66979914D01*
X157539956Y-66979448D01*
X157434801Y-66978898D01*
X157343029Y-66978254D01*
X157263721Y-66977512D01*
X157195957Y-66976662D01*
X157138818Y-66975698D01*
X157091383Y-66974612D01*
X157052734Y-66973398D01*
X157021951Y-66972048D01*
X156998115Y-66970556D01*
X156980306Y-66968912D01*
X156967605Y-66967112D01*
X156959092Y-66965146D01*
X156954734Y-66963478D01*
X156946272Y-66959907D01*
X156938503Y-66957271D01*
X156931398Y-66954635D01*
X156924927Y-66951063D01*
X156919061Y-66945622D01*
X156913771Y-66937376D01*
X156909026Y-66925391D01*
X156904798Y-66908732D01*
X156901057Y-66886464D01*
X156897773Y-66857653D01*
X156894917Y-66821364D01*
X156892460Y-66776662D01*
X156890371Y-66722612D01*
X156888622Y-66658280D01*
X156887183Y-66582731D01*
X156886024Y-66495031D01*
X156885117Y-66394244D01*
X156884431Y-66279435D01*
X156883937Y-66149671D01*
X156883605Y-66004016D01*
X156883407Y-65841536D01*
X156883313Y-65661296D01*
X156883292Y-65462361D01*
X156883315Y-65243797D01*
X156883354Y-65004669D01*
X156883378Y-64744041D01*
X156883378Y-64701890D01*
X156883364Y-64438993D01*
X156883339Y-64197733D01*
X156883329Y-63977166D01*
X156883358Y-63776353D01*
X156883452Y-63594350D01*
X156883638Y-63430217D01*
X156883941Y-63283012D01*
X156884386Y-63151793D01*
X156884966Y-63041868D01*
X157187803Y-63041868D01*
X157227593Y-63099712D01*
X157238764Y-63115480D01*
X157248834Y-63129442D01*
X157257862Y-63142785D01*
X157265903Y-63156694D01*
X157273014Y-63172357D01*
X157279253Y-63190959D01*
X157284675Y-63213687D01*
X157289338Y-63241728D01*
X157293299Y-63276268D01*
X157296615Y-63318493D01*
X157299341Y-63369590D01*
X157301536Y-63430745D01*
X157303255Y-63503145D01*
X157304556Y-63587976D01*
X157305495Y-63686423D01*
X157306130Y-63799675D01*
X157306516Y-63928917D01*
X157306712Y-64075335D01*
X157306773Y-64240117D01*
X157306757Y-64424448D01*
X157306720Y-64629514D01*
X157306711Y-64752134D01*
X157306735Y-64969083D01*
X157306769Y-65164643D01*
X157306757Y-65340000D01*
X157306642Y-65496342D01*
X157306370Y-65634858D01*
X157305882Y-65756735D01*
X157305124Y-65863161D01*
X157304038Y-65955323D01*
X157302569Y-66034410D01*
X157300660Y-66101609D01*
X157298256Y-66158108D01*
X157295299Y-66205094D01*
X157291734Y-66243756D01*
X157287505Y-66275281D01*
X157282554Y-66300856D01*
X157276827Y-66321671D01*
X157270267Y-66338912D01*
X157262817Y-66353766D01*
X157254421Y-66367423D01*
X157245024Y-66381070D01*
X157234568Y-66395894D01*
X157228477Y-66404784D01*
X157189704Y-66462401D01*
X157721268Y-66462401D01*
X157844517Y-66462366D01*
X157947013Y-66462216D01*
X158030580Y-66461879D01*
X158097044Y-66461287D01*
X158148229Y-66460368D01*
X158185959Y-66459052D01*
X158212060Y-66457270D01*
X158228356Y-66454952D01*
X158236672Y-66452027D01*
X158238832Y-66448425D01*
X158236661Y-66444076D01*
X158235465Y-66442646D01*
X158210315Y-66405574D01*
X158184417Y-66352773D01*
X158160808Y-66290771D01*
X158152539Y-66264358D01*
X158147922Y-66246417D01*
X158144021Y-66225356D01*
X158140752Y-66199090D01*
X158138034Y-66165533D01*
X158135785Y-66122600D01*
X158133923Y-66068205D01*
X158132364Y-66000263D01*
X158131028Y-65916689D01*
X158129831Y-65815396D01*
X158128692Y-65694301D01*
X158128315Y-65649601D01*
X158127298Y-65524450D01*
X158126540Y-65420083D01*
X158126097Y-65334708D01*
X158126030Y-65266534D01*
X158126395Y-65213766D01*
X158127252Y-65174615D01*
X158128659Y-65147286D01*
X158130675Y-65129987D01*
X158133357Y-65120927D01*
X158136764Y-65118313D01*
X158140956Y-65120352D01*
X158145429Y-65124668D01*
X158155784Y-65137603D01*
X158177842Y-65166677D01*
X158210043Y-65209760D01*
X158250826Y-65264719D01*
X158298630Y-65329424D01*
X158351895Y-65401743D01*
X158409060Y-65479545D01*
X158468563Y-65560699D01*
X158528845Y-65643073D01*
X158588345Y-65724537D01*
X158645502Y-65802958D01*
X158698755Y-65876205D01*
X158746543Y-65942148D01*
X158787307Y-65998655D01*
X158819484Y-66043594D01*
X158841515Y-66074835D01*
X158846083Y-66081467D01*
X158869004Y-66118370D01*
X158895812Y-66166360D01*
X158921211Y-66215898D01*
X158924432Y-66222578D01*
X158946110Y-66270773D01*
X158958696Y-66308335D01*
X158964426Y-66344161D01*
X158965544Y-66386201D01*
X158964910Y-66462401D01*
X160119349Y-66462401D01*
X160028185Y-66368670D01*
X159981388Y-66318776D01*
X159931101Y-66262296D01*
X159885056Y-66208027D01*
X159864631Y-66182674D01*
X159834193Y-66143129D01*
X159794138Y-66089917D01*
X159745639Y-66024668D01*
X159689865Y-65949012D01*
X159627989Y-65864578D01*
X159561181Y-65772995D01*
X159490613Y-65675893D01*
X159417455Y-65574902D01*
X159342879Y-65471651D01*
X159268056Y-65367769D01*
X159194157Y-65264886D01*
X159122354Y-65164632D01*
X159053816Y-65068637D01*
X158989716Y-64978528D01*
X158931225Y-64895937D01*
X158879514Y-64822493D01*
X158835753Y-64759825D01*
X158801115Y-64709562D01*
X158776770Y-64673335D01*
X158763889Y-64652772D01*
X158762131Y-64648669D01*
X158770090Y-64637343D01*
X158790885Y-64610163D01*
X158823153Y-64568830D01*
X158865530Y-64515045D01*
X158916653Y-64450507D01*
X158975159Y-64376919D01*
X159039686Y-64295979D01*
X159108869Y-64209389D01*
X159181347Y-64118849D01*
X159255754Y-64026061D01*
X159315483Y-63951703D01*
X160326489Y-63951703D01*
X160332398Y-63964660D01*
X160346728Y-63986909D01*
X160347775Y-63988392D01*
X160366562Y-64018545D01*
X160386209Y-64055376D01*
X160390108Y-64063512D01*
X160393644Y-64071941D01*
X160396770Y-64082060D01*
X160399514Y-64095261D01*
X160401908Y-64112939D01*
X160403981Y-64136485D01*
X160405765Y-64167294D01*
X160407288Y-64206758D01*
X160408581Y-64256270D01*
X160409674Y-64317224D01*
X160410597Y-64391012D01*
X160411381Y-64479029D01*
X160412055Y-64582666D01*
X160412650Y-64703317D01*
X160413195Y-64842375D01*
X160413721Y-65001233D01*
X160414255Y-65180090D01*
X160414794Y-65365208D01*
X160415228Y-65529146D01*
X160415491Y-65673304D01*
X160415516Y-65799080D01*
X160415235Y-65907872D01*
X160414581Y-66001078D01*
X160413486Y-66080098D01*
X160411882Y-66146329D01*
X160409703Y-66201171D01*
X160406881Y-66246022D01*
X160403349Y-66282279D01*
X160399039Y-66311342D01*
X160393883Y-66334610D01*
X160387815Y-66353480D01*
X160380767Y-66369352D01*
X160372671Y-66383623D01*
X160363460Y-66397692D01*
X160354960Y-66410159D01*
X160337824Y-66436453D01*
X160327678Y-66454038D01*
X160326489Y-66457258D01*
X160337396Y-66458335D01*
X160368589Y-66459336D01*
X160417777Y-66460236D01*
X160482667Y-66461011D01*
X160560970Y-66461638D01*
X160650393Y-66462092D01*
X160748644Y-66462350D01*
X160817555Y-66462401D01*
X160922548Y-66462181D01*
X161019390Y-66461549D01*
X161105893Y-66460550D01*
X161179868Y-66459228D01*
X161239126Y-66457627D01*
X161281480Y-66455792D01*
X161304740Y-66453766D01*
X161308622Y-66452494D01*
X161300924Y-66437592D01*
X161292926Y-66429561D01*
X161279754Y-66412435D01*
X161262515Y-66382184D01*
X161250593Y-66357623D01*
X161223955Y-66298712D01*
X161220880Y-65121846D01*
X161217805Y-63944979D01*
X160772147Y-63944979D01*
X160674330Y-63945143D01*
X160583936Y-63945612D01*
X160503370Y-63946348D01*
X160435038Y-63947317D01*
X160381344Y-63948481D01*
X160344695Y-63949804D01*
X160327496Y-63951250D01*
X160326489Y-63951703D01*
X159315483Y-63951703D01*
X159330730Y-63932723D01*
X159404910Y-63840538D01*
X159476931Y-63751205D01*
X159545431Y-63666425D01*
X159609045Y-63587899D01*
X159666412Y-63517327D01*
X159716167Y-63456410D01*
X159756948Y-63406848D01*
X159774112Y-63386179D01*
X159860404Y-63285517D01*
X159937003Y-63202260D01*
X160005817Y-63134439D01*
X160068752Y-63080090D01*
X160078133Y-63072723D01*
X160117644Y-63042118D01*
X158985884Y-63041868D01*
X158991173Y-63089845D01*
X158987870Y-63147189D01*
X158966339Y-63215464D01*
X158926365Y-63295213D01*
X158881057Y-63367496D01*
X158864839Y-63390141D01*
X158836786Y-63427697D01*
X158798570Y-63478022D01*
X158751863Y-63538974D01*
X158698339Y-63608412D01*
X158639669Y-63684195D01*
X158577525Y-63764181D01*
X158513579Y-63846229D01*
X158449505Y-63928197D01*
X158386973Y-64007944D01*
X158327657Y-64083328D01*
X158273229Y-64152208D01*
X158225361Y-64212443D01*
X158185725Y-64261890D01*
X158155994Y-64298409D01*
X158137839Y-64319859D01*
X158134780Y-64323157D01*
X158131921Y-64315150D01*
X158129707Y-64284856D01*
X158128143Y-64232557D01*
X158127233Y-64158532D01*
X158126980Y-64063064D01*
X158127387Y-63946435D01*
X158128296Y-63826446D01*
X158129618Y-63694334D01*
X158131143Y-63582595D01*
X158133119Y-63489026D01*
X158135794Y-63411420D01*
X158139418Y-63347575D01*
X158144239Y-63295284D01*
X158150506Y-63252345D01*
X158158468Y-63216552D01*
X158168373Y-63185701D01*
X158180469Y-63157587D01*
X158195007Y-63130006D01*
X158209689Y-63104967D01*
X158247686Y-63041868D01*
X157187803Y-63041868D01*
X156884966Y-63041868D01*
X156884999Y-63035618D01*
X156885805Y-62933545D01*
X156886830Y-62844634D01*
X156888100Y-62767942D01*
X156889640Y-62702528D01*
X156891476Y-62647450D01*
X156893633Y-62601766D01*
X156896137Y-62564535D01*
X156899013Y-62534814D01*
X156902287Y-62511663D01*
X156905985Y-62494140D01*
X156910131Y-62481302D01*
X156914753Y-62472209D01*
X156919874Y-62465919D01*
X156925522Y-62461489D01*
X156931721Y-62457979D01*
X156938496Y-62454446D01*
X156944492Y-62450877D01*
X156949725Y-62448301D01*
X156957901Y-62445973D01*
X156970114Y-62443879D01*
X156987459Y-62442008D01*
X157011031Y-62440348D01*
X157041923Y-62438885D01*
X157081232Y-62437609D01*
X157130050Y-62436505D01*
X157189473Y-62435562D01*
X157260596Y-62434768D01*
X157344512Y-62434110D01*
X157442317Y-62433576D01*
X157555106Y-62433154D01*
X157683971Y-62432830D01*
X157830009Y-62432593D01*
X157994314Y-62432431D01*
X158177980Y-62432331D01*
X158382103Y-62432281D01*
X158593247Y-62432268D01*
X160213600Y-62432268D01*
X160213600Y-62529055D01*
G37*
X160213600Y-62529055D02*
X160224465Y-62642994D01*
X160256082Y-62750617D01*
X160306985Y-62849616D01*
X160375707Y-62937685D01*
X160460781Y-63012517D01*
X160557768Y-63070385D01*
X160664036Y-63110006D01*
X160771050Y-63128574D01*
X160876700Y-63127435D01*
X160978875Y-63107931D01*
X161075466Y-63071407D01*
X161164362Y-63019206D01*
X161243454Y-62952674D01*
X161310631Y-62873153D01*
X161363783Y-62781988D01*
X161400801Y-62680524D01*
X161419573Y-62570103D01*
X161421511Y-62520207D01*
X161421511Y-62432268D01*
X161473440Y-62432268D01*
X161509747Y-62435112D01*
X161536645Y-62446912D01*
X161563751Y-62470650D01*
X161602133Y-62509032D01*
X161602133Y-64700603D01*
X161602124Y-64962740D01*
X161602092Y-65203242D01*
X161602028Y-65423049D01*
X161601924Y-65623102D01*
X161601773Y-65804345D01*
X161601566Y-65967717D01*
X161601294Y-66114161D01*
X161600950Y-66244618D01*
X161600526Y-66360030D01*
X161600013Y-66461339D01*
X161599403Y-66549485D01*
X161598688Y-66625411D01*
X161597860Y-66690058D01*
X161596911Y-66744368D01*
X161595833Y-66789281D01*
X161594617Y-66825741D01*
X161593255Y-66854688D01*
X161591739Y-66877064D01*
X161590062Y-66893810D01*
X161588214Y-66905869D01*
X161586187Y-66914181D01*
X161583975Y-66919688D01*
X161582892Y-66921538D01*
X161578729Y-66928550D01*
X161575195Y-66934997D01*
X161571365Y-66940901D01*
X161566318Y-66946287D01*
X161559129Y-66951179D01*
X161548877Y-66955599D01*
X161534636Y-66959573D01*
X161515486Y-66963122D01*
X161490501Y-66966271D01*
X161458760Y-66969043D01*
X161419338Y-66971462D01*
X161371314Y-66973552D01*
X161313763Y-66975336D01*
X161245763Y-66976838D01*
X161166390Y-66978081D01*
X161074721Y-66979090D01*
X160969834Y-66979886D01*
X160850804Y-66980495D01*
X160716710Y-66980940D01*
X160566627Y-66981244D01*
X160399633Y-66981431D01*
X160214804Y-66981525D01*
X160011217Y-66981549D01*
X159787950Y-66981526D01*
X159544078Y-66981481D01*
X159278679Y-66981438D01*
X159240296Y-66981433D01*
X158973318Y-66981390D01*
X158727998Y-66981319D01*
X158503417Y-66981214D01*
X158298655Y-66981067D01*
X158112794Y-66980870D01*
X157944912Y-66980617D01*
X157794092Y-66980301D01*
X157659413Y-66979914D01*
X157539956Y-66979448D01*
X157434801Y-66978898D01*
X157343029Y-66978254D01*
X157263721Y-66977512D01*
X157195957Y-66976662D01*
X157138818Y-66975698D01*
X157091383Y-66974612D01*
X157052734Y-66973398D01*
X157021951Y-66972048D01*
X156998115Y-66970556D01*
X156980306Y-66968912D01*
X156967605Y-66967112D01*
X156959092Y-66965146D01*
X156954734Y-66963478D01*
X156946272Y-66959907D01*
X156938503Y-66957271D01*
X156931398Y-66954635D01*
X156924927Y-66951063D01*
X156919061Y-66945622D01*
X156913771Y-66937376D01*
X156909026Y-66925391D01*
X156904798Y-66908732D01*
X156901057Y-66886464D01*
X156897773Y-66857653D01*
X156894917Y-66821364D01*
X156892460Y-66776662D01*
X156890371Y-66722612D01*
X156888622Y-66658280D01*
X156887183Y-66582731D01*
X156886024Y-66495031D01*
X156885117Y-66394244D01*
X156884431Y-66279435D01*
X156883937Y-66149671D01*
X156883605Y-66004016D01*
X156883407Y-65841536D01*
X156883313Y-65661296D01*
X156883292Y-65462361D01*
X156883315Y-65243797D01*
X156883354Y-65004669D01*
X156883378Y-64744041D01*
X156883378Y-64701890D01*
X156883364Y-64438993D01*
X156883339Y-64197733D01*
X156883329Y-63977166D01*
X156883358Y-63776353D01*
X156883452Y-63594350D01*
X156883638Y-63430217D01*
X156883941Y-63283012D01*
X156884386Y-63151793D01*
X156884966Y-63041868D01*
X157187803Y-63041868D01*
X157227593Y-63099712D01*
X157238764Y-63115480D01*
X157248834Y-63129442D01*
X157257862Y-63142785D01*
X157265903Y-63156694D01*
X157273014Y-63172357D01*
X157279253Y-63190959D01*
X157284675Y-63213687D01*
X157289338Y-63241728D01*
X157293299Y-63276268D01*
X157296615Y-63318493D01*
X157299341Y-63369590D01*
X157301536Y-63430745D01*
X157303255Y-63503145D01*
X157304556Y-63587976D01*
X157305495Y-63686423D01*
X157306130Y-63799675D01*
X157306516Y-63928917D01*
X157306712Y-64075335D01*
X157306773Y-64240117D01*
X157306757Y-64424448D01*
X157306720Y-64629514D01*
X157306711Y-64752134D01*
X157306735Y-64969083D01*
X157306769Y-65164643D01*
X157306757Y-65340000D01*
X157306642Y-65496342D01*
X157306370Y-65634858D01*
X157305882Y-65756735D01*
X157305124Y-65863161D01*
X157304038Y-65955323D01*
X157302569Y-66034410D01*
X157300660Y-66101609D01*
X157298256Y-66158108D01*
X157295299Y-66205094D01*
X157291734Y-66243756D01*
X157287505Y-66275281D01*
X157282554Y-66300856D01*
X157276827Y-66321671D01*
X157270267Y-66338912D01*
X157262817Y-66353766D01*
X157254421Y-66367423D01*
X157245024Y-66381070D01*
X157234568Y-66395894D01*
X157228477Y-66404784D01*
X157189704Y-66462401D01*
X157721268Y-66462401D01*
X157844517Y-66462366D01*
X157947013Y-66462216D01*
X158030580Y-66461879D01*
X158097044Y-66461287D01*
X158148229Y-66460368D01*
X158185959Y-66459052D01*
X158212060Y-66457270D01*
X158228356Y-66454952D01*
X158236672Y-66452027D01*
X158238832Y-66448425D01*
X158236661Y-66444076D01*
X158235465Y-66442646D01*
X158210315Y-66405574D01*
X158184417Y-66352773D01*
X158160808Y-66290771D01*
X158152539Y-66264358D01*
X158147922Y-66246417D01*
X158144021Y-66225356D01*
X158140752Y-66199090D01*
X158138034Y-66165533D01*
X158135785Y-66122600D01*
X158133923Y-66068205D01*
X158132364Y-66000263D01*
X158131028Y-65916689D01*
X158129831Y-65815396D01*
X158128692Y-65694301D01*
X158128315Y-65649601D01*
X158127298Y-65524450D01*
X158126540Y-65420083D01*
X158126097Y-65334708D01*
X158126030Y-65266534D01*
X158126395Y-65213766D01*
X158127252Y-65174615D01*
X158128659Y-65147286D01*
X158130675Y-65129987D01*
X158133357Y-65120927D01*
X158136764Y-65118313D01*
X158140956Y-65120352D01*
X158145429Y-65124668D01*
X158155784Y-65137603D01*
X158177842Y-65166677D01*
X158210043Y-65209760D01*
X158250826Y-65264719D01*
X158298630Y-65329424D01*
X158351895Y-65401743D01*
X158409060Y-65479545D01*
X158468563Y-65560699D01*
X158528845Y-65643073D01*
X158588345Y-65724537D01*
X158645502Y-65802958D01*
X158698755Y-65876205D01*
X158746543Y-65942148D01*
X158787307Y-65998655D01*
X158819484Y-66043594D01*
X158841515Y-66074835D01*
X158846083Y-66081467D01*
X158869004Y-66118370D01*
X158895812Y-66166360D01*
X158921211Y-66215898D01*
X158924432Y-66222578D01*
X158946110Y-66270773D01*
X158958696Y-66308335D01*
X158964426Y-66344161D01*
X158965544Y-66386201D01*
X158964910Y-66462401D01*
X160119349Y-66462401D01*
X160028185Y-66368670D01*
X159981388Y-66318776D01*
X159931101Y-66262296D01*
X159885056Y-66208027D01*
X159864631Y-66182674D01*
X159834193Y-66143129D01*
X159794138Y-66089917D01*
X159745639Y-66024668D01*
X159689865Y-65949012D01*
X159627989Y-65864578D01*
X159561181Y-65772995D01*
X159490613Y-65675893D01*
X159417455Y-65574902D01*
X159342879Y-65471651D01*
X159268056Y-65367769D01*
X159194157Y-65264886D01*
X159122354Y-65164632D01*
X159053816Y-65068637D01*
X158989716Y-64978528D01*
X158931225Y-64895937D01*
X158879514Y-64822493D01*
X158835753Y-64759825D01*
X158801115Y-64709562D01*
X158776770Y-64673335D01*
X158763889Y-64652772D01*
X158762131Y-64648669D01*
X158770090Y-64637343D01*
X158790885Y-64610163D01*
X158823153Y-64568830D01*
X158865530Y-64515045D01*
X158916653Y-64450507D01*
X158975159Y-64376919D01*
X159039686Y-64295979D01*
X159108869Y-64209389D01*
X159181347Y-64118849D01*
X159255754Y-64026061D01*
X159315483Y-63951703D01*
X160326489Y-63951703D01*
X160332398Y-63964660D01*
X160346728Y-63986909D01*
X160347775Y-63988392D01*
X160366562Y-64018545D01*
X160386209Y-64055376D01*
X160390108Y-64063512D01*
X160393644Y-64071941D01*
X160396770Y-64082060D01*
X160399514Y-64095261D01*
X160401908Y-64112939D01*
X160403981Y-64136485D01*
X160405765Y-64167294D01*
X160407288Y-64206758D01*
X160408581Y-64256270D01*
X160409674Y-64317224D01*
X160410597Y-64391012D01*
X160411381Y-64479029D01*
X160412055Y-64582666D01*
X160412650Y-64703317D01*
X160413195Y-64842375D01*
X160413721Y-65001233D01*
X160414255Y-65180090D01*
X160414794Y-65365208D01*
X160415228Y-65529146D01*
X160415491Y-65673304D01*
X160415516Y-65799080D01*
X160415235Y-65907872D01*
X160414581Y-66001078D01*
X160413486Y-66080098D01*
X160411882Y-66146329D01*
X160409703Y-66201171D01*
X160406881Y-66246022D01*
X160403349Y-66282279D01*
X160399039Y-66311342D01*
X160393883Y-66334610D01*
X160387815Y-66353480D01*
X160380767Y-66369352D01*
X160372671Y-66383623D01*
X160363460Y-66397692D01*
X160354960Y-66410159D01*
X160337824Y-66436453D01*
X160327678Y-66454038D01*
X160326489Y-66457258D01*
X160337396Y-66458335D01*
X160368589Y-66459336D01*
X160417777Y-66460236D01*
X160482667Y-66461011D01*
X160560970Y-66461638D01*
X160650393Y-66462092D01*
X160748644Y-66462350D01*
X160817555Y-66462401D01*
X160922548Y-66462181D01*
X161019390Y-66461549D01*
X161105893Y-66460550D01*
X161179868Y-66459228D01*
X161239126Y-66457627D01*
X161281480Y-66455792D01*
X161304740Y-66453766D01*
X161308622Y-66452494D01*
X161300924Y-66437592D01*
X161292926Y-66429561D01*
X161279754Y-66412435D01*
X161262515Y-66382184D01*
X161250593Y-66357623D01*
X161223955Y-66298712D01*
X161220880Y-65121846D01*
X161217805Y-63944979D01*
X160772147Y-63944979D01*
X160674330Y-63945143D01*
X160583936Y-63945612D01*
X160503370Y-63946348D01*
X160435038Y-63947317D01*
X160381344Y-63948481D01*
X160344695Y-63949804D01*
X160327496Y-63951250D01*
X160326489Y-63951703D01*
X159315483Y-63951703D01*
X159330730Y-63932723D01*
X159404910Y-63840538D01*
X159476931Y-63751205D01*
X159545431Y-63666425D01*
X159609045Y-63587899D01*
X159666412Y-63517327D01*
X159716167Y-63456410D01*
X159756948Y-63406848D01*
X159774112Y-63386179D01*
X159860404Y-63285517D01*
X159937003Y-63202260D01*
X160005817Y-63134439D01*
X160068752Y-63080090D01*
X160078133Y-63072723D01*
X160117644Y-63042118D01*
X158985884Y-63041868D01*
X158991173Y-63089845D01*
X158987870Y-63147189D01*
X158966339Y-63215464D01*
X158926365Y-63295213D01*
X158881057Y-63367496D01*
X158864839Y-63390141D01*
X158836786Y-63427697D01*
X158798570Y-63478022D01*
X158751863Y-63538974D01*
X158698339Y-63608412D01*
X158639669Y-63684195D01*
X158577525Y-63764181D01*
X158513579Y-63846229D01*
X158449505Y-63928197D01*
X158386973Y-64007944D01*
X158327657Y-64083328D01*
X158273229Y-64152208D01*
X158225361Y-64212443D01*
X158185725Y-64261890D01*
X158155994Y-64298409D01*
X158137839Y-64319859D01*
X158134780Y-64323157D01*
X158131921Y-64315150D01*
X158129707Y-64284856D01*
X158128143Y-64232557D01*
X158127233Y-64158532D01*
X158126980Y-64063064D01*
X158127387Y-63946435D01*
X158128296Y-63826446D01*
X158129618Y-63694334D01*
X158131143Y-63582595D01*
X158133119Y-63489026D01*
X158135794Y-63411420D01*
X158139418Y-63347575D01*
X158144239Y-63295284D01*
X158150506Y-63252345D01*
X158158468Y-63216552D01*
X158168373Y-63185701D01*
X158180469Y-63157587D01*
X158195007Y-63130006D01*
X158209689Y-63104967D01*
X158247686Y-63041868D01*
X157187803Y-63041868D01*
X156884966Y-63041868D01*
X156884999Y-63035618D01*
X156885805Y-62933545D01*
X156886830Y-62844634D01*
X156888100Y-62767942D01*
X156889640Y-62702528D01*
X156891476Y-62647450D01*
X156893633Y-62601766D01*
X156896137Y-62564535D01*
X156899013Y-62534814D01*
X156902287Y-62511663D01*
X156905985Y-62494140D01*
X156910131Y-62481302D01*
X156914753Y-62472209D01*
X156919874Y-62465919D01*
X156925522Y-62461489D01*
X156931721Y-62457979D01*
X156938496Y-62454446D01*
X156944492Y-62450877D01*
X156949725Y-62448301D01*
X156957901Y-62445973D01*
X156970114Y-62443879D01*
X156987459Y-62442008D01*
X157011031Y-62440348D01*
X157041923Y-62438885D01*
X157081232Y-62437609D01*
X157130050Y-62436505D01*
X157189473Y-62435562D01*
X157260596Y-62434768D01*
X157344512Y-62434110D01*
X157442317Y-62433576D01*
X157555106Y-62433154D01*
X157683971Y-62432830D01*
X157830009Y-62432593D01*
X157994314Y-62432431D01*
X158177980Y-62432331D01*
X158382103Y-62432281D01*
X158593247Y-62432268D01*
X160213600Y-62432268D01*
X160213600Y-62529055D01*
G36*
X89876964Y-104875019D02*
G01*
X89933812Y-105176571D01*
X90353338Y-105349513D01*
X90604984Y-105178396D01*
X90675458Y-105130751D01*
X90739163Y-105088211D01*
X90793126Y-105052716D01*
X90834373Y-105026211D01*
X90859934Y-105010637D01*
X90866895Y-105007279D01*
X90879435Y-105015915D01*
X90906231Y-105039793D01*
X90944280Y-105075860D01*
X90990579Y-105121068D01*
X91042123Y-105172365D01*
X91095909Y-105226702D01*
X91148935Y-105281029D01*
X91198195Y-105332296D01*
X91240687Y-105377452D01*
X91273407Y-105413447D01*
X91293351Y-105437231D01*
X91298119Y-105445191D01*
X91291257Y-105459866D01*
X91272020Y-105492015D01*
X91242430Y-105538493D01*
X91204510Y-105596157D01*
X91160282Y-105661861D01*
X91134654Y-105699337D01*
X91087941Y-105767769D01*
X91046432Y-105829521D01*
X91012140Y-105881520D01*
X90987080Y-105920693D01*
X90973264Y-105943966D01*
X90971188Y-105948856D01*
X90975895Y-105962756D01*
X90988723Y-105995151D01*
X91007738Y-106041486D01*
X91031003Y-106097207D01*
X91056584Y-106157759D01*
X91082545Y-106218587D01*
X91106950Y-106275137D01*
X91127863Y-106322853D01*
X91143349Y-106357182D01*
X91151472Y-106373569D01*
X91151952Y-106374213D01*
X91164707Y-106377342D01*
X91198677Y-106384322D01*
X91250340Y-106394468D01*
X91316176Y-106407093D01*
X91392664Y-106421510D01*
X91437290Y-106429824D01*
X91519021Y-106445385D01*
X91592843Y-106460193D01*
X91655021Y-106473437D01*
X91701822Y-106484306D01*
X91729509Y-106491990D01*
X91735074Y-106494428D01*
X91740526Y-106510931D01*
X91744924Y-106548201D01*
X91748272Y-106601881D01*
X91750574Y-106667613D01*
X91751832Y-106741038D01*
X91752048Y-106817797D01*
X91751227Y-106893533D01*
X91749371Y-106963887D01*
X91746482Y-107024501D01*
X91742565Y-107071017D01*
X91737622Y-107099076D01*
X91734657Y-107104917D01*
X91716934Y-107111918D01*
X91679381Y-107121928D01*
X91626964Y-107133770D01*
X91564652Y-107146268D01*
X91542900Y-107150311D01*
X91438024Y-107169521D01*
X91355180Y-107184992D01*
X91291630Y-107197338D01*
X91244637Y-107207174D01*
X91211463Y-107215115D01*
X91189371Y-107221777D01*
X91175624Y-107227774D01*
X91167484Y-107233720D01*
X91166345Y-107234895D01*
X91154977Y-107253827D01*
X91137635Y-107290670D01*
X91116050Y-107340914D01*
X91091954Y-107400047D01*
X91067079Y-107463557D01*
X91043157Y-107526933D01*
X91021919Y-107585663D01*
X91005097Y-107635236D01*
X90994422Y-107671140D01*
X90991627Y-107688863D01*
X90991860Y-107689484D01*
X91001331Y-107703971D01*
X91022818Y-107735845D01*
X91054063Y-107781790D01*
X91092807Y-107838486D01*
X91136793Y-107902618D01*
X91149319Y-107920843D01*
X91193984Y-107986915D01*
X91233288Y-108047201D01*
X91265088Y-108098236D01*
X91287245Y-108136561D01*
X91297617Y-108158712D01*
X91298119Y-108161433D01*
X91289405Y-108175737D01*
X91265325Y-108204073D01*
X91228976Y-108243397D01*
X91183453Y-108290662D01*
X91131852Y-108342824D01*
X91077267Y-108396836D01*
X91022794Y-108449654D01*
X90971529Y-108498232D01*
X90926567Y-108539524D01*
X90891004Y-108570486D01*
X90867935Y-108588071D01*
X90861554Y-108590942D01*
X90846699Y-108584179D01*
X90816286Y-108565940D01*
X90775268Y-108539298D01*
X90743709Y-108517853D01*
X90686525Y-108478504D01*
X90618806Y-108432172D01*
X90550880Y-108385914D01*
X90514361Y-108361156D01*
X90390752Y-108277548D01*
X90286991Y-108333651D01*
X90239720Y-108358229D01*
X90199523Y-108377332D01*
X90172326Y-108388228D01*
X90165402Y-108389744D01*
X90157077Y-108378550D01*
X90140654Y-108346918D01*
X90117357Y-108297766D01*
X90088414Y-108234011D01*
X90055050Y-108158572D01*
X90018491Y-108074365D01*
X89979964Y-107984309D01*
X89940694Y-107891322D01*
X89901908Y-107798321D01*
X89864830Y-107708224D01*
X89830689Y-107623949D01*
X89800708Y-107548414D01*
X89776116Y-107484535D01*
X89758136Y-107435232D01*
X89747997Y-107403422D01*
X89746366Y-107392497D01*
X89759291Y-107378562D01*
X89787589Y-107355941D01*
X89825346Y-107329334D01*
X89828515Y-107327229D01*
X89926100Y-107249115D01*
X90004786Y-107157983D01*
X90063891Y-107056746D01*
X90102732Y-106948319D01*
X90120628Y-106835615D01*
X90116897Y-106721549D01*
X90090857Y-106609035D01*
X90041825Y-106500986D01*
X90027400Y-106477346D01*
X89952369Y-106381888D01*
X89863730Y-106305233D01*
X89764549Y-106247781D01*
X89657895Y-106209930D01*
X89546836Y-106192079D01*
X89434439Y-106194626D01*
X89323773Y-106217971D01*
X89217906Y-106262511D01*
X89119905Y-106328646D01*
X89089590Y-106355488D01*
X89012438Y-106439513D01*
X88956218Y-106527967D01*
X88917653Y-106627116D01*
X88896174Y-106725304D01*
X88890872Y-106835698D01*
X88908552Y-106946641D01*
X88947419Y-107054382D01*
X89005677Y-107155170D01*
X89081531Y-107245257D01*
X89173183Y-107320893D01*
X89185228Y-107328865D01*
X89223389Y-107354975D01*
X89252399Y-107377596D01*
X89266268Y-107392040D01*
X89266469Y-107392497D01*
X89263492Y-107408122D01*
X89251689Y-107443583D01*
X89232286Y-107495963D01*
X89206512Y-107562346D01*
X89175591Y-107639815D01*
X89140751Y-107725451D01*
X89103217Y-107816338D01*
X89064217Y-107909560D01*
X89024977Y-108002198D01*
X88986724Y-108091336D01*
X88950683Y-108174056D01*
X88918083Y-108247442D01*
X88890148Y-108308576D01*
X88868105Y-108354542D01*
X88853182Y-108382422D01*
X88847172Y-108389744D01*
X88828809Y-108384042D01*
X88794448Y-108368750D01*
X88750016Y-108346600D01*
X88725583Y-108333651D01*
X88621822Y-108277548D01*
X88498213Y-108361156D01*
X88435114Y-108403988D01*
X88366030Y-108451123D01*
X88301293Y-108495504D01*
X88268866Y-108517853D01*
X88223259Y-108548478D01*
X88184640Y-108572748D01*
X88158048Y-108587588D01*
X88149410Y-108590725D01*
X88136839Y-108582262D01*
X88109016Y-108558637D01*
X88068639Y-108522303D01*
X88018405Y-108475712D01*
X87961012Y-108421318D01*
X87924714Y-108386393D01*
X87861210Y-108323997D01*
X87806327Y-108268189D01*
X87762286Y-108221355D01*
X87731305Y-108185883D01*
X87715602Y-108164162D01*
X87714095Y-108159753D01*
X87721086Y-108142986D01*
X87740406Y-108109083D01*
X87769909Y-108061477D01*
X87807455Y-108003600D01*
X87850900Y-107938885D01*
X87863255Y-107920843D01*
X87908273Y-107855268D01*
X87948660Y-107796229D01*
X87982160Y-107747043D01*
X88006514Y-107711029D01*
X88019464Y-107691503D01*
X88020715Y-107689484D01*
X88018844Y-107673923D01*
X88008913Y-107639710D01*
X87992653Y-107591356D01*
X87971795Y-107533372D01*
X87948073Y-107470271D01*
X87923216Y-107406564D01*
X87898958Y-107346762D01*
X87877029Y-107295377D01*
X87859162Y-107256920D01*
X87847087Y-107235903D01*
X87846229Y-107234895D01*
X87838846Y-107228889D01*
X87826375Y-107222949D01*
X87806080Y-107216461D01*
X87775222Y-107208810D01*
X87731066Y-107199381D01*
X87670874Y-107187560D01*
X87591907Y-107172730D01*
X87491430Y-107154278D01*
X87469675Y-107150311D01*
X87405198Y-107137854D01*
X87348989Y-107125667D01*
X87306013Y-107114927D01*
X87281240Y-107106810D01*
X87277918Y-107104917D01*
X87272444Y-107088139D01*
X87267994Y-107050646D01*
X87264572Y-106996795D01*
X87262181Y-106930945D01*
X87260823Y-106857454D01*
X87260501Y-106780681D01*
X87261219Y-106704984D01*
X87262979Y-106634721D01*
X87265784Y-106574251D01*
X87269638Y-106527931D01*
X87274543Y-106500120D01*
X87277500Y-106494428D01*
X87293963Y-106488687D01*
X87331449Y-106479346D01*
X87386225Y-106467216D01*
X87454555Y-106453108D01*
X87532706Y-106437831D01*
X87575284Y-106429824D01*
X87656071Y-106414722D01*
X87728113Y-106401041D01*
X87787889Y-106389468D01*
X87831879Y-106380688D01*
X87856561Y-106375388D01*
X87860623Y-106374213D01*
X87867489Y-106360966D01*
X87882002Y-106329058D01*
X87902229Y-106283048D01*
X87926234Y-106227493D01*
X87952082Y-106166954D01*
X87977840Y-106105987D01*
X88001573Y-106049152D01*
X88021346Y-106001007D01*
X88035224Y-105966111D01*
X88041274Y-105949022D01*
X88041386Y-105948275D01*
X88034528Y-105934794D01*
X88015302Y-105903771D01*
X87985728Y-105858290D01*
X87947827Y-105801433D01*
X87903620Y-105736284D01*
X87877921Y-105698863D01*
X87831093Y-105630248D01*
X87789501Y-105567953D01*
X87755175Y-105515130D01*
X87730143Y-105474928D01*
X87716435Y-105450501D01*
X87714456Y-105445025D01*
X87722966Y-105432279D01*
X87746493Y-105405064D01*
X87782032Y-105366429D01*
X87826577Y-105319424D01*
X87877123Y-105267096D01*
X87930664Y-105212496D01*
X87984195Y-105158671D01*
X88034711Y-105108671D01*
X88079206Y-105065544D01*
X88114675Y-105032340D01*
X88138113Y-105012107D01*
X88145954Y-105007279D01*
X88158720Y-105014068D01*
X88189256Y-105033143D01*
X88234590Y-105062562D01*
X88291756Y-105100382D01*
X88357784Y-105144662D01*
X88407590Y-105178396D01*
X88659236Y-105349513D01*
X88868999Y-105263042D01*
X89078763Y-105176571D01*
X89135611Y-104875019D01*
X89192460Y-104573467D01*
X89820115Y-104573467D01*
X89876964Y-104875019D01*
G37*
X89876964Y-104875019D02*
X89933812Y-105176571D01*
X90353338Y-105349513D01*
X90604984Y-105178396D01*
X90675458Y-105130751D01*
X90739163Y-105088211D01*
X90793126Y-105052716D01*
X90834373Y-105026211D01*
X90859934Y-105010637D01*
X90866895Y-105007279D01*
X90879435Y-105015915D01*
X90906231Y-105039793D01*
X90944280Y-105075860D01*
X90990579Y-105121068D01*
X91042123Y-105172365D01*
X91095909Y-105226702D01*
X91148935Y-105281029D01*
X91198195Y-105332296D01*
X91240687Y-105377452D01*
X91273407Y-105413447D01*
X91293351Y-105437231D01*
X91298119Y-105445191D01*
X91291257Y-105459866D01*
X91272020Y-105492015D01*
X91242430Y-105538493D01*
X91204510Y-105596157D01*
X91160282Y-105661861D01*
X91134654Y-105699337D01*
X91087941Y-105767769D01*
X91046432Y-105829521D01*
X91012140Y-105881520D01*
X90987080Y-105920693D01*
X90973264Y-105943966D01*
X90971188Y-105948856D01*
X90975895Y-105962756D01*
X90988723Y-105995151D01*
X91007738Y-106041486D01*
X91031003Y-106097207D01*
X91056584Y-106157759D01*
X91082545Y-106218587D01*
X91106950Y-106275137D01*
X91127863Y-106322853D01*
X91143349Y-106357182D01*
X91151472Y-106373569D01*
X91151952Y-106374213D01*
X91164707Y-106377342D01*
X91198677Y-106384322D01*
X91250340Y-106394468D01*
X91316176Y-106407093D01*
X91392664Y-106421510D01*
X91437290Y-106429824D01*
X91519021Y-106445385D01*
X91592843Y-106460193D01*
X91655021Y-106473437D01*
X91701822Y-106484306D01*
X91729509Y-106491990D01*
X91735074Y-106494428D01*
X91740526Y-106510931D01*
X91744924Y-106548201D01*
X91748272Y-106601881D01*
X91750574Y-106667613D01*
X91751832Y-106741038D01*
X91752048Y-106817797D01*
X91751227Y-106893533D01*
X91749371Y-106963887D01*
X91746482Y-107024501D01*
X91742565Y-107071017D01*
X91737622Y-107099076D01*
X91734657Y-107104917D01*
X91716934Y-107111918D01*
X91679381Y-107121928D01*
X91626964Y-107133770D01*
X91564652Y-107146268D01*
X91542900Y-107150311D01*
X91438024Y-107169521D01*
X91355180Y-107184992D01*
X91291630Y-107197338D01*
X91244637Y-107207174D01*
X91211463Y-107215115D01*
X91189371Y-107221777D01*
X91175624Y-107227774D01*
X91167484Y-107233720D01*
X91166345Y-107234895D01*
X91154977Y-107253827D01*
X91137635Y-107290670D01*
X91116050Y-107340914D01*
X91091954Y-107400047D01*
X91067079Y-107463557D01*
X91043157Y-107526933D01*
X91021919Y-107585663D01*
X91005097Y-107635236D01*
X90994422Y-107671140D01*
X90991627Y-107688863D01*
X90991860Y-107689484D01*
X91001331Y-107703971D01*
X91022818Y-107735845D01*
X91054063Y-107781790D01*
X91092807Y-107838486D01*
X91136793Y-107902618D01*
X91149319Y-107920843D01*
X91193984Y-107986915D01*
X91233288Y-108047201D01*
X91265088Y-108098236D01*
X91287245Y-108136561D01*
X91297617Y-108158712D01*
X91298119Y-108161433D01*
X91289405Y-108175737D01*
X91265325Y-108204073D01*
X91228976Y-108243397D01*
X91183453Y-108290662D01*
X91131852Y-108342824D01*
X91077267Y-108396836D01*
X91022794Y-108449654D01*
X90971529Y-108498232D01*
X90926567Y-108539524D01*
X90891004Y-108570486D01*
X90867935Y-108588071D01*
X90861554Y-108590942D01*
X90846699Y-108584179D01*
X90816286Y-108565940D01*
X90775268Y-108539298D01*
X90743709Y-108517853D01*
X90686525Y-108478504D01*
X90618806Y-108432172D01*
X90550880Y-108385914D01*
X90514361Y-108361156D01*
X90390752Y-108277548D01*
X90286991Y-108333651D01*
X90239720Y-108358229D01*
X90199523Y-108377332D01*
X90172326Y-108388228D01*
X90165402Y-108389744D01*
X90157077Y-108378550D01*
X90140654Y-108346918D01*
X90117357Y-108297766D01*
X90088414Y-108234011D01*
X90055050Y-108158572D01*
X90018491Y-108074365D01*
X89979964Y-107984309D01*
X89940694Y-107891322D01*
X89901908Y-107798321D01*
X89864830Y-107708224D01*
X89830689Y-107623949D01*
X89800708Y-107548414D01*
X89776116Y-107484535D01*
X89758136Y-107435232D01*
X89747997Y-107403422D01*
X89746366Y-107392497D01*
X89759291Y-107378562D01*
X89787589Y-107355941D01*
X89825346Y-107329334D01*
X89828515Y-107327229D01*
X89926100Y-107249115D01*
X90004786Y-107157983D01*
X90063891Y-107056746D01*
X90102732Y-106948319D01*
X90120628Y-106835615D01*
X90116897Y-106721549D01*
X90090857Y-106609035D01*
X90041825Y-106500986D01*
X90027400Y-106477346D01*
X89952369Y-106381888D01*
X89863730Y-106305233D01*
X89764549Y-106247781D01*
X89657895Y-106209930D01*
X89546836Y-106192079D01*
X89434439Y-106194626D01*
X89323773Y-106217971D01*
X89217906Y-106262511D01*
X89119905Y-106328646D01*
X89089590Y-106355488D01*
X89012438Y-106439513D01*
X88956218Y-106527967D01*
X88917653Y-106627116D01*
X88896174Y-106725304D01*
X88890872Y-106835698D01*
X88908552Y-106946641D01*
X88947419Y-107054382D01*
X89005677Y-107155170D01*
X89081531Y-107245257D01*
X89173183Y-107320893D01*
X89185228Y-107328865D01*
X89223389Y-107354975D01*
X89252399Y-107377596D01*
X89266268Y-107392040D01*
X89266469Y-107392497D01*
X89263492Y-107408122D01*
X89251689Y-107443583D01*
X89232286Y-107495963D01*
X89206512Y-107562346D01*
X89175591Y-107639815D01*
X89140751Y-107725451D01*
X89103217Y-107816338D01*
X89064217Y-107909560D01*
X89024977Y-108002198D01*
X88986724Y-108091336D01*
X88950683Y-108174056D01*
X88918083Y-108247442D01*
X88890148Y-108308576D01*
X88868105Y-108354542D01*
X88853182Y-108382422D01*
X88847172Y-108389744D01*
X88828809Y-108384042D01*
X88794448Y-108368750D01*
X88750016Y-108346600D01*
X88725583Y-108333651D01*
X88621822Y-108277548D01*
X88498213Y-108361156D01*
X88435114Y-108403988D01*
X88366030Y-108451123D01*
X88301293Y-108495504D01*
X88268866Y-108517853D01*
X88223259Y-108548478D01*
X88184640Y-108572748D01*
X88158048Y-108587588D01*
X88149410Y-108590725D01*
X88136839Y-108582262D01*
X88109016Y-108558637D01*
X88068639Y-108522303D01*
X88018405Y-108475712D01*
X87961012Y-108421318D01*
X87924714Y-108386393D01*
X87861210Y-108323997D01*
X87806327Y-108268189D01*
X87762286Y-108221355D01*
X87731305Y-108185883D01*
X87715602Y-108164162D01*
X87714095Y-108159753D01*
X87721086Y-108142986D01*
X87740406Y-108109083D01*
X87769909Y-108061477D01*
X87807455Y-108003600D01*
X87850900Y-107938885D01*
X87863255Y-107920843D01*
X87908273Y-107855268D01*
X87948660Y-107796229D01*
X87982160Y-107747043D01*
X88006514Y-107711029D01*
X88019464Y-107691503D01*
X88020715Y-107689484D01*
X88018844Y-107673923D01*
X88008913Y-107639710D01*
X87992653Y-107591356D01*
X87971795Y-107533372D01*
X87948073Y-107470271D01*
X87923216Y-107406564D01*
X87898958Y-107346762D01*
X87877029Y-107295377D01*
X87859162Y-107256920D01*
X87847087Y-107235903D01*
X87846229Y-107234895D01*
X87838846Y-107228889D01*
X87826375Y-107222949D01*
X87806080Y-107216461D01*
X87775222Y-107208810D01*
X87731066Y-107199381D01*
X87670874Y-107187560D01*
X87591907Y-107172730D01*
X87491430Y-107154278D01*
X87469675Y-107150311D01*
X87405198Y-107137854D01*
X87348989Y-107125667D01*
X87306013Y-107114927D01*
X87281240Y-107106810D01*
X87277918Y-107104917D01*
X87272444Y-107088139D01*
X87267994Y-107050646D01*
X87264572Y-106996795D01*
X87262181Y-106930945D01*
X87260823Y-106857454D01*
X87260501Y-106780681D01*
X87261219Y-106704984D01*
X87262979Y-106634721D01*
X87265784Y-106574251D01*
X87269638Y-106527931D01*
X87274543Y-106500120D01*
X87277500Y-106494428D01*
X87293963Y-106488687D01*
X87331449Y-106479346D01*
X87386225Y-106467216D01*
X87454555Y-106453108D01*
X87532706Y-106437831D01*
X87575284Y-106429824D01*
X87656071Y-106414722D01*
X87728113Y-106401041D01*
X87787889Y-106389468D01*
X87831879Y-106380688D01*
X87856561Y-106375388D01*
X87860623Y-106374213D01*
X87867489Y-106360966D01*
X87882002Y-106329058D01*
X87902229Y-106283048D01*
X87926234Y-106227493D01*
X87952082Y-106166954D01*
X87977840Y-106105987D01*
X88001573Y-106049152D01*
X88021346Y-106001007D01*
X88035224Y-105966111D01*
X88041274Y-105949022D01*
X88041386Y-105948275D01*
X88034528Y-105934794D01*
X88015302Y-105903771D01*
X87985728Y-105858290D01*
X87947827Y-105801433D01*
X87903620Y-105736284D01*
X87877921Y-105698863D01*
X87831093Y-105630248D01*
X87789501Y-105567953D01*
X87755175Y-105515130D01*
X87730143Y-105474928D01*
X87716435Y-105450501D01*
X87714456Y-105445025D01*
X87722966Y-105432279D01*
X87746493Y-105405064D01*
X87782032Y-105366429D01*
X87826577Y-105319424D01*
X87877123Y-105267096D01*
X87930664Y-105212496D01*
X87984195Y-105158671D01*
X88034711Y-105108671D01*
X88079206Y-105065544D01*
X88114675Y-105032340D01*
X88138113Y-105012107D01*
X88145954Y-105007279D01*
X88158720Y-105014068D01*
X88189256Y-105033143D01*
X88234590Y-105062562D01*
X88291756Y-105100382D01*
X88357784Y-105144662D01*
X88407590Y-105178396D01*
X88659236Y-105349513D01*
X88868999Y-105263042D01*
X89078763Y-105176571D01*
X89135611Y-104875019D01*
X89192460Y-104573467D01*
X89820115Y-104573467D01*
X89876964Y-104875019D01*
G36*
X91299460Y-109043031D02*
G01*
X91342711Y-109056246D01*
X91370558Y-109072942D01*
X91379629Y-109086146D01*
X91377132Y-109101798D01*
X91360931Y-109126386D01*
X91347232Y-109143801D01*
X91318992Y-109175284D01*
X91297775Y-109188530D01*
X91279688Y-109187665D01*
X91226035Y-109174011D01*
X91186630Y-109174631D01*
X91154632Y-109190105D01*
X91143890Y-109199162D01*
X91109505Y-109231028D01*
X91109505Y-109647180D01*
X90971188Y-109647180D01*
X90971188Y-109043615D01*
X91040347Y-109043615D01*
X91081869Y-109045257D01*
X91103291Y-109051088D01*
X91109502Y-109062462D01*
X91109505Y-109062799D01*
X91112439Y-109074714D01*
X91125704Y-109073160D01*
X91144084Y-109064564D01*
X91182046Y-109048569D01*
X91212872Y-109038946D01*
X91252536Y-109036479D01*
X91299460Y-109043031D01*
G37*
X91299460Y-109043031D02*
X91342711Y-109056246D01*
X91370558Y-109072942D01*
X91379629Y-109086146D01*
X91377132Y-109101798D01*
X91360931Y-109126386D01*
X91347232Y-109143801D01*
X91318992Y-109175284D01*
X91297775Y-109188530D01*
X91279688Y-109187665D01*
X91226035Y-109174011D01*
X91186630Y-109174631D01*
X91154632Y-109190105D01*
X91143890Y-109199162D01*
X91109505Y-109231028D01*
X91109505Y-109647180D01*
X90971188Y-109647180D01*
X90971188Y-109043615D01*
X91040347Y-109043615D01*
X91081869Y-109045257D01*
X91103291Y-109051088D01*
X91109502Y-109062462D01*
X91109505Y-109062799D01*
X91112439Y-109074714D01*
X91125704Y-109073160D01*
X91144084Y-109064564D01*
X91182046Y-109048569D01*
X91212872Y-109038946D01*
X91252536Y-109036479D01*
X91299460Y-109043031D01*
G36*
X88745988Y-109054003D02*
G01*
X88777283Y-109068951D01*
X88807591Y-109090542D01*
X88830682Y-109115392D01*
X88847500Y-109147088D01*
X88858994Y-109189215D01*
X88866109Y-109245359D01*
X88869793Y-109319107D01*
X88870992Y-109414045D01*
X88871011Y-109423986D01*
X88871287Y-109647180D01*
X88732970Y-109647180D01*
X88732970Y-109441419D01*
X88732872Y-109365190D01*
X88732191Y-109309940D01*
X88730349Y-109271502D01*
X88726767Y-109245707D01*
X88720868Y-109228385D01*
X88712073Y-109215369D01*
X88699820Y-109202508D01*
X88656953Y-109174874D01*
X88610157Y-109169746D01*
X88565576Y-109187218D01*
X88550072Y-109200222D01*
X88538690Y-109212448D01*
X88530519Y-109225541D01*
X88525026Y-109243616D01*
X88521680Y-109270788D01*
X88519949Y-109311171D01*
X88519303Y-109368880D01*
X88519208Y-109439133D01*
X88519208Y-109647180D01*
X88380891Y-109647180D01*
X88380891Y-109043615D01*
X88450050Y-109043615D01*
X88491572Y-109045257D01*
X88512994Y-109051088D01*
X88519205Y-109062462D01*
X88519208Y-109062799D01*
X88522090Y-109073939D01*
X88534801Y-109072675D01*
X88560074Y-109060435D01*
X88617395Y-109042425D01*
X88682963Y-109040422D01*
X88745988Y-109054003D01*
G37*
X88745988Y-109054003D02*
X88777283Y-109068951D01*
X88807591Y-109090542D01*
X88830682Y-109115392D01*
X88847500Y-109147088D01*
X88858994Y-109189215D01*
X88866109Y-109245359D01*
X88869793Y-109319107D01*
X88870992Y-109414045D01*
X88871011Y-109423986D01*
X88871287Y-109647180D01*
X88732970Y-109647180D01*
X88732970Y-109441419D01*
X88732872Y-109365190D01*
X88732191Y-109309940D01*
X88730349Y-109271502D01*
X88726767Y-109245707D01*
X88720868Y-109228385D01*
X88712073Y-109215369D01*
X88699820Y-109202508D01*
X88656953Y-109174874D01*
X88610157Y-109169746D01*
X88565576Y-109187218D01*
X88550072Y-109200222D01*
X88538690Y-109212448D01*
X88530519Y-109225541D01*
X88525026Y-109243616D01*
X88521680Y-109270788D01*
X88519949Y-109311171D01*
X88519303Y-109368880D01*
X88519208Y-109439133D01*
X88519208Y-109647180D01*
X88380891Y-109647180D01*
X88380891Y-109043615D01*
X88450050Y-109043615D01*
X88491572Y-109045257D01*
X88512994Y-109051088D01*
X88519205Y-109062462D01*
X88519208Y-109062799D01*
X88522090Y-109073939D01*
X88534801Y-109072675D01*
X88560074Y-109060435D01*
X88617395Y-109042425D01*
X88682963Y-109040422D01*
X88745988Y-109054003D01*
G36*
X92177898Y-109041458D02*
G01*
X92210096Y-109049280D01*
X92271825Y-109077922D01*
X92324610Y-109121668D01*
X92361141Y-109174118D01*
X92366160Y-109185894D01*
X92373045Y-109216741D01*
X92377864Y-109262372D01*
X92379505Y-109308493D01*
X92379505Y-109395694D01*
X92197178Y-109395694D01*
X92121979Y-109395979D01*
X92069003Y-109397705D01*
X92035325Y-109402182D01*
X92018020Y-109410721D01*
X92014163Y-109424631D01*
X92020829Y-109445223D01*
X92032770Y-109469316D01*
X92066080Y-109509526D01*
X92112368Y-109529559D01*
X92168944Y-109528906D01*
X92233031Y-109507102D01*
X92288417Y-109480194D01*
X92334375Y-109516533D01*
X92380333Y-109552873D01*
X92337096Y-109592820D01*
X92279374Y-109630564D01*
X92208386Y-109653321D01*
X92132029Y-109659689D01*
X92058199Y-109648269D01*
X92046287Y-109644394D01*
X91981399Y-109610507D01*
X91933130Y-109559987D01*
X91900465Y-109491326D01*
X91882385Y-109403015D01*
X91882175Y-109401122D01*
X91880556Y-109304879D01*
X91887100Y-109270543D01*
X92014852Y-109270543D01*
X92026584Y-109275823D01*
X92058438Y-109279868D01*
X92105397Y-109282177D01*
X92135154Y-109282526D01*
X92190648Y-109282307D01*
X92225346Y-109280917D01*
X92243601Y-109277252D01*
X92249766Y-109270211D01*
X92248195Y-109258691D01*
X92246878Y-109254234D01*
X92224382Y-109212356D01*
X92189003Y-109178605D01*
X92157780Y-109163774D01*
X92116301Y-109164669D01*
X92074269Y-109183165D01*
X92039012Y-109213787D01*
X92017854Y-109251063D01*
X92014852Y-109270543D01*
X91887100Y-109270543D01*
X91896690Y-109220230D01*
X91928698Y-109149192D01*
X91974701Y-109093780D01*
X92032821Y-109056010D01*
X92101180Y-109037897D01*
X92177898Y-109041458D01*
G37*
X92177898Y-109041458D02*
X92210096Y-109049280D01*
X92271825Y-109077922D01*
X92324610Y-109121668D01*
X92361141Y-109174118D01*
X92366160Y-109185894D01*
X92373045Y-109216741D01*
X92377864Y-109262372D01*
X92379505Y-109308493D01*
X92379505Y-109395694D01*
X92197178Y-109395694D01*
X92121979Y-109395979D01*
X92069003Y-109397705D01*
X92035325Y-109402182D01*
X92018020Y-109410721D01*
X92014163Y-109424631D01*
X92020829Y-109445223D01*
X92032770Y-109469316D01*
X92066080Y-109509526D01*
X92112368Y-109529559D01*
X92168944Y-109528906D01*
X92233031Y-109507102D01*
X92288417Y-109480194D01*
X92334375Y-109516533D01*
X92380333Y-109552873D01*
X92337096Y-109592820D01*
X92279374Y-109630564D01*
X92208386Y-109653321D01*
X92132029Y-109659689D01*
X92058199Y-109648269D01*
X92046287Y-109644394D01*
X91981399Y-109610507D01*
X91933130Y-109559987D01*
X91900465Y-109491326D01*
X91882385Y-109403015D01*
X91882175Y-109401122D01*
X91880556Y-109304879D01*
X91887100Y-109270543D01*
X92014852Y-109270543D01*
X92026584Y-109275823D01*
X92058438Y-109279868D01*
X92105397Y-109282177D01*
X92135154Y-109282526D01*
X92190648Y-109282307D01*
X92225346Y-109280917D01*
X92243601Y-109277252D01*
X92249766Y-109270211D01*
X92248195Y-109258691D01*
X92246878Y-109254234D01*
X92224382Y-109212356D01*
X92189003Y-109178605D01*
X92157780Y-109163774D01*
X92116301Y-109164669D01*
X92074269Y-109183165D01*
X92039012Y-109213787D01*
X92017854Y-109251063D01*
X92014852Y-109270543D01*
X91887100Y-109270543D01*
X91896690Y-109220230D01*
X91928698Y-109149192D01*
X91974701Y-109093780D01*
X92032821Y-109056010D01*
X92101180Y-109037897D01*
X92177898Y-109041458D01*
G36*
X91717226Y-109048881D02*
G01*
X91790080Y-109079831D01*
X91813027Y-109094896D01*
X91842354Y-109118049D01*
X91860764Y-109136254D01*
X91863961Y-109142184D01*
X91854935Y-109155341D01*
X91831837Y-109177668D01*
X91813344Y-109193251D01*
X91762728Y-109233927D01*
X91722760Y-109200296D01*
X91691874Y-109178585D01*
X91661759Y-109171091D01*
X91627292Y-109172921D01*
X91572561Y-109186529D01*
X91534886Y-109214773D01*
X91511991Y-109260434D01*
X91501597Y-109326290D01*
X91501595Y-109326332D01*
X91502494Y-109399940D01*
X91516463Y-109453947D01*
X91544328Y-109490717D01*
X91563325Y-109503169D01*
X91613776Y-109518674D01*
X91667663Y-109518684D01*
X91714546Y-109503639D01*
X91725644Y-109496288D01*
X91753476Y-109477512D01*
X91775236Y-109474435D01*
X91798704Y-109488410D01*
X91824649Y-109513511D01*
X91865716Y-109555881D01*
X91820121Y-109593465D01*
X91749674Y-109635883D01*
X91670233Y-109656786D01*
X91587215Y-109655273D01*
X91532694Y-109641412D01*
X91468970Y-109607136D01*
X91418005Y-109553213D01*
X91394851Y-109515150D01*
X91376099Y-109460537D01*
X91366715Y-109391370D01*
X91366643Y-109316408D01*
X91375824Y-109244410D01*
X91394199Y-109184138D01*
X91397093Y-109177959D01*
X91439952Y-109117352D01*
X91497979Y-109073225D01*
X91566591Y-109046494D01*
X91641201Y-109038074D01*
X91717226Y-109048881D01*
G37*
X91717226Y-109048881D02*
X91790080Y-109079831D01*
X91813027Y-109094896D01*
X91842354Y-109118049D01*
X91860764Y-109136254D01*
X91863961Y-109142184D01*
X91854935Y-109155341D01*
X91831837Y-109177668D01*
X91813344Y-109193251D01*
X91762728Y-109233927D01*
X91722760Y-109200296D01*
X91691874Y-109178585D01*
X91661759Y-109171091D01*
X91627292Y-109172921D01*
X91572561Y-109186529D01*
X91534886Y-109214773D01*
X91511991Y-109260434D01*
X91501597Y-109326290D01*
X91501595Y-109326332D01*
X91502494Y-109399940D01*
X91516463Y-109453947D01*
X91544328Y-109490717D01*
X91563325Y-109503169D01*
X91613776Y-109518674D01*
X91667663Y-109518684D01*
X91714546Y-109503639D01*
X91725644Y-109496288D01*
X91753476Y-109477512D01*
X91775236Y-109474435D01*
X91798704Y-109488410D01*
X91824649Y-109513511D01*
X91865716Y-109555881D01*
X91820121Y-109593465D01*
X91749674Y-109635883D01*
X91670233Y-109656786D01*
X91587215Y-109655273D01*
X91532694Y-109641412D01*
X91468970Y-109607136D01*
X91418005Y-109553213D01*
X91394851Y-109515150D01*
X91376099Y-109460537D01*
X91366715Y-109391370D01*
X91366643Y-109316408D01*
X91375824Y-109244410D01*
X91394199Y-109184138D01*
X91397093Y-109177959D01*
X91439952Y-109117352D01*
X91497979Y-109073225D01*
X91566591Y-109046494D01*
X91641201Y-109038074D01*
X91717226Y-109048881D01*
G36*
X90493367Y-109239343D02*
G01*
X90494555Y-109331564D01*
X90498897Y-109401611D01*
X90507558Y-109452382D01*
X90521704Y-109486773D01*
X90542500Y-109507680D01*
X90571110Y-109518001D01*
X90606535Y-109520637D01*
X90643636Y-109517683D01*
X90671818Y-109506890D01*
X90692243Y-109485361D01*
X90706079Y-109450200D01*
X90714491Y-109398511D01*
X90718643Y-109327395D01*
X90719703Y-109239343D01*
X90719703Y-109043615D01*
X90858020Y-109043615D01*
X90858020Y-109647180D01*
X90788862Y-109647180D01*
X90747170Y-109645490D01*
X90725701Y-109639557D01*
X90719703Y-109628294D01*
X90716091Y-109618262D01*
X90701714Y-109620384D01*
X90672736Y-109634581D01*
X90606319Y-109656481D01*
X90535875Y-109654929D01*
X90468377Y-109631148D01*
X90436233Y-109612363D01*
X90411715Y-109592023D01*
X90393804Y-109566574D01*
X90381479Y-109532459D01*
X90373723Y-109486122D01*
X90369516Y-109424008D01*
X90367840Y-109342562D01*
X90367624Y-109279579D01*
X90367624Y-109043615D01*
X90493367Y-109043615D01*
X90493367Y-109239343D01*
G37*
X90493367Y-109239343D02*
X90494555Y-109331564D01*
X90498897Y-109401611D01*
X90507558Y-109452382D01*
X90521704Y-109486773D01*
X90542500Y-109507680D01*
X90571110Y-109518001D01*
X90606535Y-109520637D01*
X90643636Y-109517683D01*
X90671818Y-109506890D01*
X90692243Y-109485361D01*
X90706079Y-109450200D01*
X90714491Y-109398511D01*
X90718643Y-109327395D01*
X90719703Y-109239343D01*
X90719703Y-109043615D01*
X90858020Y-109043615D01*
X90858020Y-109647180D01*
X90788862Y-109647180D01*
X90747170Y-109645490D01*
X90725701Y-109639557D01*
X90719703Y-109628294D01*
X90716091Y-109618262D01*
X90701714Y-109620384D01*
X90672736Y-109634581D01*
X90606319Y-109656481D01*
X90535875Y-109654929D01*
X90468377Y-109631148D01*
X90436233Y-109612363D01*
X90411715Y-109592023D01*
X90393804Y-109566574D01*
X90381479Y-109532459D01*
X90373723Y-109486122D01*
X90369516Y-109424008D01*
X90367840Y-109342562D01*
X90367624Y-109279579D01*
X90367624Y-109043615D01*
X90493367Y-109043615D01*
X90493367Y-109239343D01*
G36*
X90110762Y-109051056D02*
G01*
X90174363Y-109085693D01*
X90224123Y-109140373D01*
X90247568Y-109184843D01*
X90257634Y-109224122D01*
X90264156Y-109280117D01*
X90266951Y-109344622D01*
X90265836Y-109409430D01*
X90260626Y-109466335D01*
X90254541Y-109496728D01*
X90234014Y-109538307D01*
X90198463Y-109582469D01*
X90155619Y-109621088D01*
X90113211Y-109646035D01*
X90112177Y-109646431D01*
X90059553Y-109657332D01*
X89997188Y-109657602D01*
X89937924Y-109647677D01*
X89915040Y-109639723D01*
X89856102Y-109606301D01*
X89813890Y-109562512D01*
X89786156Y-109504539D01*
X89770651Y-109428566D01*
X89767143Y-109388772D01*
X89767590Y-109338767D01*
X89902376Y-109338767D01*
X89906917Y-109411733D01*
X89919986Y-109467335D01*
X89940756Y-109502862D01*
X89955552Y-109513021D01*
X89993464Y-109520105D01*
X90038527Y-109518008D01*
X90077487Y-109507813D01*
X90087704Y-109502205D01*
X90114659Y-109469539D01*
X90132451Y-109419546D01*
X90140024Y-109358706D01*
X90136325Y-109293498D01*
X90128057Y-109254254D01*
X90104320Y-109208806D01*
X90066849Y-109180397D01*
X90021720Y-109170574D01*
X89975011Y-109180888D01*
X89939132Y-109206113D01*
X89920277Y-109226926D01*
X89909272Y-109247440D01*
X89904026Y-109275204D01*
X89902449Y-109317763D01*
X89902376Y-109338767D01*
X89767590Y-109338767D01*
X89768094Y-109282581D01*
X89785388Y-109195502D01*
X89819029Y-109127531D01*
X89869018Y-109078665D01*
X89935356Y-109048900D01*
X89949601Y-109045449D01*
X90035210Y-109037346D01*
X90110762Y-109051056D01*
G37*
X90110762Y-109051056D02*
X90174363Y-109085693D01*
X90224123Y-109140373D01*
X90247568Y-109184843D01*
X90257634Y-109224122D01*
X90264156Y-109280117D01*
X90266951Y-109344622D01*
X90265836Y-109409430D01*
X90260626Y-109466335D01*
X90254541Y-109496728D01*
X90234014Y-109538307D01*
X90198463Y-109582469D01*
X90155619Y-109621088D01*
X90113211Y-109646035D01*
X90112177Y-109646431D01*
X90059553Y-109657332D01*
X89997188Y-109657602D01*
X89937924Y-109647677D01*
X89915040Y-109639723D01*
X89856102Y-109606301D01*
X89813890Y-109562512D01*
X89786156Y-109504539D01*
X89770651Y-109428566D01*
X89767143Y-109388772D01*
X89767590Y-109338767D01*
X89902376Y-109338767D01*
X89906917Y-109411733D01*
X89919986Y-109467335D01*
X89940756Y-109502862D01*
X89955552Y-109513021D01*
X89993464Y-109520105D01*
X90038527Y-109518008D01*
X90077487Y-109507813D01*
X90087704Y-109502205D01*
X90114659Y-109469539D01*
X90132451Y-109419546D01*
X90140024Y-109358706D01*
X90136325Y-109293498D01*
X90128057Y-109254254D01*
X90104320Y-109208806D01*
X90066849Y-109180397D01*
X90021720Y-109170574D01*
X89975011Y-109180888D01*
X89939132Y-109206113D01*
X89920277Y-109226926D01*
X89909272Y-109247440D01*
X89904026Y-109275204D01*
X89902449Y-109317763D01*
X89902376Y-109338767D01*
X89767590Y-109338767D01*
X89768094Y-109282581D01*
X89785388Y-109195502D01*
X89819029Y-109127531D01*
X89869018Y-109078665D01*
X89935356Y-109048900D01*
X89949601Y-109045449D01*
X90035210Y-109037346D01*
X90110762Y-109051056D01*
G36*
X89514017Y-109041453D02*
G01*
X89561634Y-109050483D01*
X89611034Y-109069371D01*
X89616312Y-109071778D01*
X89653774Y-109091477D01*
X89679717Y-109109782D01*
X89688103Y-109121509D01*
X89680117Y-109140633D01*
X89660720Y-109168851D01*
X89652110Y-109179385D01*
X89616628Y-109220848D01*
X89570885Y-109193859D01*
X89527350Y-109175879D01*
X89477050Y-109166268D01*
X89428812Y-109165661D01*
X89391467Y-109174692D01*
X89382505Y-109180328D01*
X89365437Y-109206172D01*
X89363363Y-109235942D01*
X89376134Y-109259198D01*
X89383688Y-109263709D01*
X89406325Y-109269310D01*
X89446115Y-109275893D01*
X89495166Y-109282184D01*
X89504215Y-109283171D01*
X89582996Y-109296799D01*
X89640136Y-109319947D01*
X89678030Y-109354753D01*
X89699079Y-109403355D01*
X89705635Y-109462719D01*
X89696577Y-109530199D01*
X89667164Y-109583189D01*
X89617278Y-109621784D01*
X89546800Y-109646082D01*
X89468565Y-109655668D01*
X89404766Y-109655553D01*
X89353016Y-109646846D01*
X89317673Y-109634826D01*
X89273017Y-109613881D01*
X89231747Y-109589575D01*
X89217079Y-109578877D01*
X89179357Y-109548085D01*
X89224852Y-109502050D01*
X89270347Y-109456014D01*
X89322072Y-109490244D01*
X89373952Y-109515953D01*
X89429351Y-109529400D01*
X89482605Y-109530819D01*
X89528049Y-109520444D01*
X89560016Y-109498508D01*
X89570338Y-109479999D01*
X89568789Y-109450315D01*
X89543140Y-109427616D01*
X89493460Y-109411941D01*
X89439031Y-109404696D01*
X89355264Y-109390874D01*
X89293033Y-109364797D01*
X89251507Y-109325700D01*
X89229853Y-109272821D01*
X89226853Y-109210127D01*
X89241671Y-109144643D01*
X89275454Y-109095145D01*
X89328505Y-109061409D01*
X89401126Y-109043208D01*
X89454928Y-109039640D01*
X89514017Y-109041453D01*
G37*
X89514017Y-109041453D02*
X89561634Y-109050483D01*
X89611034Y-109069371D01*
X89616312Y-109071778D01*
X89653774Y-109091477D01*
X89679717Y-109109782D01*
X89688103Y-109121509D01*
X89680117Y-109140633D01*
X89660720Y-109168851D01*
X89652110Y-109179385D01*
X89616628Y-109220848D01*
X89570885Y-109193859D01*
X89527350Y-109175879D01*
X89477050Y-109166268D01*
X89428812Y-109165661D01*
X89391467Y-109174692D01*
X89382505Y-109180328D01*
X89365437Y-109206172D01*
X89363363Y-109235942D01*
X89376134Y-109259198D01*
X89383688Y-109263709D01*
X89406325Y-109269310D01*
X89446115Y-109275893D01*
X89495166Y-109282184D01*
X89504215Y-109283171D01*
X89582996Y-109296799D01*
X89640136Y-109319947D01*
X89678030Y-109354753D01*
X89699079Y-109403355D01*
X89705635Y-109462719D01*
X89696577Y-109530199D01*
X89667164Y-109583189D01*
X89617278Y-109621784D01*
X89546800Y-109646082D01*
X89468565Y-109655668D01*
X89404766Y-109655553D01*
X89353016Y-109646846D01*
X89317673Y-109634826D01*
X89273017Y-109613881D01*
X89231747Y-109589575D01*
X89217079Y-109578877D01*
X89179357Y-109548085D01*
X89224852Y-109502050D01*
X89270347Y-109456014D01*
X89322072Y-109490244D01*
X89373952Y-109515953D01*
X89429351Y-109529400D01*
X89482605Y-109530819D01*
X89528049Y-109520444D01*
X89560016Y-109498508D01*
X89570338Y-109479999D01*
X89568789Y-109450315D01*
X89543140Y-109427616D01*
X89493460Y-109411941D01*
X89439031Y-109404696D01*
X89355264Y-109390874D01*
X89293033Y-109364797D01*
X89251507Y-109325700D01*
X89229853Y-109272821D01*
X89226853Y-109210127D01*
X89241671Y-109144643D01*
X89275454Y-109095145D01*
X89328505Y-109061409D01*
X89401126Y-109043208D01*
X89454928Y-109039640D01*
X89514017Y-109041453D01*
G36*
X88143301Y-109057615D02*
G01*
X88155832Y-109063515D01*
X88199201Y-109095284D01*
X88240210Y-109141647D01*
X88270832Y-109192697D01*
X88279541Y-109216167D01*
X88287488Y-109258092D01*
X88292226Y-109308758D01*
X88292801Y-109329680D01*
X88292871Y-109395694D01*
X87912917Y-109395694D01*
X87921017Y-109430274D01*
X87940896Y-109471171D01*
X87975653Y-109506515D01*
X88017002Y-109529283D01*
X88043351Y-109534011D01*
X88079084Y-109528274D01*
X88121718Y-109513883D01*
X88136201Y-109507263D01*
X88189760Y-109480514D01*
X88235467Y-109515377D01*
X88261842Y-109538956D01*
X88275876Y-109558418D01*
X88276586Y-109564130D01*
X88264049Y-109577974D01*
X88236572Y-109599013D01*
X88211634Y-109615426D01*
X88144336Y-109644931D01*
X88068890Y-109658285D01*
X87994112Y-109654813D01*
X87934505Y-109636664D01*
X87873059Y-109597785D01*
X87829392Y-109546596D01*
X87802074Y-109480368D01*
X87789678Y-109396372D01*
X87788579Y-109357937D01*
X87792978Y-109269862D01*
X87793518Y-109267300D01*
X87919418Y-109267300D01*
X87922885Y-109275559D01*
X87937137Y-109280114D01*
X87966530Y-109282066D01*
X88015425Y-109282518D01*
X88034252Y-109282526D01*
X88091533Y-109281844D01*
X88127859Y-109279365D01*
X88147396Y-109274444D01*
X88154310Y-109266435D01*
X88154555Y-109263863D01*
X88146664Y-109243424D01*
X88126915Y-109214790D01*
X88118425Y-109204764D01*
X88086906Y-109176409D01*
X88054051Y-109165260D01*
X88036349Y-109164328D01*
X87988461Y-109175982D01*
X87948301Y-109207286D01*
X87922827Y-109252753D01*
X87922375Y-109254234D01*
X87919418Y-109267300D01*
X87793518Y-109267300D01*
X87807608Y-109200511D01*
X87833962Y-109145026D01*
X87866193Y-109105640D01*
X87925783Y-109062932D01*
X87995832Y-109040110D01*
X88070339Y-109038047D01*
X88143301Y-109057615D01*
G37*
X88143301Y-109057615D02*
X88155832Y-109063515D01*
X88199201Y-109095284D01*
X88240210Y-109141647D01*
X88270832Y-109192697D01*
X88279541Y-109216167D01*
X88287488Y-109258092D01*
X88292226Y-109308758D01*
X88292801Y-109329680D01*
X88292871Y-109395694D01*
X87912917Y-109395694D01*
X87921017Y-109430274D01*
X87940896Y-109471171D01*
X87975653Y-109506515D01*
X88017002Y-109529283D01*
X88043351Y-109534011D01*
X88079084Y-109528274D01*
X88121718Y-109513883D01*
X88136201Y-109507263D01*
X88189760Y-109480514D01*
X88235467Y-109515377D01*
X88261842Y-109538956D01*
X88275876Y-109558418D01*
X88276586Y-109564130D01*
X88264049Y-109577974D01*
X88236572Y-109599013D01*
X88211634Y-109615426D01*
X88144336Y-109644931D01*
X88068890Y-109658285D01*
X87994112Y-109654813D01*
X87934505Y-109636664D01*
X87873059Y-109597785D01*
X87829392Y-109546596D01*
X87802074Y-109480368D01*
X87789678Y-109396372D01*
X87788579Y-109357937D01*
X87792978Y-109269862D01*
X87793518Y-109267300D01*
X87919418Y-109267300D01*
X87922885Y-109275559D01*
X87937137Y-109280114D01*
X87966530Y-109282066D01*
X88015425Y-109282518D01*
X88034252Y-109282526D01*
X88091533Y-109281844D01*
X88127859Y-109279365D01*
X88147396Y-109274444D01*
X88154310Y-109266435D01*
X88154555Y-109263863D01*
X88146664Y-109243424D01*
X88126915Y-109214790D01*
X88118425Y-109204764D01*
X88086906Y-109176409D01*
X88054051Y-109165260D01*
X88036349Y-109164328D01*
X87988461Y-109175982D01*
X87948301Y-109207286D01*
X87922827Y-109252753D01*
X87922375Y-109254234D01*
X87919418Y-109267300D01*
X87793518Y-109267300D01*
X87807608Y-109200511D01*
X87833962Y-109145026D01*
X87866193Y-109105640D01*
X87925783Y-109062932D01*
X87995832Y-109040110D01*
X88070339Y-109038047D01*
X88143301Y-109057615D01*
G36*
X86961739Y-109050149D02*
G01*
X87027521Y-109079232D01*
X87077460Y-109127794D01*
X87111626Y-109195909D01*
X87130093Y-109283652D01*
X87131417Y-109297352D01*
X87132454Y-109393940D01*
X87119007Y-109478603D01*
X87091892Y-109547222D01*
X87077373Y-109569295D01*
X87026799Y-109616012D01*
X86962391Y-109646269D01*
X86890334Y-109658825D01*
X86816815Y-109652440D01*
X86760928Y-109632773D01*
X86712868Y-109599630D01*
X86673588Y-109556176D01*
X86672908Y-109555159D01*
X86656956Y-109528339D01*
X86646590Y-109501369D01*
X86640312Y-109467333D01*
X86636627Y-109419311D01*
X86635003Y-109379932D01*
X86634328Y-109344220D01*
X86760045Y-109344220D01*
X86761274Y-109379771D01*
X86765734Y-109427095D01*
X86773603Y-109457466D01*
X86787793Y-109479073D01*
X86801083Y-109491695D01*
X86848198Y-109518123D01*
X86897495Y-109521654D01*
X86943407Y-109502640D01*
X86966362Y-109481332D01*
X86982904Y-109459860D01*
X86992579Y-109439314D01*
X86996826Y-109412575D01*
X86997080Y-109372524D01*
X86995772Y-109335639D01*
X86992957Y-109282948D01*
X86988495Y-109248773D01*
X86980452Y-109226481D01*
X86966897Y-109209443D01*
X86956155Y-109199704D01*
X86911223Y-109174124D01*
X86862751Y-109172848D01*
X86822106Y-109188000D01*
X86787433Y-109219643D01*
X86766776Y-109271621D01*
X86760045Y-109344220D01*
X86634328Y-109344220D01*
X86633521Y-109301622D01*
X86636052Y-109243057D01*
X86643638Y-109199008D01*
X86657319Y-109164249D01*
X86678135Y-109133552D01*
X86685853Y-109124437D01*
X86734111Y-109079022D01*
X86785872Y-109052494D01*
X86849172Y-109041380D01*
X86880039Y-109040472D01*
X86961739Y-109050149D01*
G37*
X86961739Y-109050149D02*
X87027521Y-109079232D01*
X87077460Y-109127794D01*
X87111626Y-109195909D01*
X87130093Y-109283652D01*
X87131417Y-109297352D01*
X87132454Y-109393940D01*
X87119007Y-109478603D01*
X87091892Y-109547222D01*
X87077373Y-109569295D01*
X87026799Y-109616012D01*
X86962391Y-109646269D01*
X86890334Y-109658825D01*
X86816815Y-109652440D01*
X86760928Y-109632773D01*
X86712868Y-109599630D01*
X86673588Y-109556176D01*
X86672908Y-109555159D01*
X86656956Y-109528339D01*
X86646590Y-109501369D01*
X86640312Y-109467333D01*
X86636627Y-109419311D01*
X86635003Y-109379932D01*
X86634328Y-109344220D01*
X86760045Y-109344220D01*
X86761274Y-109379771D01*
X86765734Y-109427095D01*
X86773603Y-109457466D01*
X86787793Y-109479073D01*
X86801083Y-109491695D01*
X86848198Y-109518123D01*
X86897495Y-109521654D01*
X86943407Y-109502640D01*
X86966362Y-109481332D01*
X86982904Y-109459860D01*
X86992579Y-109439314D01*
X86996826Y-109412575D01*
X86997080Y-109372524D01*
X86995772Y-109335639D01*
X86992957Y-109282948D01*
X86988495Y-109248773D01*
X86980452Y-109226481D01*
X86966897Y-109209443D01*
X86956155Y-109199704D01*
X86911223Y-109174124D01*
X86862751Y-109172848D01*
X86822106Y-109188000D01*
X86787433Y-109219643D01*
X86766776Y-109271621D01*
X86760045Y-109344220D01*
X86634328Y-109344220D01*
X86633521Y-109301622D01*
X86636052Y-109243057D01*
X86643638Y-109199008D01*
X86657319Y-109164249D01*
X86678135Y-109133552D01*
X86685853Y-109124437D01*
X86734111Y-109079022D01*
X86785872Y-109052494D01*
X86849172Y-109041380D01*
X86880039Y-109040472D01*
X86961739Y-109050149D01*
G36*
X91532581Y-109989971D02*
G01*
X91592685Y-110005598D01*
X91643021Y-110037849D01*
X91667393Y-110061941D01*
X91707345Y-110118896D01*
X91730242Y-110184966D01*
X91738108Y-110266183D01*
X91738148Y-110272749D01*
X91738218Y-110338764D01*
X91358264Y-110338764D01*
X91366363Y-110373343D01*
X91380987Y-110404660D01*
X91406581Y-110437292D01*
X91411935Y-110442501D01*
X91457943Y-110470695D01*
X91510410Y-110475476D01*
X91570803Y-110456927D01*
X91581040Y-110451932D01*
X91612439Y-110436746D01*
X91633470Y-110428095D01*
X91637139Y-110427294D01*
X91649948Y-110435064D01*
X91674378Y-110454073D01*
X91686779Y-110464461D01*
X91712476Y-110488322D01*
X91720915Y-110504078D01*
X91715058Y-110518572D01*
X91711928Y-110522535D01*
X91690725Y-110539880D01*
X91655738Y-110560960D01*
X91631337Y-110573266D01*
X91562072Y-110594947D01*
X91485388Y-110601972D01*
X91412765Y-110593648D01*
X91392426Y-110587687D01*
X91329476Y-110553953D01*
X91282815Y-110502046D01*
X91252173Y-110431460D01*
X91237282Y-110341693D01*
X91235647Y-110294754D01*
X91240421Y-110226414D01*
X91360990Y-110226414D01*
X91372652Y-110231466D01*
X91403998Y-110235430D01*
X91449571Y-110237769D01*
X91480446Y-110238170D01*
X91535981Y-110237784D01*
X91571033Y-110235976D01*
X91590262Y-110231774D01*
X91598330Y-110224204D01*
X91599901Y-110213219D01*
X91589121Y-110179382D01*
X91561980Y-110145941D01*
X91526277Y-110120273D01*
X91490560Y-110109773D01*
X91442048Y-110119087D01*
X91400053Y-110146014D01*
X91370936Y-110184828D01*
X91360990Y-110226414D01*
X91240421Y-110226414D01*
X91242599Y-110195237D01*
X91264055Y-110115950D01*
X91300470Y-110056264D01*
X91352297Y-110015550D01*
X91419990Y-109993180D01*
X91456662Y-109988872D01*
X91532581Y-109989971D01*
G37*
X91532581Y-109989971D02*
X91592685Y-110005598D01*
X91643021Y-110037849D01*
X91667393Y-110061941D01*
X91707345Y-110118896D01*
X91730242Y-110184966D01*
X91738108Y-110266183D01*
X91738148Y-110272749D01*
X91738218Y-110338764D01*
X91358264Y-110338764D01*
X91366363Y-110373343D01*
X91380987Y-110404660D01*
X91406581Y-110437292D01*
X91411935Y-110442501D01*
X91457943Y-110470695D01*
X91510410Y-110475476D01*
X91570803Y-110456927D01*
X91581040Y-110451932D01*
X91612439Y-110436746D01*
X91633470Y-110428095D01*
X91637139Y-110427294D01*
X91649948Y-110435064D01*
X91674378Y-110454073D01*
X91686779Y-110464461D01*
X91712476Y-110488322D01*
X91720915Y-110504078D01*
X91715058Y-110518572D01*
X91711928Y-110522535D01*
X91690725Y-110539880D01*
X91655738Y-110560960D01*
X91631337Y-110573266D01*
X91562072Y-110594947D01*
X91485388Y-110601972D01*
X91412765Y-110593648D01*
X91392426Y-110587687D01*
X91329476Y-110553953D01*
X91282815Y-110502046D01*
X91252173Y-110431460D01*
X91237282Y-110341693D01*
X91235647Y-110294754D01*
X91240421Y-110226414D01*
X91360990Y-110226414D01*
X91372652Y-110231466D01*
X91403998Y-110235430D01*
X91449571Y-110237769D01*
X91480446Y-110238170D01*
X91535981Y-110237784D01*
X91571033Y-110235976D01*
X91590262Y-110231774D01*
X91598330Y-110224204D01*
X91599901Y-110213219D01*
X91589121Y-110179382D01*
X91561980Y-110145941D01*
X91526277Y-110120273D01*
X91490560Y-110109773D01*
X91442048Y-110119087D01*
X91400053Y-110146014D01*
X91370936Y-110184828D01*
X91360990Y-110226414D01*
X91240421Y-110226414D01*
X91242599Y-110195237D01*
X91264055Y-110115950D01*
X91300470Y-110056264D01*
X91352297Y-110015550D01*
X91419990Y-109993180D01*
X91456662Y-109988872D01*
X91532581Y-109989971D01*
G36*
X91135255Y-109986487D02*
G01*
X91183595Y-109996016D01*
X91211114Y-110010126D01*
X91240064Y-110033569D01*
X91198876Y-110085572D01*
X91173482Y-110117065D01*
X91156238Y-110132429D01*
X91139102Y-110134777D01*
X91114027Y-110127218D01*
X91102257Y-110122942D01*
X91054270Y-110116632D01*
X91010324Y-110130157D01*
X90978060Y-110160711D01*
X90972819Y-110170453D01*
X90967112Y-110196259D01*
X90962706Y-110243818D01*
X90959811Y-110309759D01*
X90958631Y-110390711D01*
X90958614Y-110402227D01*
X90958614Y-110602823D01*
X90820297Y-110602823D01*
X90820297Y-109986684D01*
X90889456Y-109986684D01*
X90929333Y-109987726D01*
X90950107Y-109992359D01*
X90957789Y-110002850D01*
X90958614Y-110012746D01*
X90958614Y-110038807D01*
X90991745Y-110012746D01*
X91029735Y-109994966D01*
X91080770Y-109986175D01*
X91135255Y-109986487D01*
G37*
X91135255Y-109986487D02*
X91183595Y-109996016D01*
X91211114Y-110010126D01*
X91240064Y-110033569D01*
X91198876Y-110085572D01*
X91173482Y-110117065D01*
X91156238Y-110132429D01*
X91139102Y-110134777D01*
X91114027Y-110127218D01*
X91102257Y-110122942D01*
X91054270Y-110116632D01*
X91010324Y-110130157D01*
X90978060Y-110160711D01*
X90972819Y-110170453D01*
X90967112Y-110196259D01*
X90962706Y-110243818D01*
X90959811Y-110309759D01*
X90958631Y-110390711D01*
X90958614Y-110402227D01*
X90958614Y-110602823D01*
X90820297Y-110602823D01*
X90820297Y-109986684D01*
X90889456Y-109986684D01*
X90929333Y-109987726D01*
X90950107Y-109992359D01*
X90957789Y-110002850D01*
X90958614Y-110012746D01*
X90958614Y-110038807D01*
X90991745Y-110012746D01*
X91029735Y-109994966D01*
X91080770Y-109986175D01*
X91135255Y-109986487D01*
G36*
X90538411Y-109990418D02*
G01*
X90591411Y-110003291D01*
X90606731Y-110010111D01*
X90636428Y-110027975D01*
X90659220Y-110048094D01*
X90676083Y-110073963D01*
X90687998Y-110109074D01*
X90695942Y-110156921D01*
X90700894Y-110220997D01*
X90703831Y-110304795D01*
X90704947Y-110360769D01*
X90709052Y-110602823D01*
X90638932Y-110602823D01*
X90596393Y-110601039D01*
X90574476Y-110594943D01*
X90568812Y-110584707D01*
X90565821Y-110573638D01*
X90552451Y-110575755D01*
X90534233Y-110584630D01*
X90488624Y-110598234D01*
X90430007Y-110601900D01*
X90368354Y-110595904D01*
X90313638Y-110580522D01*
X90308730Y-110578387D01*
X90258723Y-110543256D01*
X90225756Y-110494420D01*
X90210587Y-110437334D01*
X90211746Y-110416825D01*
X90335508Y-110416825D01*
X90346413Y-110444426D01*
X90378745Y-110464205D01*
X90430910Y-110474820D01*
X90458787Y-110476229D01*
X90505247Y-110472621D01*
X90536129Y-110458598D01*
X90543664Y-110451932D01*
X90564076Y-110415667D01*
X90568812Y-110382774D01*
X90568812Y-110338764D01*
X90507513Y-110338764D01*
X90436256Y-110342396D01*
X90386276Y-110353819D01*
X90354696Y-110373825D01*
X90347626Y-110382744D01*
X90335508Y-110416825D01*
X90211746Y-110416825D01*
X90213971Y-110377457D01*
X90236663Y-110320245D01*
X90267624Y-110281581D01*
X90286376Y-110264865D01*
X90304733Y-110253879D01*
X90328619Y-110247181D01*
X90363957Y-110243327D01*
X90416669Y-110240874D01*
X90437577Y-110240169D01*
X90568812Y-110235880D01*
X90568620Y-110196159D01*
X90563537Y-110154406D01*
X90545162Y-110129159D01*
X90508039Y-110113031D01*
X90507043Y-110112743D01*
X90454410Y-110106401D01*
X90402906Y-110114685D01*
X90364630Y-110134828D01*
X90349272Y-110144774D01*
X90332730Y-110143398D01*
X90307275Y-110128988D01*
X90292328Y-110118818D01*
X90263091Y-110097089D01*
X90244980Y-110080801D01*
X90242074Y-110076138D01*
X90254040Y-110052006D01*
X90289396Y-110023186D01*
X90304753Y-110013462D01*
X90348901Y-109996715D01*
X90408398Y-109987228D01*
X90474487Y-109985096D01*
X90538411Y-109990418D01*
G37*
X90538411Y-109990418D02*
X90591411Y-110003291D01*
X90606731Y-110010111D01*
X90636428Y-110027975D01*
X90659220Y-110048094D01*
X90676083Y-110073963D01*
X90687998Y-110109074D01*
X90695942Y-110156921D01*
X90700894Y-110220997D01*
X90703831Y-110304795D01*
X90704947Y-110360769D01*
X90709052Y-110602823D01*
X90638932Y-110602823D01*
X90596393Y-110601039D01*
X90574476Y-110594943D01*
X90568812Y-110584707D01*
X90565821Y-110573638D01*
X90552451Y-110575755D01*
X90534233Y-110584630D01*
X90488624Y-110598234D01*
X90430007Y-110601900D01*
X90368354Y-110595904D01*
X90313638Y-110580522D01*
X90308730Y-110578387D01*
X90258723Y-110543256D01*
X90225756Y-110494420D01*
X90210587Y-110437334D01*
X90211746Y-110416825D01*
X90335508Y-110416825D01*
X90346413Y-110444426D01*
X90378745Y-110464205D01*
X90430910Y-110474820D01*
X90458787Y-110476229D01*
X90505247Y-110472621D01*
X90536129Y-110458598D01*
X90543664Y-110451932D01*
X90564076Y-110415667D01*
X90568812Y-110382774D01*
X90568812Y-110338764D01*
X90507513Y-110338764D01*
X90436256Y-110342396D01*
X90386276Y-110353819D01*
X90354696Y-110373825D01*
X90347626Y-110382744D01*
X90335508Y-110416825D01*
X90211746Y-110416825D01*
X90213971Y-110377457D01*
X90236663Y-110320245D01*
X90267624Y-110281581D01*
X90286376Y-110264865D01*
X90304733Y-110253879D01*
X90328619Y-110247181D01*
X90363957Y-110243327D01*
X90416669Y-110240874D01*
X90437577Y-110240169D01*
X90568812Y-110235880D01*
X90568620Y-110196159D01*
X90563537Y-110154406D01*
X90545162Y-110129159D01*
X90508039Y-110113031D01*
X90507043Y-110112743D01*
X90454410Y-110106401D01*
X90402906Y-110114685D01*
X90364630Y-110134828D01*
X90349272Y-110144774D01*
X90332730Y-110143398D01*
X90307275Y-110128988D01*
X90292328Y-110118818D01*
X90263091Y-110097089D01*
X90244980Y-110080801D01*
X90242074Y-110076138D01*
X90254040Y-110052006D01*
X90289396Y-110023186D01*
X90304753Y-110013462D01*
X90348901Y-109996715D01*
X90408398Y-109987228D01*
X90474487Y-109985096D01*
X90538411Y-109990418D01*
G36*
X89781524Y-109989238D02*
G01*
X89831255Y-109992972D01*
X89961291Y-110382774D01*
X89981678Y-110313615D01*
X89993946Y-110270875D01*
X90010085Y-110213116D01*
X90027512Y-110149626D01*
X90036726Y-110115571D01*
X90071388Y-109986684D01*
X90214391Y-109986684D01*
X90171646Y-110121858D01*
X90150596Y-110188343D01*
X90125167Y-110268540D01*
X90098610Y-110352194D01*
X90074902Y-110426783D01*
X90020902Y-110596536D01*
X89962598Y-110600329D01*
X89904295Y-110604123D01*
X89872679Y-110499735D01*
X89853182Y-110434890D01*
X89831904Y-110363401D01*
X89813308Y-110300264D01*
X89812574Y-110297751D01*
X89798684Y-110254970D01*
X89786429Y-110225780D01*
X89777846Y-110214742D01*
X89776082Y-110216019D01*
X89769891Y-110233131D01*
X89758128Y-110269788D01*
X89742225Y-110321379D01*
X89723614Y-110383295D01*
X89713543Y-110417353D01*
X89659007Y-110602823D01*
X89543264Y-110602823D01*
X89450737Y-110310472D01*
X89424744Y-110228463D01*
X89401066Y-110153988D01*
X89380820Y-110090545D01*
X89365126Y-110041633D01*
X89355102Y-110010750D01*
X89352055Y-110001727D01*
X89354467Y-109992488D01*
X89373408Y-109988442D01*
X89412823Y-109988847D01*
X89418993Y-109989153D01*
X89492086Y-109992972D01*
X89539957Y-110169011D01*
X89557553Y-110233212D01*
X89573277Y-110289650D01*
X89585746Y-110333423D01*
X89593574Y-110359631D01*
X89595020Y-110363904D01*
X89601014Y-110358991D01*
X89613101Y-110333533D01*
X89629893Y-110290998D01*
X89650003Y-110234851D01*
X89667003Y-110184131D01*
X89731794Y-109985505D01*
X89781524Y-109989238D01*
G37*
X89781524Y-109989238D02*
X89831255Y-109992972D01*
X89961291Y-110382774D01*
X89981678Y-110313615D01*
X89993946Y-110270875D01*
X90010085Y-110213116D01*
X90027512Y-110149626D01*
X90036726Y-110115571D01*
X90071388Y-109986684D01*
X90214391Y-109986684D01*
X90171646Y-110121858D01*
X90150596Y-110188343D01*
X90125167Y-110268540D01*
X90098610Y-110352194D01*
X90074902Y-110426783D01*
X90020902Y-110596536D01*
X89962598Y-110600329D01*
X89904295Y-110604123D01*
X89872679Y-110499735D01*
X89853182Y-110434890D01*
X89831904Y-110363401D01*
X89813308Y-110300264D01*
X89812574Y-110297751D01*
X89798684Y-110254970D01*
X89786429Y-110225780D01*
X89777846Y-110214742D01*
X89776082Y-110216019D01*
X89769891Y-110233131D01*
X89758128Y-110269788D01*
X89742225Y-110321379D01*
X89723614Y-110383295D01*
X89713543Y-110417353D01*
X89659007Y-110602823D01*
X89543264Y-110602823D01*
X89450737Y-110310472D01*
X89424744Y-110228463D01*
X89401066Y-110153988D01*
X89380820Y-110090545D01*
X89365126Y-110041633D01*
X89355102Y-110010750D01*
X89352055Y-110001727D01*
X89354467Y-109992488D01*
X89373408Y-109988442D01*
X89412823Y-109988847D01*
X89418993Y-109989153D01*
X89492086Y-109992972D01*
X89539957Y-110169011D01*
X89557553Y-110233212D01*
X89573277Y-110289650D01*
X89585746Y-110333423D01*
X89593574Y-110359631D01*
X89595020Y-110363904D01*
X89601014Y-110358991D01*
X89613101Y-110333533D01*
X89629893Y-110290998D01*
X89650003Y-110234851D01*
X89667003Y-110184131D01*
X89731794Y-109985505D01*
X89781524Y-109989238D01*
G36*
X89298812Y-110602823D02*
G01*
X89229654Y-110602823D01*
X89189512Y-110601646D01*
X89168606Y-110596773D01*
X89161078Y-110586187D01*
X89160495Y-110579030D01*
X89159226Y-110564677D01*
X89151221Y-110561924D01*
X89130185Y-110570772D01*
X89113827Y-110579030D01*
X89051023Y-110598598D01*
X88982752Y-110599730D01*
X88927248Y-110585136D01*
X88875562Y-110549878D01*
X88836162Y-110497836D01*
X88814587Y-110436451D01*
X88814038Y-110433019D01*
X88810833Y-110395572D01*
X88809239Y-110341814D01*
X88809367Y-110301156D01*
X88946721Y-110301156D01*
X88949903Y-110355195D01*
X88957141Y-110399736D01*
X88966940Y-110424889D01*
X89004011Y-110459261D01*
X89048026Y-110471583D01*
X89093416Y-110461619D01*
X89132203Y-110431896D01*
X89146892Y-110411906D01*
X89155481Y-110388051D01*
X89159504Y-110353231D01*
X89160495Y-110300931D01*
X89158722Y-110249140D01*
X89154037Y-110203635D01*
X89147397Y-110173182D01*
X89146290Y-110170453D01*
X89119509Y-110138001D01*
X89080421Y-110120184D01*
X89036685Y-110117307D01*
X88995962Y-110129675D01*
X88965913Y-110157594D01*
X88962796Y-110163149D01*
X88953039Y-110197023D01*
X88947723Y-110245729D01*
X88946721Y-110301156D01*
X88809367Y-110301156D01*
X88809432Y-110280541D01*
X88810336Y-110247564D01*
X88816486Y-110165982D01*
X88829267Y-110104731D01*
X88850529Y-110059450D01*
X88882122Y-110025780D01*
X88912793Y-110006015D01*
X88955646Y-109992121D01*
X89008944Y-109987355D01*
X89063520Y-109991237D01*
X89110208Y-110003283D01*
X89134876Y-110017694D01*
X89160495Y-110040879D01*
X89160495Y-109747774D01*
X89298812Y-109747774D01*
X89298812Y-110602823D01*
G37*
X89298812Y-110602823D02*
X89229654Y-110602823D01*
X89189512Y-110601646D01*
X89168606Y-110596773D01*
X89161078Y-110586187D01*
X89160495Y-110579030D01*
X89159226Y-110564677D01*
X89151221Y-110561924D01*
X89130185Y-110570772D01*
X89113827Y-110579030D01*
X89051023Y-110598598D01*
X88982752Y-110599730D01*
X88927248Y-110585136D01*
X88875562Y-110549878D01*
X88836162Y-110497836D01*
X88814587Y-110436451D01*
X88814038Y-110433019D01*
X88810833Y-110395572D01*
X88809239Y-110341814D01*
X88809367Y-110301156D01*
X88946721Y-110301156D01*
X88949903Y-110355195D01*
X88957141Y-110399736D01*
X88966940Y-110424889D01*
X89004011Y-110459261D01*
X89048026Y-110471583D01*
X89093416Y-110461619D01*
X89132203Y-110431896D01*
X89146892Y-110411906D01*
X89155481Y-110388051D01*
X89159504Y-110353231D01*
X89160495Y-110300931D01*
X89158722Y-110249140D01*
X89154037Y-110203635D01*
X89147397Y-110173182D01*
X89146290Y-110170453D01*
X89119509Y-110138001D01*
X89080421Y-110120184D01*
X89036685Y-110117307D01*
X88995962Y-110129675D01*
X88965913Y-110157594D01*
X88962796Y-110163149D01*
X88953039Y-110197023D01*
X88947723Y-110245729D01*
X88946721Y-110301156D01*
X88809367Y-110301156D01*
X88809432Y-110280541D01*
X88810336Y-110247564D01*
X88816486Y-110165982D01*
X88829267Y-110104731D01*
X88850529Y-110059450D01*
X88882122Y-110025780D01*
X88912793Y-110006015D01*
X88955646Y-109992121D01*
X89008944Y-109987355D01*
X89063520Y-109991237D01*
X89110208Y-110003283D01*
X89134876Y-110017694D01*
X89160495Y-110040879D01*
X89160495Y-109747774D01*
X89298812Y-109747774D01*
X89298812Y-110602823D01*
G36*
X88506644Y-109988021D02*
G01*
X88525461Y-109993661D01*
X88531527Y-110006054D01*
X88531782Y-110011648D01*
X88532871Y-110027231D01*
X88540368Y-110029677D01*
X88560619Y-110018994D01*
X88572649Y-110011695D01*
X88610600Y-109996064D01*
X88655928Y-109988335D01*
X88703456Y-109987741D01*
X88748005Y-109993514D01*
X88784398Y-110004885D01*
X88807457Y-110021089D01*
X88812004Y-110041356D01*
X88809709Y-110046844D01*
X88792980Y-110069627D01*
X88767037Y-110097648D01*
X88762345Y-110102178D01*
X88737617Y-110123006D01*
X88716282Y-110129736D01*
X88686445Y-110125039D01*
X88674492Y-110121918D01*
X88637295Y-110114422D01*
X88611141Y-110117793D01*
X88589054Y-110129682D01*
X88568822Y-110145636D01*
X88553921Y-110165701D01*
X88543566Y-110193703D01*
X88536971Y-110233468D01*
X88533351Y-110288824D01*
X88531922Y-110363595D01*
X88531782Y-110408741D01*
X88531782Y-110602823D01*
X88406040Y-110602823D01*
X88406040Y-109986684D01*
X88468911Y-109986684D01*
X88506644Y-109988021D01*
G37*
X88506644Y-109988021D02*
X88525461Y-109993661D01*
X88531527Y-110006054D01*
X88531782Y-110011648D01*
X88532871Y-110027231D01*
X88540368Y-110029677D01*
X88560619Y-110018994D01*
X88572649Y-110011695D01*
X88610600Y-109996064D01*
X88655928Y-109988335D01*
X88703456Y-109987741D01*
X88748005Y-109993514D01*
X88784398Y-110004885D01*
X88807457Y-110021089D01*
X88812004Y-110041356D01*
X88809709Y-110046844D01*
X88792980Y-110069627D01*
X88767037Y-110097648D01*
X88762345Y-110102178D01*
X88737617Y-110123006D01*
X88716282Y-110129736D01*
X88686445Y-110125039D01*
X88674492Y-110121918D01*
X88637295Y-110114422D01*
X88611141Y-110117793D01*
X88589054Y-110129682D01*
X88568822Y-110145636D01*
X88553921Y-110165701D01*
X88543566Y-110193703D01*
X88536971Y-110233468D01*
X88533351Y-110288824D01*
X88531922Y-110363595D01*
X88531782Y-110408741D01*
X88531782Y-110602823D01*
X88406040Y-110602823D01*
X88406040Y-109986684D01*
X88468911Y-109986684D01*
X88506644Y-109988021D01*
G36*
X88115790Y-109991556D02*
G01*
X88174945Y-110007340D01*
X88219977Y-110035949D01*
X88251754Y-110073420D01*
X88261634Y-110089412D01*
X88268927Y-110106164D01*
X88274026Y-110127593D01*
X88277321Y-110157617D01*
X88279203Y-110200155D01*
X88280063Y-110259123D01*
X88280293Y-110338441D01*
X88280297Y-110359485D01*
X88280297Y-110602823D01*
X88219941Y-110602823D01*
X88181443Y-110600127D01*
X88152977Y-110593296D01*
X88145845Y-110589084D01*
X88126348Y-110581814D01*
X88106434Y-110589084D01*
X88073647Y-110598161D01*
X88026022Y-110601814D01*
X87973236Y-110600229D01*
X87924964Y-110593590D01*
X87896782Y-110585073D01*
X87842247Y-110550064D01*
X87808165Y-110501480D01*
X87792843Y-110436883D01*
X87792701Y-110435224D01*
X87794045Y-110406567D01*
X87915644Y-110406567D01*
X87926274Y-110439162D01*
X87943590Y-110457506D01*
X87978348Y-110471380D01*
X88024227Y-110476918D01*
X88071012Y-110474192D01*
X88108486Y-110463275D01*
X88118985Y-110456270D01*
X88137332Y-110423905D01*
X88141980Y-110387112D01*
X88141980Y-110338764D01*
X88072418Y-110338764D01*
X88006333Y-110343851D01*
X87956236Y-110358264D01*
X87925071Y-110380730D01*
X87915644Y-110406567D01*
X87794045Y-110406567D01*
X87796013Y-110364648D01*
X87819290Y-110308846D01*
X87863052Y-110266648D01*
X87869101Y-110262809D01*
X87895093Y-110250310D01*
X87927265Y-110242741D01*
X87972240Y-110239062D01*
X88025669Y-110238217D01*
X88141980Y-110238170D01*
X88141980Y-110189412D01*
X88137047Y-110151582D01*
X88124457Y-110126237D01*
X88122983Y-110124888D01*
X88094966Y-110113801D01*
X88052674Y-110109504D01*
X88005936Y-110111616D01*
X87964582Y-110119757D01*
X87940043Y-110131966D01*
X87926747Y-110141747D01*
X87912706Y-110143614D01*
X87893329Y-110135601D01*
X87864024Y-110115740D01*
X87820197Y-110082064D01*
X87816175Y-110078910D01*
X87818236Y-110067237D01*
X87835432Y-110047823D01*
X87861567Y-110026249D01*
X87890448Y-110008097D01*
X87899522Y-110003810D01*
X87932620Y-109995257D01*
X87981120Y-109989156D01*
X88035305Y-109986709D01*
X88037839Y-109986704D01*
X88115790Y-109991556D01*
G37*
X88115790Y-109991556D02*
X88174945Y-110007340D01*
X88219977Y-110035949D01*
X88251754Y-110073420D01*
X88261634Y-110089412D01*
X88268927Y-110106164D01*
X88274026Y-110127593D01*
X88277321Y-110157617D01*
X88279203Y-110200155D01*
X88280063Y-110259123D01*
X88280293Y-110338441D01*
X88280297Y-110359485D01*
X88280297Y-110602823D01*
X88219941Y-110602823D01*
X88181443Y-110600127D01*
X88152977Y-110593296D01*
X88145845Y-110589084D01*
X88126348Y-110581814D01*
X88106434Y-110589084D01*
X88073647Y-110598161D01*
X88026022Y-110601814D01*
X87973236Y-110600229D01*
X87924964Y-110593590D01*
X87896782Y-110585073D01*
X87842247Y-110550064D01*
X87808165Y-110501480D01*
X87792843Y-110436883D01*
X87792701Y-110435224D01*
X87794045Y-110406567D01*
X87915644Y-110406567D01*
X87926274Y-110439162D01*
X87943590Y-110457506D01*
X87978348Y-110471380D01*
X88024227Y-110476918D01*
X88071012Y-110474192D01*
X88108486Y-110463275D01*
X88118985Y-110456270D01*
X88137332Y-110423905D01*
X88141980Y-110387112D01*
X88141980Y-110338764D01*
X88072418Y-110338764D01*
X88006333Y-110343851D01*
X87956236Y-110358264D01*
X87925071Y-110380730D01*
X87915644Y-110406567D01*
X87794045Y-110406567D01*
X87796013Y-110364648D01*
X87819290Y-110308846D01*
X87863052Y-110266648D01*
X87869101Y-110262809D01*
X87895093Y-110250310D01*
X87927265Y-110242741D01*
X87972240Y-110239062D01*
X88025669Y-110238217D01*
X88141980Y-110238170D01*
X88141980Y-110189412D01*
X88137047Y-110151582D01*
X88124457Y-110126237D01*
X88122983Y-110124888D01*
X88094966Y-110113801D01*
X88052674Y-110109504D01*
X88005936Y-110111616D01*
X87964582Y-110119757D01*
X87940043Y-110131966D01*
X87926747Y-110141747D01*
X87912706Y-110143614D01*
X87893329Y-110135601D01*
X87864024Y-110115740D01*
X87820197Y-110082064D01*
X87816175Y-110078910D01*
X87818236Y-110067237D01*
X87835432Y-110047823D01*
X87861567Y-110026249D01*
X87890448Y-110008097D01*
X87899522Y-110003810D01*
X87932620Y-109995257D01*
X87981120Y-109989156D01*
X88035305Y-109986709D01*
X88037839Y-109986704D01*
X88115790Y-109991556D01*
G36*
X87591241Y-109054185D02*
G01*
X87617753Y-109067283D01*
X87650447Y-109090107D01*
X87674275Y-109114997D01*
X87690594Y-109146250D01*
X87700760Y-109188167D01*
X87706128Y-109245045D01*
X87708056Y-109321185D01*
X87708169Y-109353918D01*
X87707839Y-109425657D01*
X87706473Y-109476928D01*
X87703500Y-109512405D01*
X87698351Y-109536764D01*
X87690457Y-109554681D01*
X87682243Y-109566903D01*
X87629813Y-109618906D01*
X87568070Y-109650185D01*
X87501464Y-109659593D01*
X87434442Y-109645981D01*
X87413208Y-109636355D01*
X87362376Y-109609860D01*
X87362376Y-110025053D01*
X87399475Y-110005869D01*
X87448357Y-109991026D01*
X87508439Y-109987223D01*
X87568436Y-109994244D01*
X87613744Y-110010014D01*
X87651325Y-110040048D01*
X87683436Y-110083025D01*
X87685850Y-110087437D01*
X87696033Y-110108222D01*
X87703470Y-110129171D01*
X87708589Y-110154549D01*
X87711819Y-110188619D01*
X87713587Y-110235642D01*
X87714323Y-110299883D01*
X87714456Y-110372177D01*
X87714456Y-110602823D01*
X87576139Y-110602823D01*
X87576139Y-110177534D01*
X87537451Y-110144980D01*
X87497262Y-110118941D01*
X87459203Y-110114206D01*
X87420934Y-110126390D01*
X87400538Y-110138321D01*
X87385358Y-110155314D01*
X87374562Y-110180996D01*
X87367317Y-110218992D01*
X87362792Y-110272927D01*
X87360156Y-110346426D01*
X87359228Y-110395348D01*
X87356089Y-110596536D01*
X87290074Y-110600337D01*
X87224060Y-110604137D01*
X87224060Y-109355651D01*
X87362376Y-109355651D01*
X87365903Y-109425255D01*
X87377785Y-109473570D01*
X87399980Y-109503632D01*
X87434441Y-109518472D01*
X87469258Y-109521437D01*
X87508671Y-109518029D01*
X87534829Y-109504618D01*
X87551186Y-109486897D01*
X87564063Y-109467836D01*
X87571728Y-109446602D01*
X87575139Y-109416850D01*
X87575251Y-109372237D01*
X87574103Y-109334881D01*
X87571468Y-109278605D01*
X87567544Y-109241659D01*
X87560937Y-109218224D01*
X87550251Y-109202481D01*
X87540167Y-109193381D01*
X87498030Y-109173538D01*
X87448160Y-109170333D01*
X87419524Y-109177169D01*
X87391172Y-109201465D01*
X87372391Y-109248729D01*
X87363288Y-109318625D01*
X87362376Y-109355651D01*
X87224060Y-109355651D01*
X87224060Y-109043615D01*
X87293218Y-109043615D01*
X87334740Y-109045257D01*
X87356162Y-109051088D01*
X87362374Y-109062462D01*
X87362376Y-109062799D01*
X87365258Y-109073939D01*
X87377970Y-109072674D01*
X87403243Y-109060434D01*
X87462131Y-109041708D01*
X87528385Y-109039740D01*
X87591241Y-109054185D01*
G37*
X87591241Y-109054185D02*
X87617753Y-109067283D01*
X87650447Y-109090107D01*
X87674275Y-109114997D01*
X87690594Y-109146250D01*
X87700760Y-109188167D01*
X87706128Y-109245045D01*
X87708056Y-109321185D01*
X87708169Y-109353918D01*
X87707839Y-109425657D01*
X87706473Y-109476928D01*
X87703500Y-109512405D01*
X87698351Y-109536764D01*
X87690457Y-109554681D01*
X87682243Y-109566903D01*
X87629813Y-109618906D01*
X87568070Y-109650185D01*
X87501464Y-109659593D01*
X87434442Y-109645981D01*
X87413208Y-109636355D01*
X87362376Y-109609860D01*
X87362376Y-110025053D01*
X87399475Y-110005869D01*
X87448357Y-109991026D01*
X87508439Y-109987223D01*
X87568436Y-109994244D01*
X87613744Y-110010014D01*
X87651325Y-110040048D01*
X87683436Y-110083025D01*
X87685850Y-110087437D01*
X87696033Y-110108222D01*
X87703470Y-110129171D01*
X87708589Y-110154549D01*
X87711819Y-110188619D01*
X87713587Y-110235642D01*
X87714323Y-110299883D01*
X87714456Y-110372177D01*
X87714456Y-110602823D01*
X87576139Y-110602823D01*
X87576139Y-110177534D01*
X87537451Y-110144980D01*
X87497262Y-110118941D01*
X87459203Y-110114206D01*
X87420934Y-110126390D01*
X87400538Y-110138321D01*
X87385358Y-110155314D01*
X87374562Y-110180996D01*
X87367317Y-110218992D01*
X87362792Y-110272927D01*
X87360156Y-110346426D01*
X87359228Y-110395348D01*
X87356089Y-110596536D01*
X87290074Y-110600337D01*
X87224060Y-110604137D01*
X87224060Y-109355651D01*
X87362376Y-109355651D01*
X87365903Y-109425255D01*
X87377785Y-109473570D01*
X87399980Y-109503632D01*
X87434441Y-109518472D01*
X87469258Y-109521437D01*
X87508671Y-109518029D01*
X87534829Y-109504618D01*
X87551186Y-109486897D01*
X87564063Y-109467836D01*
X87571728Y-109446602D01*
X87575139Y-109416850D01*
X87575251Y-109372237D01*
X87574103Y-109334881D01*
X87571468Y-109278605D01*
X87567544Y-109241659D01*
X87560937Y-109218224D01*
X87550251Y-109202481D01*
X87540167Y-109193381D01*
X87498030Y-109173538D01*
X87448160Y-109170333D01*
X87419524Y-109177169D01*
X87391172Y-109201465D01*
X87372391Y-109248729D01*
X87363288Y-109318625D01*
X87362376Y-109355651D01*
X87224060Y-109355651D01*
X87224060Y-109043615D01*
X87293218Y-109043615D01*
X87334740Y-109045257D01*
X87356162Y-109051088D01*
X87362374Y-109062462D01*
X87362376Y-109062799D01*
X87365258Y-109073939D01*
X87377970Y-109072674D01*
X87403243Y-109060434D01*
X87462131Y-109041708D01*
X87528385Y-109039740D01*
X87591241Y-109054185D01*
G04 #@! TA.AperFunction,ComponentPad*
G36*
G01*
X164735000Y-71530001D02*
X164735000Y-73280001D01*
G75*
G02*
X163860000Y-74155001I-875000J0D01*
G01*
X162110000Y-74155001D01*
G75*
G02*
X161235000Y-73280001I0J875000D01*
G01*
X161235000Y-71530001D01*
G75*
G02*
X162110000Y-70655001I875000J0D01*
G01*
X163860000Y-70655001D01*
G75*
G02*
X164735000Y-71530001I0J-875000D01*
G01*
G37*
G04 #@! TD.AperFunction*
G04 #@! TA.AperFunction,ComponentPad*
G36*
G01*
X167485000Y-76105001D02*
X167485000Y-78105001D01*
G75*
G02*
X166735000Y-78855001I-750000J0D01*
G01*
X165235000Y-78855001D01*
G75*
G02*
X164485000Y-78105001I0J750000D01*
G01*
X164485000Y-76105001D01*
G75*
G02*
X165235000Y-75355001I750000J0D01*
G01*
X166735000Y-75355001D01*
G75*
G02*
X167485000Y-76105001I0J-750000D01*
G01*
G37*
G04 #@! TD.AperFunction*
D11*
X159985000Y-77105001D03*
G04 #@! TA.AperFunction,SMDPad,CuDef*
G36*
G01*
X149374999Y-66345001D02*
X150275001Y-66345001D01*
G75*
G02*
X150525000Y-66595000I0J-249999D01*
G01*
X150525000Y-67295002D01*
G75*
G02*
X150275001Y-67545001I-249999J0D01*
G01*
X149374999Y-67545001D01*
G75*
G02*
X149125000Y-67295002I0J249999D01*
G01*
X149125000Y-66595000D01*
G75*
G02*
X149374999Y-66345001I249999J0D01*
G01*
G37*
G04 #@! TD.AperFunction*
G04 #@! TA.AperFunction,SMDPad,CuDef*
G36*
G01*
X149374999Y-64345001D02*
X150275001Y-64345001D01*
G75*
G02*
X150525000Y-64595000I0J-249999D01*
G01*
X150525000Y-65295002D01*
G75*
G02*
X150275001Y-65545001I-249999J0D01*
G01*
X149374999Y-65545001D01*
G75*
G02*
X149125000Y-65295002I0J249999D01*
G01*
X149125000Y-64595000D01*
G75*
G02*
X149374999Y-64345001I249999J0D01*
G01*
G37*
G04 #@! TD.AperFunction*
G04 #@! TA.AperFunction,SMDPad,CuDef*
G36*
G01*
X151914999Y-66345001D02*
X152815001Y-66345001D01*
G75*
G02*
X153065000Y-66595000I0J-249999D01*
G01*
X153065000Y-67295002D01*
G75*
G02*
X152815001Y-67545001I-249999J0D01*
G01*
X151914999Y-67545001D01*
G75*
G02*
X151665000Y-67295002I0J249999D01*
G01*
X151665000Y-66595000D01*
G75*
G02*
X151914999Y-66345001I249999J0D01*
G01*
G37*
G04 #@! TD.AperFunction*
G04 #@! TA.AperFunction,SMDPad,CuDef*
G36*
G01*
X151914999Y-64345001D02*
X152815001Y-64345001D01*
G75*
G02*
X153065000Y-64595000I0J-249999D01*
G01*
X153065000Y-65295002D01*
G75*
G02*
X152815001Y-65545001I-249999J0D01*
G01*
X151914999Y-65545001D01*
G75*
G02*
X151665000Y-65295002I0J249999D01*
G01*
X151665000Y-64595000D01*
G75*
G02*
X151914999Y-64345001I249999J0D01*
G01*
G37*
G04 #@! TD.AperFunction*
D12*
X152365000Y-69485001D03*
X152365000Y-72025001D03*
X152365000Y-74565001D03*
X152365000Y-77105001D03*
D13*
X122800000Y-69320001D03*
X122800000Y-71320001D03*
X122800000Y-73320001D03*
X122800000Y-75320001D03*
X122800000Y-77320001D03*
X145500000Y-67320001D03*
X145500000Y-69320001D03*
X145500000Y-71320001D03*
X145500000Y-73320001D03*
X145500000Y-75320001D03*
X145500000Y-77320001D03*
D14*
X145500000Y-79320001D03*
D13*
X127600000Y-81550001D03*
X132680000Y-81550001D03*
X130140000Y-81550001D03*
X135220000Y-81550001D03*
X137760000Y-81550001D03*
X140300000Y-81550001D03*
D15*
X170180000Y-90440001D03*
X167640000Y-90440001D03*
X165100000Y-90440001D03*
X162560000Y-90440001D03*
X160020000Y-90440001D03*
X157480000Y-90440001D03*
X154940000Y-90440001D03*
X152400000Y-90440001D03*
X149860000Y-90440001D03*
X147320000Y-90440001D03*
X144780000Y-90440001D03*
X142240000Y-90440001D03*
X139700000Y-90440001D03*
X137160000Y-90440001D03*
X134620000Y-90440001D03*
X132080000Y-90440001D03*
X129540000Y-90440001D03*
X127000000Y-90440001D03*
D16*
X124460000Y-90440001D03*
D17*
X82365000Y-61095000D03*
X171365000Y-61095000D03*
X82365000Y-115095000D03*
X171365000Y-115095000D03*
D15*
X170180000Y-105680001D03*
X167640000Y-105680001D03*
X165100000Y-105680001D03*
X162560000Y-105680001D03*
X160020000Y-105680001D03*
X157480000Y-105680001D03*
X154940000Y-105680001D03*
X152400000Y-105680001D03*
X149860000Y-105680001D03*
X147320000Y-105680001D03*
X144780000Y-105680001D03*
X142240000Y-105680001D03*
X139700000Y-105680001D03*
X137160000Y-105680001D03*
X134620000Y-105680001D03*
X132080000Y-105680001D03*
X129540000Y-105680001D03*
X127000000Y-105680001D03*
D16*
X124460000Y-105680001D03*
D18*
X170180000Y-109490001D03*
X170180000Y-86630001D03*
X167640000Y-109490001D03*
X167640000Y-86630001D03*
X165100000Y-109490001D03*
X165100000Y-86630001D03*
D19*
X162560000Y-109490001D03*
X162560000Y-86630001D03*
D18*
X160020000Y-109490001D03*
X160020000Y-86630001D03*
X157480000Y-109490001D03*
X157480000Y-86630001D03*
X154940000Y-109490001D03*
X154940000Y-86630001D03*
X152400000Y-109490001D03*
X152400000Y-86630001D03*
X149860000Y-109490001D03*
X149860000Y-86630001D03*
X147320000Y-109490001D03*
X147320000Y-86630001D03*
X144780000Y-109490001D03*
X144780000Y-86630001D03*
X142240000Y-109490001D03*
X142240000Y-86630001D03*
X139700000Y-109490001D03*
X139700000Y-86630001D03*
X137160000Y-109490001D03*
X137160000Y-86630001D03*
X134620000Y-109490001D03*
X134620000Y-86630001D03*
X132080000Y-109490001D03*
X132080000Y-86630001D03*
X129540000Y-109490001D03*
X129540000Y-86630001D03*
X127000000Y-109490001D03*
X127000000Y-86630001D03*
X124460000Y-109490001D03*
X124460000Y-86630001D03*
D20*
X85690000Y-68850001D03*
X85690000Y-70120001D03*
X86960000Y-68850001D03*
X86960000Y-70120001D03*
X88230000Y-68850001D03*
X88230000Y-70120001D03*
X89500000Y-68850001D03*
X89500000Y-70120001D03*
X90770000Y-68850001D03*
X90770000Y-70120001D03*
D21*
X113630000Y-65040001D03*
X118710000Y-68215001D03*
X110455000Y-65040001D03*
X118710000Y-72025001D03*
X116170000Y-105680001D03*
X116170000Y-102505001D03*
X116170000Y-108855001D03*
X120615000Y-99965001D03*
X112360000Y-94250001D03*
X153635000Y-84090001D03*
X153635000Y-79645001D03*
X155540000Y-83455001D03*
X155540000Y-78375001D03*
X156355000Y-69485001D03*
X120615000Y-96790001D03*
X114265000Y-96790001D03*
X138395000Y-76470001D03*
X136490000Y-76470001D03*
D22*
X85690000Y-68850001D02*
X85690000Y-70120001D01*
D23*
X170180000Y-109490001D02*
X170180000Y-105680001D01*
X141195000Y-67320001D02*
X145500000Y-67320001D01*
X140040000Y-67320001D02*
X141195000Y-67320001D01*
D24*
X85690000Y-70120001D02*
X85690000Y-72660001D01*
D23*
X166335000Y-114570001D02*
X170180000Y-110725001D01*
X111725000Y-108855001D02*
X111725000Y-112665001D01*
X111725000Y-112665001D02*
X113630000Y-114570001D01*
X85690000Y-82820001D02*
X111725000Y-108855001D01*
X170180000Y-110725001D02*
X170180000Y-109490001D01*
X85690000Y-72660001D02*
X85690000Y-82820001D01*
X118710000Y-113935001D02*
X119345000Y-114570001D01*
X119605000Y-67320001D02*
X118710000Y-68215001D01*
X140040000Y-67320001D02*
X119605000Y-67320001D01*
X119345000Y-114570001D02*
X166335000Y-114570001D01*
X113630000Y-114570001D02*
X119345000Y-114570001D01*
D24*
X85690000Y-68850001D02*
X85690000Y-66310001D01*
X85690000Y-66310001D02*
X88230000Y-63770001D01*
D23*
X112360000Y-63770001D02*
X113630000Y-65040001D01*
X109820000Y-64405001D02*
X110455000Y-65040001D01*
X109820000Y-63770001D02*
X109820000Y-64405001D01*
X88230000Y-63770001D02*
X109820000Y-63770001D01*
X109820000Y-63770001D02*
X112360000Y-63770001D01*
X118710000Y-72025001D02*
X118710000Y-113935001D01*
X118710000Y-68215001D02*
X118710000Y-72025001D01*
X141195000Y-77480001D02*
X141195000Y-67320001D01*
X137760000Y-80915001D02*
X141195000Y-77480001D01*
X137760000Y-81550001D02*
X137760000Y-80915001D01*
D25*
X124460000Y-86630001D02*
X124460000Y-87230001D01*
D23*
X82365000Y-61095000D02*
X82365000Y-62650001D01*
D25*
X124460000Y-90440001D02*
X124460000Y-91745001D01*
X124460000Y-91745001D02*
X125695000Y-92980001D01*
X137160000Y-92980001D02*
X139700000Y-90440001D01*
X125695000Y-92980001D02*
X137160000Y-92980001D01*
D23*
X141254594Y-81550001D02*
X140300000Y-81550001D01*
X146510002Y-81550001D02*
X141254594Y-81550001D01*
X148555000Y-79505003D02*
X146510002Y-81550001D01*
X148555000Y-70120001D02*
X148555000Y-79505003D01*
X147755000Y-69320001D02*
X148555000Y-70120001D01*
X145500000Y-69320001D02*
X147755000Y-69320001D01*
X152365000Y-77105001D02*
X153635000Y-77105001D01*
X153635000Y-77105001D02*
X154415010Y-76324991D01*
X154415010Y-76324991D02*
X154905000Y-75835001D01*
X154905000Y-75835001D02*
X154905000Y-63770001D01*
X154905000Y-63770001D02*
X154270000Y-63135001D01*
X147920000Y-63135001D02*
X146015000Y-65040001D01*
X146015000Y-65040001D02*
X118075000Y-65040001D01*
X118075000Y-65040001D02*
X116909991Y-66205010D01*
X116909991Y-66205010D02*
X116170000Y-66945001D01*
X124460000Y-105680001D02*
X124460000Y-109490001D01*
D25*
X149825000Y-64945001D02*
X149920000Y-64945001D01*
X149920000Y-64945001D02*
X152365000Y-64945001D01*
X152365000Y-63770001D02*
X151730000Y-63135001D01*
X152365000Y-64945001D02*
X152365000Y-63770001D01*
D23*
X151730000Y-63135001D02*
X147920000Y-63135001D01*
X154270000Y-63135001D02*
X151730000Y-63135001D01*
X116170000Y-102505001D02*
X116170000Y-105680001D01*
X116170000Y-66945001D02*
X116170000Y-102505001D01*
X116170000Y-108855001D02*
X116170000Y-106315001D01*
D25*
X144780000Y-105680001D02*
X144780000Y-109490001D01*
X139065000Y-99965001D02*
X120615000Y-99965001D01*
X144780000Y-105680001D02*
X139065000Y-99965001D01*
X89500000Y-68736199D02*
X89500000Y-68850001D01*
X94580000Y-66310001D02*
X90135000Y-66310001D01*
X89500000Y-66945001D02*
X89500000Y-68850001D01*
X90135000Y-66310001D02*
X89500000Y-66945001D01*
X112360000Y-84090001D02*
X94580000Y-66310001D01*
X112360000Y-94250001D02*
X112360000Y-84090001D01*
X142240000Y-105680001D02*
X142240000Y-109490001D01*
X139700000Y-105680001D02*
X139700000Y-109490001D01*
X137160000Y-105680001D02*
X137160000Y-109490001D01*
X134620000Y-105680001D02*
X134620000Y-109490001D01*
X132080000Y-105680001D02*
X132080000Y-109490001D01*
X129540000Y-105680001D02*
X129540000Y-109490001D01*
X127000000Y-105680001D02*
X127000000Y-109490001D01*
X144780000Y-86630001D02*
X144780000Y-90440001D01*
X142240000Y-86630001D02*
X142240000Y-90440001D01*
X137160000Y-86630001D02*
X137160000Y-90440001D01*
X149825000Y-69485001D02*
X152365000Y-72025001D01*
X149825000Y-66945001D02*
X149825000Y-69485001D01*
X137160000Y-86630001D02*
X137160000Y-85960001D01*
X153635000Y-79645001D02*
X151730000Y-79645001D01*
X150864990Y-78779991D02*
X150864990Y-73064991D01*
X151730000Y-79645001D02*
X150864990Y-78779991D01*
X151904980Y-72025001D02*
X152365000Y-72025001D01*
X150864990Y-73064991D02*
X151904980Y-72025001D01*
X153635000Y-84090001D02*
X153000000Y-84725001D01*
X139065000Y-84725001D02*
X137160000Y-86630001D01*
X153000000Y-84725001D02*
X139065000Y-84725001D01*
X134620000Y-86630001D02*
X134620000Y-87230001D01*
X134620000Y-87230001D02*
X134620000Y-90440001D01*
X132080000Y-86630001D02*
X132045000Y-86630001D01*
X132080000Y-86665001D02*
X132080000Y-90440001D01*
X132045000Y-86630001D02*
X132080000Y-86665001D01*
X129540000Y-86630001D02*
X129540000Y-87230001D01*
X129540000Y-87230001D02*
X129540000Y-90440001D01*
X129540000Y-86630001D02*
X129505000Y-86630001D01*
X152365000Y-66945001D02*
X152365000Y-69485001D01*
X155274999Y-83190000D02*
X155540000Y-83455001D01*
X132980001Y-83190000D02*
X155274999Y-83190000D01*
X129540000Y-86630001D02*
X132980001Y-83190000D01*
X156355000Y-77560001D02*
X156355000Y-69485001D01*
X155540000Y-78375001D02*
X156355000Y-77560001D01*
X127000000Y-86630001D02*
X127000000Y-87230001D01*
X127000000Y-87230001D02*
X127000000Y-90440001D01*
X167640000Y-105680001D02*
X167640000Y-109490001D01*
X165100000Y-105680001D02*
X165100000Y-109490001D01*
X162560000Y-105680001D02*
X162560000Y-109490001D01*
X160020000Y-105680001D02*
X160020000Y-109490001D01*
X154940000Y-105680001D02*
X154905000Y-105680001D01*
X154905000Y-109455001D02*
X154940000Y-109490001D01*
X154905000Y-105680001D02*
X154905000Y-109455001D01*
X152400000Y-105680001D02*
X152400000Y-109490001D01*
X149860000Y-105680001D02*
X149860000Y-109490001D01*
X147320000Y-105680001D02*
X147320000Y-109490001D01*
X90770000Y-68850001D02*
X91385182Y-68850001D01*
X147320000Y-105680001D02*
X147320000Y-102540001D01*
X147320000Y-102540001D02*
X141570000Y-96790001D01*
X141570000Y-96790001D02*
X120615000Y-96790001D01*
X107905091Y-94240092D02*
X107905091Y-85369910D01*
X110455000Y-96790001D02*
X107905091Y-94240092D01*
X114265000Y-96790001D02*
X110455000Y-96790001D01*
X91385182Y-68850001D02*
X107905091Y-85369910D01*
X170180000Y-86630001D02*
X170180000Y-90440001D01*
X167640000Y-86630001D02*
X167640000Y-90440001D01*
X165100000Y-86630001D02*
X165100000Y-90440001D01*
X162560000Y-86630001D02*
X162560000Y-90440001D01*
X160020000Y-86630001D02*
X160020000Y-90440001D01*
X157480000Y-86630001D02*
X157480000Y-89840001D01*
X154940000Y-86630001D02*
X154940000Y-90440001D01*
X152400000Y-86630001D02*
X152400000Y-90440001D01*
X135220000Y-79645001D02*
X135220000Y-81550001D01*
X138395000Y-76470001D02*
X135220000Y-79645001D01*
X149860000Y-86630001D02*
X149860000Y-90440001D01*
X132680000Y-80280001D02*
X132680000Y-81550001D01*
X136490000Y-76470001D02*
X132680000Y-80280001D01*
X147320000Y-86630001D02*
X147320000Y-90440001D01*
M02*
