%FSLAX45Y45*%
G04 Gerber Fmt 4.5, Leading zero omitted, Abs format (unit mm)*
G04 Created by KiCad (PCBNEW 5.1.10) date 2021-11-28 23:53:14*
%MOMM*%
%LPD*%
G01*
G04 APERTURE LIST*
%TA.AperFunction,Profile*%
%ADD10C,0.050000*%
%TD*%
%ADD11C,0.200000*%
%ADD12C,0.300000*%
G04 APERTURE END LIST*
D10*
X7936500Y-5809500D02*
X17936500Y-5809500D01*
X17936500Y-5809500D02*
X17936500Y-11809500D01*
X17936500Y-11809500D02*
X7936500Y-11809500D01*
X7936500Y-11809500D02*
X7936500Y-5809500D01*
D11*
X9542100Y-7115900D02*
X9582100Y-7155900D01*
X9582100Y-7115900D02*
X9542100Y-7155900D01*
X9742500Y-6813900D02*
X9782500Y-6853900D01*
X9782500Y-6813900D02*
X9742500Y-6853900D01*
X10354900Y-7268300D02*
X10394900Y-7308300D01*
X10394900Y-7268300D02*
X10354900Y-7308300D01*
X11025500Y-6484000D02*
X11065500Y-6524000D01*
X11065500Y-6484000D02*
X11025500Y-6524000D01*
X11216000Y-9405000D02*
X11256000Y-9445000D01*
X11256000Y-9405000D02*
X11216000Y-9445000D01*
X11343000Y-6484000D02*
X11383000Y-6524000D01*
X11383000Y-6484000D02*
X11343000Y-6524000D01*
X11406500Y-9659000D02*
X11446500Y-9699000D01*
X11446500Y-9659000D02*
X11406500Y-9699000D01*
X11624900Y-10570300D02*
X11664900Y-10610300D01*
X11664900Y-10570300D02*
X11624900Y-10610300D01*
X11624900Y-10976700D02*
X11664900Y-11016700D01*
X11664900Y-10976700D02*
X11624900Y-11016700D01*
X11851000Y-6801500D02*
X11891000Y-6841500D01*
X11891000Y-6801500D02*
X11851000Y-6841500D01*
X11851000Y-7182500D02*
X11891000Y-7222500D01*
X11891000Y-7182500D02*
X11851000Y-7222500D01*
X12041500Y-9659000D02*
X12081500Y-9699000D01*
X12081500Y-9659000D02*
X12041500Y-9699000D01*
X12041500Y-9976500D02*
X12081500Y-10016500D01*
X12081500Y-9976500D02*
X12041500Y-10016500D01*
X12132900Y-10570300D02*
X12172900Y-10610300D01*
X12172900Y-10570300D02*
X12132900Y-10610300D01*
X12132900Y-10976700D02*
X12172900Y-11016700D01*
X12172900Y-10976700D02*
X12132900Y-11016700D01*
X15180900Y-7268300D02*
X15220900Y-7308300D01*
X15220900Y-7268300D02*
X15180900Y-7308300D01*
X15333300Y-7268300D02*
X15373300Y-7308300D01*
X15373300Y-7268300D02*
X15333300Y-7308300D01*
X8599000Y-6885000D02*
G75*
G03*
X8599000Y-6885000I-30000J0D01*
G01*
X8599000Y-7012000D02*
G75*
G03*
X8599000Y-7012000I-30000J0D01*
G01*
X8726000Y-6885000D02*
G75*
G03*
X8726000Y-6885000I-30000J0D01*
G01*
X8726000Y-7012000D02*
G75*
G03*
X8726000Y-7012000I-30000J0D01*
G01*
X8853000Y-6885000D02*
G75*
G03*
X8853000Y-6885000I-30000J0D01*
G01*
X8853000Y-7012000D02*
G75*
G03*
X8853000Y-7012000I-30000J0D01*
G01*
X8980000Y-6885000D02*
G75*
G03*
X8980000Y-6885000I-30000J0D01*
G01*
X8980000Y-7012000D02*
G75*
G03*
X8980000Y-7012000I-30000J0D01*
G01*
X9107000Y-6885000D02*
G75*
G03*
X9107000Y-6885000I-30000J0D01*
G01*
X9107000Y-7012000D02*
G75*
G03*
X9107000Y-7012000I-30000J0D01*
G01*
X14870700Y-7428000D02*
X14870700Y-7504200D01*
X14832600Y-7466100D02*
X14908800Y-7466100D01*
X14870700Y-7682000D02*
X14870700Y-7758200D01*
X14832600Y-7720100D02*
X14908800Y-7720100D01*
X14870700Y-7936000D02*
X14870700Y-8012200D01*
X14832600Y-7974100D02*
X14908800Y-7974100D01*
X14870700Y-8190000D02*
X14870700Y-8266200D01*
X14832600Y-8228100D02*
X14908800Y-8228100D01*
X15886700Y-7936000D02*
X15886700Y-8012200D01*
X15848600Y-7974100D02*
X15924800Y-7974100D01*
X15886700Y-8190000D02*
X15886700Y-8266200D01*
X15848600Y-8228100D02*
X15924800Y-8228100D01*
X12105084Y-6960285D02*
X12105084Y-6903716D01*
X12048515Y-6903716D01*
X12048515Y-6960285D01*
X12105084Y-6960285D01*
X12105084Y-7160285D02*
X12105084Y-7103716D01*
X12048515Y-7103716D01*
X12048515Y-7160285D01*
X12105084Y-7160285D01*
X12105084Y-7360285D02*
X12105084Y-7303716D01*
X12048515Y-7303716D01*
X12048515Y-7360285D01*
X12105084Y-7360285D01*
X12105084Y-7560285D02*
X12105084Y-7503716D01*
X12048515Y-7503716D01*
X12048515Y-7560285D01*
X12105084Y-7560285D01*
X12105084Y-7760285D02*
X12105084Y-7703716D01*
X12048515Y-7703716D01*
X12048515Y-7760285D01*
X12105084Y-7760285D01*
X12585084Y-8183285D02*
X12585084Y-8126716D01*
X12528515Y-8126716D01*
X12528515Y-8183285D01*
X12585084Y-8183285D01*
X12839084Y-8183285D02*
X12839084Y-8126716D01*
X12782515Y-8126716D01*
X12782515Y-8183285D01*
X12839084Y-8183285D01*
X13093084Y-8183285D02*
X13093084Y-8126716D01*
X13036515Y-8126716D01*
X13036515Y-8183285D01*
X13093084Y-8183285D01*
X13095584Y-8738985D02*
X13095584Y-8682416D01*
X13039015Y-8682416D01*
X13039015Y-8738985D01*
X13095584Y-8738985D01*
X13095584Y-11024985D02*
X13095584Y-10968416D01*
X13039015Y-10968416D01*
X13039015Y-11024985D01*
X13095584Y-11024985D01*
X13347084Y-8183285D02*
X13347084Y-8126716D01*
X13290515Y-8126716D01*
X13290515Y-8183285D01*
X13347084Y-8183285D01*
X13349584Y-8738985D02*
X13349584Y-8682416D01*
X13293015Y-8682416D01*
X13293015Y-8738985D01*
X13349584Y-8738985D01*
X13349584Y-11024985D02*
X13349584Y-10968416D01*
X13293015Y-10968416D01*
X13293015Y-11024985D01*
X13349584Y-11024985D01*
X13601084Y-8183285D02*
X13601084Y-8126716D01*
X13544515Y-8126716D01*
X13544515Y-8183285D01*
X13601084Y-8183285D01*
X13603584Y-8738985D02*
X13603584Y-8682416D01*
X13547015Y-8682416D01*
X13547015Y-8738985D01*
X13603584Y-8738985D01*
X13603584Y-11024985D02*
X13603584Y-10968416D01*
X13547015Y-10968416D01*
X13547015Y-11024985D01*
X13603584Y-11024985D01*
X13855084Y-8183285D02*
X13855084Y-8126716D01*
X13798515Y-8126716D01*
X13798515Y-8183285D01*
X13855084Y-8183285D01*
X13857584Y-8738985D02*
X13857584Y-8682416D01*
X13801015Y-8682416D01*
X13801015Y-8738985D01*
X13857584Y-8738985D01*
X13857584Y-11024985D02*
X13857584Y-10968416D01*
X13801015Y-10968416D01*
X13801015Y-11024985D01*
X13857584Y-11024985D01*
X14111584Y-8738985D02*
X14111584Y-8682416D01*
X14055015Y-8682416D01*
X14055015Y-8738985D01*
X14111584Y-8738985D01*
X14111584Y-11024985D02*
X14111584Y-10968416D01*
X14055015Y-10968416D01*
X14055015Y-11024985D01*
X14111584Y-11024985D01*
X14365584Y-8738985D02*
X14365584Y-8682416D01*
X14309015Y-8682416D01*
X14309015Y-8738985D01*
X14365584Y-8738985D01*
X14365584Y-11024985D02*
X14365584Y-10968416D01*
X14309015Y-10968416D01*
X14309015Y-11024985D01*
X14365584Y-11024985D01*
X14375084Y-6760285D02*
X14375084Y-6703716D01*
X14318515Y-6703716D01*
X14318515Y-6760285D01*
X14375084Y-6760285D01*
X14375084Y-6960285D02*
X14375084Y-6903716D01*
X14318515Y-6903716D01*
X14318515Y-6960285D01*
X14375084Y-6960285D01*
X14375084Y-7160285D02*
X14375084Y-7103716D01*
X14318515Y-7103716D01*
X14318515Y-7160285D01*
X14375084Y-7160285D01*
X14375084Y-7360285D02*
X14375084Y-7303716D01*
X14318515Y-7303716D01*
X14318515Y-7360285D01*
X14375084Y-7360285D01*
X14375084Y-7560285D02*
X14375084Y-7503716D01*
X14318515Y-7503716D01*
X14318515Y-7560285D01*
X14375084Y-7560285D01*
X14375084Y-7760285D02*
X14375084Y-7703716D01*
X14318515Y-7703716D01*
X14318515Y-7760285D01*
X14375084Y-7760285D01*
X14375084Y-7960285D02*
X14375084Y-7903716D01*
X14318515Y-7903716D01*
X14318515Y-7960285D01*
X14375084Y-7960285D01*
X14619584Y-8738985D02*
X14619584Y-8682416D01*
X14563015Y-8682416D01*
X14563015Y-8738985D01*
X14619584Y-8738985D01*
X14619584Y-11024985D02*
X14619584Y-10968416D01*
X14563015Y-10968416D01*
X14563015Y-11024985D01*
X14619584Y-11024985D01*
X14873584Y-8738985D02*
X14873584Y-8682416D01*
X14817015Y-8682416D01*
X14817015Y-8738985D01*
X14873584Y-8738985D01*
X14873584Y-11024985D02*
X14873584Y-10968416D01*
X14817015Y-10968416D01*
X14817015Y-11024985D01*
X14873584Y-11024985D01*
X15127584Y-8738985D02*
X15127584Y-8682416D01*
X15071015Y-8682416D01*
X15071015Y-8738985D01*
X15127584Y-8738985D01*
X15127584Y-11024985D02*
X15127584Y-10968416D01*
X15071015Y-10968416D01*
X15071015Y-11024985D01*
X15127584Y-11024985D01*
X15279984Y-6173584D02*
X15279984Y-6117015D01*
X15223415Y-6117015D01*
X15223415Y-6173584D01*
X15279984Y-6173584D01*
X15279984Y-6427584D02*
X15279984Y-6371015D01*
X15223415Y-6371015D01*
X15223415Y-6427584D01*
X15279984Y-6427584D01*
X15279984Y-6681584D02*
X15279984Y-6625015D01*
X15223415Y-6625015D01*
X15223415Y-6681584D01*
X15279984Y-6681584D01*
X15279984Y-6935584D02*
X15279984Y-6879015D01*
X15223415Y-6879015D01*
X15223415Y-6935584D01*
X15279984Y-6935584D01*
X15381584Y-8738985D02*
X15381584Y-8682416D01*
X15325015Y-8682416D01*
X15325015Y-8738985D01*
X15381584Y-8738985D01*
X15381584Y-11024985D02*
X15381584Y-10968416D01*
X15325015Y-10968416D01*
X15325015Y-11024985D01*
X15381584Y-11024985D01*
X15635584Y-8738985D02*
X15635584Y-8682416D01*
X15579015Y-8682416D01*
X15579015Y-8738985D01*
X15635584Y-8738985D01*
X15635584Y-11024985D02*
X15635584Y-10968416D01*
X15579015Y-10968416D01*
X15579015Y-11024985D01*
X15635584Y-11024985D01*
X15889584Y-8738985D02*
X15889584Y-8682416D01*
X15833015Y-8682416D01*
X15833015Y-8738985D01*
X15889584Y-8738985D01*
X15889584Y-11024985D02*
X15889584Y-10968416D01*
X15833015Y-10968416D01*
X15833015Y-11024985D01*
X15889584Y-11024985D01*
X16143584Y-8738985D02*
X16143584Y-8682416D01*
X16087015Y-8682416D01*
X16087015Y-8738985D01*
X16143584Y-8738985D01*
X16143584Y-11024985D02*
X16143584Y-10968416D01*
X16087015Y-10968416D01*
X16087015Y-11024985D01*
X16143584Y-11024985D01*
X16397584Y-8738985D02*
X16397584Y-8682416D01*
X16341015Y-8682416D01*
X16341015Y-8738985D01*
X16397584Y-8738985D01*
X16397584Y-11024985D02*
X16397584Y-10968416D01*
X16341015Y-10968416D01*
X16341015Y-11024985D01*
X16397584Y-11024985D01*
X16651584Y-8738985D02*
X16651584Y-8682416D01*
X16595015Y-8682416D01*
X16595015Y-8738985D01*
X16651584Y-8738985D01*
X16651584Y-11024985D02*
X16651584Y-10968416D01*
X16595015Y-10968416D01*
X16595015Y-11024985D01*
X16651584Y-11024985D01*
X16905585Y-8738985D02*
X16905585Y-8682416D01*
X16849016Y-8682416D01*
X16849016Y-8738985D01*
X16905585Y-8738985D01*
X16905585Y-11024985D02*
X16905585Y-10968416D01*
X16849016Y-10968416D01*
X16849016Y-11024985D01*
X16905585Y-11024985D01*
X17159585Y-8738985D02*
X17159585Y-8682416D01*
X17103016Y-8682416D01*
X17103016Y-8738985D01*
X17159585Y-8738985D01*
X17159585Y-11024985D02*
X17159585Y-10968416D01*
X17103016Y-10968416D01*
X17103016Y-11024985D01*
X17159585Y-11024985D01*
X17413585Y-8738985D02*
X17413585Y-8682416D01*
X17357016Y-8682416D01*
X17357016Y-8738985D01*
X17413585Y-8738985D01*
X17413585Y-11024985D02*
X17413585Y-10968416D01*
X17357016Y-10968416D01*
X17357016Y-11024985D01*
X17413585Y-11024985D01*
X17667585Y-8738985D02*
X17667585Y-8682416D01*
X17611016Y-8682416D01*
X17611016Y-8738985D01*
X17667585Y-8738985D01*
X17667585Y-11024985D02*
X17667585Y-10968416D01*
X17611016Y-10968416D01*
X17611016Y-11024985D01*
X17667585Y-11024985D01*
X13067300Y-9116300D02*
X13117300Y-9066300D01*
X13067300Y-9016300D01*
X13017300Y-9066300D01*
X13067300Y-9116300D01*
X13067300Y-10618000D02*
X13117300Y-10568000D01*
X13067300Y-10518000D01*
X13017300Y-10568000D01*
X13067300Y-10618000D01*
X13321300Y-9116300D02*
X13371300Y-9066300D01*
X13321300Y-9016300D01*
X13271300Y-9066300D01*
X13321300Y-9116300D01*
X13321300Y-10618000D02*
X13371300Y-10568000D01*
X13321300Y-10518000D01*
X13271300Y-10568000D01*
X13321300Y-10618000D01*
X13575300Y-9116300D02*
X13625300Y-9066300D01*
X13575300Y-9016300D01*
X13525300Y-9066300D01*
X13575300Y-9116300D01*
X13575300Y-10618000D02*
X13625300Y-10568000D01*
X13575300Y-10518000D01*
X13525300Y-10568000D01*
X13575300Y-10618000D01*
X13829300Y-9116300D02*
X13879300Y-9066300D01*
X13829300Y-9016300D01*
X13779300Y-9066300D01*
X13829300Y-9116300D01*
X13829300Y-10618000D02*
X13879300Y-10568000D01*
X13829300Y-10518000D01*
X13779300Y-10568000D01*
X13829300Y-10618000D01*
X14083300Y-9116300D02*
X14133300Y-9066300D01*
X14083300Y-9016300D01*
X14033300Y-9066300D01*
X14083300Y-9116300D01*
X14083300Y-10618000D02*
X14133300Y-10568000D01*
X14083300Y-10518000D01*
X14033300Y-10568000D01*
X14083300Y-10618000D01*
X14337300Y-9116300D02*
X14387300Y-9066300D01*
X14337300Y-9016300D01*
X14287300Y-9066300D01*
X14337300Y-9116300D01*
X14337300Y-10618000D02*
X14387300Y-10568000D01*
X14337300Y-10518000D01*
X14287300Y-10568000D01*
X14337300Y-10618000D01*
X14591300Y-9116300D02*
X14641300Y-9066300D01*
X14591300Y-9016300D01*
X14541300Y-9066300D01*
X14591300Y-9116300D01*
X14591300Y-10618000D02*
X14641300Y-10568000D01*
X14591300Y-10518000D01*
X14541300Y-10568000D01*
X14591300Y-10618000D01*
X14845300Y-9116300D02*
X14895300Y-9066300D01*
X14845300Y-9016300D01*
X14795300Y-9066300D01*
X14845300Y-9116300D01*
X14845300Y-10618000D02*
X14895300Y-10568000D01*
X14845300Y-10518000D01*
X14795300Y-10568000D01*
X14845300Y-10618000D01*
X15099300Y-9116300D02*
X15149300Y-9066300D01*
X15099300Y-9016300D01*
X15049300Y-9066300D01*
X15099300Y-9116300D01*
X15099300Y-10618000D02*
X15149300Y-10568000D01*
X15099300Y-10518000D01*
X15049300Y-10568000D01*
X15099300Y-10618000D01*
X15353300Y-9116300D02*
X15403300Y-9066300D01*
X15353300Y-9016300D01*
X15303300Y-9066300D01*
X15353300Y-9116300D01*
X15353300Y-10618000D02*
X15403300Y-10568000D01*
X15353300Y-10518000D01*
X15303300Y-10568000D01*
X15353300Y-10618000D01*
X15607300Y-9116300D02*
X15657300Y-9066300D01*
X15607300Y-9016300D01*
X15557300Y-9066300D01*
X15607300Y-9116300D01*
X15607300Y-10618000D02*
X15657300Y-10568000D01*
X15607300Y-10518000D01*
X15557300Y-10568000D01*
X15607300Y-10618000D01*
X15861300Y-9116300D02*
X15911300Y-9066300D01*
X15861300Y-9016300D01*
X15811300Y-9066300D01*
X15861300Y-9116300D01*
X15861300Y-10618000D02*
X15911300Y-10568000D01*
X15861300Y-10518000D01*
X15811300Y-10568000D01*
X15861300Y-10618000D01*
X16115300Y-9116300D02*
X16165300Y-9066300D01*
X16115300Y-9016300D01*
X16065300Y-9066300D01*
X16115300Y-9116300D01*
X16115300Y-10618000D02*
X16165300Y-10568000D01*
X16115300Y-10518000D01*
X16065300Y-10568000D01*
X16115300Y-10618000D01*
X16369300Y-9116300D02*
X16419300Y-9066300D01*
X16369300Y-9016300D01*
X16319300Y-9066300D01*
X16369300Y-9116300D01*
X16369300Y-10618000D02*
X16419300Y-10568000D01*
X16369300Y-10518000D01*
X16319300Y-10568000D01*
X16369300Y-10618000D01*
X16420100Y-7998700D02*
X16470100Y-7948700D01*
X16420100Y-7898700D01*
X16370100Y-7948700D01*
X16420100Y-7998700D01*
X16460100Y-8048700D02*
X16460100Y-7848700D01*
X16380100Y-8048700D02*
X16380100Y-7848700D01*
X16460100Y-7848700D02*
G75*
G03*
X16380100Y-7848700I-40000J0D01*
G01*
X16380100Y-8048700D02*
G75*
G03*
X16460100Y-8048700I40000J0D01*
G01*
X16623300Y-9116300D02*
X16673300Y-9066300D01*
X16623300Y-9016300D01*
X16573300Y-9066300D01*
X16623300Y-9116300D01*
X16623300Y-10618000D02*
X16673300Y-10568000D01*
X16623300Y-10518000D01*
X16573300Y-10568000D01*
X16623300Y-10618000D01*
X16720100Y-7528700D02*
X16770100Y-7478700D01*
X16720100Y-7428700D01*
X16670100Y-7478700D01*
X16720100Y-7528700D01*
X16820100Y-7438700D02*
X16620100Y-7438700D01*
X16820100Y-7518700D02*
X16620100Y-7518700D01*
X16620100Y-7438700D02*
G75*
G03*
X16620100Y-7518700I0J-40000D01*
G01*
X16820100Y-7518700D02*
G75*
G03*
X16820100Y-7438700I0J40000D01*
G01*
X16877300Y-9116300D02*
X16927300Y-9066300D01*
X16877300Y-9016300D01*
X16827300Y-9066300D01*
X16877300Y-9116300D01*
X16877300Y-10618000D02*
X16927300Y-10568000D01*
X16877300Y-10518000D01*
X16827300Y-10568000D01*
X16877300Y-10618000D01*
X17020100Y-7998700D02*
X17070100Y-7948700D01*
X17020100Y-7898700D01*
X16970100Y-7948700D01*
X17020100Y-7998700D01*
X17060100Y-8048700D02*
X17060100Y-7848700D01*
X16980100Y-8048700D02*
X16980100Y-7848700D01*
X17060100Y-7848700D02*
G75*
G03*
X16980100Y-7848700I-40000J0D01*
G01*
X16980100Y-8048700D02*
G75*
G03*
X17060100Y-8048700I40000J0D01*
G01*
X17131300Y-9116300D02*
X17181300Y-9066300D01*
X17131300Y-9016300D01*
X17081300Y-9066300D01*
X17131300Y-9116300D01*
X17131300Y-10618000D02*
X17181300Y-10568000D01*
X17131300Y-10518000D01*
X17081300Y-10568000D01*
X17131300Y-10618000D01*
X17385300Y-9116300D02*
X17435300Y-9066300D01*
X17385300Y-9016300D01*
X17335300Y-9066300D01*
X17385300Y-9116300D01*
X17385300Y-10618000D02*
X17435300Y-10568000D01*
X17385300Y-10518000D01*
X17335300Y-10568000D01*
X17385300Y-10618000D01*
X17639300Y-9116300D02*
X17689300Y-9066300D01*
X17639300Y-9016300D01*
X17589300Y-9066300D01*
X17639300Y-9116300D01*
X17639300Y-10618000D02*
X17689300Y-10568000D01*
X17639300Y-10518000D01*
X17589300Y-10568000D01*
X17639300Y-10618000D01*
X8126500Y-5999500D02*
X8346500Y-6219500D01*
X8346500Y-5999500D02*
X8126500Y-6219500D01*
X8346500Y-6109500D02*
G75*
G03*
X8346500Y-6109500I-110000J0D01*
G01*
X8126500Y-11399500D02*
X8346500Y-11619500D01*
X8346500Y-11399500D02*
X8126500Y-11619500D01*
X8346500Y-11509500D02*
G75*
G03*
X8346500Y-11509500I-110000J0D01*
G01*
X17526500Y-5999500D02*
X17746500Y-6219500D01*
X17746500Y-5999500D02*
X17526500Y-6219500D01*
X17746500Y-6109500D02*
G75*
G03*
X17746500Y-6109500I-110000J0D01*
G01*
X17526500Y-11399500D02*
X17746500Y-11619500D01*
X17746500Y-11399500D02*
X17526500Y-11619500D01*
X17746500Y-11509500D02*
G75*
G03*
X17746500Y-11509500I-110000J0D01*
G01*
D12*
X8220428Y-12277714D02*
X8220428Y-11977714D01*
X8291857Y-11977714D01*
X8334714Y-11992000D01*
X8363286Y-12020571D01*
X8377571Y-12049143D01*
X8391857Y-12106286D01*
X8391857Y-12149143D01*
X8377571Y-12206286D01*
X8363286Y-12234857D01*
X8334714Y-12263429D01*
X8291857Y-12277714D01*
X8220428Y-12277714D01*
X8520428Y-12277714D02*
X8520428Y-12077714D01*
X8520428Y-12134857D02*
X8534714Y-12106286D01*
X8549000Y-12092000D01*
X8577571Y-12077714D01*
X8606143Y-12077714D01*
X8706143Y-12277714D02*
X8706143Y-12077714D01*
X8706143Y-11977714D02*
X8691857Y-11992000D01*
X8706143Y-12006286D01*
X8720428Y-11992000D01*
X8706143Y-11977714D01*
X8706143Y-12006286D01*
X8891857Y-12277714D02*
X8863286Y-12263429D01*
X8849000Y-12234857D01*
X8849000Y-11977714D01*
X9049000Y-12277714D02*
X9020428Y-12263429D01*
X9006143Y-12234857D01*
X9006143Y-11977714D01*
X9391857Y-12277714D02*
X9391857Y-11977714D01*
X9491857Y-12192000D01*
X9591857Y-11977714D01*
X9591857Y-12277714D01*
X9863286Y-12277714D02*
X9863286Y-12120571D01*
X9849000Y-12092000D01*
X9820428Y-12077714D01*
X9763286Y-12077714D01*
X9734714Y-12092000D01*
X9863286Y-12263429D02*
X9834714Y-12277714D01*
X9763286Y-12277714D01*
X9734714Y-12263429D01*
X9720428Y-12234857D01*
X9720428Y-12206286D01*
X9734714Y-12177714D01*
X9763286Y-12163429D01*
X9834714Y-12163429D01*
X9863286Y-12149143D01*
X10006143Y-12077714D02*
X10006143Y-12377714D01*
X10006143Y-12092000D02*
X10034714Y-12077714D01*
X10091857Y-12077714D01*
X10120428Y-12092000D01*
X10134714Y-12106286D01*
X10149000Y-12134857D01*
X10149000Y-12220571D01*
X10134714Y-12249143D01*
X10120428Y-12263429D01*
X10091857Y-12277714D01*
X10034714Y-12277714D01*
X10006143Y-12263429D01*
X10277571Y-12249143D02*
X10291857Y-12263429D01*
X10277571Y-12277714D01*
X10263286Y-12263429D01*
X10277571Y-12249143D01*
X10277571Y-12277714D01*
X10277571Y-12092000D02*
X10291857Y-12106286D01*
X10277571Y-12120571D01*
X10263286Y-12106286D01*
X10277571Y-12092000D01*
X10277571Y-12120571D01*
X7894000Y-12752000D02*
X7934000Y-12792000D01*
X7934000Y-12752000D02*
X7894000Y-12792000D01*
X8277571Y-12607714D02*
X8306143Y-12607714D01*
X8334714Y-12622000D01*
X8349000Y-12636286D01*
X8363286Y-12664857D01*
X8377571Y-12722000D01*
X8377571Y-12793429D01*
X8363286Y-12850571D01*
X8349000Y-12879143D01*
X8334714Y-12893429D01*
X8306143Y-12907714D01*
X8277571Y-12907714D01*
X8249000Y-12893429D01*
X8234714Y-12879143D01*
X8220428Y-12850571D01*
X8206143Y-12793429D01*
X8206143Y-12722000D01*
X8220428Y-12664857D01*
X8234714Y-12636286D01*
X8249000Y-12622000D01*
X8277571Y-12607714D01*
X8506143Y-12879143D02*
X8520428Y-12893429D01*
X8506143Y-12907714D01*
X8491857Y-12893429D01*
X8506143Y-12879143D01*
X8506143Y-12907714D01*
X8777571Y-12707714D02*
X8777571Y-12907714D01*
X8706143Y-12593429D02*
X8634714Y-12807714D01*
X8820428Y-12807714D01*
X8991857Y-12607714D02*
X9020428Y-12607714D01*
X9049000Y-12622000D01*
X9063286Y-12636286D01*
X9077571Y-12664857D01*
X9091857Y-12722000D01*
X9091857Y-12793429D01*
X9077571Y-12850571D01*
X9063286Y-12879143D01*
X9049000Y-12893429D01*
X9020428Y-12907714D01*
X8991857Y-12907714D01*
X8963286Y-12893429D01*
X8949000Y-12879143D01*
X8934714Y-12850571D01*
X8920428Y-12793429D01*
X8920428Y-12722000D01*
X8934714Y-12664857D01*
X8949000Y-12636286D01*
X8963286Y-12622000D01*
X8991857Y-12607714D01*
X9277571Y-12607714D02*
X9306143Y-12607714D01*
X9334714Y-12622000D01*
X9349000Y-12636286D01*
X9363286Y-12664857D01*
X9377571Y-12722000D01*
X9377571Y-12793429D01*
X9363286Y-12850571D01*
X9349000Y-12879143D01*
X9334714Y-12893429D01*
X9306143Y-12907714D01*
X9277571Y-12907714D01*
X9249000Y-12893429D01*
X9234714Y-12879143D01*
X9220428Y-12850571D01*
X9206143Y-12793429D01*
X9206143Y-12722000D01*
X9220428Y-12664857D01*
X9234714Y-12636286D01*
X9249000Y-12622000D01*
X9277571Y-12607714D01*
X9506143Y-12907714D02*
X9506143Y-12707714D01*
X9506143Y-12736286D02*
X9520428Y-12722000D01*
X9549000Y-12707714D01*
X9591857Y-12707714D01*
X9620428Y-12722000D01*
X9634714Y-12750571D01*
X9634714Y-12907714D01*
X9634714Y-12750571D02*
X9649000Y-12722000D01*
X9677571Y-12707714D01*
X9720428Y-12707714D01*
X9749000Y-12722000D01*
X9763286Y-12750571D01*
X9763286Y-12907714D01*
X9906143Y-12907714D02*
X9906143Y-12707714D01*
X9906143Y-12736286D02*
X9920428Y-12722000D01*
X9949000Y-12707714D01*
X9991857Y-12707714D01*
X10020428Y-12722000D01*
X10034714Y-12750571D01*
X10034714Y-12907714D01*
X10034714Y-12750571D02*
X10049000Y-12722000D01*
X10077571Y-12707714D01*
X10120428Y-12707714D01*
X10149000Y-12722000D01*
X10163286Y-12750571D01*
X10163286Y-12907714D01*
X10749000Y-12593429D02*
X10491857Y-12979143D01*
X11134714Y-12607714D02*
X11163286Y-12607714D01*
X11191857Y-12622000D01*
X11206143Y-12636286D01*
X11220428Y-12664857D01*
X11234714Y-12722000D01*
X11234714Y-12793429D01*
X11220428Y-12850571D01*
X11206143Y-12879143D01*
X11191857Y-12893429D01*
X11163286Y-12907714D01*
X11134714Y-12907714D01*
X11106143Y-12893429D01*
X11091857Y-12879143D01*
X11077571Y-12850571D01*
X11063286Y-12793429D01*
X11063286Y-12722000D01*
X11077571Y-12664857D01*
X11091857Y-12636286D01*
X11106143Y-12622000D01*
X11134714Y-12607714D01*
X11363286Y-12879143D02*
X11377571Y-12893429D01*
X11363286Y-12907714D01*
X11349000Y-12893429D01*
X11363286Y-12879143D01*
X11363286Y-12907714D01*
X11563286Y-12607714D02*
X11591857Y-12607714D01*
X11620428Y-12622000D01*
X11634714Y-12636286D01*
X11649000Y-12664857D01*
X11663286Y-12722000D01*
X11663286Y-12793429D01*
X11649000Y-12850571D01*
X11634714Y-12879143D01*
X11620428Y-12893429D01*
X11591857Y-12907714D01*
X11563286Y-12907714D01*
X11534714Y-12893429D01*
X11520428Y-12879143D01*
X11506143Y-12850571D01*
X11491857Y-12793429D01*
X11491857Y-12722000D01*
X11506143Y-12664857D01*
X11520428Y-12636286D01*
X11534714Y-12622000D01*
X11563286Y-12607714D01*
X11949000Y-12907714D02*
X11777571Y-12907714D01*
X11863286Y-12907714D02*
X11863286Y-12607714D01*
X11834714Y-12650571D01*
X11806143Y-12679143D01*
X11777571Y-12693429D01*
X12220428Y-12607714D02*
X12077571Y-12607714D01*
X12063286Y-12750571D01*
X12077571Y-12736286D01*
X12106143Y-12722000D01*
X12177571Y-12722000D01*
X12206143Y-12736286D01*
X12220428Y-12750571D01*
X12234714Y-12779143D01*
X12234714Y-12850571D01*
X12220428Y-12879143D01*
X12206143Y-12893429D01*
X12177571Y-12907714D01*
X12106143Y-12907714D01*
X12077571Y-12893429D01*
X12063286Y-12879143D01*
X12334714Y-12607714D02*
X12534714Y-12607714D01*
X12406143Y-12907714D01*
X12634714Y-12607714D02*
X12634714Y-12664857D01*
X12749000Y-12607714D02*
X12749000Y-12664857D01*
X13191857Y-13022000D02*
X13177571Y-13007714D01*
X13149000Y-12964857D01*
X13134714Y-12936286D01*
X13120428Y-12893429D01*
X13106143Y-12822000D01*
X13106143Y-12764857D01*
X13120428Y-12693429D01*
X13134714Y-12650571D01*
X13149000Y-12622000D01*
X13177571Y-12579143D01*
X13191857Y-12564857D01*
X13463286Y-12907714D02*
X13291857Y-12907714D01*
X13377571Y-12907714D02*
X13377571Y-12607714D01*
X13349000Y-12650571D01*
X13320428Y-12679143D01*
X13291857Y-12693429D01*
X13563286Y-12607714D02*
X13763286Y-12607714D01*
X13634714Y-12907714D01*
X14106143Y-12907714D02*
X14106143Y-12607714D01*
X14234714Y-12907714D02*
X14234714Y-12750571D01*
X14220428Y-12722000D01*
X14191857Y-12707714D01*
X14149000Y-12707714D01*
X14120428Y-12722000D01*
X14106143Y-12736286D01*
X14420428Y-12907714D02*
X14391857Y-12893429D01*
X14377571Y-12879143D01*
X14363286Y-12850571D01*
X14363286Y-12764857D01*
X14377571Y-12736286D01*
X14391857Y-12722000D01*
X14420428Y-12707714D01*
X14463286Y-12707714D01*
X14491857Y-12722000D01*
X14506143Y-12736286D01*
X14520428Y-12764857D01*
X14520428Y-12850571D01*
X14506143Y-12879143D01*
X14491857Y-12893429D01*
X14463286Y-12907714D01*
X14420428Y-12907714D01*
X14691857Y-12907714D02*
X14663286Y-12893429D01*
X14649000Y-12864857D01*
X14649000Y-12607714D01*
X14920428Y-12893429D02*
X14891857Y-12907714D01*
X14834714Y-12907714D01*
X14806143Y-12893429D01*
X14791857Y-12864857D01*
X14791857Y-12750571D01*
X14806143Y-12722000D01*
X14834714Y-12707714D01*
X14891857Y-12707714D01*
X14920428Y-12722000D01*
X14934714Y-12750571D01*
X14934714Y-12779143D01*
X14791857Y-12807714D01*
X15049000Y-12893429D02*
X15077571Y-12907714D01*
X15134714Y-12907714D01*
X15163286Y-12893429D01*
X15177571Y-12864857D01*
X15177571Y-12850571D01*
X15163286Y-12822000D01*
X15134714Y-12807714D01*
X15091857Y-12807714D01*
X15063286Y-12793429D01*
X15049000Y-12764857D01*
X15049000Y-12750571D01*
X15063286Y-12722000D01*
X15091857Y-12707714D01*
X15134714Y-12707714D01*
X15163286Y-12722000D01*
X15277571Y-13022000D02*
X15291857Y-13007714D01*
X15320428Y-12964857D01*
X15334714Y-12936286D01*
X15349000Y-12893429D01*
X15363286Y-12822000D01*
X15363286Y-12764857D01*
X15349000Y-12693429D01*
X15334714Y-12650571D01*
X15320428Y-12622000D01*
X15291857Y-12579143D01*
X15277571Y-12564857D01*
X7934000Y-13168000D02*
G75*
G03*
X7934000Y-13168000I-30000J0D01*
G01*
X8277571Y-13003714D02*
X8306143Y-13003714D01*
X8334714Y-13018000D01*
X8349000Y-13032286D01*
X8363286Y-13060857D01*
X8377571Y-13118000D01*
X8377571Y-13189429D01*
X8363286Y-13246571D01*
X8349000Y-13275143D01*
X8334714Y-13289429D01*
X8306143Y-13303714D01*
X8277571Y-13303714D01*
X8249000Y-13289429D01*
X8234714Y-13275143D01*
X8220428Y-13246571D01*
X8206143Y-13189429D01*
X8206143Y-13118000D01*
X8220428Y-13060857D01*
X8234714Y-13032286D01*
X8249000Y-13018000D01*
X8277571Y-13003714D01*
X8506143Y-13275143D02*
X8520428Y-13289429D01*
X8506143Y-13303714D01*
X8491857Y-13289429D01*
X8506143Y-13275143D01*
X8506143Y-13303714D01*
X8777571Y-13003714D02*
X8720428Y-13003714D01*
X8691857Y-13018000D01*
X8677571Y-13032286D01*
X8649000Y-13075143D01*
X8634714Y-13132286D01*
X8634714Y-13246571D01*
X8649000Y-13275143D01*
X8663286Y-13289429D01*
X8691857Y-13303714D01*
X8749000Y-13303714D01*
X8777571Y-13289429D01*
X8791857Y-13275143D01*
X8806143Y-13246571D01*
X8806143Y-13175143D01*
X8791857Y-13146571D01*
X8777571Y-13132286D01*
X8749000Y-13118000D01*
X8691857Y-13118000D01*
X8663286Y-13132286D01*
X8649000Y-13146571D01*
X8634714Y-13175143D01*
X8991857Y-13003714D02*
X9020428Y-13003714D01*
X9049000Y-13018000D01*
X9063286Y-13032286D01*
X9077571Y-13060857D01*
X9091857Y-13118000D01*
X9091857Y-13189429D01*
X9077571Y-13246571D01*
X9063286Y-13275143D01*
X9049000Y-13289429D01*
X9020428Y-13303714D01*
X8991857Y-13303714D01*
X8963286Y-13289429D01*
X8949000Y-13275143D01*
X8934714Y-13246571D01*
X8920428Y-13189429D01*
X8920428Y-13118000D01*
X8934714Y-13060857D01*
X8949000Y-13032286D01*
X8963286Y-13018000D01*
X8991857Y-13003714D01*
X9277571Y-13003714D02*
X9306143Y-13003714D01*
X9334714Y-13018000D01*
X9349000Y-13032286D01*
X9363286Y-13060857D01*
X9377571Y-13118000D01*
X9377571Y-13189429D01*
X9363286Y-13246571D01*
X9349000Y-13275143D01*
X9334714Y-13289429D01*
X9306143Y-13303714D01*
X9277571Y-13303714D01*
X9249000Y-13289429D01*
X9234714Y-13275143D01*
X9220428Y-13246571D01*
X9206143Y-13189429D01*
X9206143Y-13118000D01*
X9220428Y-13060857D01*
X9234714Y-13032286D01*
X9249000Y-13018000D01*
X9277571Y-13003714D01*
X9506143Y-13303714D02*
X9506143Y-13103714D01*
X9506143Y-13132286D02*
X9520428Y-13118000D01*
X9549000Y-13103714D01*
X9591857Y-13103714D01*
X9620428Y-13118000D01*
X9634714Y-13146571D01*
X9634714Y-13303714D01*
X9634714Y-13146571D02*
X9649000Y-13118000D01*
X9677571Y-13103714D01*
X9720428Y-13103714D01*
X9749000Y-13118000D01*
X9763286Y-13146571D01*
X9763286Y-13303714D01*
X9906143Y-13303714D02*
X9906143Y-13103714D01*
X9906143Y-13132286D02*
X9920428Y-13118000D01*
X9949000Y-13103714D01*
X9991857Y-13103714D01*
X10020428Y-13118000D01*
X10034714Y-13146571D01*
X10034714Y-13303714D01*
X10034714Y-13146571D02*
X10049000Y-13118000D01*
X10077571Y-13103714D01*
X10120428Y-13103714D01*
X10149000Y-13118000D01*
X10163286Y-13146571D01*
X10163286Y-13303714D01*
X10749000Y-12989429D02*
X10491857Y-13375143D01*
X11134714Y-13003714D02*
X11163286Y-13003714D01*
X11191857Y-13018000D01*
X11206143Y-13032286D01*
X11220428Y-13060857D01*
X11234714Y-13118000D01*
X11234714Y-13189429D01*
X11220428Y-13246571D01*
X11206143Y-13275143D01*
X11191857Y-13289429D01*
X11163286Y-13303714D01*
X11134714Y-13303714D01*
X11106143Y-13289429D01*
X11091857Y-13275143D01*
X11077571Y-13246571D01*
X11063286Y-13189429D01*
X11063286Y-13118000D01*
X11077571Y-13060857D01*
X11091857Y-13032286D01*
X11106143Y-13018000D01*
X11134714Y-13003714D01*
X11363286Y-13275143D02*
X11377571Y-13289429D01*
X11363286Y-13303714D01*
X11349000Y-13289429D01*
X11363286Y-13275143D01*
X11363286Y-13303714D01*
X11563286Y-13003714D02*
X11591857Y-13003714D01*
X11620428Y-13018000D01*
X11634714Y-13032286D01*
X11649000Y-13060857D01*
X11663286Y-13118000D01*
X11663286Y-13189429D01*
X11649000Y-13246571D01*
X11634714Y-13275143D01*
X11620428Y-13289429D01*
X11591857Y-13303714D01*
X11563286Y-13303714D01*
X11534714Y-13289429D01*
X11520428Y-13275143D01*
X11506143Y-13246571D01*
X11491857Y-13189429D01*
X11491857Y-13118000D01*
X11506143Y-13060857D01*
X11520428Y-13032286D01*
X11534714Y-13018000D01*
X11563286Y-13003714D01*
X11777571Y-13032286D02*
X11791857Y-13018000D01*
X11820428Y-13003714D01*
X11891857Y-13003714D01*
X11920428Y-13018000D01*
X11934714Y-13032286D01*
X11949000Y-13060857D01*
X11949000Y-13089429D01*
X11934714Y-13132286D01*
X11763286Y-13303714D01*
X11949000Y-13303714D01*
X12049000Y-13003714D02*
X12234714Y-13003714D01*
X12134714Y-13118000D01*
X12177571Y-13118000D01*
X12206143Y-13132286D01*
X12220428Y-13146571D01*
X12234714Y-13175143D01*
X12234714Y-13246571D01*
X12220428Y-13275143D01*
X12206143Y-13289429D01*
X12177571Y-13303714D01*
X12091857Y-13303714D01*
X12063286Y-13289429D01*
X12049000Y-13275143D01*
X12491857Y-13003714D02*
X12434714Y-13003714D01*
X12406143Y-13018000D01*
X12391857Y-13032286D01*
X12363286Y-13075143D01*
X12349000Y-13132286D01*
X12349000Y-13246571D01*
X12363286Y-13275143D01*
X12377571Y-13289429D01*
X12406143Y-13303714D01*
X12463286Y-13303714D01*
X12491857Y-13289429D01*
X12506143Y-13275143D01*
X12520428Y-13246571D01*
X12520428Y-13175143D01*
X12506143Y-13146571D01*
X12491857Y-13132286D01*
X12463286Y-13118000D01*
X12406143Y-13118000D01*
X12377571Y-13132286D01*
X12363286Y-13146571D01*
X12349000Y-13175143D01*
X12634714Y-13003714D02*
X12634714Y-13060857D01*
X12749000Y-13003714D02*
X12749000Y-13060857D01*
X13191857Y-13418000D02*
X13177571Y-13403714D01*
X13149000Y-13360857D01*
X13134714Y-13332286D01*
X13120428Y-13289429D01*
X13106143Y-13218000D01*
X13106143Y-13160857D01*
X13120428Y-13089429D01*
X13134714Y-13046571D01*
X13149000Y-13018000D01*
X13177571Y-12975143D01*
X13191857Y-12960857D01*
X13463286Y-13303714D02*
X13291857Y-13303714D01*
X13377571Y-13303714D02*
X13377571Y-13003714D01*
X13349000Y-13046571D01*
X13320428Y-13075143D01*
X13291857Y-13089429D01*
X13649000Y-13003714D02*
X13677571Y-13003714D01*
X13706143Y-13018000D01*
X13720428Y-13032286D01*
X13734714Y-13060857D01*
X13749000Y-13118000D01*
X13749000Y-13189429D01*
X13734714Y-13246571D01*
X13720428Y-13275143D01*
X13706143Y-13289429D01*
X13677571Y-13303714D01*
X13649000Y-13303714D01*
X13620428Y-13289429D01*
X13606143Y-13275143D01*
X13591857Y-13246571D01*
X13577571Y-13189429D01*
X13577571Y-13118000D01*
X13591857Y-13060857D01*
X13606143Y-13032286D01*
X13620428Y-13018000D01*
X13649000Y-13003714D01*
X14106143Y-13303714D02*
X14106143Y-13003714D01*
X14234714Y-13303714D02*
X14234714Y-13146571D01*
X14220428Y-13118000D01*
X14191857Y-13103714D01*
X14149000Y-13103714D01*
X14120428Y-13118000D01*
X14106143Y-13132286D01*
X14420428Y-13303714D02*
X14391857Y-13289429D01*
X14377571Y-13275143D01*
X14363286Y-13246571D01*
X14363286Y-13160857D01*
X14377571Y-13132286D01*
X14391857Y-13118000D01*
X14420428Y-13103714D01*
X14463286Y-13103714D01*
X14491857Y-13118000D01*
X14506143Y-13132286D01*
X14520428Y-13160857D01*
X14520428Y-13246571D01*
X14506143Y-13275143D01*
X14491857Y-13289429D01*
X14463286Y-13303714D01*
X14420428Y-13303714D01*
X14691857Y-13303714D02*
X14663286Y-13289429D01*
X14649000Y-13260857D01*
X14649000Y-13003714D01*
X14920428Y-13289429D02*
X14891857Y-13303714D01*
X14834714Y-13303714D01*
X14806143Y-13289429D01*
X14791857Y-13260857D01*
X14791857Y-13146571D01*
X14806143Y-13118000D01*
X14834714Y-13103714D01*
X14891857Y-13103714D01*
X14920428Y-13118000D01*
X14934714Y-13146571D01*
X14934714Y-13175143D01*
X14791857Y-13203714D01*
X15049000Y-13289429D02*
X15077571Y-13303714D01*
X15134714Y-13303714D01*
X15163286Y-13289429D01*
X15177571Y-13260857D01*
X15177571Y-13246571D01*
X15163286Y-13218000D01*
X15134714Y-13203714D01*
X15091857Y-13203714D01*
X15063286Y-13189429D01*
X15049000Y-13160857D01*
X15049000Y-13146571D01*
X15063286Y-13118000D01*
X15091857Y-13103714D01*
X15134714Y-13103714D01*
X15163286Y-13118000D01*
X15277571Y-13418000D02*
X15291857Y-13403714D01*
X15320428Y-13360857D01*
X15334714Y-13332286D01*
X15349000Y-13289429D01*
X15363286Y-13218000D01*
X15363286Y-13160857D01*
X15349000Y-13089429D01*
X15334714Y-13046571D01*
X15320428Y-13018000D01*
X15291857Y-12975143D01*
X15277571Y-12960857D01*
X7895900Y-13525900D02*
X7895900Y-13602100D01*
X7857800Y-13564000D02*
X7934000Y-13564000D01*
X8277571Y-13399714D02*
X8306143Y-13399714D01*
X8334714Y-13414000D01*
X8349000Y-13428286D01*
X8363286Y-13456857D01*
X8377571Y-13514000D01*
X8377571Y-13585429D01*
X8363286Y-13642571D01*
X8349000Y-13671143D01*
X8334714Y-13685429D01*
X8306143Y-13699714D01*
X8277571Y-13699714D01*
X8249000Y-13685429D01*
X8234714Y-13671143D01*
X8220428Y-13642571D01*
X8206143Y-13585429D01*
X8206143Y-13514000D01*
X8220428Y-13456857D01*
X8234714Y-13428286D01*
X8249000Y-13414000D01*
X8277571Y-13399714D01*
X8506143Y-13671143D02*
X8520428Y-13685429D01*
X8506143Y-13699714D01*
X8491857Y-13685429D01*
X8506143Y-13671143D01*
X8506143Y-13699714D01*
X8620428Y-13399714D02*
X8820428Y-13399714D01*
X8691857Y-13699714D01*
X9063286Y-13399714D02*
X9006143Y-13399714D01*
X8977571Y-13414000D01*
X8963286Y-13428286D01*
X8934714Y-13471143D01*
X8920428Y-13528286D01*
X8920428Y-13642571D01*
X8934714Y-13671143D01*
X8949000Y-13685429D01*
X8977571Y-13699714D01*
X9034714Y-13699714D01*
X9063286Y-13685429D01*
X9077571Y-13671143D01*
X9091857Y-13642571D01*
X9091857Y-13571143D01*
X9077571Y-13542571D01*
X9063286Y-13528286D01*
X9034714Y-13514000D01*
X8977571Y-13514000D01*
X8949000Y-13528286D01*
X8934714Y-13542571D01*
X8920428Y-13571143D01*
X9206143Y-13428286D02*
X9220428Y-13414000D01*
X9249000Y-13399714D01*
X9320428Y-13399714D01*
X9349000Y-13414000D01*
X9363286Y-13428286D01*
X9377571Y-13456857D01*
X9377571Y-13485429D01*
X9363286Y-13528286D01*
X9191857Y-13699714D01*
X9377571Y-13699714D01*
X9506143Y-13699714D02*
X9506143Y-13499714D01*
X9506143Y-13528286D02*
X9520428Y-13514000D01*
X9549000Y-13499714D01*
X9591857Y-13499714D01*
X9620428Y-13514000D01*
X9634714Y-13542571D01*
X9634714Y-13699714D01*
X9634714Y-13542571D02*
X9649000Y-13514000D01*
X9677571Y-13499714D01*
X9720428Y-13499714D01*
X9749000Y-13514000D01*
X9763286Y-13542571D01*
X9763286Y-13699714D01*
X9906143Y-13699714D02*
X9906143Y-13499714D01*
X9906143Y-13528286D02*
X9920428Y-13514000D01*
X9949000Y-13499714D01*
X9991857Y-13499714D01*
X10020428Y-13514000D01*
X10034714Y-13542571D01*
X10034714Y-13699714D01*
X10034714Y-13542571D02*
X10049000Y-13514000D01*
X10077571Y-13499714D01*
X10120428Y-13499714D01*
X10149000Y-13514000D01*
X10163286Y-13542571D01*
X10163286Y-13699714D01*
X10749000Y-13385429D02*
X10491857Y-13771143D01*
X11134714Y-13399714D02*
X11163286Y-13399714D01*
X11191857Y-13414000D01*
X11206143Y-13428286D01*
X11220428Y-13456857D01*
X11234714Y-13514000D01*
X11234714Y-13585429D01*
X11220428Y-13642571D01*
X11206143Y-13671143D01*
X11191857Y-13685429D01*
X11163286Y-13699714D01*
X11134714Y-13699714D01*
X11106143Y-13685429D01*
X11091857Y-13671143D01*
X11077571Y-13642571D01*
X11063286Y-13585429D01*
X11063286Y-13514000D01*
X11077571Y-13456857D01*
X11091857Y-13428286D01*
X11106143Y-13414000D01*
X11134714Y-13399714D01*
X11363286Y-13671143D02*
X11377571Y-13685429D01*
X11363286Y-13699714D01*
X11349000Y-13685429D01*
X11363286Y-13671143D01*
X11363286Y-13699714D01*
X11563286Y-13399714D02*
X11591857Y-13399714D01*
X11620428Y-13414000D01*
X11634714Y-13428286D01*
X11649000Y-13456857D01*
X11663286Y-13514000D01*
X11663286Y-13585429D01*
X11649000Y-13642571D01*
X11634714Y-13671143D01*
X11620428Y-13685429D01*
X11591857Y-13699714D01*
X11563286Y-13699714D01*
X11534714Y-13685429D01*
X11520428Y-13671143D01*
X11506143Y-13642571D01*
X11491857Y-13585429D01*
X11491857Y-13514000D01*
X11506143Y-13456857D01*
X11520428Y-13428286D01*
X11534714Y-13414000D01*
X11563286Y-13399714D01*
X11763286Y-13399714D02*
X11949000Y-13399714D01*
X11849000Y-13514000D01*
X11891857Y-13514000D01*
X11920428Y-13528286D01*
X11934714Y-13542571D01*
X11949000Y-13571143D01*
X11949000Y-13642571D01*
X11934714Y-13671143D01*
X11920428Y-13685429D01*
X11891857Y-13699714D01*
X11806143Y-13699714D01*
X11777571Y-13685429D01*
X11763286Y-13671143D01*
X12134714Y-13399714D02*
X12163286Y-13399714D01*
X12191857Y-13414000D01*
X12206143Y-13428286D01*
X12220428Y-13456857D01*
X12234714Y-13514000D01*
X12234714Y-13585429D01*
X12220428Y-13642571D01*
X12206143Y-13671143D01*
X12191857Y-13685429D01*
X12163286Y-13699714D01*
X12134714Y-13699714D01*
X12106143Y-13685429D01*
X12091857Y-13671143D01*
X12077571Y-13642571D01*
X12063286Y-13585429D01*
X12063286Y-13514000D01*
X12077571Y-13456857D01*
X12091857Y-13428286D01*
X12106143Y-13414000D01*
X12134714Y-13399714D01*
X12420428Y-13399714D02*
X12449000Y-13399714D01*
X12477571Y-13414000D01*
X12491857Y-13428286D01*
X12506143Y-13456857D01*
X12520428Y-13514000D01*
X12520428Y-13585429D01*
X12506143Y-13642571D01*
X12491857Y-13671143D01*
X12477571Y-13685429D01*
X12449000Y-13699714D01*
X12420428Y-13699714D01*
X12391857Y-13685429D01*
X12377571Y-13671143D01*
X12363286Y-13642571D01*
X12349000Y-13585429D01*
X12349000Y-13514000D01*
X12363286Y-13456857D01*
X12377571Y-13428286D01*
X12391857Y-13414000D01*
X12420428Y-13399714D01*
X12634714Y-13399714D02*
X12634714Y-13456857D01*
X12749000Y-13399714D02*
X12749000Y-13456857D01*
X13191857Y-13814000D02*
X13177571Y-13799714D01*
X13149000Y-13756857D01*
X13134714Y-13728286D01*
X13120428Y-13685429D01*
X13106143Y-13614000D01*
X13106143Y-13556857D01*
X13120428Y-13485429D01*
X13134714Y-13442571D01*
X13149000Y-13414000D01*
X13177571Y-13371143D01*
X13191857Y-13356857D01*
X13434714Y-13399714D02*
X13377571Y-13399714D01*
X13349000Y-13414000D01*
X13334714Y-13428286D01*
X13306143Y-13471143D01*
X13291857Y-13528286D01*
X13291857Y-13642571D01*
X13306143Y-13671143D01*
X13320428Y-13685429D01*
X13349000Y-13699714D01*
X13406143Y-13699714D01*
X13434714Y-13685429D01*
X13449000Y-13671143D01*
X13463286Y-13642571D01*
X13463286Y-13571143D01*
X13449000Y-13542571D01*
X13434714Y-13528286D01*
X13406143Y-13514000D01*
X13349000Y-13514000D01*
X13320428Y-13528286D01*
X13306143Y-13542571D01*
X13291857Y-13571143D01*
X13820428Y-13699714D02*
X13820428Y-13399714D01*
X13949000Y-13699714D02*
X13949000Y-13542571D01*
X13934714Y-13514000D01*
X13906143Y-13499714D01*
X13863286Y-13499714D01*
X13834714Y-13514000D01*
X13820428Y-13528286D01*
X14134714Y-13699714D02*
X14106143Y-13685429D01*
X14091857Y-13671143D01*
X14077571Y-13642571D01*
X14077571Y-13556857D01*
X14091857Y-13528286D01*
X14106143Y-13514000D01*
X14134714Y-13499714D01*
X14177571Y-13499714D01*
X14206143Y-13514000D01*
X14220428Y-13528286D01*
X14234714Y-13556857D01*
X14234714Y-13642571D01*
X14220428Y-13671143D01*
X14206143Y-13685429D01*
X14177571Y-13699714D01*
X14134714Y-13699714D01*
X14406143Y-13699714D02*
X14377571Y-13685429D01*
X14363286Y-13656857D01*
X14363286Y-13399714D01*
X14634714Y-13685429D02*
X14606143Y-13699714D01*
X14549000Y-13699714D01*
X14520428Y-13685429D01*
X14506143Y-13656857D01*
X14506143Y-13542571D01*
X14520428Y-13514000D01*
X14549000Y-13499714D01*
X14606143Y-13499714D01*
X14634714Y-13514000D01*
X14649000Y-13542571D01*
X14649000Y-13571143D01*
X14506143Y-13599714D01*
X14763286Y-13685429D02*
X14791857Y-13699714D01*
X14849000Y-13699714D01*
X14877571Y-13685429D01*
X14891857Y-13656857D01*
X14891857Y-13642571D01*
X14877571Y-13614000D01*
X14849000Y-13599714D01*
X14806143Y-13599714D01*
X14777571Y-13585429D01*
X14763286Y-13556857D01*
X14763286Y-13542571D01*
X14777571Y-13514000D01*
X14806143Y-13499714D01*
X14849000Y-13499714D01*
X14877571Y-13514000D01*
X14991857Y-13814000D02*
X15006143Y-13799714D01*
X15034714Y-13756857D01*
X15049000Y-13728286D01*
X15063286Y-13685429D01*
X15077571Y-13614000D01*
X15077571Y-13556857D01*
X15063286Y-13485429D01*
X15049000Y-13442571D01*
X15034714Y-13414000D01*
X15006143Y-13371143D01*
X14991857Y-13356857D01*
X7922284Y-13988285D02*
X7922284Y-13931716D01*
X7865715Y-13931716D01*
X7865715Y-13988285D01*
X7922284Y-13988285D01*
X8277571Y-13795714D02*
X8306143Y-13795714D01*
X8334714Y-13810000D01*
X8349000Y-13824286D01*
X8363286Y-13852857D01*
X8377571Y-13910000D01*
X8377571Y-13981429D01*
X8363286Y-14038571D01*
X8349000Y-14067143D01*
X8334714Y-14081429D01*
X8306143Y-14095714D01*
X8277571Y-14095714D01*
X8249000Y-14081429D01*
X8234714Y-14067143D01*
X8220428Y-14038571D01*
X8206143Y-13981429D01*
X8206143Y-13910000D01*
X8220428Y-13852857D01*
X8234714Y-13824286D01*
X8249000Y-13810000D01*
X8277571Y-13795714D01*
X8506143Y-14067143D02*
X8520428Y-14081429D01*
X8506143Y-14095714D01*
X8491857Y-14081429D01*
X8506143Y-14067143D01*
X8506143Y-14095714D01*
X8691857Y-13924286D02*
X8663286Y-13910000D01*
X8649000Y-13895714D01*
X8634714Y-13867143D01*
X8634714Y-13852857D01*
X8649000Y-13824286D01*
X8663286Y-13810000D01*
X8691857Y-13795714D01*
X8749000Y-13795714D01*
X8777571Y-13810000D01*
X8791857Y-13824286D01*
X8806143Y-13852857D01*
X8806143Y-13867143D01*
X8791857Y-13895714D01*
X8777571Y-13910000D01*
X8749000Y-13924286D01*
X8691857Y-13924286D01*
X8663286Y-13938571D01*
X8649000Y-13952857D01*
X8634714Y-13981429D01*
X8634714Y-14038571D01*
X8649000Y-14067143D01*
X8663286Y-14081429D01*
X8691857Y-14095714D01*
X8749000Y-14095714D01*
X8777571Y-14081429D01*
X8791857Y-14067143D01*
X8806143Y-14038571D01*
X8806143Y-13981429D01*
X8791857Y-13952857D01*
X8777571Y-13938571D01*
X8749000Y-13924286D01*
X8991857Y-13795714D02*
X9020428Y-13795714D01*
X9049000Y-13810000D01*
X9063286Y-13824286D01*
X9077571Y-13852857D01*
X9091857Y-13910000D01*
X9091857Y-13981429D01*
X9077571Y-14038571D01*
X9063286Y-14067143D01*
X9049000Y-14081429D01*
X9020428Y-14095714D01*
X8991857Y-14095714D01*
X8963286Y-14081429D01*
X8949000Y-14067143D01*
X8934714Y-14038571D01*
X8920428Y-13981429D01*
X8920428Y-13910000D01*
X8934714Y-13852857D01*
X8949000Y-13824286D01*
X8963286Y-13810000D01*
X8991857Y-13795714D01*
X9277571Y-13795714D02*
X9306143Y-13795714D01*
X9334714Y-13810000D01*
X9349000Y-13824286D01*
X9363286Y-13852857D01*
X9377571Y-13910000D01*
X9377571Y-13981429D01*
X9363286Y-14038571D01*
X9349000Y-14067143D01*
X9334714Y-14081429D01*
X9306143Y-14095714D01*
X9277571Y-14095714D01*
X9249000Y-14081429D01*
X9234714Y-14067143D01*
X9220428Y-14038571D01*
X9206143Y-13981429D01*
X9206143Y-13910000D01*
X9220428Y-13852857D01*
X9234714Y-13824286D01*
X9249000Y-13810000D01*
X9277571Y-13795714D01*
X9506143Y-14095714D02*
X9506143Y-13895714D01*
X9506143Y-13924286D02*
X9520428Y-13910000D01*
X9549000Y-13895714D01*
X9591857Y-13895714D01*
X9620428Y-13910000D01*
X9634714Y-13938571D01*
X9634714Y-14095714D01*
X9634714Y-13938571D02*
X9649000Y-13910000D01*
X9677571Y-13895714D01*
X9720428Y-13895714D01*
X9749000Y-13910000D01*
X9763286Y-13938571D01*
X9763286Y-14095714D01*
X9906143Y-14095714D02*
X9906143Y-13895714D01*
X9906143Y-13924286D02*
X9920428Y-13910000D01*
X9949000Y-13895714D01*
X9991857Y-13895714D01*
X10020428Y-13910000D01*
X10034714Y-13938571D01*
X10034714Y-14095714D01*
X10034714Y-13938571D02*
X10049000Y-13910000D01*
X10077571Y-13895714D01*
X10120428Y-13895714D01*
X10149000Y-13910000D01*
X10163286Y-13938571D01*
X10163286Y-14095714D01*
X10749000Y-13781429D02*
X10491857Y-14167143D01*
X11134714Y-13795714D02*
X11163286Y-13795714D01*
X11191857Y-13810000D01*
X11206143Y-13824286D01*
X11220428Y-13852857D01*
X11234714Y-13910000D01*
X11234714Y-13981429D01*
X11220428Y-14038571D01*
X11206143Y-14067143D01*
X11191857Y-14081429D01*
X11163286Y-14095714D01*
X11134714Y-14095714D01*
X11106143Y-14081429D01*
X11091857Y-14067143D01*
X11077571Y-14038571D01*
X11063286Y-13981429D01*
X11063286Y-13910000D01*
X11077571Y-13852857D01*
X11091857Y-13824286D01*
X11106143Y-13810000D01*
X11134714Y-13795714D01*
X11363286Y-14067143D02*
X11377571Y-14081429D01*
X11363286Y-14095714D01*
X11349000Y-14081429D01*
X11363286Y-14067143D01*
X11363286Y-14095714D01*
X11563286Y-13795714D02*
X11591857Y-13795714D01*
X11620428Y-13810000D01*
X11634714Y-13824286D01*
X11649000Y-13852857D01*
X11663286Y-13910000D01*
X11663286Y-13981429D01*
X11649000Y-14038571D01*
X11634714Y-14067143D01*
X11620428Y-14081429D01*
X11591857Y-14095714D01*
X11563286Y-14095714D01*
X11534714Y-14081429D01*
X11520428Y-14067143D01*
X11506143Y-14038571D01*
X11491857Y-13981429D01*
X11491857Y-13910000D01*
X11506143Y-13852857D01*
X11520428Y-13824286D01*
X11534714Y-13810000D01*
X11563286Y-13795714D01*
X11763286Y-13795714D02*
X11949000Y-13795714D01*
X11849000Y-13910000D01*
X11891857Y-13910000D01*
X11920428Y-13924286D01*
X11934714Y-13938571D01*
X11949000Y-13967143D01*
X11949000Y-14038571D01*
X11934714Y-14067143D01*
X11920428Y-14081429D01*
X11891857Y-14095714D01*
X11806143Y-14095714D01*
X11777571Y-14081429D01*
X11763286Y-14067143D01*
X12234714Y-14095714D02*
X12063286Y-14095714D01*
X12149000Y-14095714D02*
X12149000Y-13795714D01*
X12120428Y-13838571D01*
X12091857Y-13867143D01*
X12063286Y-13881429D01*
X12506143Y-13795714D02*
X12363286Y-13795714D01*
X12349000Y-13938571D01*
X12363286Y-13924286D01*
X12391857Y-13910000D01*
X12463286Y-13910000D01*
X12491857Y-13924286D01*
X12506143Y-13938571D01*
X12520428Y-13967143D01*
X12520428Y-14038571D01*
X12506143Y-14067143D01*
X12491857Y-14081429D01*
X12463286Y-14095714D01*
X12391857Y-14095714D01*
X12363286Y-14081429D01*
X12349000Y-14067143D01*
X12634714Y-13795714D02*
X12634714Y-13852857D01*
X12749000Y-13795714D02*
X12749000Y-13852857D01*
X13191857Y-14210000D02*
X13177571Y-14195714D01*
X13149000Y-14152857D01*
X13134714Y-14124286D01*
X13120428Y-14081429D01*
X13106143Y-14010000D01*
X13106143Y-13952857D01*
X13120428Y-13881429D01*
X13134714Y-13838571D01*
X13149000Y-13810000D01*
X13177571Y-13767143D01*
X13191857Y-13752857D01*
X13434714Y-13795714D02*
X13377571Y-13795714D01*
X13349000Y-13810000D01*
X13334714Y-13824286D01*
X13306143Y-13867143D01*
X13291857Y-13924286D01*
X13291857Y-14038571D01*
X13306143Y-14067143D01*
X13320428Y-14081429D01*
X13349000Y-14095714D01*
X13406143Y-14095714D01*
X13434714Y-14081429D01*
X13449000Y-14067143D01*
X13463286Y-14038571D01*
X13463286Y-13967143D01*
X13449000Y-13938571D01*
X13434714Y-13924286D01*
X13406143Y-13910000D01*
X13349000Y-13910000D01*
X13320428Y-13924286D01*
X13306143Y-13938571D01*
X13291857Y-13967143D01*
X13649000Y-13795714D02*
X13677571Y-13795714D01*
X13706143Y-13810000D01*
X13720428Y-13824286D01*
X13734714Y-13852857D01*
X13749000Y-13910000D01*
X13749000Y-13981429D01*
X13734714Y-14038571D01*
X13720428Y-14067143D01*
X13706143Y-14081429D01*
X13677571Y-14095714D01*
X13649000Y-14095714D01*
X13620428Y-14081429D01*
X13606143Y-14067143D01*
X13591857Y-14038571D01*
X13577571Y-13981429D01*
X13577571Y-13910000D01*
X13591857Y-13852857D01*
X13606143Y-13824286D01*
X13620428Y-13810000D01*
X13649000Y-13795714D01*
X14106143Y-14095714D02*
X14106143Y-13795714D01*
X14234714Y-14095714D02*
X14234714Y-13938571D01*
X14220428Y-13910000D01*
X14191857Y-13895714D01*
X14149000Y-13895714D01*
X14120428Y-13910000D01*
X14106143Y-13924286D01*
X14420428Y-14095714D02*
X14391857Y-14081429D01*
X14377571Y-14067143D01*
X14363286Y-14038571D01*
X14363286Y-13952857D01*
X14377571Y-13924286D01*
X14391857Y-13910000D01*
X14420428Y-13895714D01*
X14463286Y-13895714D01*
X14491857Y-13910000D01*
X14506143Y-13924286D01*
X14520428Y-13952857D01*
X14520428Y-14038571D01*
X14506143Y-14067143D01*
X14491857Y-14081429D01*
X14463286Y-14095714D01*
X14420428Y-14095714D01*
X14691857Y-14095714D02*
X14663286Y-14081429D01*
X14649000Y-14052857D01*
X14649000Y-13795714D01*
X14920428Y-14081429D02*
X14891857Y-14095714D01*
X14834714Y-14095714D01*
X14806143Y-14081429D01*
X14791857Y-14052857D01*
X14791857Y-13938571D01*
X14806143Y-13910000D01*
X14834714Y-13895714D01*
X14891857Y-13895714D01*
X14920428Y-13910000D01*
X14934714Y-13938571D01*
X14934714Y-13967143D01*
X14791857Y-13995714D01*
X15049000Y-14081429D02*
X15077571Y-14095714D01*
X15134714Y-14095714D01*
X15163286Y-14081429D01*
X15177571Y-14052857D01*
X15177571Y-14038571D01*
X15163286Y-14010000D01*
X15134714Y-13995714D01*
X15091857Y-13995714D01*
X15063286Y-13981429D01*
X15049000Y-13952857D01*
X15049000Y-13938571D01*
X15063286Y-13910000D01*
X15091857Y-13895714D01*
X15134714Y-13895714D01*
X15163286Y-13910000D01*
X15277571Y-14210000D02*
X15291857Y-14195714D01*
X15320428Y-14152857D01*
X15334714Y-14124286D01*
X15349000Y-14081429D01*
X15363286Y-14010000D01*
X15363286Y-13952857D01*
X15349000Y-13881429D01*
X15334714Y-13838571D01*
X15320428Y-13810000D01*
X15291857Y-13767143D01*
X15277571Y-13752857D01*
X7884000Y-14406000D02*
X7934000Y-14356000D01*
X7884000Y-14306000D01*
X7834000Y-14356000D01*
X7884000Y-14406000D01*
X8377571Y-14491714D02*
X8206143Y-14491714D01*
X8291857Y-14491714D02*
X8291857Y-14191714D01*
X8263286Y-14234571D01*
X8234714Y-14263143D01*
X8206143Y-14277429D01*
X8506143Y-14463143D02*
X8520428Y-14477429D01*
X8506143Y-14491714D01*
X8491857Y-14477429D01*
X8506143Y-14463143D01*
X8506143Y-14491714D01*
X8706143Y-14191714D02*
X8734714Y-14191714D01*
X8763286Y-14206000D01*
X8777571Y-14220286D01*
X8791857Y-14248857D01*
X8806143Y-14306000D01*
X8806143Y-14377429D01*
X8791857Y-14434571D01*
X8777571Y-14463143D01*
X8763286Y-14477429D01*
X8734714Y-14491714D01*
X8706143Y-14491714D01*
X8677571Y-14477429D01*
X8663286Y-14463143D01*
X8649000Y-14434571D01*
X8634714Y-14377429D01*
X8634714Y-14306000D01*
X8649000Y-14248857D01*
X8663286Y-14220286D01*
X8677571Y-14206000D01*
X8706143Y-14191714D01*
X8991857Y-14191714D02*
X9020428Y-14191714D01*
X9049000Y-14206000D01*
X9063286Y-14220286D01*
X9077571Y-14248857D01*
X9091857Y-14306000D01*
X9091857Y-14377429D01*
X9077571Y-14434571D01*
X9063286Y-14463143D01*
X9049000Y-14477429D01*
X9020428Y-14491714D01*
X8991857Y-14491714D01*
X8963286Y-14477429D01*
X8949000Y-14463143D01*
X8934714Y-14434571D01*
X8920428Y-14377429D01*
X8920428Y-14306000D01*
X8934714Y-14248857D01*
X8949000Y-14220286D01*
X8963286Y-14206000D01*
X8991857Y-14191714D01*
X9277571Y-14191714D02*
X9306143Y-14191714D01*
X9334714Y-14206000D01*
X9349000Y-14220286D01*
X9363286Y-14248857D01*
X9377571Y-14306000D01*
X9377571Y-14377429D01*
X9363286Y-14434571D01*
X9349000Y-14463143D01*
X9334714Y-14477429D01*
X9306143Y-14491714D01*
X9277571Y-14491714D01*
X9249000Y-14477429D01*
X9234714Y-14463143D01*
X9220428Y-14434571D01*
X9206143Y-14377429D01*
X9206143Y-14306000D01*
X9220428Y-14248857D01*
X9234714Y-14220286D01*
X9249000Y-14206000D01*
X9277571Y-14191714D01*
X9506143Y-14491714D02*
X9506143Y-14291714D01*
X9506143Y-14320286D02*
X9520428Y-14306000D01*
X9549000Y-14291714D01*
X9591857Y-14291714D01*
X9620428Y-14306000D01*
X9634714Y-14334571D01*
X9634714Y-14491714D01*
X9634714Y-14334571D02*
X9649000Y-14306000D01*
X9677571Y-14291714D01*
X9720428Y-14291714D01*
X9749000Y-14306000D01*
X9763286Y-14334571D01*
X9763286Y-14491714D01*
X9906143Y-14491714D02*
X9906143Y-14291714D01*
X9906143Y-14320286D02*
X9920428Y-14306000D01*
X9949000Y-14291714D01*
X9991857Y-14291714D01*
X10020428Y-14306000D01*
X10034714Y-14334571D01*
X10034714Y-14491714D01*
X10034714Y-14334571D02*
X10049000Y-14306000D01*
X10077571Y-14291714D01*
X10120428Y-14291714D01*
X10149000Y-14306000D01*
X10163286Y-14334571D01*
X10163286Y-14491714D01*
X10749000Y-14177429D02*
X10491857Y-14563143D01*
X11134714Y-14191714D02*
X11163286Y-14191714D01*
X11191857Y-14206000D01*
X11206143Y-14220286D01*
X11220428Y-14248857D01*
X11234714Y-14306000D01*
X11234714Y-14377429D01*
X11220428Y-14434571D01*
X11206143Y-14463143D01*
X11191857Y-14477429D01*
X11163286Y-14491714D01*
X11134714Y-14491714D01*
X11106143Y-14477429D01*
X11091857Y-14463143D01*
X11077571Y-14434571D01*
X11063286Y-14377429D01*
X11063286Y-14306000D01*
X11077571Y-14248857D01*
X11091857Y-14220286D01*
X11106143Y-14206000D01*
X11134714Y-14191714D01*
X11363286Y-14463143D02*
X11377571Y-14477429D01*
X11363286Y-14491714D01*
X11349000Y-14477429D01*
X11363286Y-14463143D01*
X11363286Y-14491714D01*
X11563286Y-14191714D02*
X11591857Y-14191714D01*
X11620428Y-14206000D01*
X11634714Y-14220286D01*
X11649000Y-14248857D01*
X11663286Y-14306000D01*
X11663286Y-14377429D01*
X11649000Y-14434571D01*
X11634714Y-14463143D01*
X11620428Y-14477429D01*
X11591857Y-14491714D01*
X11563286Y-14491714D01*
X11534714Y-14477429D01*
X11520428Y-14463143D01*
X11506143Y-14434571D01*
X11491857Y-14377429D01*
X11491857Y-14306000D01*
X11506143Y-14248857D01*
X11520428Y-14220286D01*
X11534714Y-14206000D01*
X11563286Y-14191714D01*
X11763286Y-14191714D02*
X11949000Y-14191714D01*
X11849000Y-14306000D01*
X11891857Y-14306000D01*
X11920428Y-14320286D01*
X11934714Y-14334571D01*
X11949000Y-14363143D01*
X11949000Y-14434571D01*
X11934714Y-14463143D01*
X11920428Y-14477429D01*
X11891857Y-14491714D01*
X11806143Y-14491714D01*
X11777571Y-14477429D01*
X11763286Y-14463143D01*
X12091857Y-14491714D02*
X12149000Y-14491714D01*
X12177571Y-14477429D01*
X12191857Y-14463143D01*
X12220428Y-14420286D01*
X12234714Y-14363143D01*
X12234714Y-14248857D01*
X12220428Y-14220286D01*
X12206143Y-14206000D01*
X12177571Y-14191714D01*
X12120428Y-14191714D01*
X12091857Y-14206000D01*
X12077571Y-14220286D01*
X12063286Y-14248857D01*
X12063286Y-14320286D01*
X12077571Y-14348857D01*
X12091857Y-14363143D01*
X12120428Y-14377429D01*
X12177571Y-14377429D01*
X12206143Y-14363143D01*
X12220428Y-14348857D01*
X12234714Y-14320286D01*
X12491857Y-14291714D02*
X12491857Y-14491714D01*
X12420428Y-14177429D02*
X12349000Y-14391714D01*
X12534714Y-14391714D01*
X12634714Y-14191714D02*
X12634714Y-14248857D01*
X12749000Y-14191714D02*
X12749000Y-14248857D01*
X13191857Y-14606000D02*
X13177571Y-14591714D01*
X13149000Y-14548857D01*
X13134714Y-14520286D01*
X13120428Y-14477429D01*
X13106143Y-14406000D01*
X13106143Y-14348857D01*
X13120428Y-14277429D01*
X13134714Y-14234571D01*
X13149000Y-14206000D01*
X13177571Y-14163143D01*
X13191857Y-14148857D01*
X13277571Y-14191714D02*
X13463286Y-14191714D01*
X13363286Y-14306000D01*
X13406143Y-14306000D01*
X13434714Y-14320286D01*
X13449000Y-14334571D01*
X13463286Y-14363143D01*
X13463286Y-14434571D01*
X13449000Y-14463143D01*
X13434714Y-14477429D01*
X13406143Y-14491714D01*
X13320428Y-14491714D01*
X13291857Y-14477429D01*
X13277571Y-14463143D01*
X13634714Y-14320286D02*
X13606143Y-14306000D01*
X13591857Y-14291714D01*
X13577571Y-14263143D01*
X13577571Y-14248857D01*
X13591857Y-14220286D01*
X13606143Y-14206000D01*
X13634714Y-14191714D01*
X13691857Y-14191714D01*
X13720428Y-14206000D01*
X13734714Y-14220286D01*
X13749000Y-14248857D01*
X13749000Y-14263143D01*
X13734714Y-14291714D01*
X13720428Y-14306000D01*
X13691857Y-14320286D01*
X13634714Y-14320286D01*
X13606143Y-14334571D01*
X13591857Y-14348857D01*
X13577571Y-14377429D01*
X13577571Y-14434571D01*
X13591857Y-14463143D01*
X13606143Y-14477429D01*
X13634714Y-14491714D01*
X13691857Y-14491714D01*
X13720428Y-14477429D01*
X13734714Y-14463143D01*
X13749000Y-14434571D01*
X13749000Y-14377429D01*
X13734714Y-14348857D01*
X13720428Y-14334571D01*
X13691857Y-14320286D01*
X14106143Y-14491714D02*
X14106143Y-14191714D01*
X14234714Y-14491714D02*
X14234714Y-14334571D01*
X14220428Y-14306000D01*
X14191857Y-14291714D01*
X14149000Y-14291714D01*
X14120428Y-14306000D01*
X14106143Y-14320286D01*
X14420428Y-14491714D02*
X14391857Y-14477429D01*
X14377571Y-14463143D01*
X14363286Y-14434571D01*
X14363286Y-14348857D01*
X14377571Y-14320286D01*
X14391857Y-14306000D01*
X14420428Y-14291714D01*
X14463286Y-14291714D01*
X14491857Y-14306000D01*
X14506143Y-14320286D01*
X14520428Y-14348857D01*
X14520428Y-14434571D01*
X14506143Y-14463143D01*
X14491857Y-14477429D01*
X14463286Y-14491714D01*
X14420428Y-14491714D01*
X14691857Y-14491714D02*
X14663286Y-14477429D01*
X14649000Y-14448857D01*
X14649000Y-14191714D01*
X14920428Y-14477429D02*
X14891857Y-14491714D01*
X14834714Y-14491714D01*
X14806143Y-14477429D01*
X14791857Y-14448857D01*
X14791857Y-14334571D01*
X14806143Y-14306000D01*
X14834714Y-14291714D01*
X14891857Y-14291714D01*
X14920428Y-14306000D01*
X14934714Y-14334571D01*
X14934714Y-14363143D01*
X14791857Y-14391714D01*
X15049000Y-14477429D02*
X15077571Y-14491714D01*
X15134714Y-14491714D01*
X15163286Y-14477429D01*
X15177571Y-14448857D01*
X15177571Y-14434571D01*
X15163286Y-14406000D01*
X15134714Y-14391714D01*
X15091857Y-14391714D01*
X15063286Y-14377429D01*
X15049000Y-14348857D01*
X15049000Y-14334571D01*
X15063286Y-14306000D01*
X15091857Y-14291714D01*
X15134714Y-14291714D01*
X15163286Y-14306000D01*
X15534714Y-14377429D02*
X15763286Y-14377429D01*
X15649000Y-14491714D02*
X15649000Y-14263143D01*
X16106143Y-14191714D02*
X16291857Y-14191714D01*
X16191857Y-14306000D01*
X16234714Y-14306000D01*
X16263286Y-14320286D01*
X16277571Y-14334571D01*
X16291857Y-14363143D01*
X16291857Y-14434571D01*
X16277571Y-14463143D01*
X16263286Y-14477429D01*
X16234714Y-14491714D01*
X16149000Y-14491714D01*
X16120428Y-14477429D01*
X16106143Y-14463143D01*
X16634714Y-14477429D02*
X16663286Y-14491714D01*
X16720428Y-14491714D01*
X16749000Y-14477429D01*
X16763286Y-14448857D01*
X16763286Y-14434571D01*
X16749000Y-14406000D01*
X16720428Y-14391714D01*
X16677571Y-14391714D01*
X16649000Y-14377429D01*
X16634714Y-14348857D01*
X16634714Y-14334571D01*
X16649000Y-14306000D01*
X16677571Y-14291714D01*
X16720428Y-14291714D01*
X16749000Y-14306000D01*
X16934714Y-14491714D02*
X16906143Y-14477429D01*
X16891857Y-14448857D01*
X16891857Y-14191714D01*
X17091857Y-14491714D02*
X17063286Y-14477429D01*
X17049000Y-14463143D01*
X17034714Y-14434571D01*
X17034714Y-14348857D01*
X17049000Y-14320286D01*
X17063286Y-14306000D01*
X17091857Y-14291714D01*
X17134714Y-14291714D01*
X17163286Y-14306000D01*
X17177571Y-14320286D01*
X17191857Y-14348857D01*
X17191857Y-14434571D01*
X17177571Y-14463143D01*
X17163286Y-14477429D01*
X17134714Y-14491714D01*
X17091857Y-14491714D01*
X17277571Y-14291714D02*
X17391857Y-14291714D01*
X17320428Y-14191714D02*
X17320428Y-14448857D01*
X17334714Y-14477429D01*
X17363286Y-14491714D01*
X17391857Y-14491714D01*
X17477571Y-14477429D02*
X17506143Y-14491714D01*
X17563286Y-14491714D01*
X17591857Y-14477429D01*
X17606143Y-14448857D01*
X17606143Y-14434571D01*
X17591857Y-14406000D01*
X17563286Y-14391714D01*
X17520428Y-14391714D01*
X17491857Y-14377429D01*
X17477571Y-14348857D01*
X17477571Y-14334571D01*
X17491857Y-14306000D01*
X17520428Y-14291714D01*
X17563286Y-14291714D01*
X17591857Y-14306000D01*
X17706143Y-14606000D02*
X17720428Y-14591714D01*
X17749000Y-14548857D01*
X17763286Y-14520286D01*
X17777571Y-14477429D01*
X17791857Y-14406000D01*
X17791857Y-14348857D01*
X17777571Y-14277429D01*
X17763286Y-14234571D01*
X17749000Y-14206000D01*
X17720428Y-14163143D01*
X17706143Y-14148857D01*
X7714000Y-14642000D02*
X7934000Y-14862000D01*
X7934000Y-14642000D02*
X7714000Y-14862000D01*
X7934000Y-14752000D02*
G75*
G03*
X7934000Y-14752000I-110000J0D01*
G01*
X8206143Y-14616286D02*
X8220428Y-14602000D01*
X8249000Y-14587714D01*
X8320428Y-14587714D01*
X8349000Y-14602000D01*
X8363286Y-14616286D01*
X8377571Y-14644857D01*
X8377571Y-14673429D01*
X8363286Y-14716286D01*
X8191857Y-14887714D01*
X8377571Y-14887714D01*
X8506143Y-14859143D02*
X8520428Y-14873429D01*
X8506143Y-14887714D01*
X8491857Y-14873429D01*
X8506143Y-14859143D01*
X8506143Y-14887714D01*
X8634714Y-14616286D02*
X8649000Y-14602000D01*
X8677571Y-14587714D01*
X8749000Y-14587714D01*
X8777571Y-14602000D01*
X8791857Y-14616286D01*
X8806143Y-14644857D01*
X8806143Y-14673429D01*
X8791857Y-14716286D01*
X8620428Y-14887714D01*
X8806143Y-14887714D01*
X8991857Y-14587714D02*
X9020428Y-14587714D01*
X9049000Y-14602000D01*
X9063286Y-14616286D01*
X9077571Y-14644857D01*
X9091857Y-14702000D01*
X9091857Y-14773429D01*
X9077571Y-14830571D01*
X9063286Y-14859143D01*
X9049000Y-14873429D01*
X9020428Y-14887714D01*
X8991857Y-14887714D01*
X8963286Y-14873429D01*
X8949000Y-14859143D01*
X8934714Y-14830571D01*
X8920428Y-14773429D01*
X8920428Y-14702000D01*
X8934714Y-14644857D01*
X8949000Y-14616286D01*
X8963286Y-14602000D01*
X8991857Y-14587714D01*
X9277571Y-14587714D02*
X9306143Y-14587714D01*
X9334714Y-14602000D01*
X9349000Y-14616286D01*
X9363286Y-14644857D01*
X9377571Y-14702000D01*
X9377571Y-14773429D01*
X9363286Y-14830571D01*
X9349000Y-14859143D01*
X9334714Y-14873429D01*
X9306143Y-14887714D01*
X9277571Y-14887714D01*
X9249000Y-14873429D01*
X9234714Y-14859143D01*
X9220428Y-14830571D01*
X9206143Y-14773429D01*
X9206143Y-14702000D01*
X9220428Y-14644857D01*
X9234714Y-14616286D01*
X9249000Y-14602000D01*
X9277571Y-14587714D01*
X9506143Y-14887714D02*
X9506143Y-14687714D01*
X9506143Y-14716286D02*
X9520428Y-14702000D01*
X9549000Y-14687714D01*
X9591857Y-14687714D01*
X9620428Y-14702000D01*
X9634714Y-14730571D01*
X9634714Y-14887714D01*
X9634714Y-14730571D02*
X9649000Y-14702000D01*
X9677571Y-14687714D01*
X9720428Y-14687714D01*
X9749000Y-14702000D01*
X9763286Y-14730571D01*
X9763286Y-14887714D01*
X9906143Y-14887714D02*
X9906143Y-14687714D01*
X9906143Y-14716286D02*
X9920428Y-14702000D01*
X9949000Y-14687714D01*
X9991857Y-14687714D01*
X10020428Y-14702000D01*
X10034714Y-14730571D01*
X10034714Y-14887714D01*
X10034714Y-14730571D02*
X10049000Y-14702000D01*
X10077571Y-14687714D01*
X10120428Y-14687714D01*
X10149000Y-14702000D01*
X10163286Y-14730571D01*
X10163286Y-14887714D01*
X10749000Y-14573429D02*
X10491857Y-14959143D01*
X11134714Y-14587714D02*
X11163286Y-14587714D01*
X11191857Y-14602000D01*
X11206143Y-14616286D01*
X11220428Y-14644857D01*
X11234714Y-14702000D01*
X11234714Y-14773429D01*
X11220428Y-14830571D01*
X11206143Y-14859143D01*
X11191857Y-14873429D01*
X11163286Y-14887714D01*
X11134714Y-14887714D01*
X11106143Y-14873429D01*
X11091857Y-14859143D01*
X11077571Y-14830571D01*
X11063286Y-14773429D01*
X11063286Y-14702000D01*
X11077571Y-14644857D01*
X11091857Y-14616286D01*
X11106143Y-14602000D01*
X11134714Y-14587714D01*
X11363286Y-14859143D02*
X11377571Y-14873429D01*
X11363286Y-14887714D01*
X11349000Y-14873429D01*
X11363286Y-14859143D01*
X11363286Y-14887714D01*
X11563286Y-14587714D02*
X11591857Y-14587714D01*
X11620428Y-14602000D01*
X11634714Y-14616286D01*
X11649000Y-14644857D01*
X11663286Y-14702000D01*
X11663286Y-14773429D01*
X11649000Y-14830571D01*
X11634714Y-14859143D01*
X11620428Y-14873429D01*
X11591857Y-14887714D01*
X11563286Y-14887714D01*
X11534714Y-14873429D01*
X11520428Y-14859143D01*
X11506143Y-14830571D01*
X11491857Y-14773429D01*
X11491857Y-14702000D01*
X11506143Y-14644857D01*
X11520428Y-14616286D01*
X11534714Y-14602000D01*
X11563286Y-14587714D01*
X11834714Y-14716286D02*
X11806143Y-14702000D01*
X11791857Y-14687714D01*
X11777571Y-14659143D01*
X11777571Y-14644857D01*
X11791857Y-14616286D01*
X11806143Y-14602000D01*
X11834714Y-14587714D01*
X11891857Y-14587714D01*
X11920428Y-14602000D01*
X11934714Y-14616286D01*
X11949000Y-14644857D01*
X11949000Y-14659143D01*
X11934714Y-14687714D01*
X11920428Y-14702000D01*
X11891857Y-14716286D01*
X11834714Y-14716286D01*
X11806143Y-14730571D01*
X11791857Y-14744857D01*
X11777571Y-14773429D01*
X11777571Y-14830571D01*
X11791857Y-14859143D01*
X11806143Y-14873429D01*
X11834714Y-14887714D01*
X11891857Y-14887714D01*
X11920428Y-14873429D01*
X11934714Y-14859143D01*
X11949000Y-14830571D01*
X11949000Y-14773429D01*
X11934714Y-14744857D01*
X11920428Y-14730571D01*
X11891857Y-14716286D01*
X12206143Y-14587714D02*
X12149000Y-14587714D01*
X12120428Y-14602000D01*
X12106143Y-14616286D01*
X12077571Y-14659143D01*
X12063286Y-14716286D01*
X12063286Y-14830571D01*
X12077571Y-14859143D01*
X12091857Y-14873429D01*
X12120428Y-14887714D01*
X12177571Y-14887714D01*
X12206143Y-14873429D01*
X12220428Y-14859143D01*
X12234714Y-14830571D01*
X12234714Y-14759143D01*
X12220428Y-14730571D01*
X12206143Y-14716286D01*
X12177571Y-14702000D01*
X12120428Y-14702000D01*
X12091857Y-14716286D01*
X12077571Y-14730571D01*
X12063286Y-14759143D01*
X12491857Y-14587714D02*
X12434714Y-14587714D01*
X12406143Y-14602000D01*
X12391857Y-14616286D01*
X12363286Y-14659143D01*
X12349000Y-14716286D01*
X12349000Y-14830571D01*
X12363286Y-14859143D01*
X12377571Y-14873429D01*
X12406143Y-14887714D01*
X12463286Y-14887714D01*
X12491857Y-14873429D01*
X12506143Y-14859143D01*
X12520428Y-14830571D01*
X12520428Y-14759143D01*
X12506143Y-14730571D01*
X12491857Y-14716286D01*
X12463286Y-14702000D01*
X12406143Y-14702000D01*
X12377571Y-14716286D01*
X12363286Y-14730571D01*
X12349000Y-14759143D01*
X12634714Y-14587714D02*
X12634714Y-14644857D01*
X12749000Y-14587714D02*
X12749000Y-14644857D01*
X13191857Y-15002000D02*
X13177571Y-14987714D01*
X13149000Y-14944857D01*
X13134714Y-14916286D01*
X13120428Y-14873429D01*
X13106143Y-14802000D01*
X13106143Y-14744857D01*
X13120428Y-14673429D01*
X13134714Y-14630571D01*
X13149000Y-14602000D01*
X13177571Y-14559143D01*
X13191857Y-14544857D01*
X13434714Y-14687714D02*
X13434714Y-14887714D01*
X13363286Y-14573429D02*
X13291857Y-14787714D01*
X13477571Y-14787714D01*
X13820428Y-14887714D02*
X13820428Y-14587714D01*
X13949000Y-14887714D02*
X13949000Y-14730571D01*
X13934714Y-14702000D01*
X13906143Y-14687714D01*
X13863286Y-14687714D01*
X13834714Y-14702000D01*
X13820428Y-14716286D01*
X14134714Y-14887714D02*
X14106143Y-14873429D01*
X14091857Y-14859143D01*
X14077571Y-14830571D01*
X14077571Y-14744857D01*
X14091857Y-14716286D01*
X14106143Y-14702000D01*
X14134714Y-14687714D01*
X14177571Y-14687714D01*
X14206143Y-14702000D01*
X14220428Y-14716286D01*
X14234714Y-14744857D01*
X14234714Y-14830571D01*
X14220428Y-14859143D01*
X14206143Y-14873429D01*
X14177571Y-14887714D01*
X14134714Y-14887714D01*
X14406143Y-14887714D02*
X14377571Y-14873429D01*
X14363286Y-14844857D01*
X14363286Y-14587714D01*
X14634714Y-14873429D02*
X14606143Y-14887714D01*
X14549000Y-14887714D01*
X14520428Y-14873429D01*
X14506143Y-14844857D01*
X14506143Y-14730571D01*
X14520428Y-14702000D01*
X14549000Y-14687714D01*
X14606143Y-14687714D01*
X14634714Y-14702000D01*
X14649000Y-14730571D01*
X14649000Y-14759143D01*
X14506143Y-14787714D01*
X14763286Y-14873429D02*
X14791857Y-14887714D01*
X14849000Y-14887714D01*
X14877571Y-14873429D01*
X14891857Y-14844857D01*
X14891857Y-14830571D01*
X14877571Y-14802000D01*
X14849000Y-14787714D01*
X14806143Y-14787714D01*
X14777571Y-14773429D01*
X14763286Y-14744857D01*
X14763286Y-14730571D01*
X14777571Y-14702000D01*
X14806143Y-14687714D01*
X14849000Y-14687714D01*
X14877571Y-14702000D01*
X14991857Y-15002000D02*
X15006143Y-14987714D01*
X15034714Y-14944857D01*
X15049000Y-14916286D01*
X15063286Y-14873429D01*
X15077571Y-14802000D01*
X15077571Y-14744857D01*
X15063286Y-14673429D01*
X15049000Y-14630571D01*
X15034714Y-14602000D01*
X15006143Y-14559143D01*
X14991857Y-14544857D01*
M02*
