G04 #@! TF.GenerationSoftware,KiCad,Pcbnew,5.1.10*
G04 #@! TF.CreationDate,2021-11-20T20:14:31+08:00*
G04 #@! TF.ProjectId,air_mon2,6169725f-6d6f-46e3-922e-6b696361645f,rev?*
G04 #@! TF.SameCoordinates,Original*
G04 #@! TF.FileFunction,Copper,L2,Bot*
G04 #@! TF.FilePolarity,Positive*
%FSLAX46Y46*%
G04 Gerber Fmt 4.6, Leading zero omitted, Abs format (unit mm)*
G04 Created by KiCad (PCBNEW 5.1.10) date 2021-11-20 20:14:31*
%MOMM*%
%LPD*%
G01*
G04 APERTURE LIST*
G04 #@! TA.AperFunction,ComponentPad*
%ADD10R,3.500000X3.500000*%
G04 #@! TD*
G04 #@! TA.AperFunction,ComponentPad*
%ADD11O,2.000000X1.200000*%
G04 #@! TD*
G04 #@! TA.AperFunction,ComponentPad*
%ADD12C,1.350000*%
G04 #@! TD*
G04 #@! TA.AperFunction,ComponentPad*
%ADD13R,1.350000X1.350000*%
G04 #@! TD*
G04 #@! TA.AperFunction,ComponentPad*
%ADD14O,1.700000X1.700000*%
G04 #@! TD*
G04 #@! TA.AperFunction,ComponentPad*
%ADD15R,1.700000X1.700000*%
G04 #@! TD*
G04 #@! TA.AperFunction,ComponentPad*
%ADD16C,4.400000*%
G04 #@! TD*
G04 #@! TA.AperFunction,ComponentPad*
%ADD17O,1.200000X2.000000*%
G04 #@! TD*
G04 #@! TA.AperFunction,ComponentPad*
%ADD18R,1.200000X2.000000*%
G04 #@! TD*
G04 #@! TA.AperFunction,ComponentPad*
%ADD19C,0.870000*%
G04 #@! TD*
G04 #@! TA.AperFunction,ViaPad*
%ADD20C,0.800000*%
G04 #@! TD*
G04 #@! TA.AperFunction,Conductor*
%ADD21C,1.500000*%
G04 #@! TD*
G04 #@! TA.AperFunction,Conductor*
%ADD22C,0.800000*%
G04 #@! TD*
G04 #@! TA.AperFunction,Conductor*
%ADD23C,1.000000*%
G04 #@! TD*
G04 #@! TA.AperFunction,Conductor*
%ADD24C,0.400000*%
G04 #@! TD*
G04 APERTURE END LIST*
G04 #@! TA.AperFunction,ComponentPad*
G36*
G01*
X164735000Y-71530001D02*
X164735000Y-73280001D01*
G75*
G02*
X163860000Y-74155001I-875000J0D01*
G01*
X162110000Y-74155001D01*
G75*
G02*
X161235000Y-73280001I0J875000D01*
G01*
X161235000Y-71530001D01*
G75*
G02*
X162110000Y-70655001I875000J0D01*
G01*
X163860000Y-70655001D01*
G75*
G02*
X164735000Y-71530001I0J-875000D01*
G01*
G37*
G04 #@! TD.AperFunction*
G04 #@! TA.AperFunction,ComponentPad*
G36*
G01*
X167485000Y-76105001D02*
X167485000Y-78105001D01*
G75*
G02*
X166735000Y-78855001I-750000J0D01*
G01*
X165235000Y-78855001D01*
G75*
G02*
X164485000Y-78105001I0J750000D01*
G01*
X164485000Y-76105001D01*
G75*
G02*
X165235000Y-75355001I750000J0D01*
G01*
X166735000Y-75355001D01*
G75*
G02*
X167485000Y-76105001I0J-750000D01*
G01*
G37*
G04 #@! TD.AperFunction*
D10*
X159985000Y-77105001D03*
D11*
X152365000Y-69485001D03*
X152365000Y-72025001D03*
X152365000Y-74565001D03*
X152365000Y-77105001D03*
D12*
X122800000Y-69320001D03*
X122800000Y-71320001D03*
X122800000Y-73320001D03*
X122800000Y-75320001D03*
X122800000Y-77320001D03*
X145500000Y-67320001D03*
X145500000Y-69320001D03*
X145500000Y-71320001D03*
X145500000Y-73320001D03*
X145500000Y-75320001D03*
X145500000Y-77320001D03*
D13*
X145500000Y-79320001D03*
D12*
X127600000Y-81550001D03*
X132680000Y-81550001D03*
X130140000Y-81550001D03*
X135220000Y-81550001D03*
X137760000Y-81550001D03*
X140300000Y-81550001D03*
D14*
X170180000Y-90440001D03*
X167640000Y-90440001D03*
X165100000Y-90440001D03*
X162560000Y-90440001D03*
X160020000Y-90440001D03*
X157480000Y-90440001D03*
X154940000Y-90440001D03*
X152400000Y-90440001D03*
X149860000Y-90440001D03*
X147320000Y-90440001D03*
X144780000Y-90440001D03*
X142240000Y-90440001D03*
X139700000Y-90440001D03*
X137160000Y-90440001D03*
X134620000Y-90440001D03*
X132080000Y-90440001D03*
X129540000Y-90440001D03*
X127000000Y-90440001D03*
D15*
X124460000Y-90440001D03*
D16*
X82365000Y-61095000D03*
X171365000Y-61095000D03*
X82365000Y-115095000D03*
X171365000Y-115095000D03*
D14*
X170180000Y-105680001D03*
X167640000Y-105680001D03*
X165100000Y-105680001D03*
X162560000Y-105680001D03*
X160020000Y-105680001D03*
X157480000Y-105680001D03*
X154940000Y-105680001D03*
X152400000Y-105680001D03*
X149860000Y-105680001D03*
X147320000Y-105680001D03*
X144780000Y-105680001D03*
X142240000Y-105680001D03*
X139700000Y-105680001D03*
X137160000Y-105680001D03*
X134620000Y-105680001D03*
X132080000Y-105680001D03*
X129540000Y-105680001D03*
X127000000Y-105680001D03*
D15*
X124460000Y-105680001D03*
D17*
X170180000Y-109490001D03*
X170180000Y-86630001D03*
X167640000Y-109490001D03*
X167640000Y-86630001D03*
X165100000Y-109490001D03*
X165100000Y-86630001D03*
D18*
X162560000Y-109490001D03*
X162560000Y-86630001D03*
D17*
X160020000Y-109490001D03*
X160020000Y-86630001D03*
X157480000Y-109490001D03*
X157480000Y-86630001D03*
X154940000Y-109490001D03*
X154940000Y-86630001D03*
X152400000Y-109490001D03*
X152400000Y-86630001D03*
X149860000Y-109490001D03*
X149860000Y-86630001D03*
X147320000Y-109490001D03*
X147320000Y-86630001D03*
X144780000Y-109490001D03*
X144780000Y-86630001D03*
X142240000Y-109490001D03*
X142240000Y-86630001D03*
X139700000Y-109490001D03*
X139700000Y-86630001D03*
X137160000Y-109490001D03*
X137160000Y-86630001D03*
X134620000Y-109490001D03*
X134620000Y-86630001D03*
X132080000Y-109490001D03*
X132080000Y-86630001D03*
X129540000Y-109490001D03*
X129540000Y-86630001D03*
X127000000Y-109490001D03*
X127000000Y-86630001D03*
X124460000Y-109490001D03*
X124460000Y-86630001D03*
D19*
X85690000Y-68850001D03*
X85690000Y-70120001D03*
X86960000Y-68850001D03*
X86960000Y-70120001D03*
X88230000Y-68850001D03*
X88230000Y-70120001D03*
X89500000Y-68850001D03*
X89500000Y-70120001D03*
X90770000Y-68850001D03*
X90770000Y-70120001D03*
D20*
X113630000Y-65040001D03*
X118710000Y-68215001D03*
X110455000Y-65040001D03*
X118710000Y-72025001D03*
X116170000Y-105680001D03*
X116170000Y-102505001D03*
X116170000Y-108855001D03*
X120615000Y-99965001D03*
X112360000Y-94250001D03*
X153635000Y-84090001D03*
X153635000Y-79645001D03*
X155540000Y-83455001D03*
X155540000Y-78375001D03*
X156355000Y-69485001D03*
X120615000Y-96790001D03*
X114265000Y-96790001D03*
X138395000Y-76470001D03*
X136490000Y-76470001D03*
D21*
X170180000Y-105680001D02*
X170145000Y-105680001D01*
X115535000Y-65040001D02*
X118710000Y-68215001D01*
X113630000Y-65040001D02*
X115535000Y-65040001D01*
X110455000Y-65040001D02*
X112995000Y-67580001D01*
X114265000Y-67580001D02*
X118710000Y-72025001D01*
X112995000Y-67580001D02*
X114265000Y-67580001D01*
X159985000Y-77105001D02*
X159985000Y-78375001D01*
X172080001Y-85796536D02*
X172080001Y-103780000D01*
X170863456Y-84579991D02*
X172080001Y-85796536D01*
X172080001Y-103780000D02*
X170180000Y-105680001D01*
X166189990Y-84579991D02*
X170863456Y-84579991D01*
X159985000Y-78375001D02*
X166189990Y-84579991D01*
D22*
X86960000Y-70120001D02*
X86960000Y-68850001D01*
D21*
X157969999Y-115095000D02*
X171365000Y-115095000D01*
X157480000Y-105680001D02*
X157480000Y-109490001D01*
X157480000Y-114605001D02*
X157969999Y-115095000D01*
X157480000Y-109490001D02*
X157480000Y-114605001D01*
X124460000Y-86630001D02*
X124460000Y-90440001D01*
X120090001Y-115095000D02*
X157969999Y-115095000D01*
X139700000Y-86630001D02*
X139700000Y-90440001D01*
X146454594Y-69320001D02*
X149190000Y-72055407D01*
X145500000Y-69320001D02*
X146454594Y-69320001D01*
X149190000Y-72055407D02*
X149190000Y-73295001D01*
X150460000Y-74565001D02*
X152365000Y-74565001D01*
X149190000Y-73295001D02*
X150460000Y-74565001D01*
X155717624Y-74565001D02*
X158080000Y-72202625D01*
X152365000Y-74565001D02*
X155717624Y-74565001D01*
X158080000Y-72202625D02*
X158080000Y-68850001D01*
X158080000Y-68850001D02*
X159350000Y-67580001D01*
X159350000Y-67580001D02*
X164879999Y-67580001D01*
X165985000Y-66475001D02*
X166560000Y-65900001D01*
X165985000Y-76470001D02*
X165985000Y-66475001D01*
X166560000Y-65900001D02*
X171365000Y-61095000D01*
X164879999Y-67580001D02*
X166560000Y-65900001D01*
D23*
X86960000Y-70120001D02*
X86960000Y-71390001D01*
X86960000Y-68850001D02*
X86960000Y-67580001D01*
D21*
X86960000Y-65690000D02*
X82365000Y-61095000D01*
X86960000Y-67580001D02*
X86960000Y-65690000D01*
X86960000Y-71390001D02*
X86960000Y-72660001D01*
X86960000Y-72660001D02*
X85205000Y-74415001D01*
X85205000Y-74415001D02*
X82365000Y-74415001D01*
X82365000Y-74415001D02*
X82365000Y-115095000D01*
X82365000Y-61095000D02*
X82365000Y-74415001D01*
X140300000Y-82185001D02*
X140300000Y-81550001D01*
X139700000Y-82785001D02*
X140300000Y-82185001D01*
X139700000Y-86630001D02*
X139700000Y-82785001D01*
X82365000Y-61095000D02*
X171365000Y-61095000D01*
X82365000Y-115095000D02*
X120090001Y-115095000D01*
X116170000Y-105680001D02*
X119980000Y-105680001D01*
X119980000Y-105680001D02*
X124460000Y-105680001D01*
X119980000Y-102505001D02*
X116170000Y-102505001D01*
X119980000Y-102505001D02*
X119980000Y-104410001D01*
X119980000Y-105680001D02*
X119980000Y-104410001D01*
X116805000Y-109490001D02*
X116170000Y-108855001D01*
X124460000Y-109490001D02*
X116805000Y-109490001D01*
D24*
X120615000Y-99965001D02*
X113630000Y-99965001D01*
X113630000Y-99965001D02*
X112995000Y-99330001D01*
X112995000Y-99330001D02*
X112360000Y-98695001D01*
X112360000Y-98695001D02*
X112360000Y-94250001D01*
X153635000Y-84090001D02*
X153635000Y-79645001D01*
X155540000Y-83455001D02*
X155540000Y-78375001D01*
X156355000Y-69485001D02*
X152365000Y-69485001D01*
X120615000Y-96790001D02*
X114265000Y-96790001D01*
X145750002Y-77320001D02*
X145500000Y-77320001D01*
X152365000Y-83934999D02*
X145750002Y-77320001D01*
X152365000Y-86630001D02*
X152365000Y-83934999D01*
X152400000Y-86630001D02*
X152365000Y-86630001D01*
X145500000Y-77320001D02*
X144325000Y-77320001D01*
X144325000Y-77320001D02*
X143475000Y-76470001D01*
X143475000Y-76470001D02*
X138395000Y-76470001D01*
X149860000Y-86630001D02*
X149825000Y-86630001D01*
X149825000Y-83645001D02*
X145500000Y-79320001D01*
X149825000Y-86630001D02*
X149825000Y-83645001D01*
X145500000Y-79320001D02*
X143785000Y-79320001D01*
X143785000Y-79320001D02*
X142840000Y-78375001D01*
X138395000Y-78375001D02*
X136490000Y-76470001D01*
X142840000Y-78375001D02*
X138395000Y-78375001D01*
M02*
