G04 #@! TF.GenerationSoftware,KiCad,Pcbnew,5.1.10*
G04 #@! TF.CreationDate,2021-11-28T23:53:09+08:00*
G04 #@! TF.ProjectId,air_mon2,6169725f-6d6f-46e3-922e-6b696361645f,rev?*
G04 #@! TF.SameCoordinates,Original*
G04 #@! TF.FileFunction,Copper,L1,Top*
G04 #@! TF.FilePolarity,Positive*
%FSLAX46Y46*%
G04 Gerber Fmt 4.6, Leading zero omitted, Abs format (unit mm)*
G04 Created by KiCad (PCBNEW 5.1.10) date 2021-11-28 23:53:09*
%MOMM*%
%LPD*%
G01*
G04 APERTURE LIST*
G04 #@! TA.AperFunction,EtchedComponent*
%ADD10C,0.010000*%
G04 #@! TD*
G04 #@! TA.AperFunction,ComponentPad*
%ADD11O,1.200000X2.000000*%
G04 #@! TD*
G04 #@! TA.AperFunction,ComponentPad*
%ADD12R,1.200000X2.000000*%
G04 #@! TD*
G04 #@! TA.AperFunction,ComponentPad*
%ADD13O,2.000000X1.200000*%
G04 #@! TD*
G04 #@! TA.AperFunction,ComponentPad*
%ADD14C,1.524000*%
G04 #@! TD*
G04 #@! TA.AperFunction,ComponentPad*
%ADD15R,3.500000X3.500000*%
G04 #@! TD*
G04 #@! TA.AperFunction,ComponentPad*
%ADD16C,1.350000*%
G04 #@! TD*
G04 #@! TA.AperFunction,ComponentPad*
%ADD17R,1.350000X1.350000*%
G04 #@! TD*
G04 #@! TA.AperFunction,ComponentPad*
%ADD18R,1.700000X1.700000*%
G04 #@! TD*
G04 #@! TA.AperFunction,ComponentPad*
%ADD19O,1.700000X1.700000*%
G04 #@! TD*
G04 #@! TA.AperFunction,ComponentPad*
%ADD20C,4.400000*%
G04 #@! TD*
G04 #@! TA.AperFunction,ComponentPad*
%ADD21C,0.870000*%
G04 #@! TD*
G04 #@! TA.AperFunction,ViaPad*
%ADD22C,0.800000*%
G04 #@! TD*
G04 #@! TA.AperFunction,Conductor*
%ADD23C,0.800000*%
G04 #@! TD*
G04 #@! TA.AperFunction,Conductor*
%ADD24C,1.000000*%
G04 #@! TD*
G04 #@! TA.AperFunction,Conductor*
%ADD25C,1.500000*%
G04 #@! TD*
G04 #@! TA.AperFunction,Conductor*
%ADD26C,0.400000*%
G04 #@! TD*
G04 APERTURE END LIST*
D10*
G36*
X121668744Y-92582918D02*
G01*
X121724201Y-92610568D01*
X121773148Y-92661480D01*
X121786629Y-92680338D01*
X121801314Y-92705015D01*
X121810842Y-92731816D01*
X121816293Y-92767587D01*
X121818747Y-92819169D01*
X121819286Y-92887267D01*
X121816852Y-92980588D01*
X121808394Y-93050657D01*
X121792174Y-93102931D01*
X121766454Y-93142869D01*
X121729497Y-93175929D01*
X121726782Y-93177886D01*
X121690360Y-93197908D01*
X121646502Y-93207815D01*
X121590724Y-93210257D01*
X121500048Y-93210257D01*
X121500010Y-93298283D01*
X121499166Y-93347308D01*
X121494024Y-93376065D01*
X121480587Y-93393311D01*
X121454858Y-93407808D01*
X121448679Y-93410769D01*
X121419764Y-93424648D01*
X121397376Y-93433414D01*
X121380729Y-93434171D01*
X121369036Y-93424023D01*
X121361510Y-93400073D01*
X121357366Y-93359426D01*
X121355815Y-93299186D01*
X121356071Y-93216455D01*
X121357349Y-93108339D01*
X121357748Y-93076000D01*
X121359185Y-92964524D01*
X121360472Y-92891603D01*
X121499971Y-92891603D01*
X121500755Y-92953499D01*
X121504240Y-92993997D01*
X121512124Y-93020708D01*
X121526105Y-93041244D01*
X121535597Y-93051260D01*
X121574404Y-93080567D01*
X121608763Y-93082952D01*
X121644216Y-93058750D01*
X121645114Y-93057857D01*
X121659539Y-93039153D01*
X121668313Y-93013732D01*
X121672739Y-92974584D01*
X121674118Y-92914697D01*
X121674143Y-92901430D01*
X121670812Y-92818901D01*
X121659969Y-92761691D01*
X121640340Y-92726766D01*
X121610650Y-92711094D01*
X121593491Y-92709514D01*
X121552766Y-92716926D01*
X121524832Y-92741330D01*
X121508017Y-92785980D01*
X121500650Y-92854130D01*
X121499971Y-92891603D01*
X121360472Y-92891603D01*
X121360708Y-92878245D01*
X121362677Y-92813333D01*
X121365450Y-92765958D01*
X121369388Y-92732290D01*
X121374849Y-92708498D01*
X121382192Y-92690753D01*
X121391777Y-92675224D01*
X121395887Y-92669381D01*
X121450405Y-92614185D01*
X121519336Y-92582890D01*
X121599072Y-92574165D01*
X121668744Y-92582918D01*
G37*
X121668744Y-92582918D02*
X121724201Y-92610568D01*
X121773148Y-92661480D01*
X121786629Y-92680338D01*
X121801314Y-92705015D01*
X121810842Y-92731816D01*
X121816293Y-92767587D01*
X121818747Y-92819169D01*
X121819286Y-92887267D01*
X121816852Y-92980588D01*
X121808394Y-93050657D01*
X121792174Y-93102931D01*
X121766454Y-93142869D01*
X121729497Y-93175929D01*
X121726782Y-93177886D01*
X121690360Y-93197908D01*
X121646502Y-93207815D01*
X121590724Y-93210257D01*
X121500048Y-93210257D01*
X121500010Y-93298283D01*
X121499166Y-93347308D01*
X121494024Y-93376065D01*
X121480587Y-93393311D01*
X121454858Y-93407808D01*
X121448679Y-93410769D01*
X121419764Y-93424648D01*
X121397376Y-93433414D01*
X121380729Y-93434171D01*
X121369036Y-93424023D01*
X121361510Y-93400073D01*
X121357366Y-93359426D01*
X121355815Y-93299186D01*
X121356071Y-93216455D01*
X121357349Y-93108339D01*
X121357748Y-93076000D01*
X121359185Y-92964524D01*
X121360472Y-92891603D01*
X121499971Y-92891603D01*
X121500755Y-92953499D01*
X121504240Y-92993997D01*
X121512124Y-93020708D01*
X121526105Y-93041244D01*
X121535597Y-93051260D01*
X121574404Y-93080567D01*
X121608763Y-93082952D01*
X121644216Y-93058750D01*
X121645114Y-93057857D01*
X121659539Y-93039153D01*
X121668313Y-93013732D01*
X121672739Y-92974584D01*
X121674118Y-92914697D01*
X121674143Y-92901430D01*
X121670812Y-92818901D01*
X121659969Y-92761691D01*
X121640340Y-92726766D01*
X121610650Y-92711094D01*
X121593491Y-92709514D01*
X121552766Y-92716926D01*
X121524832Y-92741330D01*
X121508017Y-92785980D01*
X121500650Y-92854130D01*
X121499971Y-92891603D01*
X121360472Y-92891603D01*
X121360708Y-92878245D01*
X121362677Y-92813333D01*
X121365450Y-92765958D01*
X121369388Y-92732290D01*
X121374849Y-92708498D01*
X121382192Y-92690753D01*
X121391777Y-92675224D01*
X121395887Y-92669381D01*
X121450405Y-92614185D01*
X121519336Y-92582890D01*
X121599072Y-92574165D01*
X121668744Y-92582918D01*
G36*
X122785093Y-92590780D02*
G01*
X122831672Y-92617723D01*
X122864057Y-92644466D01*
X122887742Y-92672484D01*
X122904059Y-92706748D01*
X122914339Y-92752227D01*
X122919914Y-92813892D01*
X122922116Y-92896711D01*
X122922371Y-92956246D01*
X122922371Y-93175391D01*
X122860686Y-93203044D01*
X122799000Y-93230697D01*
X122791743Y-92990670D01*
X122788744Y-92901028D01*
X122785598Y-92835962D01*
X122781701Y-92791026D01*
X122776447Y-92761770D01*
X122769231Y-92743748D01*
X122759450Y-92732511D01*
X122756312Y-92730079D01*
X122708761Y-92711083D01*
X122660697Y-92718600D01*
X122632086Y-92738543D01*
X122620447Y-92752675D01*
X122612391Y-92771220D01*
X122607271Y-92799334D01*
X122604441Y-92842173D01*
X122603256Y-92904895D01*
X122603057Y-92970261D01*
X122603018Y-93052268D01*
X122601614Y-93110316D01*
X122596914Y-93149465D01*
X122586987Y-93174780D01*
X122569903Y-93191323D01*
X122543732Y-93204156D01*
X122508775Y-93217491D01*
X122470596Y-93232007D01*
X122475141Y-92974389D01*
X122476971Y-92881519D01*
X122479112Y-92812889D01*
X122482181Y-92763711D01*
X122486794Y-92729198D01*
X122493568Y-92704562D01*
X122503119Y-92685016D01*
X122514634Y-92667770D01*
X122570190Y-92612680D01*
X122637980Y-92580822D01*
X122711713Y-92573191D01*
X122785093Y-92590780D01*
G37*
X122785093Y-92590780D02*
X122831672Y-92617723D01*
X122864057Y-92644466D01*
X122887742Y-92672484D01*
X122904059Y-92706748D01*
X122914339Y-92752227D01*
X122919914Y-92813892D01*
X122922116Y-92896711D01*
X122922371Y-92956246D01*
X122922371Y-93175391D01*
X122860686Y-93203044D01*
X122799000Y-93230697D01*
X122791743Y-92990670D01*
X122788744Y-92901028D01*
X122785598Y-92835962D01*
X122781701Y-92791026D01*
X122776447Y-92761770D01*
X122769231Y-92743748D01*
X122759450Y-92732511D01*
X122756312Y-92730079D01*
X122708761Y-92711083D01*
X122660697Y-92718600D01*
X122632086Y-92738543D01*
X122620447Y-92752675D01*
X122612391Y-92771220D01*
X122607271Y-92799334D01*
X122604441Y-92842173D01*
X122603256Y-92904895D01*
X122603057Y-92970261D01*
X122603018Y-93052268D01*
X122601614Y-93110316D01*
X122596914Y-93149465D01*
X122586987Y-93174780D01*
X122569903Y-93191323D01*
X122543732Y-93204156D01*
X122508775Y-93217491D01*
X122470596Y-93232007D01*
X122475141Y-92974389D01*
X122476971Y-92881519D01*
X122479112Y-92812889D01*
X122482181Y-92763711D01*
X122486794Y-92729198D01*
X122493568Y-92704562D01*
X122503119Y-92685016D01*
X122514634Y-92667770D01*
X122570190Y-92612680D01*
X122637980Y-92580822D01*
X122711713Y-92573191D01*
X122785093Y-92590780D01*
G36*
X121110115Y-92584962D02*
G01*
X121178145Y-92620733D01*
X121228351Y-92678301D01*
X121246185Y-92715312D01*
X121260063Y-92770882D01*
X121267167Y-92841096D01*
X121267840Y-92917727D01*
X121262427Y-92992552D01*
X121251270Y-93057342D01*
X121234714Y-93103873D01*
X121229626Y-93111887D01*
X121169355Y-93171707D01*
X121097769Y-93207535D01*
X121020092Y-93218020D01*
X120941548Y-93201810D01*
X120919689Y-93192092D01*
X120877122Y-93162143D01*
X120839763Y-93122433D01*
X120836232Y-93117397D01*
X120821881Y-93093124D01*
X120812394Y-93067178D01*
X120806790Y-93033022D01*
X120804086Y-92984119D01*
X120803299Y-92913935D01*
X120803286Y-92898200D01*
X120803322Y-92893192D01*
X120948429Y-92893192D01*
X120949273Y-92959430D01*
X120952596Y-93003386D01*
X120959583Y-93031779D01*
X120971416Y-93051325D01*
X120977457Y-93057857D01*
X121012186Y-93082680D01*
X121045903Y-93081548D01*
X121079995Y-93060016D01*
X121100329Y-93037029D01*
X121112371Y-93003478D01*
X121119134Y-92950569D01*
X121119598Y-92944399D01*
X121120752Y-92848513D01*
X121108688Y-92777299D01*
X121083570Y-92731194D01*
X121045560Y-92710635D01*
X121031992Y-92709514D01*
X120996364Y-92715152D01*
X120971994Y-92734686D01*
X120957093Y-92772042D01*
X120949875Y-92831150D01*
X120948429Y-92893192D01*
X120803322Y-92893192D01*
X120803826Y-92823413D01*
X120806096Y-92771159D01*
X120811068Y-92734949D01*
X120819713Y-92708299D01*
X120833005Y-92684722D01*
X120835943Y-92680338D01*
X120885313Y-92621249D01*
X120939109Y-92586947D01*
X121004602Y-92573331D01*
X121026842Y-92572665D01*
X121110115Y-92584962D01*
G37*
X121110115Y-92584962D02*
X121178145Y-92620733D01*
X121228351Y-92678301D01*
X121246185Y-92715312D01*
X121260063Y-92770882D01*
X121267167Y-92841096D01*
X121267840Y-92917727D01*
X121262427Y-92992552D01*
X121251270Y-93057342D01*
X121234714Y-93103873D01*
X121229626Y-93111887D01*
X121169355Y-93171707D01*
X121097769Y-93207535D01*
X121020092Y-93218020D01*
X120941548Y-93201810D01*
X120919689Y-93192092D01*
X120877122Y-93162143D01*
X120839763Y-93122433D01*
X120836232Y-93117397D01*
X120821881Y-93093124D01*
X120812394Y-93067178D01*
X120806790Y-93033022D01*
X120804086Y-92984119D01*
X120803299Y-92913935D01*
X120803286Y-92898200D01*
X120803322Y-92893192D01*
X120948429Y-92893192D01*
X120949273Y-92959430D01*
X120952596Y-93003386D01*
X120959583Y-93031779D01*
X120971416Y-93051325D01*
X120977457Y-93057857D01*
X121012186Y-93082680D01*
X121045903Y-93081548D01*
X121079995Y-93060016D01*
X121100329Y-93037029D01*
X121112371Y-93003478D01*
X121119134Y-92950569D01*
X121119598Y-92944399D01*
X121120752Y-92848513D01*
X121108688Y-92777299D01*
X121083570Y-92731194D01*
X121045560Y-92710635D01*
X121031992Y-92709514D01*
X120996364Y-92715152D01*
X120971994Y-92734686D01*
X120957093Y-92772042D01*
X120949875Y-92831150D01*
X120948429Y-92893192D01*
X120803322Y-92893192D01*
X120803826Y-92823413D01*
X120806096Y-92771159D01*
X120811068Y-92734949D01*
X120819713Y-92708299D01*
X120833005Y-92684722D01*
X120835943Y-92680338D01*
X120885313Y-92621249D01*
X120939109Y-92586947D01*
X121004602Y-92573331D01*
X121026842Y-92572665D01*
X121110115Y-92584962D01*
G36*
X122237303Y-92594239D02*
G01*
X122294527Y-92632735D01*
X122338749Y-92688335D01*
X122365167Y-92759086D01*
X122370510Y-92811162D01*
X122369903Y-92832893D01*
X122364822Y-92849531D01*
X122350855Y-92864437D01*
X122323589Y-92880973D01*
X122278612Y-92902498D01*
X122211511Y-92932374D01*
X122211171Y-92932524D01*
X122149407Y-92960813D01*
X122098759Y-92985933D01*
X122064404Y-93005179D01*
X122051518Y-93015848D01*
X122051514Y-93015934D01*
X122062872Y-93039166D01*
X122089431Y-93064774D01*
X122119923Y-93083221D01*
X122135370Y-93086886D01*
X122177515Y-93074212D01*
X122213808Y-93042471D01*
X122231517Y-93007572D01*
X122248552Y-92981845D01*
X122281922Y-92952546D01*
X122321149Y-92927235D01*
X122355756Y-92913471D01*
X122362993Y-92912714D01*
X122371139Y-92925160D01*
X122371630Y-92956972D01*
X122365643Y-92999866D01*
X122354357Y-93045558D01*
X122338950Y-93085761D01*
X122338171Y-93087322D01*
X122291804Y-93152062D01*
X122231711Y-93196097D01*
X122163465Y-93217711D01*
X122092638Y-93215185D01*
X122024804Y-93186804D01*
X122021788Y-93184808D01*
X121968427Y-93136448D01*
X121933340Y-93073352D01*
X121913922Y-92990387D01*
X121911316Y-92967078D01*
X121906701Y-92857055D01*
X121912233Y-92805748D01*
X122051514Y-92805748D01*
X122053324Y-92837753D01*
X122063222Y-92847093D01*
X122087898Y-92840105D01*
X122126795Y-92823587D01*
X122170275Y-92802881D01*
X122171356Y-92802333D01*
X122208209Y-92782949D01*
X122223000Y-92770013D01*
X122219353Y-92756451D01*
X122203995Y-92738632D01*
X122164923Y-92712845D01*
X122122846Y-92710950D01*
X122085103Y-92729717D01*
X122059034Y-92765915D01*
X122051514Y-92805748D01*
X121912233Y-92805748D01*
X121916194Y-92769027D01*
X121940550Y-92699212D01*
X121974456Y-92650302D01*
X122035653Y-92600878D01*
X122103063Y-92576359D01*
X122171880Y-92574797D01*
X122237303Y-92594239D01*
G37*
X122237303Y-92594239D02*
X122294527Y-92632735D01*
X122338749Y-92688335D01*
X122365167Y-92759086D01*
X122370510Y-92811162D01*
X122369903Y-92832893D01*
X122364822Y-92849531D01*
X122350855Y-92864437D01*
X122323589Y-92880973D01*
X122278612Y-92902498D01*
X122211511Y-92932374D01*
X122211171Y-92932524D01*
X122149407Y-92960813D01*
X122098759Y-92985933D01*
X122064404Y-93005179D01*
X122051518Y-93015848D01*
X122051514Y-93015934D01*
X122062872Y-93039166D01*
X122089431Y-93064774D01*
X122119923Y-93083221D01*
X122135370Y-93086886D01*
X122177515Y-93074212D01*
X122213808Y-93042471D01*
X122231517Y-93007572D01*
X122248552Y-92981845D01*
X122281922Y-92952546D01*
X122321149Y-92927235D01*
X122355756Y-92913471D01*
X122362993Y-92912714D01*
X122371139Y-92925160D01*
X122371630Y-92956972D01*
X122365643Y-92999866D01*
X122354357Y-93045558D01*
X122338950Y-93085761D01*
X122338171Y-93087322D01*
X122291804Y-93152062D01*
X122231711Y-93196097D01*
X122163465Y-93217711D01*
X122092638Y-93215185D01*
X122024804Y-93186804D01*
X122021788Y-93184808D01*
X121968427Y-93136448D01*
X121933340Y-93073352D01*
X121913922Y-92990387D01*
X121911316Y-92967078D01*
X121906701Y-92857055D01*
X121912233Y-92805748D01*
X122051514Y-92805748D01*
X122053324Y-92837753D01*
X122063222Y-92847093D01*
X122087898Y-92840105D01*
X122126795Y-92823587D01*
X122170275Y-92802881D01*
X122171356Y-92802333D01*
X122208209Y-92782949D01*
X122223000Y-92770013D01*
X122219353Y-92756451D01*
X122203995Y-92738632D01*
X122164923Y-92712845D01*
X122122846Y-92710950D01*
X122085103Y-92729717D01*
X122059034Y-92765915D01*
X122051514Y-92805748D01*
X121912233Y-92805748D01*
X121916194Y-92769027D01*
X121940550Y-92699212D01*
X121974456Y-92650302D01*
X122035653Y-92600878D01*
X122103063Y-92576359D01*
X122171880Y-92574797D01*
X122237303Y-92594239D01*
G36*
X123444886Y-92514289D02*
G01*
X123449139Y-92573613D01*
X123454025Y-92608572D01*
X123460795Y-92623820D01*
X123470702Y-92624015D01*
X123473914Y-92622195D01*
X123516644Y-92609015D01*
X123572227Y-92609785D01*
X123628737Y-92623333D01*
X123664082Y-92640861D01*
X123700321Y-92668861D01*
X123726813Y-92700549D01*
X123744999Y-92740813D01*
X123756322Y-92794543D01*
X123762222Y-92866626D01*
X123764143Y-92961951D01*
X123764177Y-92980237D01*
X123764200Y-93185646D01*
X123718491Y-93201580D01*
X123686027Y-93212420D01*
X123668215Y-93217468D01*
X123667691Y-93217514D01*
X123665937Y-93203828D01*
X123664444Y-93166076D01*
X123663326Y-93109224D01*
X123662697Y-93038234D01*
X123662600Y-92995073D01*
X123662398Y-92909973D01*
X123661358Y-92848981D01*
X123658831Y-92807177D01*
X123654164Y-92779642D01*
X123646707Y-92761456D01*
X123635811Y-92747698D01*
X123629007Y-92741073D01*
X123582272Y-92714375D01*
X123531272Y-92712375D01*
X123485001Y-92734955D01*
X123476444Y-92743107D01*
X123463893Y-92758436D01*
X123455188Y-92776618D01*
X123449631Y-92802909D01*
X123446526Y-92842562D01*
X123445176Y-92900832D01*
X123444886Y-92981173D01*
X123444886Y-93185646D01*
X123399177Y-93201580D01*
X123366713Y-93212420D01*
X123348901Y-93217468D01*
X123348377Y-93217514D01*
X123347037Y-93203623D01*
X123345828Y-93164439D01*
X123344801Y-93103700D01*
X123344002Y-93025141D01*
X123343481Y-92932498D01*
X123343286Y-92829509D01*
X123343286Y-92432342D01*
X123390457Y-92412444D01*
X123437629Y-92392547D01*
X123444886Y-92514289D01*
G37*
X123444886Y-92514289D02*
X123449139Y-92573613D01*
X123454025Y-92608572D01*
X123460795Y-92623820D01*
X123470702Y-92624015D01*
X123473914Y-92622195D01*
X123516644Y-92609015D01*
X123572227Y-92609785D01*
X123628737Y-92623333D01*
X123664082Y-92640861D01*
X123700321Y-92668861D01*
X123726813Y-92700549D01*
X123744999Y-92740813D01*
X123756322Y-92794543D01*
X123762222Y-92866626D01*
X123764143Y-92961951D01*
X123764177Y-92980237D01*
X123764200Y-93185646D01*
X123718491Y-93201580D01*
X123686027Y-93212420D01*
X123668215Y-93217468D01*
X123667691Y-93217514D01*
X123665937Y-93203828D01*
X123664444Y-93166076D01*
X123663326Y-93109224D01*
X123662697Y-93038234D01*
X123662600Y-92995073D01*
X123662398Y-92909973D01*
X123661358Y-92848981D01*
X123658831Y-92807177D01*
X123654164Y-92779642D01*
X123646707Y-92761456D01*
X123635811Y-92747698D01*
X123629007Y-92741073D01*
X123582272Y-92714375D01*
X123531272Y-92712375D01*
X123485001Y-92734955D01*
X123476444Y-92743107D01*
X123463893Y-92758436D01*
X123455188Y-92776618D01*
X123449631Y-92802909D01*
X123446526Y-92842562D01*
X123445176Y-92900832D01*
X123444886Y-92981173D01*
X123444886Y-93185646D01*
X123399177Y-93201580D01*
X123366713Y-93212420D01*
X123348901Y-93217468D01*
X123348377Y-93217514D01*
X123347037Y-93203623D01*
X123345828Y-93164439D01*
X123344801Y-93103700D01*
X123344002Y-93025141D01*
X123343481Y-92932498D01*
X123343286Y-92829509D01*
X123343286Y-92432342D01*
X123390457Y-92412444D01*
X123437629Y-92392547D01*
X123444886Y-92514289D01*
G36*
X124108744Y-92613968D02*
G01*
X124165616Y-92635087D01*
X124166267Y-92635493D01*
X124201440Y-92661380D01*
X124227407Y-92691633D01*
X124245670Y-92731058D01*
X124257732Y-92784462D01*
X124265096Y-92856651D01*
X124269264Y-92952432D01*
X124269629Y-92966078D01*
X124274876Y-93171842D01*
X124230716Y-93194678D01*
X124198763Y-93210110D01*
X124179470Y-93217423D01*
X124178578Y-93217514D01*
X124175239Y-93204022D01*
X124172587Y-93167626D01*
X124170956Y-93114452D01*
X124170600Y-93071393D01*
X124170592Y-93001641D01*
X124167403Y-92957837D01*
X124156288Y-92936944D01*
X124132501Y-92935925D01*
X124091296Y-92951741D01*
X124029086Y-92980815D01*
X123983341Y-93004963D01*
X123959813Y-93025913D01*
X123952896Y-93048747D01*
X123952886Y-93049877D01*
X123964299Y-93089212D01*
X123998092Y-93110462D01*
X124049809Y-93113539D01*
X124087061Y-93113006D01*
X124106703Y-93123735D01*
X124118952Y-93149505D01*
X124126002Y-93182337D01*
X124115842Y-93200966D01*
X124112017Y-93203632D01*
X124076001Y-93214340D01*
X124025566Y-93215856D01*
X123973626Y-93208759D01*
X123936822Y-93195788D01*
X123885938Y-93152585D01*
X123857014Y-93092446D01*
X123851286Y-93045462D01*
X123855657Y-93003082D01*
X123871475Y-92968488D01*
X123902797Y-92937763D01*
X123953678Y-92906990D01*
X124028176Y-92872252D01*
X124032714Y-92870288D01*
X124099821Y-92839287D01*
X124141232Y-92813862D01*
X124158981Y-92791014D01*
X124155107Y-92767745D01*
X124131643Y-92741056D01*
X124124627Y-92734914D01*
X124077630Y-92711100D01*
X124028933Y-92712103D01*
X123986522Y-92735451D01*
X123958384Y-92778675D01*
X123955769Y-92787160D01*
X123930308Y-92828308D01*
X123898001Y-92848128D01*
X123851286Y-92867770D01*
X123851286Y-92816950D01*
X123865496Y-92743082D01*
X123907675Y-92675327D01*
X123929624Y-92652661D01*
X123979517Y-92623569D01*
X124042967Y-92610400D01*
X124108744Y-92613968D01*
G37*
X124108744Y-92613968D02*
X124165616Y-92635087D01*
X124166267Y-92635493D01*
X124201440Y-92661380D01*
X124227407Y-92691633D01*
X124245670Y-92731058D01*
X124257732Y-92784462D01*
X124265096Y-92856651D01*
X124269264Y-92952432D01*
X124269629Y-92966078D01*
X124274876Y-93171842D01*
X124230716Y-93194678D01*
X124198763Y-93210110D01*
X124179470Y-93217423D01*
X124178578Y-93217514D01*
X124175239Y-93204022D01*
X124172587Y-93167626D01*
X124170956Y-93114452D01*
X124170600Y-93071393D01*
X124170592Y-93001641D01*
X124167403Y-92957837D01*
X124156288Y-92936944D01*
X124132501Y-92935925D01*
X124091296Y-92951741D01*
X124029086Y-92980815D01*
X123983341Y-93004963D01*
X123959813Y-93025913D01*
X123952896Y-93048747D01*
X123952886Y-93049877D01*
X123964299Y-93089212D01*
X123998092Y-93110462D01*
X124049809Y-93113539D01*
X124087061Y-93113006D01*
X124106703Y-93123735D01*
X124118952Y-93149505D01*
X124126002Y-93182337D01*
X124115842Y-93200966D01*
X124112017Y-93203632D01*
X124076001Y-93214340D01*
X124025566Y-93215856D01*
X123973626Y-93208759D01*
X123936822Y-93195788D01*
X123885938Y-93152585D01*
X123857014Y-93092446D01*
X123851286Y-93045462D01*
X123855657Y-93003082D01*
X123871475Y-92968488D01*
X123902797Y-92937763D01*
X123953678Y-92906990D01*
X124028176Y-92872252D01*
X124032714Y-92870288D01*
X124099821Y-92839287D01*
X124141232Y-92813862D01*
X124158981Y-92791014D01*
X124155107Y-92767745D01*
X124131643Y-92741056D01*
X124124627Y-92734914D01*
X124077630Y-92711100D01*
X124028933Y-92712103D01*
X123986522Y-92735451D01*
X123958384Y-92778675D01*
X123955769Y-92787160D01*
X123930308Y-92828308D01*
X123898001Y-92848128D01*
X123851286Y-92867770D01*
X123851286Y-92816950D01*
X123865496Y-92743082D01*
X123907675Y-92675327D01*
X123929624Y-92652661D01*
X123979517Y-92623569D01*
X124042967Y-92610400D01*
X124108744Y-92613968D01*
G36*
X124598926Y-92612755D02*
G01*
X124664858Y-92637084D01*
X124718273Y-92680117D01*
X124739164Y-92710409D01*
X124761939Y-92765994D01*
X124761466Y-92806186D01*
X124737562Y-92833217D01*
X124728717Y-92837813D01*
X124690530Y-92852144D01*
X124671028Y-92848472D01*
X124664422Y-92824407D01*
X124664086Y-92811114D01*
X124651992Y-92762210D01*
X124620471Y-92727999D01*
X124576659Y-92711476D01*
X124527695Y-92715634D01*
X124487894Y-92737227D01*
X124474450Y-92749544D01*
X124464921Y-92764487D01*
X124458485Y-92787075D01*
X124454317Y-92822328D01*
X124451597Y-92875266D01*
X124449502Y-92950907D01*
X124448960Y-92974857D01*
X124446981Y-93056790D01*
X124444731Y-93114455D01*
X124441357Y-93152608D01*
X124436006Y-93176004D01*
X124427824Y-93189398D01*
X124415959Y-93197545D01*
X124408362Y-93201144D01*
X124376102Y-93213452D01*
X124357111Y-93217514D01*
X124350836Y-93203948D01*
X124347006Y-93162934D01*
X124345600Y-93093999D01*
X124346598Y-92996669D01*
X124346908Y-92981657D01*
X124349101Y-92892859D01*
X124351693Y-92828019D01*
X124355382Y-92782067D01*
X124360864Y-92749935D01*
X124368835Y-92726553D01*
X124379993Y-92706852D01*
X124385830Y-92698410D01*
X124419296Y-92661057D01*
X124456727Y-92632003D01*
X124461309Y-92629467D01*
X124528426Y-92609443D01*
X124598926Y-92612755D01*
G37*
X124598926Y-92612755D02*
X124664858Y-92637084D01*
X124718273Y-92680117D01*
X124739164Y-92710409D01*
X124761939Y-92765994D01*
X124761466Y-92806186D01*
X124737562Y-92833217D01*
X124728717Y-92837813D01*
X124690530Y-92852144D01*
X124671028Y-92848472D01*
X124664422Y-92824407D01*
X124664086Y-92811114D01*
X124651992Y-92762210D01*
X124620471Y-92727999D01*
X124576659Y-92711476D01*
X124527695Y-92715634D01*
X124487894Y-92737227D01*
X124474450Y-92749544D01*
X124464921Y-92764487D01*
X124458485Y-92787075D01*
X124454317Y-92822328D01*
X124451597Y-92875266D01*
X124449502Y-92950907D01*
X124448960Y-92974857D01*
X124446981Y-93056790D01*
X124444731Y-93114455D01*
X124441357Y-93152608D01*
X124436006Y-93176004D01*
X124427824Y-93189398D01*
X124415959Y-93197545D01*
X124408362Y-93201144D01*
X124376102Y-93213452D01*
X124357111Y-93217514D01*
X124350836Y-93203948D01*
X124347006Y-93162934D01*
X124345600Y-93093999D01*
X124346598Y-92996669D01*
X124346908Y-92981657D01*
X124349101Y-92892859D01*
X124351693Y-92828019D01*
X124355382Y-92782067D01*
X124360864Y-92749935D01*
X124368835Y-92726553D01*
X124379993Y-92706852D01*
X124385830Y-92698410D01*
X124419296Y-92661057D01*
X124456727Y-92632003D01*
X124461309Y-92629467D01*
X124528426Y-92609443D01*
X124598926Y-92612755D01*
G36*
X125259117Y-92728358D02*
G01*
X125258933Y-92836837D01*
X125258219Y-92920287D01*
X125256675Y-92982704D01*
X125254001Y-93028085D01*
X125249894Y-93060429D01*
X125244055Y-93083733D01*
X125236182Y-93101995D01*
X125230221Y-93112418D01*
X125180855Y-93168945D01*
X125118264Y-93204377D01*
X125049013Y-93217090D01*
X124979668Y-93205463D01*
X124938375Y-93184568D01*
X124895025Y-93148422D01*
X124865481Y-93104276D01*
X124847655Y-93046462D01*
X124839463Y-92969313D01*
X124838302Y-92912714D01*
X124838458Y-92908647D01*
X124939857Y-92908647D01*
X124940476Y-92973550D01*
X124943314Y-93016514D01*
X124949840Y-93044622D01*
X124961523Y-93064953D01*
X124975483Y-93080288D01*
X125022365Y-93109890D01*
X125072701Y-93112419D01*
X125120276Y-93087705D01*
X125123979Y-93084356D01*
X125139783Y-93066935D01*
X125149693Y-93046209D01*
X125155058Y-93015362D01*
X125157228Y-92967577D01*
X125157571Y-92914748D01*
X125156827Y-92848381D01*
X125153748Y-92804106D01*
X125147061Y-92775009D01*
X125135496Y-92754173D01*
X125126013Y-92743107D01*
X125081960Y-92715198D01*
X125031224Y-92711843D01*
X124982796Y-92733159D01*
X124973450Y-92741073D01*
X124957540Y-92758647D01*
X124947610Y-92779587D01*
X124942278Y-92810782D01*
X124940163Y-92859122D01*
X124939857Y-92908647D01*
X124838458Y-92908647D01*
X124841810Y-92821568D01*
X124853726Y-92753086D01*
X124876135Y-92701600D01*
X124911124Y-92661443D01*
X124938375Y-92640861D01*
X124987907Y-92618625D01*
X125045316Y-92608304D01*
X125098682Y-92611067D01*
X125128543Y-92622212D01*
X125140261Y-92625383D01*
X125148037Y-92613557D01*
X125153465Y-92581866D01*
X125157571Y-92533593D01*
X125162067Y-92479829D01*
X125168313Y-92447482D01*
X125179676Y-92428985D01*
X125199528Y-92416770D01*
X125212000Y-92411362D01*
X125259171Y-92391601D01*
X125259117Y-92728358D01*
G37*
X125259117Y-92728358D02*
X125258933Y-92836837D01*
X125258219Y-92920287D01*
X125256675Y-92982704D01*
X125254001Y-93028085D01*
X125249894Y-93060429D01*
X125244055Y-93083733D01*
X125236182Y-93101995D01*
X125230221Y-93112418D01*
X125180855Y-93168945D01*
X125118264Y-93204377D01*
X125049013Y-93217090D01*
X124979668Y-93205463D01*
X124938375Y-93184568D01*
X124895025Y-93148422D01*
X124865481Y-93104276D01*
X124847655Y-93046462D01*
X124839463Y-92969313D01*
X124838302Y-92912714D01*
X124838458Y-92908647D01*
X124939857Y-92908647D01*
X124940476Y-92973550D01*
X124943314Y-93016514D01*
X124949840Y-93044622D01*
X124961523Y-93064953D01*
X124975483Y-93080288D01*
X125022365Y-93109890D01*
X125072701Y-93112419D01*
X125120276Y-93087705D01*
X125123979Y-93084356D01*
X125139783Y-93066935D01*
X125149693Y-93046209D01*
X125155058Y-93015362D01*
X125157228Y-92967577D01*
X125157571Y-92914748D01*
X125156827Y-92848381D01*
X125153748Y-92804106D01*
X125147061Y-92775009D01*
X125135496Y-92754173D01*
X125126013Y-92743107D01*
X125081960Y-92715198D01*
X125031224Y-92711843D01*
X124982796Y-92733159D01*
X124973450Y-92741073D01*
X124957540Y-92758647D01*
X124947610Y-92779587D01*
X124942278Y-92810782D01*
X124940163Y-92859122D01*
X124939857Y-92908647D01*
X124838458Y-92908647D01*
X124841810Y-92821568D01*
X124853726Y-92753086D01*
X124876135Y-92701600D01*
X124911124Y-92661443D01*
X124938375Y-92640861D01*
X124987907Y-92618625D01*
X125045316Y-92608304D01*
X125098682Y-92611067D01*
X125128543Y-92622212D01*
X125140261Y-92625383D01*
X125148037Y-92613557D01*
X125153465Y-92581866D01*
X125157571Y-92533593D01*
X125162067Y-92479829D01*
X125168313Y-92447482D01*
X125179676Y-92428985D01*
X125199528Y-92416770D01*
X125212000Y-92411362D01*
X125259171Y-92391601D01*
X125259117Y-92728358D01*
G36*
X125848833Y-92621663D02*
G01*
X125851048Y-92659850D01*
X125852784Y-92717886D01*
X125853899Y-92791180D01*
X125854257Y-92868055D01*
X125854257Y-93128196D01*
X125808326Y-93174127D01*
X125776675Y-93202429D01*
X125748890Y-93213893D01*
X125710915Y-93213168D01*
X125695840Y-93211321D01*
X125648726Y-93205948D01*
X125609756Y-93202869D01*
X125600257Y-93202585D01*
X125568233Y-93204445D01*
X125522432Y-93209114D01*
X125504674Y-93211321D01*
X125461057Y-93214735D01*
X125431745Y-93207320D01*
X125402680Y-93184427D01*
X125392188Y-93174127D01*
X125346257Y-93128196D01*
X125346257Y-92641602D01*
X125383226Y-92624758D01*
X125415059Y-92612282D01*
X125433683Y-92607914D01*
X125438458Y-92621718D01*
X125442921Y-92660286D01*
X125446775Y-92719356D01*
X125449722Y-92794663D01*
X125451143Y-92858286D01*
X125455114Y-93108657D01*
X125489759Y-93113556D01*
X125521268Y-93110131D01*
X125536708Y-93099041D01*
X125541023Y-93078308D01*
X125544708Y-93034145D01*
X125547469Y-92972146D01*
X125549012Y-92897909D01*
X125549235Y-92859706D01*
X125549457Y-92639783D01*
X125595166Y-92623849D01*
X125627518Y-92613015D01*
X125645115Y-92607962D01*
X125645623Y-92607914D01*
X125647388Y-92621648D01*
X125649329Y-92659730D01*
X125651282Y-92717482D01*
X125653084Y-92790227D01*
X125654343Y-92858286D01*
X125658314Y-93108657D01*
X125745400Y-93108657D01*
X125749396Y-92880240D01*
X125753392Y-92651822D01*
X125795847Y-92629868D01*
X125827192Y-92614793D01*
X125845744Y-92607951D01*
X125846279Y-92607914D01*
X125848833Y-92621663D01*
G37*
X125848833Y-92621663D02*
X125851048Y-92659850D01*
X125852784Y-92717886D01*
X125853899Y-92791180D01*
X125854257Y-92868055D01*
X125854257Y-93128196D01*
X125808326Y-93174127D01*
X125776675Y-93202429D01*
X125748890Y-93213893D01*
X125710915Y-93213168D01*
X125695840Y-93211321D01*
X125648726Y-93205948D01*
X125609756Y-93202869D01*
X125600257Y-93202585D01*
X125568233Y-93204445D01*
X125522432Y-93209114D01*
X125504674Y-93211321D01*
X125461057Y-93214735D01*
X125431745Y-93207320D01*
X125402680Y-93184427D01*
X125392188Y-93174127D01*
X125346257Y-93128196D01*
X125346257Y-92641602D01*
X125383226Y-92624758D01*
X125415059Y-92612282D01*
X125433683Y-92607914D01*
X125438458Y-92621718D01*
X125442921Y-92660286D01*
X125446775Y-92719356D01*
X125449722Y-92794663D01*
X125451143Y-92858286D01*
X125455114Y-93108657D01*
X125489759Y-93113556D01*
X125521268Y-93110131D01*
X125536708Y-93099041D01*
X125541023Y-93078308D01*
X125544708Y-93034145D01*
X125547469Y-92972146D01*
X125549012Y-92897909D01*
X125549235Y-92859706D01*
X125549457Y-92639783D01*
X125595166Y-92623849D01*
X125627518Y-92613015D01*
X125645115Y-92607962D01*
X125645623Y-92607914D01*
X125647388Y-92621648D01*
X125649329Y-92659730D01*
X125651282Y-92717482D01*
X125653084Y-92790227D01*
X125654343Y-92858286D01*
X125658314Y-93108657D01*
X125745400Y-93108657D01*
X125749396Y-92880240D01*
X125753392Y-92651822D01*
X125795847Y-92629868D01*
X125827192Y-92614793D01*
X125845744Y-92607951D01*
X125846279Y-92607914D01*
X125848833Y-92621663D01*
G36*
X126213876Y-92619335D02*
G01*
X126255667Y-92638344D01*
X126288469Y-92661378D01*
X126312503Y-92687133D01*
X126329097Y-92720358D01*
X126339577Y-92765800D01*
X126345271Y-92828207D01*
X126347507Y-92912327D01*
X126347743Y-92967721D01*
X126347743Y-93183826D01*
X126310774Y-93200670D01*
X126281656Y-93212981D01*
X126267231Y-93217514D01*
X126264472Y-93204025D01*
X126262282Y-93167653D01*
X126260942Y-93114542D01*
X126260657Y-93072372D01*
X126259434Y-93011447D01*
X126256136Y-92963115D01*
X126251321Y-92933518D01*
X126247496Y-92927229D01*
X126221783Y-92933652D01*
X126181418Y-92950125D01*
X126134679Y-92972458D01*
X126089845Y-92996457D01*
X126055193Y-93017930D01*
X126039002Y-93032685D01*
X126038938Y-93032845D01*
X126040330Y-93060152D01*
X126052818Y-93086219D01*
X126074743Y-93107392D01*
X126106743Y-93114474D01*
X126134092Y-93113649D01*
X126172826Y-93113042D01*
X126193158Y-93122116D01*
X126205369Y-93146092D01*
X126206909Y-93150613D01*
X126212203Y-93184806D01*
X126198047Y-93205568D01*
X126161148Y-93215462D01*
X126121289Y-93217292D01*
X126049562Y-93203727D01*
X126012432Y-93184355D01*
X125966576Y-93138845D01*
X125942256Y-93082983D01*
X125940073Y-93023957D01*
X125960629Y-92968953D01*
X125991549Y-92934486D01*
X126022420Y-92915189D01*
X126070942Y-92890759D01*
X126127485Y-92865985D01*
X126136910Y-92862199D01*
X126199019Y-92834791D01*
X126234822Y-92810634D01*
X126246337Y-92786619D01*
X126235580Y-92759635D01*
X126217114Y-92738543D01*
X126173469Y-92712572D01*
X126125446Y-92710624D01*
X126081406Y-92730637D01*
X126049709Y-92770551D01*
X126045549Y-92780848D01*
X126021327Y-92818724D01*
X125985965Y-92846842D01*
X125941343Y-92869917D01*
X125941343Y-92804485D01*
X125943969Y-92764506D01*
X125955230Y-92732997D01*
X125980199Y-92699378D01*
X126004169Y-92673484D01*
X126041441Y-92636817D01*
X126070401Y-92617121D01*
X126101505Y-92609220D01*
X126136713Y-92607914D01*
X126213876Y-92619335D01*
G37*
X126213876Y-92619335D02*
X126255667Y-92638344D01*
X126288469Y-92661378D01*
X126312503Y-92687133D01*
X126329097Y-92720358D01*
X126339577Y-92765800D01*
X126345271Y-92828207D01*
X126347507Y-92912327D01*
X126347743Y-92967721D01*
X126347743Y-93183826D01*
X126310774Y-93200670D01*
X126281656Y-93212981D01*
X126267231Y-93217514D01*
X126264472Y-93204025D01*
X126262282Y-93167653D01*
X126260942Y-93114542D01*
X126260657Y-93072372D01*
X126259434Y-93011447D01*
X126256136Y-92963115D01*
X126251321Y-92933518D01*
X126247496Y-92927229D01*
X126221783Y-92933652D01*
X126181418Y-92950125D01*
X126134679Y-92972458D01*
X126089845Y-92996457D01*
X126055193Y-93017930D01*
X126039002Y-93032685D01*
X126038938Y-93032845D01*
X126040330Y-93060152D01*
X126052818Y-93086219D01*
X126074743Y-93107392D01*
X126106743Y-93114474D01*
X126134092Y-93113649D01*
X126172826Y-93113042D01*
X126193158Y-93122116D01*
X126205369Y-93146092D01*
X126206909Y-93150613D01*
X126212203Y-93184806D01*
X126198047Y-93205568D01*
X126161148Y-93215462D01*
X126121289Y-93217292D01*
X126049562Y-93203727D01*
X126012432Y-93184355D01*
X125966576Y-93138845D01*
X125942256Y-93082983D01*
X125940073Y-93023957D01*
X125960629Y-92968953D01*
X125991549Y-92934486D01*
X126022420Y-92915189D01*
X126070942Y-92890759D01*
X126127485Y-92865985D01*
X126136910Y-92862199D01*
X126199019Y-92834791D01*
X126234822Y-92810634D01*
X126246337Y-92786619D01*
X126235580Y-92759635D01*
X126217114Y-92738543D01*
X126173469Y-92712572D01*
X126125446Y-92710624D01*
X126081406Y-92730637D01*
X126049709Y-92770551D01*
X126045549Y-92780848D01*
X126021327Y-92818724D01*
X125985965Y-92846842D01*
X125941343Y-92869917D01*
X125941343Y-92804485D01*
X125943969Y-92764506D01*
X125955230Y-92732997D01*
X125980199Y-92699378D01*
X126004169Y-92673484D01*
X126041441Y-92636817D01*
X126070401Y-92617121D01*
X126101505Y-92609220D01*
X126136713Y-92607914D01*
X126213876Y-92619335D01*
G36*
X126721600Y-92621752D02*
G01*
X126738948Y-92629334D01*
X126780356Y-92662128D01*
X126815765Y-92709547D01*
X126837664Y-92760151D01*
X126841229Y-92785098D01*
X126829279Y-92819927D01*
X126803067Y-92838357D01*
X126774964Y-92849516D01*
X126762095Y-92851572D01*
X126755829Y-92836649D01*
X126743456Y-92804175D01*
X126738028Y-92789502D01*
X126707590Y-92738744D01*
X126663520Y-92713427D01*
X126607010Y-92714206D01*
X126602825Y-92715203D01*
X126572655Y-92729507D01*
X126550476Y-92757393D01*
X126535327Y-92802287D01*
X126526250Y-92867615D01*
X126522286Y-92956804D01*
X126521914Y-93004261D01*
X126521730Y-93079071D01*
X126520522Y-93130069D01*
X126517309Y-93162471D01*
X126511109Y-93181495D01*
X126500940Y-93192356D01*
X126485819Y-93200272D01*
X126484946Y-93200670D01*
X126455828Y-93212981D01*
X126441403Y-93217514D01*
X126439186Y-93203809D01*
X126437289Y-93165925D01*
X126435847Y-93108715D01*
X126434998Y-93037027D01*
X126434829Y-92984565D01*
X126435692Y-92883047D01*
X126439070Y-92806032D01*
X126446142Y-92749023D01*
X126458088Y-92707526D01*
X126476090Y-92677043D01*
X126501327Y-92653080D01*
X126526247Y-92636355D01*
X126586171Y-92614097D01*
X126655911Y-92609076D01*
X126721600Y-92621752D01*
G37*
X126721600Y-92621752D02*
X126738948Y-92629334D01*
X126780356Y-92662128D01*
X126815765Y-92709547D01*
X126837664Y-92760151D01*
X126841229Y-92785098D01*
X126829279Y-92819927D01*
X126803067Y-92838357D01*
X126774964Y-92849516D01*
X126762095Y-92851572D01*
X126755829Y-92836649D01*
X126743456Y-92804175D01*
X126738028Y-92789502D01*
X126707590Y-92738744D01*
X126663520Y-92713427D01*
X126607010Y-92714206D01*
X126602825Y-92715203D01*
X126572655Y-92729507D01*
X126550476Y-92757393D01*
X126535327Y-92802287D01*
X126526250Y-92867615D01*
X126522286Y-92956804D01*
X126521914Y-93004261D01*
X126521730Y-93079071D01*
X126520522Y-93130069D01*
X126517309Y-93162471D01*
X126511109Y-93181495D01*
X126500940Y-93192356D01*
X126485819Y-93200272D01*
X126484946Y-93200670D01*
X126455828Y-93212981D01*
X126441403Y-93217514D01*
X126439186Y-93203809D01*
X126437289Y-93165925D01*
X126435847Y-93108715D01*
X126434998Y-93037027D01*
X126434829Y-92984565D01*
X126435692Y-92883047D01*
X126439070Y-92806032D01*
X126446142Y-92749023D01*
X126458088Y-92707526D01*
X126476090Y-92677043D01*
X126501327Y-92653080D01*
X126526247Y-92636355D01*
X126586171Y-92614097D01*
X126655911Y-92609076D01*
X126721600Y-92621752D01*
G36*
X127222595Y-92629966D02*
G01*
X127280021Y-92667497D01*
X127307719Y-92701096D01*
X127329662Y-92762064D01*
X127331405Y-92810308D01*
X127327457Y-92874816D01*
X127178686Y-92939934D01*
X127106349Y-92973202D01*
X127059084Y-92999964D01*
X127034507Y-93023144D01*
X127030237Y-93045667D01*
X127043889Y-93070455D01*
X127058943Y-93086886D01*
X127102746Y-93113235D01*
X127150389Y-93115081D01*
X127194145Y-93094546D01*
X127226289Y-93053752D01*
X127232038Y-93039347D01*
X127259576Y-92994356D01*
X127291258Y-92975182D01*
X127334714Y-92958779D01*
X127334714Y-93020966D01*
X127330872Y-93063283D01*
X127315823Y-93098969D01*
X127284280Y-93139943D01*
X127279592Y-93145267D01*
X127244506Y-93181720D01*
X127214347Y-93201283D01*
X127176615Y-93210283D01*
X127145335Y-93213230D01*
X127089385Y-93213965D01*
X127049555Y-93204660D01*
X127024708Y-93190846D01*
X126985656Y-93160467D01*
X126958625Y-93127613D01*
X126941517Y-93086294D01*
X126932238Y-93030521D01*
X126928693Y-92954305D01*
X126928410Y-92915622D01*
X126929372Y-92869247D01*
X127017007Y-92869247D01*
X127018023Y-92894126D01*
X127020556Y-92898200D01*
X127037274Y-92892665D01*
X127073249Y-92878017D01*
X127121331Y-92857190D01*
X127131386Y-92852714D01*
X127192152Y-92821814D01*
X127225632Y-92794657D01*
X127232990Y-92769220D01*
X127215391Y-92743481D01*
X127200856Y-92732109D01*
X127148410Y-92709364D01*
X127099322Y-92713122D01*
X127058227Y-92740884D01*
X127029758Y-92790152D01*
X127020631Y-92829257D01*
X127017007Y-92869247D01*
X126929372Y-92869247D01*
X126930285Y-92825249D01*
X126937196Y-92758384D01*
X126950884Y-92709695D01*
X126973096Y-92673849D01*
X127005574Y-92645513D01*
X127019733Y-92636355D01*
X127084053Y-92612507D01*
X127154473Y-92611006D01*
X127222595Y-92629966D01*
G37*
X127222595Y-92629966D02*
X127280021Y-92667497D01*
X127307719Y-92701096D01*
X127329662Y-92762064D01*
X127331405Y-92810308D01*
X127327457Y-92874816D01*
X127178686Y-92939934D01*
X127106349Y-92973202D01*
X127059084Y-92999964D01*
X127034507Y-93023144D01*
X127030237Y-93045667D01*
X127043889Y-93070455D01*
X127058943Y-93086886D01*
X127102746Y-93113235D01*
X127150389Y-93115081D01*
X127194145Y-93094546D01*
X127226289Y-93053752D01*
X127232038Y-93039347D01*
X127259576Y-92994356D01*
X127291258Y-92975182D01*
X127334714Y-92958779D01*
X127334714Y-93020966D01*
X127330872Y-93063283D01*
X127315823Y-93098969D01*
X127284280Y-93139943D01*
X127279592Y-93145267D01*
X127244506Y-93181720D01*
X127214347Y-93201283D01*
X127176615Y-93210283D01*
X127145335Y-93213230D01*
X127089385Y-93213965D01*
X127049555Y-93204660D01*
X127024708Y-93190846D01*
X126985656Y-93160467D01*
X126958625Y-93127613D01*
X126941517Y-93086294D01*
X126932238Y-93030521D01*
X126928693Y-92954305D01*
X126928410Y-92915622D01*
X126929372Y-92869247D01*
X127017007Y-92869247D01*
X127018023Y-92894126D01*
X127020556Y-92898200D01*
X127037274Y-92892665D01*
X127073249Y-92878017D01*
X127121331Y-92857190D01*
X127131386Y-92852714D01*
X127192152Y-92821814D01*
X127225632Y-92794657D01*
X127232990Y-92769220D01*
X127215391Y-92743481D01*
X127200856Y-92732109D01*
X127148410Y-92709364D01*
X127099322Y-92713122D01*
X127058227Y-92740884D01*
X127029758Y-92790152D01*
X127020631Y-92829257D01*
X127017007Y-92869247D01*
X126929372Y-92869247D01*
X126930285Y-92825249D01*
X126937196Y-92758384D01*
X126950884Y-92709695D01*
X126973096Y-92673849D01*
X127005574Y-92645513D01*
X127019733Y-92636355D01*
X127084053Y-92612507D01*
X127154473Y-92611006D01*
X127222595Y-92629966D01*
G36*
X124172910Y-87905348D02*
G01*
X124251454Y-87905778D01*
X124308298Y-87906942D01*
X124347105Y-87909207D01*
X124371538Y-87912940D01*
X124385262Y-87918506D01*
X124391940Y-87926273D01*
X124395236Y-87936605D01*
X124395556Y-87937943D01*
X124400562Y-87962079D01*
X124409829Y-88009701D01*
X124422392Y-88075741D01*
X124437287Y-88155128D01*
X124453551Y-88242796D01*
X124454119Y-88245875D01*
X124470410Y-88331789D01*
X124485652Y-88407696D01*
X124498861Y-88469045D01*
X124509054Y-88511282D01*
X124515248Y-88529855D01*
X124515543Y-88530184D01*
X124533788Y-88539253D01*
X124571405Y-88554367D01*
X124620271Y-88572262D01*
X124620543Y-88572358D01*
X124682093Y-88595493D01*
X124754657Y-88624965D01*
X124823057Y-88654597D01*
X124826294Y-88656062D01*
X124937702Y-88706626D01*
X125184399Y-88538160D01*
X125260077Y-88486803D01*
X125328631Y-88440889D01*
X125386088Y-88403030D01*
X125428476Y-88375837D01*
X125451825Y-88361921D01*
X125454042Y-88360889D01*
X125471010Y-88365484D01*
X125502701Y-88387655D01*
X125550352Y-88428447D01*
X125615198Y-88488905D01*
X125681397Y-88553227D01*
X125745214Y-88616612D01*
X125802329Y-88674451D01*
X125849305Y-88723175D01*
X125882703Y-88759210D01*
X125899085Y-88778984D01*
X125899694Y-88780002D01*
X125901505Y-88793572D01*
X125894683Y-88815733D01*
X125877540Y-88849478D01*
X125848393Y-88897800D01*
X125805555Y-88963692D01*
X125748448Y-89048517D01*
X125697766Y-89123177D01*
X125652461Y-89190140D01*
X125615150Y-89245516D01*
X125588452Y-89285420D01*
X125574985Y-89305962D01*
X125574137Y-89307356D01*
X125575781Y-89327038D01*
X125588245Y-89365293D01*
X125609048Y-89414889D01*
X125616462Y-89430728D01*
X125648814Y-89501290D01*
X125683328Y-89581353D01*
X125711365Y-89650629D01*
X125731568Y-89702045D01*
X125747615Y-89741119D01*
X125756888Y-89761541D01*
X125758041Y-89763114D01*
X125775096Y-89765721D01*
X125815298Y-89772863D01*
X125873302Y-89783523D01*
X125943763Y-89796685D01*
X126021335Y-89811333D01*
X126100672Y-89826449D01*
X126176431Y-89841018D01*
X126243264Y-89854022D01*
X126295828Y-89864445D01*
X126328776Y-89871270D01*
X126336857Y-89873199D01*
X126345205Y-89877962D01*
X126351506Y-89888718D01*
X126356045Y-89909098D01*
X126359104Y-89942734D01*
X126360967Y-89993255D01*
X126361918Y-90064292D01*
X126362240Y-90159476D01*
X126362257Y-90198492D01*
X126362257Y-90515799D01*
X126286057Y-90530839D01*
X126243663Y-90538995D01*
X126180400Y-90550899D01*
X126103962Y-90565116D01*
X126022043Y-90580210D01*
X125999400Y-90584355D01*
X125923806Y-90599053D01*
X125857953Y-90613505D01*
X125807366Y-90626375D01*
X125777574Y-90636322D01*
X125772612Y-90639287D01*
X125760426Y-90660283D01*
X125742953Y-90700967D01*
X125723577Y-90753322D01*
X125719734Y-90764600D01*
X125694339Y-90834523D01*
X125662817Y-90913418D01*
X125631969Y-90984266D01*
X125631817Y-90984595D01*
X125580447Y-91095733D01*
X125749399Y-91344253D01*
X125918352Y-91592772D01*
X125701429Y-91810058D01*
X125635819Y-91874726D01*
X125575979Y-91931733D01*
X125525267Y-91978033D01*
X125487046Y-92010584D01*
X125464675Y-92026343D01*
X125461466Y-92027343D01*
X125442626Y-92019469D01*
X125404180Y-91997578D01*
X125350330Y-91964267D01*
X125285276Y-91922131D01*
X125214940Y-91874943D01*
X125143555Y-91826810D01*
X125079908Y-91784928D01*
X125028041Y-91751871D01*
X124991995Y-91730218D01*
X124975867Y-91722543D01*
X124956189Y-91729037D01*
X124918875Y-91746150D01*
X124871621Y-91770326D01*
X124866612Y-91773013D01*
X124802977Y-91804927D01*
X124759341Y-91820579D01*
X124732202Y-91820745D01*
X124718057Y-91806204D01*
X124717975Y-91806000D01*
X124710905Y-91788779D01*
X124694042Y-91747899D01*
X124668695Y-91686525D01*
X124636171Y-91607819D01*
X124597778Y-91514947D01*
X124554822Y-91411072D01*
X124513222Y-91310502D01*
X124467504Y-91199516D01*
X124425526Y-91096703D01*
X124388548Y-91005215D01*
X124357827Y-90928201D01*
X124334622Y-90868815D01*
X124320190Y-90830209D01*
X124315743Y-90815800D01*
X124326896Y-90799272D01*
X124356069Y-90772930D01*
X124394971Y-90743887D01*
X124505757Y-90652039D01*
X124592351Y-90546759D01*
X124653716Y-90430266D01*
X124688815Y-90304776D01*
X124696608Y-90172507D01*
X124690943Y-90111457D01*
X124660078Y-89984795D01*
X124606920Y-89872941D01*
X124534767Y-89777001D01*
X124446917Y-89698076D01*
X124346665Y-89637270D01*
X124237310Y-89595687D01*
X124122147Y-89574428D01*
X124004475Y-89574599D01*
X123887590Y-89597301D01*
X123774789Y-89643638D01*
X123669369Y-89714713D01*
X123625368Y-89754911D01*
X123540979Y-89858129D01*
X123482222Y-89970925D01*
X123448704Y-90090010D01*
X123440035Y-90212095D01*
X123455823Y-90333893D01*
X123495678Y-90452116D01*
X123559207Y-90563475D01*
X123646021Y-90664684D01*
X123743029Y-90743887D01*
X123783437Y-90774162D01*
X123811982Y-90800219D01*
X123822257Y-90815825D01*
X123816877Y-90832843D01*
X123801575Y-90873500D01*
X123777612Y-90934642D01*
X123746244Y-91013119D01*
X123708732Y-91105780D01*
X123666333Y-91209472D01*
X123624663Y-91310526D01*
X123578690Y-91421607D01*
X123536107Y-91524541D01*
X123498221Y-91616165D01*
X123466340Y-91693316D01*
X123441771Y-91752831D01*
X123425820Y-91791544D01*
X123419910Y-91806000D01*
X123405948Y-91820685D01*
X123378940Y-91820642D01*
X123335413Y-91805099D01*
X123271890Y-91773284D01*
X123271388Y-91773013D01*
X123223560Y-91748323D01*
X123184897Y-91730338D01*
X123163095Y-91722614D01*
X123162133Y-91722543D01*
X123145721Y-91730378D01*
X123109487Y-91752165D01*
X123057474Y-91785328D01*
X122993725Y-91827291D01*
X122923060Y-91874943D01*
X122851116Y-91923191D01*
X122786274Y-91965151D01*
X122732735Y-91998227D01*
X122694697Y-92019821D01*
X122676533Y-92027343D01*
X122659808Y-92017457D01*
X122626180Y-91989826D01*
X122579010Y-91947495D01*
X122521658Y-91893505D01*
X122457484Y-91830899D01*
X122436497Y-91809983D01*
X122219499Y-91592623D01*
X122384668Y-91350220D01*
X122434864Y-91275781D01*
X122478919Y-91208972D01*
X122514362Y-91153665D01*
X122538719Y-91113729D01*
X122549522Y-91093036D01*
X122549838Y-91091563D01*
X122544143Y-91072058D01*
X122528826Y-91032822D01*
X122506537Y-90980430D01*
X122490893Y-90945355D01*
X122461641Y-90878201D01*
X122434094Y-90810358D01*
X122412737Y-90753034D01*
X122406935Y-90735572D01*
X122390452Y-90688938D01*
X122374340Y-90652905D01*
X122365490Y-90639287D01*
X122345960Y-90630952D01*
X122303334Y-90619137D01*
X122243145Y-90605181D01*
X122170922Y-90590422D01*
X122138600Y-90584355D01*
X122056522Y-90569273D01*
X121977795Y-90554669D01*
X121910109Y-90541980D01*
X121861160Y-90532642D01*
X121851943Y-90530839D01*
X121775743Y-90515799D01*
X121775743Y-90198492D01*
X121775914Y-90094154D01*
X121776616Y-90015213D01*
X121778134Y-89958038D01*
X121780749Y-89918999D01*
X121784746Y-89894465D01*
X121790409Y-89880805D01*
X121798020Y-89874389D01*
X121801143Y-89873199D01*
X121819978Y-89868980D01*
X121861588Y-89860562D01*
X121920630Y-89848961D01*
X121991757Y-89835195D01*
X122069625Y-89820280D01*
X122148887Y-89805232D01*
X122224198Y-89791069D01*
X122290213Y-89778806D01*
X122341587Y-89769461D01*
X122372975Y-89764050D01*
X122379959Y-89763114D01*
X122386285Y-89750596D01*
X122400290Y-89717246D01*
X122419355Y-89669377D01*
X122426634Y-89650629D01*
X122455996Y-89578195D01*
X122490571Y-89498170D01*
X122521537Y-89430728D01*
X122544323Y-89379159D01*
X122559482Y-89336785D01*
X122564542Y-89310834D01*
X122563736Y-89307356D01*
X122553041Y-89290936D01*
X122528620Y-89254417D01*
X122493095Y-89201687D01*
X122449087Y-89136635D01*
X122399217Y-89063151D01*
X122389356Y-89048645D01*
X122331492Y-88962704D01*
X122288956Y-88897261D01*
X122260054Y-88849304D01*
X122243090Y-88815820D01*
X122236367Y-88793795D01*
X122238190Y-88780217D01*
X122238236Y-88780131D01*
X122252586Y-88762297D01*
X122284323Y-88727817D01*
X122330010Y-88680268D01*
X122386204Y-88623222D01*
X122449468Y-88560255D01*
X122456602Y-88553227D01*
X122536330Y-88476020D01*
X122597857Y-88419330D01*
X122642421Y-88382110D01*
X122671257Y-88363315D01*
X122683958Y-88360889D01*
X122702494Y-88371471D01*
X122740961Y-88395916D01*
X122795386Y-88431612D01*
X122861798Y-88475947D01*
X122936225Y-88526311D01*
X122953601Y-88538160D01*
X123200297Y-88706626D01*
X123311706Y-88656062D01*
X123379457Y-88626595D01*
X123452183Y-88596959D01*
X123514703Y-88573330D01*
X123517457Y-88572358D01*
X123566360Y-88554457D01*
X123604057Y-88539320D01*
X123622425Y-88530210D01*
X123622456Y-88530184D01*
X123628285Y-88513717D01*
X123638192Y-88473219D01*
X123651195Y-88413242D01*
X123666309Y-88338340D01*
X123682552Y-88253064D01*
X123683881Y-88245875D01*
X123700175Y-88158014D01*
X123715133Y-88078260D01*
X123727791Y-88011681D01*
X123737186Y-87963347D01*
X123742354Y-87938325D01*
X123742444Y-87937943D01*
X123745589Y-87927299D01*
X123751704Y-87919262D01*
X123764453Y-87913467D01*
X123787500Y-87909547D01*
X123824509Y-87907135D01*
X123879144Y-87905865D01*
X123955067Y-87905371D01*
X124055944Y-87905286D01*
X124069000Y-87905286D01*
X124172910Y-87905348D01*
G37*
X124172910Y-87905348D02*
X124251454Y-87905778D01*
X124308298Y-87906942D01*
X124347105Y-87909207D01*
X124371538Y-87912940D01*
X124385262Y-87918506D01*
X124391940Y-87926273D01*
X124395236Y-87936605D01*
X124395556Y-87937943D01*
X124400562Y-87962079D01*
X124409829Y-88009701D01*
X124422392Y-88075741D01*
X124437287Y-88155128D01*
X124453551Y-88242796D01*
X124454119Y-88245875D01*
X124470410Y-88331789D01*
X124485652Y-88407696D01*
X124498861Y-88469045D01*
X124509054Y-88511282D01*
X124515248Y-88529855D01*
X124515543Y-88530184D01*
X124533788Y-88539253D01*
X124571405Y-88554367D01*
X124620271Y-88572262D01*
X124620543Y-88572358D01*
X124682093Y-88595493D01*
X124754657Y-88624965D01*
X124823057Y-88654597D01*
X124826294Y-88656062D01*
X124937702Y-88706626D01*
X125184399Y-88538160D01*
X125260077Y-88486803D01*
X125328631Y-88440889D01*
X125386088Y-88403030D01*
X125428476Y-88375837D01*
X125451825Y-88361921D01*
X125454042Y-88360889D01*
X125471010Y-88365484D01*
X125502701Y-88387655D01*
X125550352Y-88428447D01*
X125615198Y-88488905D01*
X125681397Y-88553227D01*
X125745214Y-88616612D01*
X125802329Y-88674451D01*
X125849305Y-88723175D01*
X125882703Y-88759210D01*
X125899085Y-88778984D01*
X125899694Y-88780002D01*
X125901505Y-88793572D01*
X125894683Y-88815733D01*
X125877540Y-88849478D01*
X125848393Y-88897800D01*
X125805555Y-88963692D01*
X125748448Y-89048517D01*
X125697766Y-89123177D01*
X125652461Y-89190140D01*
X125615150Y-89245516D01*
X125588452Y-89285420D01*
X125574985Y-89305962D01*
X125574137Y-89307356D01*
X125575781Y-89327038D01*
X125588245Y-89365293D01*
X125609048Y-89414889D01*
X125616462Y-89430728D01*
X125648814Y-89501290D01*
X125683328Y-89581353D01*
X125711365Y-89650629D01*
X125731568Y-89702045D01*
X125747615Y-89741119D01*
X125756888Y-89761541D01*
X125758041Y-89763114D01*
X125775096Y-89765721D01*
X125815298Y-89772863D01*
X125873302Y-89783523D01*
X125943763Y-89796685D01*
X126021335Y-89811333D01*
X126100672Y-89826449D01*
X126176431Y-89841018D01*
X126243264Y-89854022D01*
X126295828Y-89864445D01*
X126328776Y-89871270D01*
X126336857Y-89873199D01*
X126345205Y-89877962D01*
X126351506Y-89888718D01*
X126356045Y-89909098D01*
X126359104Y-89942734D01*
X126360967Y-89993255D01*
X126361918Y-90064292D01*
X126362240Y-90159476D01*
X126362257Y-90198492D01*
X126362257Y-90515799D01*
X126286057Y-90530839D01*
X126243663Y-90538995D01*
X126180400Y-90550899D01*
X126103962Y-90565116D01*
X126022043Y-90580210D01*
X125999400Y-90584355D01*
X125923806Y-90599053D01*
X125857953Y-90613505D01*
X125807366Y-90626375D01*
X125777574Y-90636322D01*
X125772612Y-90639287D01*
X125760426Y-90660283D01*
X125742953Y-90700967D01*
X125723577Y-90753322D01*
X125719734Y-90764600D01*
X125694339Y-90834523D01*
X125662817Y-90913418D01*
X125631969Y-90984266D01*
X125631817Y-90984595D01*
X125580447Y-91095733D01*
X125749399Y-91344253D01*
X125918352Y-91592772D01*
X125701429Y-91810058D01*
X125635819Y-91874726D01*
X125575979Y-91931733D01*
X125525267Y-91978033D01*
X125487046Y-92010584D01*
X125464675Y-92026343D01*
X125461466Y-92027343D01*
X125442626Y-92019469D01*
X125404180Y-91997578D01*
X125350330Y-91964267D01*
X125285276Y-91922131D01*
X125214940Y-91874943D01*
X125143555Y-91826810D01*
X125079908Y-91784928D01*
X125028041Y-91751871D01*
X124991995Y-91730218D01*
X124975867Y-91722543D01*
X124956189Y-91729037D01*
X124918875Y-91746150D01*
X124871621Y-91770326D01*
X124866612Y-91773013D01*
X124802977Y-91804927D01*
X124759341Y-91820579D01*
X124732202Y-91820745D01*
X124718057Y-91806204D01*
X124717975Y-91806000D01*
X124710905Y-91788779D01*
X124694042Y-91747899D01*
X124668695Y-91686525D01*
X124636171Y-91607819D01*
X124597778Y-91514947D01*
X124554822Y-91411072D01*
X124513222Y-91310502D01*
X124467504Y-91199516D01*
X124425526Y-91096703D01*
X124388548Y-91005215D01*
X124357827Y-90928201D01*
X124334622Y-90868815D01*
X124320190Y-90830209D01*
X124315743Y-90815800D01*
X124326896Y-90799272D01*
X124356069Y-90772930D01*
X124394971Y-90743887D01*
X124505757Y-90652039D01*
X124592351Y-90546759D01*
X124653716Y-90430266D01*
X124688815Y-90304776D01*
X124696608Y-90172507D01*
X124690943Y-90111457D01*
X124660078Y-89984795D01*
X124606920Y-89872941D01*
X124534767Y-89777001D01*
X124446917Y-89698076D01*
X124346665Y-89637270D01*
X124237310Y-89595687D01*
X124122147Y-89574428D01*
X124004475Y-89574599D01*
X123887590Y-89597301D01*
X123774789Y-89643638D01*
X123669369Y-89714713D01*
X123625368Y-89754911D01*
X123540979Y-89858129D01*
X123482222Y-89970925D01*
X123448704Y-90090010D01*
X123440035Y-90212095D01*
X123455823Y-90333893D01*
X123495678Y-90452116D01*
X123559207Y-90563475D01*
X123646021Y-90664684D01*
X123743029Y-90743887D01*
X123783437Y-90774162D01*
X123811982Y-90800219D01*
X123822257Y-90815825D01*
X123816877Y-90832843D01*
X123801575Y-90873500D01*
X123777612Y-90934642D01*
X123746244Y-91013119D01*
X123708732Y-91105780D01*
X123666333Y-91209472D01*
X123624663Y-91310526D01*
X123578690Y-91421607D01*
X123536107Y-91524541D01*
X123498221Y-91616165D01*
X123466340Y-91693316D01*
X123441771Y-91752831D01*
X123425820Y-91791544D01*
X123419910Y-91806000D01*
X123405948Y-91820685D01*
X123378940Y-91820642D01*
X123335413Y-91805099D01*
X123271890Y-91773284D01*
X123271388Y-91773013D01*
X123223560Y-91748323D01*
X123184897Y-91730338D01*
X123163095Y-91722614D01*
X123162133Y-91722543D01*
X123145721Y-91730378D01*
X123109487Y-91752165D01*
X123057474Y-91785328D01*
X122993725Y-91827291D01*
X122923060Y-91874943D01*
X122851116Y-91923191D01*
X122786274Y-91965151D01*
X122732735Y-91998227D01*
X122694697Y-92019821D01*
X122676533Y-92027343D01*
X122659808Y-92017457D01*
X122626180Y-91989826D01*
X122579010Y-91947495D01*
X122521658Y-91893505D01*
X122457484Y-91830899D01*
X122436497Y-91809983D01*
X122219499Y-91592623D01*
X122384668Y-91350220D01*
X122434864Y-91275781D01*
X122478919Y-91208972D01*
X122514362Y-91153665D01*
X122538719Y-91113729D01*
X122549522Y-91093036D01*
X122549838Y-91091563D01*
X122544143Y-91072058D01*
X122528826Y-91032822D01*
X122506537Y-90980430D01*
X122490893Y-90945355D01*
X122461641Y-90878201D01*
X122434094Y-90810358D01*
X122412737Y-90753034D01*
X122406935Y-90735572D01*
X122390452Y-90688938D01*
X122374340Y-90652905D01*
X122365490Y-90639287D01*
X122345960Y-90630952D01*
X122303334Y-90619137D01*
X122243145Y-90605181D01*
X122170922Y-90590422D01*
X122138600Y-90584355D01*
X122056522Y-90569273D01*
X121977795Y-90554669D01*
X121910109Y-90541980D01*
X121861160Y-90532642D01*
X121851943Y-90530839D01*
X121775743Y-90515799D01*
X121775743Y-90198492D01*
X121775914Y-90094154D01*
X121776616Y-90015213D01*
X121778134Y-89958038D01*
X121780749Y-89918999D01*
X121784746Y-89894465D01*
X121790409Y-89880805D01*
X121798020Y-89874389D01*
X121801143Y-89873199D01*
X121819978Y-89868980D01*
X121861588Y-89860562D01*
X121920630Y-89848961D01*
X121991757Y-89835195D01*
X122069625Y-89820280D01*
X122148887Y-89805232D01*
X122224198Y-89791069D01*
X122290213Y-89778806D01*
X122341587Y-89769461D01*
X122372975Y-89764050D01*
X122379959Y-89763114D01*
X122386285Y-89750596D01*
X122400290Y-89717246D01*
X122419355Y-89669377D01*
X122426634Y-89650629D01*
X122455996Y-89578195D01*
X122490571Y-89498170D01*
X122521537Y-89430728D01*
X122544323Y-89379159D01*
X122559482Y-89336785D01*
X122564542Y-89310834D01*
X122563736Y-89307356D01*
X122553041Y-89290936D01*
X122528620Y-89254417D01*
X122493095Y-89201687D01*
X122449087Y-89136635D01*
X122399217Y-89063151D01*
X122389356Y-89048645D01*
X122331492Y-88962704D01*
X122288956Y-88897261D01*
X122260054Y-88849304D01*
X122243090Y-88815820D01*
X122236367Y-88793795D01*
X122238190Y-88780217D01*
X122238236Y-88780131D01*
X122252586Y-88762297D01*
X122284323Y-88727817D01*
X122330010Y-88680268D01*
X122386204Y-88623222D01*
X122449468Y-88560255D01*
X122456602Y-88553227D01*
X122536330Y-88476020D01*
X122597857Y-88419330D01*
X122642421Y-88382110D01*
X122671257Y-88363315D01*
X122683958Y-88360889D01*
X122702494Y-88371471D01*
X122740961Y-88395916D01*
X122795386Y-88431612D01*
X122861798Y-88475947D01*
X122936225Y-88526311D01*
X122953601Y-88538160D01*
X123200297Y-88706626D01*
X123311706Y-88656062D01*
X123379457Y-88626595D01*
X123452183Y-88596959D01*
X123514703Y-88573330D01*
X123517457Y-88572358D01*
X123566360Y-88554457D01*
X123604057Y-88539320D01*
X123622425Y-88530210D01*
X123622456Y-88530184D01*
X123628285Y-88513717D01*
X123638192Y-88473219D01*
X123651195Y-88413242D01*
X123666309Y-88338340D01*
X123682552Y-88253064D01*
X123683881Y-88245875D01*
X123700175Y-88158014D01*
X123715133Y-88078260D01*
X123727791Y-88011681D01*
X123737186Y-87963347D01*
X123742354Y-87938325D01*
X123742444Y-87937943D01*
X123745589Y-87927299D01*
X123751704Y-87919262D01*
X123764453Y-87913467D01*
X123787500Y-87909547D01*
X123824509Y-87907135D01*
X123879144Y-87905865D01*
X123955067Y-87905371D01*
X124055944Y-87905286D01*
X124069000Y-87905286D01*
X124172910Y-87905348D01*
G36*
X162270600Y-63768054D02*
G01*
X162281465Y-63881993D01*
X162313082Y-63989616D01*
X162363985Y-64088615D01*
X162432707Y-64176684D01*
X162517781Y-64251516D01*
X162614768Y-64309384D01*
X162721036Y-64349005D01*
X162828050Y-64367573D01*
X162933700Y-64366434D01*
X163035875Y-64346930D01*
X163132466Y-64310406D01*
X163221362Y-64258205D01*
X163300454Y-64191673D01*
X163367631Y-64112152D01*
X163420783Y-64020987D01*
X163457801Y-63919523D01*
X163476573Y-63809102D01*
X163478511Y-63759206D01*
X163478511Y-63671267D01*
X163530440Y-63671267D01*
X163566747Y-63674111D01*
X163593645Y-63685911D01*
X163620751Y-63709649D01*
X163659133Y-63748031D01*
X163659133Y-65939602D01*
X163659124Y-66201739D01*
X163659092Y-66442241D01*
X163659028Y-66662048D01*
X163658924Y-66862101D01*
X163658773Y-67043344D01*
X163658566Y-67206716D01*
X163658294Y-67353160D01*
X163657950Y-67483617D01*
X163657526Y-67599029D01*
X163657013Y-67700338D01*
X163656403Y-67788484D01*
X163655688Y-67864410D01*
X163654860Y-67929057D01*
X163653911Y-67983367D01*
X163652833Y-68028280D01*
X163651617Y-68064740D01*
X163650255Y-68093687D01*
X163648739Y-68116063D01*
X163647062Y-68132809D01*
X163645214Y-68144868D01*
X163643187Y-68153180D01*
X163640975Y-68158687D01*
X163639892Y-68160537D01*
X163635729Y-68167549D01*
X163632195Y-68173996D01*
X163628365Y-68179900D01*
X163623318Y-68185286D01*
X163616129Y-68190178D01*
X163605877Y-68194598D01*
X163591636Y-68198572D01*
X163572486Y-68202121D01*
X163547501Y-68205270D01*
X163515760Y-68208042D01*
X163476338Y-68210461D01*
X163428314Y-68212551D01*
X163370763Y-68214335D01*
X163302763Y-68215837D01*
X163223390Y-68217080D01*
X163131721Y-68218089D01*
X163026834Y-68218885D01*
X162907804Y-68219494D01*
X162773710Y-68219939D01*
X162623627Y-68220243D01*
X162456633Y-68220430D01*
X162271804Y-68220524D01*
X162068217Y-68220548D01*
X161844950Y-68220525D01*
X161601078Y-68220480D01*
X161335679Y-68220437D01*
X161297296Y-68220432D01*
X161030318Y-68220389D01*
X160784998Y-68220318D01*
X160560417Y-68220213D01*
X160355655Y-68220066D01*
X160169794Y-68219869D01*
X160001912Y-68219616D01*
X159851092Y-68219300D01*
X159716413Y-68218913D01*
X159596956Y-68218447D01*
X159491801Y-68217897D01*
X159400029Y-68217253D01*
X159320721Y-68216511D01*
X159252957Y-68215661D01*
X159195818Y-68214697D01*
X159148383Y-68213611D01*
X159109734Y-68212397D01*
X159078951Y-68211047D01*
X159055115Y-68209555D01*
X159037306Y-68207911D01*
X159024605Y-68206111D01*
X159016092Y-68204145D01*
X159011734Y-68202477D01*
X159003272Y-68198906D01*
X158995503Y-68196270D01*
X158988398Y-68193634D01*
X158981927Y-68190062D01*
X158976061Y-68184621D01*
X158970771Y-68176375D01*
X158966026Y-68164390D01*
X158961798Y-68147731D01*
X158958057Y-68125463D01*
X158954773Y-68096652D01*
X158951917Y-68060363D01*
X158949460Y-68015661D01*
X158947371Y-67961611D01*
X158945622Y-67897279D01*
X158944183Y-67821730D01*
X158943024Y-67734030D01*
X158942117Y-67633243D01*
X158941431Y-67518434D01*
X158940937Y-67388670D01*
X158940605Y-67243015D01*
X158940407Y-67080535D01*
X158940313Y-66900295D01*
X158940292Y-66701360D01*
X158940315Y-66482796D01*
X158940354Y-66243668D01*
X158940378Y-65983040D01*
X158940378Y-65940889D01*
X158940364Y-65677992D01*
X158940339Y-65436732D01*
X158940329Y-65216165D01*
X158940358Y-65015352D01*
X158940452Y-64833349D01*
X158940638Y-64669216D01*
X158940941Y-64522011D01*
X158941386Y-64390792D01*
X158941966Y-64280867D01*
X159244803Y-64280867D01*
X159284593Y-64338711D01*
X159295764Y-64354479D01*
X159305834Y-64368441D01*
X159314862Y-64381784D01*
X159322903Y-64395693D01*
X159330014Y-64411356D01*
X159336253Y-64429958D01*
X159341675Y-64452686D01*
X159346338Y-64480727D01*
X159350299Y-64515267D01*
X159353615Y-64557492D01*
X159356341Y-64608589D01*
X159358536Y-64669744D01*
X159360255Y-64742144D01*
X159361556Y-64826975D01*
X159362495Y-64925422D01*
X159363130Y-65038674D01*
X159363516Y-65167916D01*
X159363712Y-65314334D01*
X159363773Y-65479116D01*
X159363757Y-65663447D01*
X159363720Y-65868513D01*
X159363711Y-65991133D01*
X159363735Y-66208082D01*
X159363769Y-66403642D01*
X159363757Y-66578999D01*
X159363642Y-66735341D01*
X159363370Y-66873857D01*
X159362882Y-66995734D01*
X159362124Y-67102160D01*
X159361038Y-67194322D01*
X159359569Y-67273409D01*
X159357660Y-67340608D01*
X159355256Y-67397107D01*
X159352299Y-67444093D01*
X159348734Y-67482755D01*
X159344505Y-67514280D01*
X159339554Y-67539855D01*
X159333827Y-67560670D01*
X159327267Y-67577911D01*
X159319817Y-67592765D01*
X159311421Y-67606422D01*
X159302024Y-67620069D01*
X159291568Y-67634893D01*
X159285477Y-67643783D01*
X159246704Y-67701400D01*
X159778268Y-67701400D01*
X159901517Y-67701365D01*
X160004013Y-67701215D01*
X160087580Y-67700878D01*
X160154044Y-67700286D01*
X160205229Y-67699367D01*
X160242959Y-67698051D01*
X160269060Y-67696269D01*
X160285356Y-67693951D01*
X160293672Y-67691026D01*
X160295832Y-67687424D01*
X160293661Y-67683075D01*
X160292465Y-67681645D01*
X160267315Y-67644573D01*
X160241417Y-67591772D01*
X160217808Y-67529770D01*
X160209539Y-67503357D01*
X160204922Y-67485416D01*
X160201021Y-67464355D01*
X160197752Y-67438089D01*
X160195034Y-67404532D01*
X160192785Y-67361599D01*
X160190923Y-67307204D01*
X160189364Y-67239262D01*
X160188028Y-67155688D01*
X160186831Y-67054395D01*
X160185692Y-66933300D01*
X160185315Y-66888600D01*
X160184298Y-66763449D01*
X160183540Y-66659082D01*
X160183097Y-66573707D01*
X160183030Y-66505533D01*
X160183395Y-66452765D01*
X160184252Y-66413614D01*
X160185659Y-66386285D01*
X160187675Y-66368986D01*
X160190357Y-66359926D01*
X160193764Y-66357312D01*
X160197956Y-66359351D01*
X160202429Y-66363667D01*
X160212784Y-66376602D01*
X160234842Y-66405676D01*
X160267043Y-66448759D01*
X160307826Y-66503718D01*
X160355630Y-66568423D01*
X160408895Y-66640742D01*
X160466060Y-66718544D01*
X160525563Y-66799698D01*
X160585845Y-66882072D01*
X160645345Y-66963536D01*
X160702502Y-67041957D01*
X160755755Y-67115204D01*
X160803543Y-67181147D01*
X160844307Y-67237654D01*
X160876484Y-67282593D01*
X160898515Y-67313834D01*
X160903083Y-67320466D01*
X160926004Y-67357369D01*
X160952812Y-67405359D01*
X160978211Y-67454897D01*
X160981432Y-67461577D01*
X161003110Y-67509772D01*
X161015696Y-67547334D01*
X161021426Y-67583160D01*
X161022544Y-67625200D01*
X161021910Y-67701400D01*
X162176349Y-67701400D01*
X162085185Y-67607669D01*
X162038388Y-67557775D01*
X161988101Y-67501295D01*
X161942056Y-67447026D01*
X161921631Y-67421673D01*
X161891193Y-67382128D01*
X161851138Y-67328916D01*
X161802639Y-67263667D01*
X161746865Y-67188011D01*
X161684989Y-67103577D01*
X161618181Y-67011994D01*
X161547613Y-66914892D01*
X161474455Y-66813901D01*
X161399879Y-66710650D01*
X161325056Y-66606768D01*
X161251157Y-66503885D01*
X161179354Y-66403631D01*
X161110816Y-66307636D01*
X161046716Y-66217527D01*
X160988225Y-66134936D01*
X160936514Y-66061492D01*
X160892753Y-65998824D01*
X160858115Y-65948561D01*
X160833770Y-65912334D01*
X160820889Y-65891771D01*
X160819131Y-65887668D01*
X160827090Y-65876342D01*
X160847885Y-65849162D01*
X160880153Y-65807829D01*
X160922530Y-65754044D01*
X160973653Y-65689506D01*
X161032159Y-65615918D01*
X161096686Y-65534978D01*
X161165869Y-65448388D01*
X161238347Y-65357848D01*
X161312754Y-65265060D01*
X161372483Y-65190702D01*
X162383489Y-65190702D01*
X162389398Y-65203659D01*
X162403728Y-65225908D01*
X162404775Y-65227391D01*
X162423562Y-65257544D01*
X162443209Y-65294375D01*
X162447108Y-65302511D01*
X162450644Y-65310940D01*
X162453770Y-65321059D01*
X162456514Y-65334260D01*
X162458908Y-65351938D01*
X162460981Y-65375484D01*
X162462765Y-65406293D01*
X162464288Y-65445757D01*
X162465581Y-65495269D01*
X162466674Y-65556223D01*
X162467597Y-65630011D01*
X162468381Y-65718028D01*
X162469055Y-65821665D01*
X162469650Y-65942316D01*
X162470195Y-66081374D01*
X162470721Y-66240232D01*
X162471255Y-66419089D01*
X162471794Y-66604207D01*
X162472228Y-66768145D01*
X162472491Y-66912303D01*
X162472516Y-67038079D01*
X162472235Y-67146871D01*
X162471581Y-67240077D01*
X162470486Y-67319097D01*
X162468882Y-67385328D01*
X162466703Y-67440170D01*
X162463881Y-67485021D01*
X162460349Y-67521278D01*
X162456039Y-67550341D01*
X162450883Y-67573609D01*
X162444815Y-67592479D01*
X162437767Y-67608351D01*
X162429671Y-67622622D01*
X162420460Y-67636691D01*
X162411960Y-67649158D01*
X162394824Y-67675452D01*
X162384678Y-67693037D01*
X162383489Y-67696257D01*
X162394396Y-67697334D01*
X162425589Y-67698335D01*
X162474777Y-67699235D01*
X162539667Y-67700010D01*
X162617970Y-67700637D01*
X162707393Y-67701091D01*
X162805644Y-67701349D01*
X162874555Y-67701400D01*
X162979548Y-67701180D01*
X163076390Y-67700548D01*
X163162893Y-67699549D01*
X163236868Y-67698227D01*
X163296126Y-67696626D01*
X163338480Y-67694791D01*
X163361740Y-67692765D01*
X163365622Y-67691493D01*
X163357924Y-67676591D01*
X163349926Y-67668560D01*
X163336754Y-67651434D01*
X163319515Y-67621183D01*
X163307593Y-67596622D01*
X163280955Y-67537711D01*
X163277880Y-66360845D01*
X163274805Y-65183978D01*
X162829147Y-65183978D01*
X162731330Y-65184142D01*
X162640936Y-65184611D01*
X162560370Y-65185347D01*
X162492038Y-65186316D01*
X162438344Y-65187480D01*
X162401695Y-65188803D01*
X162384496Y-65190249D01*
X162383489Y-65190702D01*
X161372483Y-65190702D01*
X161387730Y-65171722D01*
X161461910Y-65079537D01*
X161533931Y-64990204D01*
X161602431Y-64905424D01*
X161666045Y-64826898D01*
X161723412Y-64756326D01*
X161773167Y-64695409D01*
X161813948Y-64645847D01*
X161831112Y-64625178D01*
X161917404Y-64524516D01*
X161994003Y-64441259D01*
X162062817Y-64373438D01*
X162125752Y-64319089D01*
X162135133Y-64311722D01*
X162174644Y-64281117D01*
X161042884Y-64280867D01*
X161048173Y-64328844D01*
X161044870Y-64386188D01*
X161023339Y-64454463D01*
X160983365Y-64534212D01*
X160938057Y-64606495D01*
X160921839Y-64629140D01*
X160893786Y-64666696D01*
X160855570Y-64717021D01*
X160808863Y-64777973D01*
X160755339Y-64847411D01*
X160696669Y-64923194D01*
X160634525Y-65003180D01*
X160570579Y-65085228D01*
X160506505Y-65167196D01*
X160443973Y-65246943D01*
X160384657Y-65322327D01*
X160330229Y-65391207D01*
X160282361Y-65451442D01*
X160242725Y-65500889D01*
X160212994Y-65537408D01*
X160194839Y-65558858D01*
X160191780Y-65562156D01*
X160188921Y-65554149D01*
X160186707Y-65523855D01*
X160185143Y-65471556D01*
X160184233Y-65397531D01*
X160183980Y-65302063D01*
X160184387Y-65185434D01*
X160185296Y-65065445D01*
X160186618Y-64933333D01*
X160188143Y-64821594D01*
X160190119Y-64728025D01*
X160192794Y-64650419D01*
X160196418Y-64586574D01*
X160201239Y-64534283D01*
X160207506Y-64491344D01*
X160215468Y-64455551D01*
X160225373Y-64424700D01*
X160237469Y-64396586D01*
X160252007Y-64369005D01*
X160266689Y-64343966D01*
X160304686Y-64280867D01*
X159244803Y-64280867D01*
X158941966Y-64280867D01*
X158941999Y-64274617D01*
X158942805Y-64172544D01*
X158943830Y-64083633D01*
X158945100Y-64006941D01*
X158946640Y-63941527D01*
X158948476Y-63886449D01*
X158950633Y-63840765D01*
X158953137Y-63803534D01*
X158956013Y-63773813D01*
X158959287Y-63750662D01*
X158962985Y-63733139D01*
X158967131Y-63720301D01*
X158971753Y-63711208D01*
X158976874Y-63704918D01*
X158982522Y-63700488D01*
X158988721Y-63696978D01*
X158995496Y-63693445D01*
X159001492Y-63689876D01*
X159006725Y-63687300D01*
X159014901Y-63684972D01*
X159027114Y-63682878D01*
X159044459Y-63681007D01*
X159068031Y-63679347D01*
X159098923Y-63677884D01*
X159138232Y-63676608D01*
X159187050Y-63675504D01*
X159246473Y-63674561D01*
X159317596Y-63673767D01*
X159401512Y-63673109D01*
X159499317Y-63672575D01*
X159612106Y-63672153D01*
X159740971Y-63671829D01*
X159887009Y-63671592D01*
X160051314Y-63671430D01*
X160234980Y-63671330D01*
X160439103Y-63671280D01*
X160650247Y-63671267D01*
X162270600Y-63671267D01*
X162270600Y-63768054D01*
G37*
X162270600Y-63768054D02*
X162281465Y-63881993D01*
X162313082Y-63989616D01*
X162363985Y-64088615D01*
X162432707Y-64176684D01*
X162517781Y-64251516D01*
X162614768Y-64309384D01*
X162721036Y-64349005D01*
X162828050Y-64367573D01*
X162933700Y-64366434D01*
X163035875Y-64346930D01*
X163132466Y-64310406D01*
X163221362Y-64258205D01*
X163300454Y-64191673D01*
X163367631Y-64112152D01*
X163420783Y-64020987D01*
X163457801Y-63919523D01*
X163476573Y-63809102D01*
X163478511Y-63759206D01*
X163478511Y-63671267D01*
X163530440Y-63671267D01*
X163566747Y-63674111D01*
X163593645Y-63685911D01*
X163620751Y-63709649D01*
X163659133Y-63748031D01*
X163659133Y-65939602D01*
X163659124Y-66201739D01*
X163659092Y-66442241D01*
X163659028Y-66662048D01*
X163658924Y-66862101D01*
X163658773Y-67043344D01*
X163658566Y-67206716D01*
X163658294Y-67353160D01*
X163657950Y-67483617D01*
X163657526Y-67599029D01*
X163657013Y-67700338D01*
X163656403Y-67788484D01*
X163655688Y-67864410D01*
X163654860Y-67929057D01*
X163653911Y-67983367D01*
X163652833Y-68028280D01*
X163651617Y-68064740D01*
X163650255Y-68093687D01*
X163648739Y-68116063D01*
X163647062Y-68132809D01*
X163645214Y-68144868D01*
X163643187Y-68153180D01*
X163640975Y-68158687D01*
X163639892Y-68160537D01*
X163635729Y-68167549D01*
X163632195Y-68173996D01*
X163628365Y-68179900D01*
X163623318Y-68185286D01*
X163616129Y-68190178D01*
X163605877Y-68194598D01*
X163591636Y-68198572D01*
X163572486Y-68202121D01*
X163547501Y-68205270D01*
X163515760Y-68208042D01*
X163476338Y-68210461D01*
X163428314Y-68212551D01*
X163370763Y-68214335D01*
X163302763Y-68215837D01*
X163223390Y-68217080D01*
X163131721Y-68218089D01*
X163026834Y-68218885D01*
X162907804Y-68219494D01*
X162773710Y-68219939D01*
X162623627Y-68220243D01*
X162456633Y-68220430D01*
X162271804Y-68220524D01*
X162068217Y-68220548D01*
X161844950Y-68220525D01*
X161601078Y-68220480D01*
X161335679Y-68220437D01*
X161297296Y-68220432D01*
X161030318Y-68220389D01*
X160784998Y-68220318D01*
X160560417Y-68220213D01*
X160355655Y-68220066D01*
X160169794Y-68219869D01*
X160001912Y-68219616D01*
X159851092Y-68219300D01*
X159716413Y-68218913D01*
X159596956Y-68218447D01*
X159491801Y-68217897D01*
X159400029Y-68217253D01*
X159320721Y-68216511D01*
X159252957Y-68215661D01*
X159195818Y-68214697D01*
X159148383Y-68213611D01*
X159109734Y-68212397D01*
X159078951Y-68211047D01*
X159055115Y-68209555D01*
X159037306Y-68207911D01*
X159024605Y-68206111D01*
X159016092Y-68204145D01*
X159011734Y-68202477D01*
X159003272Y-68198906D01*
X158995503Y-68196270D01*
X158988398Y-68193634D01*
X158981927Y-68190062D01*
X158976061Y-68184621D01*
X158970771Y-68176375D01*
X158966026Y-68164390D01*
X158961798Y-68147731D01*
X158958057Y-68125463D01*
X158954773Y-68096652D01*
X158951917Y-68060363D01*
X158949460Y-68015661D01*
X158947371Y-67961611D01*
X158945622Y-67897279D01*
X158944183Y-67821730D01*
X158943024Y-67734030D01*
X158942117Y-67633243D01*
X158941431Y-67518434D01*
X158940937Y-67388670D01*
X158940605Y-67243015D01*
X158940407Y-67080535D01*
X158940313Y-66900295D01*
X158940292Y-66701360D01*
X158940315Y-66482796D01*
X158940354Y-66243668D01*
X158940378Y-65983040D01*
X158940378Y-65940889D01*
X158940364Y-65677992D01*
X158940339Y-65436732D01*
X158940329Y-65216165D01*
X158940358Y-65015352D01*
X158940452Y-64833349D01*
X158940638Y-64669216D01*
X158940941Y-64522011D01*
X158941386Y-64390792D01*
X158941966Y-64280867D01*
X159244803Y-64280867D01*
X159284593Y-64338711D01*
X159295764Y-64354479D01*
X159305834Y-64368441D01*
X159314862Y-64381784D01*
X159322903Y-64395693D01*
X159330014Y-64411356D01*
X159336253Y-64429958D01*
X159341675Y-64452686D01*
X159346338Y-64480727D01*
X159350299Y-64515267D01*
X159353615Y-64557492D01*
X159356341Y-64608589D01*
X159358536Y-64669744D01*
X159360255Y-64742144D01*
X159361556Y-64826975D01*
X159362495Y-64925422D01*
X159363130Y-65038674D01*
X159363516Y-65167916D01*
X159363712Y-65314334D01*
X159363773Y-65479116D01*
X159363757Y-65663447D01*
X159363720Y-65868513D01*
X159363711Y-65991133D01*
X159363735Y-66208082D01*
X159363769Y-66403642D01*
X159363757Y-66578999D01*
X159363642Y-66735341D01*
X159363370Y-66873857D01*
X159362882Y-66995734D01*
X159362124Y-67102160D01*
X159361038Y-67194322D01*
X159359569Y-67273409D01*
X159357660Y-67340608D01*
X159355256Y-67397107D01*
X159352299Y-67444093D01*
X159348734Y-67482755D01*
X159344505Y-67514280D01*
X159339554Y-67539855D01*
X159333827Y-67560670D01*
X159327267Y-67577911D01*
X159319817Y-67592765D01*
X159311421Y-67606422D01*
X159302024Y-67620069D01*
X159291568Y-67634893D01*
X159285477Y-67643783D01*
X159246704Y-67701400D01*
X159778268Y-67701400D01*
X159901517Y-67701365D01*
X160004013Y-67701215D01*
X160087580Y-67700878D01*
X160154044Y-67700286D01*
X160205229Y-67699367D01*
X160242959Y-67698051D01*
X160269060Y-67696269D01*
X160285356Y-67693951D01*
X160293672Y-67691026D01*
X160295832Y-67687424D01*
X160293661Y-67683075D01*
X160292465Y-67681645D01*
X160267315Y-67644573D01*
X160241417Y-67591772D01*
X160217808Y-67529770D01*
X160209539Y-67503357D01*
X160204922Y-67485416D01*
X160201021Y-67464355D01*
X160197752Y-67438089D01*
X160195034Y-67404532D01*
X160192785Y-67361599D01*
X160190923Y-67307204D01*
X160189364Y-67239262D01*
X160188028Y-67155688D01*
X160186831Y-67054395D01*
X160185692Y-66933300D01*
X160185315Y-66888600D01*
X160184298Y-66763449D01*
X160183540Y-66659082D01*
X160183097Y-66573707D01*
X160183030Y-66505533D01*
X160183395Y-66452765D01*
X160184252Y-66413614D01*
X160185659Y-66386285D01*
X160187675Y-66368986D01*
X160190357Y-66359926D01*
X160193764Y-66357312D01*
X160197956Y-66359351D01*
X160202429Y-66363667D01*
X160212784Y-66376602D01*
X160234842Y-66405676D01*
X160267043Y-66448759D01*
X160307826Y-66503718D01*
X160355630Y-66568423D01*
X160408895Y-66640742D01*
X160466060Y-66718544D01*
X160525563Y-66799698D01*
X160585845Y-66882072D01*
X160645345Y-66963536D01*
X160702502Y-67041957D01*
X160755755Y-67115204D01*
X160803543Y-67181147D01*
X160844307Y-67237654D01*
X160876484Y-67282593D01*
X160898515Y-67313834D01*
X160903083Y-67320466D01*
X160926004Y-67357369D01*
X160952812Y-67405359D01*
X160978211Y-67454897D01*
X160981432Y-67461577D01*
X161003110Y-67509772D01*
X161015696Y-67547334D01*
X161021426Y-67583160D01*
X161022544Y-67625200D01*
X161021910Y-67701400D01*
X162176349Y-67701400D01*
X162085185Y-67607669D01*
X162038388Y-67557775D01*
X161988101Y-67501295D01*
X161942056Y-67447026D01*
X161921631Y-67421673D01*
X161891193Y-67382128D01*
X161851138Y-67328916D01*
X161802639Y-67263667D01*
X161746865Y-67188011D01*
X161684989Y-67103577D01*
X161618181Y-67011994D01*
X161547613Y-66914892D01*
X161474455Y-66813901D01*
X161399879Y-66710650D01*
X161325056Y-66606768D01*
X161251157Y-66503885D01*
X161179354Y-66403631D01*
X161110816Y-66307636D01*
X161046716Y-66217527D01*
X160988225Y-66134936D01*
X160936514Y-66061492D01*
X160892753Y-65998824D01*
X160858115Y-65948561D01*
X160833770Y-65912334D01*
X160820889Y-65891771D01*
X160819131Y-65887668D01*
X160827090Y-65876342D01*
X160847885Y-65849162D01*
X160880153Y-65807829D01*
X160922530Y-65754044D01*
X160973653Y-65689506D01*
X161032159Y-65615918D01*
X161096686Y-65534978D01*
X161165869Y-65448388D01*
X161238347Y-65357848D01*
X161312754Y-65265060D01*
X161372483Y-65190702D01*
X162383489Y-65190702D01*
X162389398Y-65203659D01*
X162403728Y-65225908D01*
X162404775Y-65227391D01*
X162423562Y-65257544D01*
X162443209Y-65294375D01*
X162447108Y-65302511D01*
X162450644Y-65310940D01*
X162453770Y-65321059D01*
X162456514Y-65334260D01*
X162458908Y-65351938D01*
X162460981Y-65375484D01*
X162462765Y-65406293D01*
X162464288Y-65445757D01*
X162465581Y-65495269D01*
X162466674Y-65556223D01*
X162467597Y-65630011D01*
X162468381Y-65718028D01*
X162469055Y-65821665D01*
X162469650Y-65942316D01*
X162470195Y-66081374D01*
X162470721Y-66240232D01*
X162471255Y-66419089D01*
X162471794Y-66604207D01*
X162472228Y-66768145D01*
X162472491Y-66912303D01*
X162472516Y-67038079D01*
X162472235Y-67146871D01*
X162471581Y-67240077D01*
X162470486Y-67319097D01*
X162468882Y-67385328D01*
X162466703Y-67440170D01*
X162463881Y-67485021D01*
X162460349Y-67521278D01*
X162456039Y-67550341D01*
X162450883Y-67573609D01*
X162444815Y-67592479D01*
X162437767Y-67608351D01*
X162429671Y-67622622D01*
X162420460Y-67636691D01*
X162411960Y-67649158D01*
X162394824Y-67675452D01*
X162384678Y-67693037D01*
X162383489Y-67696257D01*
X162394396Y-67697334D01*
X162425589Y-67698335D01*
X162474777Y-67699235D01*
X162539667Y-67700010D01*
X162617970Y-67700637D01*
X162707393Y-67701091D01*
X162805644Y-67701349D01*
X162874555Y-67701400D01*
X162979548Y-67701180D01*
X163076390Y-67700548D01*
X163162893Y-67699549D01*
X163236868Y-67698227D01*
X163296126Y-67696626D01*
X163338480Y-67694791D01*
X163361740Y-67692765D01*
X163365622Y-67691493D01*
X163357924Y-67676591D01*
X163349926Y-67668560D01*
X163336754Y-67651434D01*
X163319515Y-67621183D01*
X163307593Y-67596622D01*
X163280955Y-67537711D01*
X163277880Y-66360845D01*
X163274805Y-65183978D01*
X162829147Y-65183978D01*
X162731330Y-65184142D01*
X162640936Y-65184611D01*
X162560370Y-65185347D01*
X162492038Y-65186316D01*
X162438344Y-65187480D01*
X162401695Y-65188803D01*
X162384496Y-65190249D01*
X162383489Y-65190702D01*
X161372483Y-65190702D01*
X161387730Y-65171722D01*
X161461910Y-65079537D01*
X161533931Y-64990204D01*
X161602431Y-64905424D01*
X161666045Y-64826898D01*
X161723412Y-64756326D01*
X161773167Y-64695409D01*
X161813948Y-64645847D01*
X161831112Y-64625178D01*
X161917404Y-64524516D01*
X161994003Y-64441259D01*
X162062817Y-64373438D01*
X162125752Y-64319089D01*
X162135133Y-64311722D01*
X162174644Y-64281117D01*
X161042884Y-64280867D01*
X161048173Y-64328844D01*
X161044870Y-64386188D01*
X161023339Y-64454463D01*
X160983365Y-64534212D01*
X160938057Y-64606495D01*
X160921839Y-64629140D01*
X160893786Y-64666696D01*
X160855570Y-64717021D01*
X160808863Y-64777973D01*
X160755339Y-64847411D01*
X160696669Y-64923194D01*
X160634525Y-65003180D01*
X160570579Y-65085228D01*
X160506505Y-65167196D01*
X160443973Y-65246943D01*
X160384657Y-65322327D01*
X160330229Y-65391207D01*
X160282361Y-65451442D01*
X160242725Y-65500889D01*
X160212994Y-65537408D01*
X160194839Y-65558858D01*
X160191780Y-65562156D01*
X160188921Y-65554149D01*
X160186707Y-65523855D01*
X160185143Y-65471556D01*
X160184233Y-65397531D01*
X160183980Y-65302063D01*
X160184387Y-65185434D01*
X160185296Y-65065445D01*
X160186618Y-64933333D01*
X160188143Y-64821594D01*
X160190119Y-64728025D01*
X160192794Y-64650419D01*
X160196418Y-64586574D01*
X160201239Y-64534283D01*
X160207506Y-64491344D01*
X160215468Y-64455551D01*
X160225373Y-64424700D01*
X160237469Y-64396586D01*
X160252007Y-64369005D01*
X160266689Y-64343966D01*
X160304686Y-64280867D01*
X159244803Y-64280867D01*
X158941966Y-64280867D01*
X158941999Y-64274617D01*
X158942805Y-64172544D01*
X158943830Y-64083633D01*
X158945100Y-64006941D01*
X158946640Y-63941527D01*
X158948476Y-63886449D01*
X158950633Y-63840765D01*
X158953137Y-63803534D01*
X158956013Y-63773813D01*
X158959287Y-63750662D01*
X158962985Y-63733139D01*
X158967131Y-63720301D01*
X158971753Y-63711208D01*
X158976874Y-63704918D01*
X158982522Y-63700488D01*
X158988721Y-63696978D01*
X158995496Y-63693445D01*
X159001492Y-63689876D01*
X159006725Y-63687300D01*
X159014901Y-63684972D01*
X159027114Y-63682878D01*
X159044459Y-63681007D01*
X159068031Y-63679347D01*
X159098923Y-63677884D01*
X159138232Y-63676608D01*
X159187050Y-63675504D01*
X159246473Y-63674561D01*
X159317596Y-63673767D01*
X159401512Y-63673109D01*
X159499317Y-63672575D01*
X159612106Y-63672153D01*
X159740971Y-63671829D01*
X159887009Y-63671592D01*
X160051314Y-63671430D01*
X160234980Y-63671330D01*
X160439103Y-63671280D01*
X160650247Y-63671267D01*
X162270600Y-63671267D01*
X162270600Y-63768054D01*
G36*
X165545429Y-64228071D02*
G01*
X165705570Y-64249245D01*
X165869510Y-64289385D01*
X166039313Y-64348889D01*
X166217043Y-64428154D01*
X166228310Y-64433699D01*
X166286005Y-64461725D01*
X166337552Y-64485802D01*
X166379191Y-64504249D01*
X166407162Y-64515386D01*
X166416733Y-64517933D01*
X166435950Y-64522941D01*
X166440561Y-64527147D01*
X166435458Y-64537580D01*
X166419418Y-64563868D01*
X166394288Y-64603257D01*
X166361914Y-64652991D01*
X166324143Y-64710315D01*
X166282822Y-64772476D01*
X166239798Y-64836718D01*
X166196917Y-64900285D01*
X166156026Y-64960425D01*
X166118971Y-65014380D01*
X166087600Y-65059397D01*
X166063759Y-65092721D01*
X166049294Y-65111597D01*
X166047309Y-65113787D01*
X166037191Y-65109138D01*
X166014850Y-65091962D01*
X165984280Y-65065440D01*
X165968536Y-65050964D01*
X165872047Y-64975682D01*
X165765336Y-64920241D01*
X165649832Y-64885141D01*
X165526962Y-64870880D01*
X165457561Y-64872051D01*
X165336423Y-64889212D01*
X165227205Y-64925094D01*
X165129582Y-64979959D01*
X165043228Y-65054070D01*
X164967815Y-65147688D01*
X164903018Y-65261076D01*
X164865601Y-65347667D01*
X164821748Y-65483366D01*
X164789428Y-65630850D01*
X164768557Y-65786314D01*
X164759051Y-65945956D01*
X164760827Y-66105973D01*
X164773803Y-66262561D01*
X164797894Y-66411918D01*
X164833018Y-66550240D01*
X164879092Y-66673724D01*
X164895373Y-66707978D01*
X164963620Y-66822064D01*
X165044079Y-66918557D01*
X165135570Y-66996670D01*
X165236911Y-67055617D01*
X165346920Y-67094612D01*
X165464415Y-67112868D01*
X165505883Y-67114211D01*
X165627441Y-67103290D01*
X165747878Y-67070474D01*
X165865666Y-67016439D01*
X165979277Y-66941865D01*
X166070685Y-66863539D01*
X166117215Y-66819008D01*
X166298483Y-67116271D01*
X166343580Y-67190433D01*
X166384819Y-67258646D01*
X166420735Y-67318459D01*
X166449866Y-67367420D01*
X166470750Y-67403079D01*
X166481924Y-67422984D01*
X166483375Y-67426079D01*
X166475146Y-67435718D01*
X166449567Y-67452999D01*
X166409873Y-67476283D01*
X166359297Y-67503934D01*
X166301074Y-67534315D01*
X166238437Y-67565790D01*
X166174621Y-67596722D01*
X166112860Y-67625473D01*
X166056388Y-67650408D01*
X166008438Y-67669889D01*
X165984986Y-67678318D01*
X165851221Y-67716133D01*
X165713327Y-67741136D01*
X165565622Y-67754140D01*
X165438833Y-67756468D01*
X165370878Y-67755373D01*
X165305277Y-67753275D01*
X165247847Y-67750434D01*
X165204403Y-67747106D01*
X165190298Y-67745422D01*
X165051284Y-67716587D01*
X164909757Y-67671468D01*
X164772275Y-67612750D01*
X164645394Y-67543120D01*
X164567889Y-67490441D01*
X164440481Y-67382239D01*
X164322178Y-67255671D01*
X164215172Y-67113866D01*
X164121652Y-66959951D01*
X164043810Y-66797053D01*
X163999956Y-66679756D01*
X163949708Y-66496128D01*
X163916209Y-66301581D01*
X163899449Y-66100325D01*
X163899416Y-65896568D01*
X163916101Y-65694521D01*
X163949493Y-65498392D01*
X163999580Y-65312391D01*
X164003397Y-65300803D01*
X164066281Y-65138750D01*
X164143028Y-64990832D01*
X164236242Y-64852865D01*
X164348527Y-64720661D01*
X164392392Y-64675399D01*
X164528534Y-64551457D01*
X164668491Y-64448915D01*
X164814411Y-64366656D01*
X164968442Y-64303564D01*
X165132732Y-64258523D01*
X165228289Y-64241033D01*
X165387023Y-64225466D01*
X165545429Y-64228071D01*
G37*
X165545429Y-64228071D02*
X165705570Y-64249245D01*
X165869510Y-64289385D01*
X166039313Y-64348889D01*
X166217043Y-64428154D01*
X166228310Y-64433699D01*
X166286005Y-64461725D01*
X166337552Y-64485802D01*
X166379191Y-64504249D01*
X166407162Y-64515386D01*
X166416733Y-64517933D01*
X166435950Y-64522941D01*
X166440561Y-64527147D01*
X166435458Y-64537580D01*
X166419418Y-64563868D01*
X166394288Y-64603257D01*
X166361914Y-64652991D01*
X166324143Y-64710315D01*
X166282822Y-64772476D01*
X166239798Y-64836718D01*
X166196917Y-64900285D01*
X166156026Y-64960425D01*
X166118971Y-65014380D01*
X166087600Y-65059397D01*
X166063759Y-65092721D01*
X166049294Y-65111597D01*
X166047309Y-65113787D01*
X166037191Y-65109138D01*
X166014850Y-65091962D01*
X165984280Y-65065440D01*
X165968536Y-65050964D01*
X165872047Y-64975682D01*
X165765336Y-64920241D01*
X165649832Y-64885141D01*
X165526962Y-64870880D01*
X165457561Y-64872051D01*
X165336423Y-64889212D01*
X165227205Y-64925094D01*
X165129582Y-64979959D01*
X165043228Y-65054070D01*
X164967815Y-65147688D01*
X164903018Y-65261076D01*
X164865601Y-65347667D01*
X164821748Y-65483366D01*
X164789428Y-65630850D01*
X164768557Y-65786314D01*
X164759051Y-65945956D01*
X164760827Y-66105973D01*
X164773803Y-66262561D01*
X164797894Y-66411918D01*
X164833018Y-66550240D01*
X164879092Y-66673724D01*
X164895373Y-66707978D01*
X164963620Y-66822064D01*
X165044079Y-66918557D01*
X165135570Y-66996670D01*
X165236911Y-67055617D01*
X165346920Y-67094612D01*
X165464415Y-67112868D01*
X165505883Y-67114211D01*
X165627441Y-67103290D01*
X165747878Y-67070474D01*
X165865666Y-67016439D01*
X165979277Y-66941865D01*
X166070685Y-66863539D01*
X166117215Y-66819008D01*
X166298483Y-67116271D01*
X166343580Y-67190433D01*
X166384819Y-67258646D01*
X166420735Y-67318459D01*
X166449866Y-67367420D01*
X166470750Y-67403079D01*
X166481924Y-67422984D01*
X166483375Y-67426079D01*
X166475146Y-67435718D01*
X166449567Y-67452999D01*
X166409873Y-67476283D01*
X166359297Y-67503934D01*
X166301074Y-67534315D01*
X166238437Y-67565790D01*
X166174621Y-67596722D01*
X166112860Y-67625473D01*
X166056388Y-67650408D01*
X166008438Y-67669889D01*
X165984986Y-67678318D01*
X165851221Y-67716133D01*
X165713327Y-67741136D01*
X165565622Y-67754140D01*
X165438833Y-67756468D01*
X165370878Y-67755373D01*
X165305277Y-67753275D01*
X165247847Y-67750434D01*
X165204403Y-67747106D01*
X165190298Y-67745422D01*
X165051284Y-67716587D01*
X164909757Y-67671468D01*
X164772275Y-67612750D01*
X164645394Y-67543120D01*
X164567889Y-67490441D01*
X164440481Y-67382239D01*
X164322178Y-67255671D01*
X164215172Y-67113866D01*
X164121652Y-66959951D01*
X164043810Y-66797053D01*
X163999956Y-66679756D01*
X163949708Y-66496128D01*
X163916209Y-66301581D01*
X163899449Y-66100325D01*
X163899416Y-65896568D01*
X163916101Y-65694521D01*
X163949493Y-65498392D01*
X163999580Y-65312391D01*
X164003397Y-65300803D01*
X164066281Y-65138750D01*
X164143028Y-64990832D01*
X164236242Y-64852865D01*
X164348527Y-64720661D01*
X164392392Y-64675399D01*
X164528534Y-64551457D01*
X164668491Y-64448915D01*
X164814411Y-64366656D01*
X164968442Y-64303564D01*
X165132732Y-64258523D01*
X165228289Y-64241033D01*
X165387023Y-64225466D01*
X165545429Y-64228071D01*
G36*
X167890574Y-65145552D02*
G01*
X168042492Y-65165567D01*
X168177756Y-65199202D01*
X168297239Y-65246725D01*
X168401815Y-65308405D01*
X168479424Y-65371965D01*
X168548265Y-65446099D01*
X168602006Y-65525871D01*
X168644910Y-65618091D01*
X168660384Y-65661161D01*
X168673244Y-65700142D01*
X168684446Y-65736289D01*
X168694120Y-65771434D01*
X168702396Y-65807410D01*
X168709403Y-65846050D01*
X168715272Y-65889185D01*
X168720131Y-65938649D01*
X168724110Y-65996273D01*
X168727340Y-66063891D01*
X168729949Y-66143334D01*
X168732067Y-66236436D01*
X168733824Y-66345027D01*
X168735349Y-66470942D01*
X168736772Y-66616012D01*
X168738025Y-66758778D01*
X168739351Y-66914968D01*
X168740556Y-67050239D01*
X168741766Y-67166246D01*
X168743106Y-67264645D01*
X168744700Y-67347093D01*
X168746675Y-67415246D01*
X168749156Y-67470760D01*
X168752269Y-67515292D01*
X168756138Y-67550498D01*
X168760889Y-67578034D01*
X168766648Y-67599556D01*
X168773539Y-67616722D01*
X168781689Y-67631186D01*
X168791223Y-67644606D01*
X168802266Y-67658638D01*
X168806566Y-67664071D01*
X168822386Y-67686910D01*
X168829422Y-67702463D01*
X168829444Y-67702922D01*
X168818567Y-67705121D01*
X168787582Y-67707147D01*
X168738957Y-67708942D01*
X168675163Y-67710451D01*
X168598669Y-67711616D01*
X168511944Y-67712380D01*
X168417457Y-67712686D01*
X168406550Y-67712689D01*
X167983657Y-67712689D01*
X167980395Y-67616622D01*
X167977133Y-67520556D01*
X167915044Y-67571543D01*
X167817714Y-67639057D01*
X167707813Y-67693749D01*
X167621349Y-67723978D01*
X167552278Y-67738666D01*
X167468925Y-67748659D01*
X167379159Y-67753646D01*
X167290845Y-67753313D01*
X167211851Y-67747351D01*
X167175622Y-67741638D01*
X167035603Y-67703776D01*
X166909178Y-67648932D01*
X166797260Y-67577924D01*
X166700762Y-67491568D01*
X166620600Y-67390679D01*
X166557687Y-67276076D01*
X166513312Y-67149984D01*
X166500978Y-67093401D01*
X166493368Y-67031202D01*
X166489739Y-66956363D01*
X166489245Y-66922467D01*
X166489310Y-66919282D01*
X167249248Y-66919282D01*
X167258541Y-66994333D01*
X167286728Y-67058160D01*
X167335197Y-67113798D01*
X167340254Y-67118211D01*
X167388548Y-67153037D01*
X167440257Y-67175620D01*
X167500989Y-67187540D01*
X167576352Y-67190383D01*
X167594459Y-67189978D01*
X167648278Y-67187325D01*
X167688308Y-67181909D01*
X167723324Y-67171745D01*
X167762103Y-67154850D01*
X167772745Y-67149672D01*
X167833396Y-67113844D01*
X167880215Y-67071212D01*
X167892952Y-67055973D01*
X167937622Y-66999462D01*
X167937622Y-66803586D01*
X167937086Y-66724939D01*
X167935396Y-66666988D01*
X167932428Y-66627875D01*
X167928057Y-66605741D01*
X167923972Y-66599274D01*
X167908047Y-66596111D01*
X167874264Y-66593488D01*
X167827340Y-66591655D01*
X167771993Y-66590857D01*
X167763106Y-66590842D01*
X167642330Y-66596096D01*
X167539660Y-66612263D01*
X167453106Y-66639961D01*
X167380681Y-66679808D01*
X167325751Y-66726758D01*
X167281204Y-66784645D01*
X167256480Y-66847693D01*
X167249248Y-66919282D01*
X166489310Y-66919282D01*
X166491178Y-66828712D01*
X166499522Y-66749812D01*
X166515768Y-66678590D01*
X166541405Y-66607864D01*
X166565401Y-66555493D01*
X166624020Y-66460196D01*
X166702117Y-66372170D01*
X166797315Y-66293017D01*
X166907238Y-66224340D01*
X167029510Y-66167741D01*
X167161755Y-66124821D01*
X167226422Y-66109882D01*
X167362604Y-66087777D01*
X167511049Y-66073194D01*
X167662505Y-66066813D01*
X167789064Y-66068445D01*
X167950950Y-66075224D01*
X167943530Y-66016245D01*
X167924238Y-65917092D01*
X167893104Y-65836372D01*
X167849269Y-65773466D01*
X167791871Y-65727756D01*
X167720048Y-65698622D01*
X167632941Y-65685447D01*
X167529686Y-65687611D01*
X167491711Y-65691612D01*
X167350520Y-65716780D01*
X167213707Y-65757814D01*
X167119178Y-65795815D01*
X167074018Y-65815190D01*
X167035585Y-65830760D01*
X167009234Y-65840405D01*
X167001546Y-65842452D01*
X166991802Y-65833374D01*
X166975083Y-65804405D01*
X166951232Y-65755217D01*
X166920093Y-65685484D01*
X166881507Y-65594879D01*
X166874910Y-65579089D01*
X166844853Y-65506772D01*
X166817874Y-65441425D01*
X166795136Y-65385906D01*
X166777806Y-65343072D01*
X166767048Y-65315781D01*
X166763941Y-65306942D01*
X166773940Y-65302187D01*
X166800217Y-65296910D01*
X166828489Y-65293231D01*
X166858646Y-65288474D01*
X166906433Y-65279028D01*
X166967612Y-65265820D01*
X167037946Y-65249776D01*
X167113194Y-65231820D01*
X167141755Y-65224797D01*
X167246816Y-65199209D01*
X167334480Y-65179147D01*
X167409068Y-65163969D01*
X167474903Y-65153035D01*
X167536307Y-65145704D01*
X167597602Y-65141335D01*
X167663110Y-65139287D01*
X167721128Y-65138889D01*
X167890574Y-65145552D01*
G37*
X167890574Y-65145552D02*
X168042492Y-65165567D01*
X168177756Y-65199202D01*
X168297239Y-65246725D01*
X168401815Y-65308405D01*
X168479424Y-65371965D01*
X168548265Y-65446099D01*
X168602006Y-65525871D01*
X168644910Y-65618091D01*
X168660384Y-65661161D01*
X168673244Y-65700142D01*
X168684446Y-65736289D01*
X168694120Y-65771434D01*
X168702396Y-65807410D01*
X168709403Y-65846050D01*
X168715272Y-65889185D01*
X168720131Y-65938649D01*
X168724110Y-65996273D01*
X168727340Y-66063891D01*
X168729949Y-66143334D01*
X168732067Y-66236436D01*
X168733824Y-66345027D01*
X168735349Y-66470942D01*
X168736772Y-66616012D01*
X168738025Y-66758778D01*
X168739351Y-66914968D01*
X168740556Y-67050239D01*
X168741766Y-67166246D01*
X168743106Y-67264645D01*
X168744700Y-67347093D01*
X168746675Y-67415246D01*
X168749156Y-67470760D01*
X168752269Y-67515292D01*
X168756138Y-67550498D01*
X168760889Y-67578034D01*
X168766648Y-67599556D01*
X168773539Y-67616722D01*
X168781689Y-67631186D01*
X168791223Y-67644606D01*
X168802266Y-67658638D01*
X168806566Y-67664071D01*
X168822386Y-67686910D01*
X168829422Y-67702463D01*
X168829444Y-67702922D01*
X168818567Y-67705121D01*
X168787582Y-67707147D01*
X168738957Y-67708942D01*
X168675163Y-67710451D01*
X168598669Y-67711616D01*
X168511944Y-67712380D01*
X168417457Y-67712686D01*
X168406550Y-67712689D01*
X167983657Y-67712689D01*
X167980395Y-67616622D01*
X167977133Y-67520556D01*
X167915044Y-67571543D01*
X167817714Y-67639057D01*
X167707813Y-67693749D01*
X167621349Y-67723978D01*
X167552278Y-67738666D01*
X167468925Y-67748659D01*
X167379159Y-67753646D01*
X167290845Y-67753313D01*
X167211851Y-67747351D01*
X167175622Y-67741638D01*
X167035603Y-67703776D01*
X166909178Y-67648932D01*
X166797260Y-67577924D01*
X166700762Y-67491568D01*
X166620600Y-67390679D01*
X166557687Y-67276076D01*
X166513312Y-67149984D01*
X166500978Y-67093401D01*
X166493368Y-67031202D01*
X166489739Y-66956363D01*
X166489245Y-66922467D01*
X166489310Y-66919282D01*
X167249248Y-66919282D01*
X167258541Y-66994333D01*
X167286728Y-67058160D01*
X167335197Y-67113798D01*
X167340254Y-67118211D01*
X167388548Y-67153037D01*
X167440257Y-67175620D01*
X167500989Y-67187540D01*
X167576352Y-67190383D01*
X167594459Y-67189978D01*
X167648278Y-67187325D01*
X167688308Y-67181909D01*
X167723324Y-67171745D01*
X167762103Y-67154850D01*
X167772745Y-67149672D01*
X167833396Y-67113844D01*
X167880215Y-67071212D01*
X167892952Y-67055973D01*
X167937622Y-66999462D01*
X167937622Y-66803586D01*
X167937086Y-66724939D01*
X167935396Y-66666988D01*
X167932428Y-66627875D01*
X167928057Y-66605741D01*
X167923972Y-66599274D01*
X167908047Y-66596111D01*
X167874264Y-66593488D01*
X167827340Y-66591655D01*
X167771993Y-66590857D01*
X167763106Y-66590842D01*
X167642330Y-66596096D01*
X167539660Y-66612263D01*
X167453106Y-66639961D01*
X167380681Y-66679808D01*
X167325751Y-66726758D01*
X167281204Y-66784645D01*
X167256480Y-66847693D01*
X167249248Y-66919282D01*
X166489310Y-66919282D01*
X166491178Y-66828712D01*
X166499522Y-66749812D01*
X166515768Y-66678590D01*
X166541405Y-66607864D01*
X166565401Y-66555493D01*
X166624020Y-66460196D01*
X166702117Y-66372170D01*
X166797315Y-66293017D01*
X166907238Y-66224340D01*
X167029510Y-66167741D01*
X167161755Y-66124821D01*
X167226422Y-66109882D01*
X167362604Y-66087777D01*
X167511049Y-66073194D01*
X167662505Y-66066813D01*
X167789064Y-66068445D01*
X167950950Y-66075224D01*
X167943530Y-66016245D01*
X167924238Y-65917092D01*
X167893104Y-65836372D01*
X167849269Y-65773466D01*
X167791871Y-65727756D01*
X167720048Y-65698622D01*
X167632941Y-65685447D01*
X167529686Y-65687611D01*
X167491711Y-65691612D01*
X167350520Y-65716780D01*
X167213707Y-65757814D01*
X167119178Y-65795815D01*
X167074018Y-65815190D01*
X167035585Y-65830760D01*
X167009234Y-65840405D01*
X167001546Y-65842452D01*
X166991802Y-65833374D01*
X166975083Y-65804405D01*
X166951232Y-65755217D01*
X166920093Y-65685484D01*
X166881507Y-65594879D01*
X166874910Y-65579089D01*
X166844853Y-65506772D01*
X166817874Y-65441425D01*
X166795136Y-65385906D01*
X166777806Y-65343072D01*
X166767048Y-65315781D01*
X166763941Y-65306942D01*
X166773940Y-65302187D01*
X166800217Y-65296910D01*
X166828489Y-65293231D01*
X166858646Y-65288474D01*
X166906433Y-65279028D01*
X166967612Y-65265820D01*
X167037946Y-65249776D01*
X167113194Y-65231820D01*
X167141755Y-65224797D01*
X167246816Y-65199209D01*
X167334480Y-65179147D01*
X167409068Y-65163969D01*
X167474903Y-65153035D01*
X167536307Y-65145704D01*
X167597602Y-65141335D01*
X167663110Y-65139287D01*
X167721128Y-65138889D01*
X167890574Y-65145552D01*
G36*
X171403507Y-65751245D02*
G01*
X171403526Y-65985662D01*
X171403552Y-66198603D01*
X171403625Y-66391168D01*
X171403782Y-66564459D01*
X171404064Y-66719576D01*
X171404509Y-66857620D01*
X171405156Y-66979692D01*
X171406045Y-67086894D01*
X171407213Y-67180326D01*
X171408701Y-67261090D01*
X171410546Y-67330286D01*
X171412789Y-67389015D01*
X171415469Y-67438379D01*
X171418623Y-67479478D01*
X171422292Y-67513413D01*
X171426513Y-67541286D01*
X171431327Y-67564198D01*
X171436773Y-67583249D01*
X171442888Y-67599540D01*
X171449712Y-67614173D01*
X171457285Y-67628249D01*
X171465645Y-67642868D01*
X171470839Y-67651974D01*
X171505104Y-67712689D01*
X170646955Y-67712689D01*
X170646955Y-67616733D01*
X170646224Y-67573370D01*
X170644272Y-67540205D01*
X170641463Y-67522424D01*
X170640221Y-67520778D01*
X170628799Y-67527662D01*
X170606084Y-67545505D01*
X170583385Y-67564879D01*
X170528800Y-67605614D01*
X170459321Y-67646617D01*
X170382270Y-67684123D01*
X170304965Y-67714364D01*
X170274113Y-67724012D01*
X170205616Y-67738578D01*
X170122764Y-67748539D01*
X170033371Y-67753583D01*
X169945248Y-67753396D01*
X169866207Y-67747666D01*
X169828511Y-67741858D01*
X169690414Y-67703797D01*
X169563113Y-67646073D01*
X169447292Y-67569211D01*
X169343637Y-67473739D01*
X169252833Y-67360179D01*
X169186031Y-67249381D01*
X169131164Y-67132625D01*
X169089163Y-67013276D01*
X169059167Y-66887283D01*
X169040311Y-66750594D01*
X169031732Y-66599158D01*
X169031006Y-66521711D01*
X169033100Y-66464934D01*
X169862217Y-66464934D01*
X169862424Y-66558002D01*
X169865337Y-66645692D01*
X169871000Y-66722772D01*
X169879455Y-66784009D01*
X169882038Y-66796350D01*
X169913840Y-66903633D01*
X169955498Y-66990658D01*
X170007363Y-67057642D01*
X170069781Y-67104805D01*
X170143100Y-67132365D01*
X170227669Y-67140541D01*
X170323835Y-67129551D01*
X170387311Y-67113829D01*
X170436454Y-67095639D01*
X170490583Y-67069791D01*
X170531244Y-67046089D01*
X170601800Y-66999721D01*
X170601800Y-65849530D01*
X170534392Y-65805962D01*
X170455867Y-65765040D01*
X170371681Y-65738389D01*
X170286557Y-65726465D01*
X170205216Y-65729722D01*
X170132380Y-65748615D01*
X170100426Y-65764184D01*
X170042501Y-65807181D01*
X169993544Y-65863953D01*
X169952390Y-65936575D01*
X169917874Y-66027121D01*
X169888833Y-66137666D01*
X169887552Y-66143533D01*
X169877381Y-66205788D01*
X169869739Y-66283594D01*
X169864670Y-66371720D01*
X169862217Y-66464934D01*
X169033100Y-66464934D01*
X169038857Y-66308895D01*
X169060802Y-66113059D01*
X169096786Y-65934332D01*
X169146759Y-65772845D01*
X169210668Y-65628726D01*
X169288462Y-65502106D01*
X169380089Y-65393115D01*
X169485497Y-65301883D01*
X169530662Y-65270932D01*
X169631611Y-65214785D01*
X169734901Y-65175174D01*
X169844989Y-65151014D01*
X169966330Y-65141219D01*
X170058836Y-65142265D01*
X170188490Y-65153231D01*
X170301084Y-65175046D01*
X170399875Y-65208714D01*
X170488121Y-65255236D01*
X170536986Y-65289448D01*
X170566353Y-65311362D01*
X170588043Y-65326333D01*
X170596253Y-65330733D01*
X170597868Y-65319904D01*
X170599159Y-65289251D01*
X170600138Y-65241526D01*
X170600817Y-65179479D01*
X170601210Y-65105862D01*
X170601330Y-65023427D01*
X170601188Y-64934925D01*
X170600797Y-64843107D01*
X170600171Y-64750724D01*
X170599320Y-64660528D01*
X170598260Y-64575271D01*
X170597001Y-64497703D01*
X170595556Y-64430576D01*
X170593938Y-64376641D01*
X170592161Y-64338650D01*
X170591669Y-64331667D01*
X170584092Y-64261251D01*
X170572531Y-64206102D01*
X170554792Y-64158981D01*
X170528682Y-64112647D01*
X170522415Y-64103067D01*
X170497983Y-64066378D01*
X171403311Y-64066378D01*
X171403507Y-65751245D01*
G37*
X171403507Y-65751245D02*
X171403526Y-65985662D01*
X171403552Y-66198603D01*
X171403625Y-66391168D01*
X171403782Y-66564459D01*
X171404064Y-66719576D01*
X171404509Y-66857620D01*
X171405156Y-66979692D01*
X171406045Y-67086894D01*
X171407213Y-67180326D01*
X171408701Y-67261090D01*
X171410546Y-67330286D01*
X171412789Y-67389015D01*
X171415469Y-67438379D01*
X171418623Y-67479478D01*
X171422292Y-67513413D01*
X171426513Y-67541286D01*
X171431327Y-67564198D01*
X171436773Y-67583249D01*
X171442888Y-67599540D01*
X171449712Y-67614173D01*
X171457285Y-67628249D01*
X171465645Y-67642868D01*
X171470839Y-67651974D01*
X171505104Y-67712689D01*
X170646955Y-67712689D01*
X170646955Y-67616733D01*
X170646224Y-67573370D01*
X170644272Y-67540205D01*
X170641463Y-67522424D01*
X170640221Y-67520778D01*
X170628799Y-67527662D01*
X170606084Y-67545505D01*
X170583385Y-67564879D01*
X170528800Y-67605614D01*
X170459321Y-67646617D01*
X170382270Y-67684123D01*
X170304965Y-67714364D01*
X170274113Y-67724012D01*
X170205616Y-67738578D01*
X170122764Y-67748539D01*
X170033371Y-67753583D01*
X169945248Y-67753396D01*
X169866207Y-67747666D01*
X169828511Y-67741858D01*
X169690414Y-67703797D01*
X169563113Y-67646073D01*
X169447292Y-67569211D01*
X169343637Y-67473739D01*
X169252833Y-67360179D01*
X169186031Y-67249381D01*
X169131164Y-67132625D01*
X169089163Y-67013276D01*
X169059167Y-66887283D01*
X169040311Y-66750594D01*
X169031732Y-66599158D01*
X169031006Y-66521711D01*
X169033100Y-66464934D01*
X169862217Y-66464934D01*
X169862424Y-66558002D01*
X169865337Y-66645692D01*
X169871000Y-66722772D01*
X169879455Y-66784009D01*
X169882038Y-66796350D01*
X169913840Y-66903633D01*
X169955498Y-66990658D01*
X170007363Y-67057642D01*
X170069781Y-67104805D01*
X170143100Y-67132365D01*
X170227669Y-67140541D01*
X170323835Y-67129551D01*
X170387311Y-67113829D01*
X170436454Y-67095639D01*
X170490583Y-67069791D01*
X170531244Y-67046089D01*
X170601800Y-66999721D01*
X170601800Y-65849530D01*
X170534392Y-65805962D01*
X170455867Y-65765040D01*
X170371681Y-65738389D01*
X170286557Y-65726465D01*
X170205216Y-65729722D01*
X170132380Y-65748615D01*
X170100426Y-65764184D01*
X170042501Y-65807181D01*
X169993544Y-65863953D01*
X169952390Y-65936575D01*
X169917874Y-66027121D01*
X169888833Y-66137666D01*
X169887552Y-66143533D01*
X169877381Y-66205788D01*
X169869739Y-66283594D01*
X169864670Y-66371720D01*
X169862217Y-66464934D01*
X169033100Y-66464934D01*
X169038857Y-66308895D01*
X169060802Y-66113059D01*
X169096786Y-65934332D01*
X169146759Y-65772845D01*
X169210668Y-65628726D01*
X169288462Y-65502106D01*
X169380089Y-65393115D01*
X169485497Y-65301883D01*
X169530662Y-65270932D01*
X169631611Y-65214785D01*
X169734901Y-65175174D01*
X169844989Y-65151014D01*
X169966330Y-65141219D01*
X170058836Y-65142265D01*
X170188490Y-65153231D01*
X170301084Y-65175046D01*
X170399875Y-65208714D01*
X170488121Y-65255236D01*
X170536986Y-65289448D01*
X170566353Y-65311362D01*
X170588043Y-65326333D01*
X170596253Y-65330733D01*
X170597868Y-65319904D01*
X170599159Y-65289251D01*
X170600138Y-65241526D01*
X170600817Y-65179479D01*
X170601210Y-65105862D01*
X170601330Y-65023427D01*
X170601188Y-64934925D01*
X170600797Y-64843107D01*
X170600171Y-64750724D01*
X170599320Y-64660528D01*
X170598260Y-64575271D01*
X170597001Y-64497703D01*
X170595556Y-64430576D01*
X170593938Y-64376641D01*
X170592161Y-64338650D01*
X170591669Y-64331667D01*
X170584092Y-64261251D01*
X170572531Y-64206102D01*
X170554792Y-64158981D01*
X170528682Y-64112647D01*
X170522415Y-64103067D01*
X170497983Y-64066378D01*
X171403311Y-64066378D01*
X171403507Y-65751245D01*
G36*
X162943957Y-63305571D02*
G01*
X163040232Y-63329809D01*
X163126816Y-63372641D01*
X163201627Y-63432419D01*
X163262582Y-63507494D01*
X163307601Y-63596220D01*
X163333864Y-63692530D01*
X163339714Y-63789795D01*
X163324860Y-63883654D01*
X163291160Y-63971511D01*
X163240472Y-64050770D01*
X163174655Y-64118836D01*
X163095566Y-64173112D01*
X163005066Y-64211002D01*
X162953800Y-64223426D01*
X162909302Y-64230947D01*
X162875001Y-64233919D01*
X162842040Y-64232094D01*
X162801566Y-64225225D01*
X162768469Y-64218250D01*
X162675053Y-64186741D01*
X162591381Y-64135617D01*
X162519335Y-64066429D01*
X162460800Y-63980728D01*
X162446852Y-63953489D01*
X162430414Y-63917122D01*
X162420106Y-63886582D01*
X162414540Y-63854450D01*
X162412331Y-63813307D01*
X162412052Y-63767222D01*
X162416139Y-63682865D01*
X162429554Y-63613586D01*
X162454744Y-63552961D01*
X162494154Y-63494567D01*
X162532702Y-63450302D01*
X162604594Y-63384484D01*
X162679687Y-63339053D01*
X162762438Y-63311850D01*
X162840072Y-63301576D01*
X162943957Y-63305571D01*
G37*
X162943957Y-63305571D02*
X163040232Y-63329809D01*
X163126816Y-63372641D01*
X163201627Y-63432419D01*
X163262582Y-63507494D01*
X163307601Y-63596220D01*
X163333864Y-63692530D01*
X163339714Y-63789795D01*
X163324860Y-63883654D01*
X163291160Y-63971511D01*
X163240472Y-64050770D01*
X163174655Y-64118836D01*
X163095566Y-64173112D01*
X163005066Y-64211002D01*
X162953800Y-64223426D01*
X162909302Y-64230947D01*
X162875001Y-64233919D01*
X162842040Y-64232094D01*
X162801566Y-64225225D01*
X162768469Y-64218250D01*
X162675053Y-64186741D01*
X162591381Y-64135617D01*
X162519335Y-64066429D01*
X162460800Y-63980728D01*
X162446852Y-63953489D01*
X162430414Y-63917122D01*
X162420106Y-63886582D01*
X162414540Y-63854450D01*
X162412331Y-63813307D01*
X162412052Y-63767222D01*
X162416139Y-63682865D01*
X162429554Y-63613586D01*
X162454744Y-63552961D01*
X162494154Y-63494567D01*
X162532702Y-63450302D01*
X162604594Y-63384484D01*
X162679687Y-63339053D01*
X162762438Y-63311850D01*
X162840072Y-63301576D01*
X162943957Y-63305571D01*
G36*
X159095629Y-68548066D02*
G01*
X159135111Y-68548467D01*
X159250800Y-68551259D01*
X159347689Y-68559550D01*
X159429081Y-68574232D01*
X159498277Y-68596193D01*
X159558580Y-68626322D01*
X159613292Y-68665510D01*
X159632833Y-68682532D01*
X159665250Y-68722363D01*
X159694480Y-68776413D01*
X159717009Y-68836323D01*
X159729321Y-68893739D01*
X159730600Y-68914956D01*
X159722583Y-68973769D01*
X159701101Y-69038013D01*
X159670001Y-69098821D01*
X159633134Y-69147330D01*
X159627146Y-69153182D01*
X159576421Y-69194321D01*
X159520875Y-69226435D01*
X159457304Y-69250365D01*
X159382506Y-69266953D01*
X159293278Y-69277041D01*
X159186418Y-69281469D01*
X159137472Y-69281845D01*
X159075238Y-69281545D01*
X159031472Y-69280292D01*
X159002069Y-69277554D01*
X158982921Y-69272801D01*
X158969923Y-69265501D01*
X158962955Y-69259267D01*
X158956374Y-69251694D01*
X158951212Y-69241924D01*
X158947297Y-69227340D01*
X158944457Y-69205326D01*
X158942520Y-69173264D01*
X158941316Y-69128536D01*
X158940672Y-69068526D01*
X158940417Y-68990617D01*
X158940378Y-68914956D01*
X158940130Y-68814041D01*
X158940183Y-68733427D01*
X158941143Y-68694822D01*
X159087133Y-68694822D01*
X159087133Y-69135089D01*
X159180266Y-69135004D01*
X159236307Y-69133396D01*
X159295001Y-69129256D01*
X159343972Y-69123464D01*
X159345462Y-69123226D01*
X159424608Y-69104090D01*
X159485998Y-69074287D01*
X159532695Y-69031878D01*
X159562365Y-68985961D01*
X159580647Y-68935026D01*
X159579229Y-68887200D01*
X159558012Y-68835933D01*
X159516511Y-68782899D01*
X159459002Y-68743600D01*
X159384250Y-68717331D01*
X159334292Y-68708035D01*
X159277584Y-68701507D01*
X159217481Y-68696782D01*
X159166361Y-68694817D01*
X159163333Y-68694808D01*
X159087133Y-68694822D01*
X158941143Y-68694822D01*
X158941740Y-68670851D01*
X158946002Y-68624055D01*
X158954170Y-68590778D01*
X158967444Y-68568759D01*
X158987026Y-68555739D01*
X159014117Y-68549457D01*
X159049918Y-68547653D01*
X159095629Y-68548066D01*
G37*
X159095629Y-68548066D02*
X159135111Y-68548467D01*
X159250800Y-68551259D01*
X159347689Y-68559550D01*
X159429081Y-68574232D01*
X159498277Y-68596193D01*
X159558580Y-68626322D01*
X159613292Y-68665510D01*
X159632833Y-68682532D01*
X159665250Y-68722363D01*
X159694480Y-68776413D01*
X159717009Y-68836323D01*
X159729321Y-68893739D01*
X159730600Y-68914956D01*
X159722583Y-68973769D01*
X159701101Y-69038013D01*
X159670001Y-69098821D01*
X159633134Y-69147330D01*
X159627146Y-69153182D01*
X159576421Y-69194321D01*
X159520875Y-69226435D01*
X159457304Y-69250365D01*
X159382506Y-69266953D01*
X159293278Y-69277041D01*
X159186418Y-69281469D01*
X159137472Y-69281845D01*
X159075238Y-69281545D01*
X159031472Y-69280292D01*
X159002069Y-69277554D01*
X158982921Y-69272801D01*
X158969923Y-69265501D01*
X158962955Y-69259267D01*
X158956374Y-69251694D01*
X158951212Y-69241924D01*
X158947297Y-69227340D01*
X158944457Y-69205326D01*
X158942520Y-69173264D01*
X158941316Y-69128536D01*
X158940672Y-69068526D01*
X158940417Y-68990617D01*
X158940378Y-68914956D01*
X158940130Y-68814041D01*
X158940183Y-68733427D01*
X158941143Y-68694822D01*
X159087133Y-68694822D01*
X159087133Y-69135089D01*
X159180266Y-69135004D01*
X159236307Y-69133396D01*
X159295001Y-69129256D01*
X159343972Y-69123464D01*
X159345462Y-69123226D01*
X159424608Y-69104090D01*
X159485998Y-69074287D01*
X159532695Y-69031878D01*
X159562365Y-68985961D01*
X159580647Y-68935026D01*
X159579229Y-68887200D01*
X159558012Y-68835933D01*
X159516511Y-68782899D01*
X159459002Y-68743600D01*
X159384250Y-68717331D01*
X159334292Y-68708035D01*
X159277584Y-68701507D01*
X159217481Y-68696782D01*
X159166361Y-68694817D01*
X159163333Y-68694808D01*
X159087133Y-68694822D01*
X158941143Y-68694822D01*
X158941740Y-68670851D01*
X158946002Y-68624055D01*
X158954170Y-68590778D01*
X158967444Y-68568759D01*
X158987026Y-68555739D01*
X159014117Y-68549457D01*
X159049918Y-68547653D01*
X159095629Y-68548066D01*
G36*
X160504206Y-68548146D02*
G01*
X160573614Y-68548518D01*
X160626003Y-68549385D01*
X160664153Y-68550946D01*
X160690841Y-68553403D01*
X160708847Y-68556957D01*
X160720951Y-68561810D01*
X160729931Y-68568161D01*
X160733182Y-68571084D01*
X160752957Y-68602142D01*
X160756518Y-68637828D01*
X160743509Y-68669510D01*
X160737494Y-68675913D01*
X160727765Y-68682121D01*
X160712099Y-68686910D01*
X160687592Y-68690514D01*
X160651339Y-68693164D01*
X160600435Y-68695095D01*
X160531974Y-68696539D01*
X160469383Y-68697418D01*
X160221666Y-68700467D01*
X160218281Y-68765378D01*
X160214895Y-68830289D01*
X160383042Y-68830289D01*
X160456041Y-68830919D01*
X160509483Y-68833553D01*
X160546372Y-68839309D01*
X160569712Y-68849304D01*
X160582506Y-68864656D01*
X160587758Y-68886482D01*
X160588555Y-68906738D01*
X160586077Y-68931592D01*
X160576723Y-68949906D01*
X160557617Y-68962637D01*
X160525882Y-68970741D01*
X160478641Y-68975176D01*
X160413017Y-68976899D01*
X160377199Y-68977045D01*
X160216022Y-68977045D01*
X160216022Y-69135089D01*
X160464378Y-69135089D01*
X160545787Y-69135202D01*
X160607658Y-69135712D01*
X160653032Y-69136870D01*
X160684946Y-69138930D01*
X160706441Y-69142146D01*
X160720557Y-69146772D01*
X160730332Y-69153059D01*
X160735311Y-69157667D01*
X160752390Y-69184560D01*
X160757889Y-69208467D01*
X160750037Y-69237667D01*
X160735311Y-69259267D01*
X160727454Y-69266066D01*
X160717312Y-69271346D01*
X160702156Y-69275298D01*
X160679259Y-69278113D01*
X160645891Y-69279982D01*
X160599325Y-69281098D01*
X160536833Y-69281651D01*
X160455686Y-69281833D01*
X160413578Y-69281845D01*
X160323402Y-69281765D01*
X160253076Y-69281398D01*
X160199871Y-69280552D01*
X160161060Y-69279036D01*
X160133913Y-69276659D01*
X160115702Y-69273229D01*
X160103700Y-69268554D01*
X160095178Y-69262444D01*
X160091844Y-69259267D01*
X160085245Y-69251670D01*
X160080073Y-69241870D01*
X160076154Y-69227239D01*
X160073316Y-69205152D01*
X160071385Y-69172982D01*
X160070188Y-69128103D01*
X160069552Y-69067889D01*
X160069303Y-68989713D01*
X160069266Y-68916923D01*
X160069300Y-68823707D01*
X160069535Y-68750431D01*
X160070170Y-68694458D01*
X160071406Y-68653151D01*
X160073444Y-68623872D01*
X160076483Y-68603984D01*
X160080723Y-68590850D01*
X160086365Y-68581832D01*
X160093609Y-68574293D01*
X160095394Y-68572612D01*
X160104055Y-68565172D01*
X160114118Y-68559409D01*
X160128375Y-68555112D01*
X160149617Y-68552064D01*
X160180636Y-68550051D01*
X160224223Y-68548860D01*
X160283169Y-68548275D01*
X160360266Y-68548083D01*
X160414999Y-68548067D01*
X160504206Y-68548146D01*
G37*
X160504206Y-68548146D02*
X160573614Y-68548518D01*
X160626003Y-68549385D01*
X160664153Y-68550946D01*
X160690841Y-68553403D01*
X160708847Y-68556957D01*
X160720951Y-68561810D01*
X160729931Y-68568161D01*
X160733182Y-68571084D01*
X160752957Y-68602142D01*
X160756518Y-68637828D01*
X160743509Y-68669510D01*
X160737494Y-68675913D01*
X160727765Y-68682121D01*
X160712099Y-68686910D01*
X160687592Y-68690514D01*
X160651339Y-68693164D01*
X160600435Y-68695095D01*
X160531974Y-68696539D01*
X160469383Y-68697418D01*
X160221666Y-68700467D01*
X160218281Y-68765378D01*
X160214895Y-68830289D01*
X160383042Y-68830289D01*
X160456041Y-68830919D01*
X160509483Y-68833553D01*
X160546372Y-68839309D01*
X160569712Y-68849304D01*
X160582506Y-68864656D01*
X160587758Y-68886482D01*
X160588555Y-68906738D01*
X160586077Y-68931592D01*
X160576723Y-68949906D01*
X160557617Y-68962637D01*
X160525882Y-68970741D01*
X160478641Y-68975176D01*
X160413017Y-68976899D01*
X160377199Y-68977045D01*
X160216022Y-68977045D01*
X160216022Y-69135089D01*
X160464378Y-69135089D01*
X160545787Y-69135202D01*
X160607658Y-69135712D01*
X160653032Y-69136870D01*
X160684946Y-69138930D01*
X160706441Y-69142146D01*
X160720557Y-69146772D01*
X160730332Y-69153059D01*
X160735311Y-69157667D01*
X160752390Y-69184560D01*
X160757889Y-69208467D01*
X160750037Y-69237667D01*
X160735311Y-69259267D01*
X160727454Y-69266066D01*
X160717312Y-69271346D01*
X160702156Y-69275298D01*
X160679259Y-69278113D01*
X160645891Y-69279982D01*
X160599325Y-69281098D01*
X160536833Y-69281651D01*
X160455686Y-69281833D01*
X160413578Y-69281845D01*
X160323402Y-69281765D01*
X160253076Y-69281398D01*
X160199871Y-69280552D01*
X160161060Y-69279036D01*
X160133913Y-69276659D01*
X160115702Y-69273229D01*
X160103700Y-69268554D01*
X160095178Y-69262444D01*
X160091844Y-69259267D01*
X160085245Y-69251670D01*
X160080073Y-69241870D01*
X160076154Y-69227239D01*
X160073316Y-69205152D01*
X160071385Y-69172982D01*
X160070188Y-69128103D01*
X160069552Y-69067889D01*
X160069303Y-68989713D01*
X160069266Y-68916923D01*
X160069300Y-68823707D01*
X160069535Y-68750431D01*
X160070170Y-68694458D01*
X160071406Y-68653151D01*
X160073444Y-68623872D01*
X160076483Y-68603984D01*
X160080723Y-68590850D01*
X160086365Y-68581832D01*
X160093609Y-68574293D01*
X160095394Y-68572612D01*
X160104055Y-68565172D01*
X160114118Y-68559409D01*
X160128375Y-68555112D01*
X160149617Y-68552064D01*
X160180636Y-68550051D01*
X160224223Y-68548860D01*
X160283169Y-68548275D01*
X160360266Y-68548083D01*
X160414999Y-68548067D01*
X160504206Y-68548146D01*
G36*
X161525297Y-68549351D02*
G01*
X161600112Y-68554581D01*
X161669694Y-68562750D01*
X161729998Y-68573550D01*
X161776980Y-68586673D01*
X161806594Y-68601813D01*
X161811140Y-68606269D01*
X161826946Y-68640850D01*
X161822153Y-68676351D01*
X161797636Y-68706725D01*
X161796466Y-68707596D01*
X161782046Y-68716954D01*
X161766992Y-68721876D01*
X161745995Y-68722473D01*
X161713743Y-68718861D01*
X161664927Y-68711154D01*
X161661000Y-68710505D01*
X161588261Y-68701569D01*
X161509783Y-68697161D01*
X161431073Y-68697119D01*
X161357639Y-68701279D01*
X161294989Y-68709479D01*
X161248630Y-68721557D01*
X161245584Y-68722771D01*
X161211952Y-68741615D01*
X161200136Y-68760685D01*
X161209386Y-68779439D01*
X161238953Y-68797337D01*
X161288089Y-68813837D01*
X161356043Y-68828396D01*
X161401355Y-68835406D01*
X161495544Y-68848889D01*
X161570456Y-68861214D01*
X161629283Y-68873449D01*
X161675215Y-68886661D01*
X161711445Y-68901917D01*
X161741162Y-68920285D01*
X161767558Y-68942831D01*
X161788770Y-68964971D01*
X161813935Y-68995819D01*
X161826319Y-69022345D01*
X161830192Y-69055026D01*
X161830333Y-69066995D01*
X161827424Y-69106712D01*
X161815798Y-69136259D01*
X161795677Y-69162486D01*
X161754784Y-69202576D01*
X161709183Y-69233149D01*
X161655487Y-69255203D01*
X161590308Y-69269735D01*
X161510256Y-69277741D01*
X161411943Y-69280218D01*
X161395711Y-69280177D01*
X161330151Y-69278818D01*
X161265134Y-69275730D01*
X161207748Y-69271356D01*
X161165078Y-69266140D01*
X161161628Y-69265541D01*
X161119204Y-69255491D01*
X161083220Y-69242796D01*
X161062850Y-69231190D01*
X161043893Y-69200572D01*
X161042573Y-69164918D01*
X161058915Y-69133144D01*
X161062571Y-69129551D01*
X161077685Y-69118876D01*
X161096585Y-69114276D01*
X161125838Y-69115059D01*
X161161349Y-69119127D01*
X161201030Y-69122762D01*
X161256655Y-69125828D01*
X161321594Y-69128053D01*
X161389215Y-69129164D01*
X161407000Y-69129237D01*
X161474872Y-69128964D01*
X161524546Y-69127646D01*
X161560390Y-69124827D01*
X161586776Y-69120050D01*
X161608074Y-69112857D01*
X161620874Y-69106867D01*
X161649000Y-69090233D01*
X161666932Y-69075168D01*
X161669553Y-69070897D01*
X161664024Y-69053263D01*
X161637740Y-69036192D01*
X161592522Y-69020458D01*
X161530192Y-69006838D01*
X161511829Y-69003804D01*
X161415910Y-68988738D01*
X161339359Y-68976146D01*
X161279220Y-68965111D01*
X161232540Y-68954720D01*
X161196363Y-68944056D01*
X161167735Y-68932205D01*
X161143702Y-68918251D01*
X161121308Y-68901281D01*
X161097598Y-68880378D01*
X161089620Y-68873049D01*
X161061647Y-68845699D01*
X161046840Y-68824029D01*
X161041048Y-68799232D01*
X161040111Y-68767983D01*
X161050425Y-68706705D01*
X161081248Y-68654640D01*
X161132405Y-68611958D01*
X161203717Y-68578825D01*
X161254600Y-68563964D01*
X161309900Y-68554366D01*
X161376147Y-68548936D01*
X161449294Y-68547367D01*
X161525297Y-68549351D01*
G37*
X161525297Y-68549351D02*
X161600112Y-68554581D01*
X161669694Y-68562750D01*
X161729998Y-68573550D01*
X161776980Y-68586673D01*
X161806594Y-68601813D01*
X161811140Y-68606269D01*
X161826946Y-68640850D01*
X161822153Y-68676351D01*
X161797636Y-68706725D01*
X161796466Y-68707596D01*
X161782046Y-68716954D01*
X161766992Y-68721876D01*
X161745995Y-68722473D01*
X161713743Y-68718861D01*
X161664927Y-68711154D01*
X161661000Y-68710505D01*
X161588261Y-68701569D01*
X161509783Y-68697161D01*
X161431073Y-68697119D01*
X161357639Y-68701279D01*
X161294989Y-68709479D01*
X161248630Y-68721557D01*
X161245584Y-68722771D01*
X161211952Y-68741615D01*
X161200136Y-68760685D01*
X161209386Y-68779439D01*
X161238953Y-68797337D01*
X161288089Y-68813837D01*
X161356043Y-68828396D01*
X161401355Y-68835406D01*
X161495544Y-68848889D01*
X161570456Y-68861214D01*
X161629283Y-68873449D01*
X161675215Y-68886661D01*
X161711445Y-68901917D01*
X161741162Y-68920285D01*
X161767558Y-68942831D01*
X161788770Y-68964971D01*
X161813935Y-68995819D01*
X161826319Y-69022345D01*
X161830192Y-69055026D01*
X161830333Y-69066995D01*
X161827424Y-69106712D01*
X161815798Y-69136259D01*
X161795677Y-69162486D01*
X161754784Y-69202576D01*
X161709183Y-69233149D01*
X161655487Y-69255203D01*
X161590308Y-69269735D01*
X161510256Y-69277741D01*
X161411943Y-69280218D01*
X161395711Y-69280177D01*
X161330151Y-69278818D01*
X161265134Y-69275730D01*
X161207748Y-69271356D01*
X161165078Y-69266140D01*
X161161628Y-69265541D01*
X161119204Y-69255491D01*
X161083220Y-69242796D01*
X161062850Y-69231190D01*
X161043893Y-69200572D01*
X161042573Y-69164918D01*
X161058915Y-69133144D01*
X161062571Y-69129551D01*
X161077685Y-69118876D01*
X161096585Y-69114276D01*
X161125838Y-69115059D01*
X161161349Y-69119127D01*
X161201030Y-69122762D01*
X161256655Y-69125828D01*
X161321594Y-69128053D01*
X161389215Y-69129164D01*
X161407000Y-69129237D01*
X161474872Y-69128964D01*
X161524546Y-69127646D01*
X161560390Y-69124827D01*
X161586776Y-69120050D01*
X161608074Y-69112857D01*
X161620874Y-69106867D01*
X161649000Y-69090233D01*
X161666932Y-69075168D01*
X161669553Y-69070897D01*
X161664024Y-69053263D01*
X161637740Y-69036192D01*
X161592522Y-69020458D01*
X161530192Y-69006838D01*
X161511829Y-69003804D01*
X161415910Y-68988738D01*
X161339359Y-68976146D01*
X161279220Y-68965111D01*
X161232540Y-68954720D01*
X161196363Y-68944056D01*
X161167735Y-68932205D01*
X161143702Y-68918251D01*
X161121308Y-68901281D01*
X161097598Y-68880378D01*
X161089620Y-68873049D01*
X161061647Y-68845699D01*
X161046840Y-68824029D01*
X161041048Y-68799232D01*
X161040111Y-68767983D01*
X161050425Y-68706705D01*
X161081248Y-68654640D01*
X161132405Y-68611958D01*
X161203717Y-68578825D01*
X161254600Y-68563964D01*
X161309900Y-68554366D01*
X161376147Y-68548936D01*
X161449294Y-68547367D01*
X161525297Y-68549351D01*
G36*
X162293178Y-68570645D02*
G01*
X162299758Y-68578218D01*
X162304921Y-68587987D01*
X162308836Y-68602571D01*
X162311676Y-68624585D01*
X162313613Y-68656648D01*
X162314817Y-68701375D01*
X162315461Y-68761385D01*
X162315716Y-68839294D01*
X162315755Y-68914956D01*
X162315686Y-69008802D01*
X162315362Y-69082689D01*
X162314614Y-69139232D01*
X162313268Y-69181049D01*
X162311154Y-69210757D01*
X162308100Y-69230973D01*
X162303934Y-69244314D01*
X162298484Y-69253398D01*
X162293178Y-69259267D01*
X162260174Y-69278947D01*
X162225009Y-69277181D01*
X162193545Y-69255717D01*
X162186316Y-69247337D01*
X162180666Y-69237614D01*
X162176401Y-69223861D01*
X162173327Y-69203389D01*
X162171248Y-69173512D01*
X162169970Y-69131541D01*
X162169299Y-69074789D01*
X162169041Y-69000567D01*
X162169000Y-68916537D01*
X162169000Y-68603485D01*
X162196709Y-68575776D01*
X162230863Y-68552463D01*
X162263994Y-68551623D01*
X162293178Y-68570645D01*
G37*
X162293178Y-68570645D02*
X162299758Y-68578218D01*
X162304921Y-68587987D01*
X162308836Y-68602571D01*
X162311676Y-68624585D01*
X162313613Y-68656648D01*
X162314817Y-68701375D01*
X162315461Y-68761385D01*
X162315716Y-68839294D01*
X162315755Y-68914956D01*
X162315686Y-69008802D01*
X162315362Y-69082689D01*
X162314614Y-69139232D01*
X162313268Y-69181049D01*
X162311154Y-69210757D01*
X162308100Y-69230973D01*
X162303934Y-69244314D01*
X162298484Y-69253398D01*
X162293178Y-69259267D01*
X162260174Y-69278947D01*
X162225009Y-69277181D01*
X162193545Y-69255717D01*
X162186316Y-69247337D01*
X162180666Y-69237614D01*
X162176401Y-69223861D01*
X162173327Y-69203389D01*
X162171248Y-69173512D01*
X162169970Y-69131541D01*
X162169299Y-69074789D01*
X162169041Y-69000567D01*
X162169000Y-68916537D01*
X162169000Y-68603485D01*
X162196709Y-68575776D01*
X162230863Y-68552463D01*
X162263994Y-68551623D01*
X162293178Y-68570645D01*
G36*
X163266919Y-68553599D02*
G01*
X163335435Y-68565095D01*
X163388057Y-68582967D01*
X163422292Y-68606499D01*
X163431621Y-68619924D01*
X163441107Y-68651148D01*
X163434723Y-68679395D01*
X163414570Y-68706182D01*
X163383255Y-68718713D01*
X163337817Y-68717696D01*
X163302674Y-68710906D01*
X163224581Y-68697971D01*
X163144774Y-68696742D01*
X163055445Y-68707241D01*
X163030771Y-68711690D01*
X162947709Y-68735108D01*
X162882727Y-68769945D01*
X162836539Y-68815604D01*
X162809855Y-68871494D01*
X162804337Y-68900388D01*
X162807949Y-68959012D01*
X162831271Y-69010879D01*
X162872176Y-69054978D01*
X162928541Y-69090299D01*
X162998240Y-69115829D01*
X163079148Y-69130559D01*
X163169140Y-69133478D01*
X163266090Y-69123575D01*
X163271564Y-69122641D01*
X163310125Y-69115459D01*
X163331506Y-69108521D01*
X163340773Y-69098227D01*
X163342994Y-69080976D01*
X163343044Y-69071841D01*
X163343044Y-69033489D01*
X163274569Y-69033489D01*
X163214100Y-69029347D01*
X163172835Y-69016147D01*
X163148825Y-68992730D01*
X163140123Y-68957936D01*
X163140017Y-68953394D01*
X163145108Y-68923654D01*
X163162567Y-68902419D01*
X163195061Y-68888366D01*
X163245257Y-68880173D01*
X163293877Y-68877161D01*
X163364544Y-68875433D01*
X163415802Y-68878070D01*
X163450761Y-68887800D01*
X163472530Y-68907353D01*
X163484220Y-68939456D01*
X163488940Y-68986838D01*
X163489800Y-69049071D01*
X163488391Y-69118535D01*
X163484152Y-69165786D01*
X163477064Y-69191012D01*
X163475689Y-69192988D01*
X163436772Y-69224508D01*
X163379714Y-69249470D01*
X163308131Y-69267340D01*
X163225642Y-69277586D01*
X163135861Y-69279673D01*
X163042408Y-69273068D01*
X162987444Y-69264956D01*
X162901234Y-69240554D01*
X162821108Y-69200662D01*
X162754023Y-69148887D01*
X162743827Y-69138539D01*
X162710698Y-69095035D01*
X162680806Y-69041118D01*
X162657643Y-68984592D01*
X162644702Y-68933259D01*
X162643142Y-68913544D01*
X162649782Y-68872419D01*
X162667432Y-68821252D01*
X162692703Y-68767394D01*
X162722211Y-68718195D01*
X162748281Y-68685334D01*
X162809235Y-68636452D01*
X162888031Y-68597545D01*
X162981843Y-68569494D01*
X163087850Y-68553179D01*
X163185000Y-68549192D01*
X163266919Y-68553599D01*
G37*
X163266919Y-68553599D02*
X163335435Y-68565095D01*
X163388057Y-68582967D01*
X163422292Y-68606499D01*
X163431621Y-68619924D01*
X163441107Y-68651148D01*
X163434723Y-68679395D01*
X163414570Y-68706182D01*
X163383255Y-68718713D01*
X163337817Y-68717696D01*
X163302674Y-68710906D01*
X163224581Y-68697971D01*
X163144774Y-68696742D01*
X163055445Y-68707241D01*
X163030771Y-68711690D01*
X162947709Y-68735108D01*
X162882727Y-68769945D01*
X162836539Y-68815604D01*
X162809855Y-68871494D01*
X162804337Y-68900388D01*
X162807949Y-68959012D01*
X162831271Y-69010879D01*
X162872176Y-69054978D01*
X162928541Y-69090299D01*
X162998240Y-69115829D01*
X163079148Y-69130559D01*
X163169140Y-69133478D01*
X163266090Y-69123575D01*
X163271564Y-69122641D01*
X163310125Y-69115459D01*
X163331506Y-69108521D01*
X163340773Y-69098227D01*
X163342994Y-69080976D01*
X163343044Y-69071841D01*
X163343044Y-69033489D01*
X163274569Y-69033489D01*
X163214100Y-69029347D01*
X163172835Y-69016147D01*
X163148825Y-68992730D01*
X163140123Y-68957936D01*
X163140017Y-68953394D01*
X163145108Y-68923654D01*
X163162567Y-68902419D01*
X163195061Y-68888366D01*
X163245257Y-68880173D01*
X163293877Y-68877161D01*
X163364544Y-68875433D01*
X163415802Y-68878070D01*
X163450761Y-68887800D01*
X163472530Y-68907353D01*
X163484220Y-68939456D01*
X163488940Y-68986838D01*
X163489800Y-69049071D01*
X163488391Y-69118535D01*
X163484152Y-69165786D01*
X163477064Y-69191012D01*
X163475689Y-69192988D01*
X163436772Y-69224508D01*
X163379714Y-69249470D01*
X163308131Y-69267340D01*
X163225642Y-69277586D01*
X163135861Y-69279673D01*
X163042408Y-69273068D01*
X162987444Y-69264956D01*
X162901234Y-69240554D01*
X162821108Y-69200662D01*
X162754023Y-69148887D01*
X162743827Y-69138539D01*
X162710698Y-69095035D01*
X162680806Y-69041118D01*
X162657643Y-68984592D01*
X162644702Y-68933259D01*
X162643142Y-68913544D01*
X162649782Y-68872419D01*
X162667432Y-68821252D01*
X162692703Y-68767394D01*
X162722211Y-68718195D01*
X162748281Y-68685334D01*
X162809235Y-68636452D01*
X162888031Y-68597545D01*
X162981843Y-68569494D01*
X163087850Y-68553179D01*
X163185000Y-68549192D01*
X163266919Y-68553599D01*
G36*
X163916886Y-68552448D02*
G01*
X163940452Y-68566273D01*
X163971265Y-68588881D01*
X164010922Y-68621338D01*
X164061020Y-68664708D01*
X164123157Y-68720058D01*
X164198928Y-68788451D01*
X164285666Y-68867084D01*
X164466289Y-69030878D01*
X164471933Y-68811029D01*
X164473971Y-68735351D01*
X164475937Y-68678994D01*
X164478266Y-68638706D01*
X164481394Y-68611235D01*
X164485755Y-68593329D01*
X164491784Y-68581737D01*
X164499916Y-68573208D01*
X164504228Y-68569623D01*
X164538759Y-68550670D01*
X164571617Y-68553441D01*
X164597682Y-68569633D01*
X164624333Y-68591199D01*
X164627648Y-68906151D01*
X164628565Y-68998779D01*
X164629032Y-69071544D01*
X164628887Y-69127161D01*
X164627968Y-69168342D01*
X164626113Y-69197803D01*
X164623161Y-69218255D01*
X164618950Y-69232413D01*
X164613318Y-69242991D01*
X164607073Y-69251474D01*
X164593561Y-69267207D01*
X164580117Y-69277636D01*
X164564876Y-69281639D01*
X164545974Y-69278094D01*
X164521545Y-69265879D01*
X164489727Y-69243871D01*
X164448652Y-69210949D01*
X164396458Y-69165991D01*
X164331278Y-69107875D01*
X164257444Y-69041099D01*
X163992155Y-68800458D01*
X163986511Y-69019589D01*
X163984469Y-69095128D01*
X163982498Y-69151354D01*
X163980161Y-69191524D01*
X163977019Y-69218896D01*
X163972636Y-69236728D01*
X163966576Y-69248279D01*
X163958400Y-69256807D01*
X163954216Y-69260282D01*
X163917235Y-69279372D01*
X163882292Y-69276493D01*
X163851864Y-69252100D01*
X163844903Y-69242286D01*
X163839477Y-69230826D01*
X163835397Y-69214968D01*
X163832471Y-69191963D01*
X163830508Y-69159062D01*
X163829317Y-69113516D01*
X163828708Y-69052573D01*
X163828489Y-68973486D01*
X163828466Y-68914956D01*
X163828540Y-68823407D01*
X163828887Y-68751687D01*
X163829699Y-68697045D01*
X163831167Y-68656732D01*
X163833481Y-68627998D01*
X163836833Y-68608093D01*
X163841412Y-68594268D01*
X163847411Y-68583772D01*
X163851864Y-68577811D01*
X163863150Y-68563691D01*
X163873699Y-68553029D01*
X163885107Y-68546892D01*
X163898970Y-68546343D01*
X163916886Y-68552448D01*
G37*
X163916886Y-68552448D02*
X163940452Y-68566273D01*
X163971265Y-68588881D01*
X164010922Y-68621338D01*
X164061020Y-68664708D01*
X164123157Y-68720058D01*
X164198928Y-68788451D01*
X164285666Y-68867084D01*
X164466289Y-69030878D01*
X164471933Y-68811029D01*
X164473971Y-68735351D01*
X164475937Y-68678994D01*
X164478266Y-68638706D01*
X164481394Y-68611235D01*
X164485755Y-68593329D01*
X164491784Y-68581737D01*
X164499916Y-68573208D01*
X164504228Y-68569623D01*
X164538759Y-68550670D01*
X164571617Y-68553441D01*
X164597682Y-68569633D01*
X164624333Y-68591199D01*
X164627648Y-68906151D01*
X164628565Y-68998779D01*
X164629032Y-69071544D01*
X164628887Y-69127161D01*
X164627968Y-69168342D01*
X164626113Y-69197803D01*
X164623161Y-69218255D01*
X164618950Y-69232413D01*
X164613318Y-69242991D01*
X164607073Y-69251474D01*
X164593561Y-69267207D01*
X164580117Y-69277636D01*
X164564876Y-69281639D01*
X164545974Y-69278094D01*
X164521545Y-69265879D01*
X164489727Y-69243871D01*
X164448652Y-69210949D01*
X164396458Y-69165991D01*
X164331278Y-69107875D01*
X164257444Y-69041099D01*
X163992155Y-68800458D01*
X163986511Y-69019589D01*
X163984469Y-69095128D01*
X163982498Y-69151354D01*
X163980161Y-69191524D01*
X163977019Y-69218896D01*
X163972636Y-69236728D01*
X163966576Y-69248279D01*
X163958400Y-69256807D01*
X163954216Y-69260282D01*
X163917235Y-69279372D01*
X163882292Y-69276493D01*
X163851864Y-69252100D01*
X163844903Y-69242286D01*
X163839477Y-69230826D01*
X163835397Y-69214968D01*
X163832471Y-69191963D01*
X163830508Y-69159062D01*
X163829317Y-69113516D01*
X163828708Y-69052573D01*
X163828489Y-68973486D01*
X163828466Y-68914956D01*
X163828540Y-68823407D01*
X163828887Y-68751687D01*
X163829699Y-68697045D01*
X163831167Y-68656732D01*
X163833481Y-68627998D01*
X163836833Y-68608093D01*
X163841412Y-68594268D01*
X163847411Y-68583772D01*
X163851864Y-68577811D01*
X163863150Y-68563691D01*
X163873699Y-68553029D01*
X163885107Y-68546892D01*
X163898970Y-68546343D01*
X163916886Y-68552448D01*
G36*
X165447343Y-68548260D02*
G01*
X165523701Y-68549174D01*
X165582217Y-68551311D01*
X165625255Y-68555175D01*
X165655183Y-68561267D01*
X165674368Y-68570090D01*
X165685176Y-68582146D01*
X165689973Y-68597939D01*
X165691127Y-68617970D01*
X165691133Y-68620335D01*
X165690131Y-68642992D01*
X165685396Y-68660503D01*
X165674333Y-68673574D01*
X165654348Y-68682913D01*
X165622846Y-68689227D01*
X165577232Y-68693222D01*
X165514913Y-68695606D01*
X165433293Y-68697086D01*
X165408277Y-68697414D01*
X165166200Y-68700467D01*
X165162814Y-68765378D01*
X165159429Y-68830289D01*
X165327576Y-68830289D01*
X165393266Y-68830531D01*
X165440172Y-68831556D01*
X165472083Y-68833811D01*
X165492791Y-68837742D01*
X165506084Y-68843798D01*
X165515755Y-68852424D01*
X165515817Y-68852493D01*
X165533356Y-68886112D01*
X165532722Y-68922448D01*
X165514314Y-68953423D01*
X165510671Y-68956607D01*
X165497741Y-68964812D01*
X165480024Y-68970521D01*
X165453570Y-68974162D01*
X165414432Y-68976167D01*
X165358662Y-68976964D01*
X165322994Y-68977045D01*
X165160555Y-68977045D01*
X165160555Y-69135089D01*
X165407161Y-69135089D01*
X165488580Y-69135231D01*
X165550410Y-69135814D01*
X165595637Y-69137068D01*
X165627248Y-69139227D01*
X165648231Y-69142523D01*
X165661573Y-69147189D01*
X165670261Y-69153457D01*
X165672450Y-69155733D01*
X165688614Y-69187280D01*
X165689797Y-69223168D01*
X165676536Y-69254285D01*
X165666043Y-69264271D01*
X165655129Y-69269769D01*
X165638217Y-69274022D01*
X165612633Y-69277180D01*
X165575701Y-69279392D01*
X165524746Y-69280806D01*
X165457094Y-69281572D01*
X165370069Y-69281838D01*
X165350394Y-69281845D01*
X165261911Y-69281787D01*
X165193227Y-69281467D01*
X165141564Y-69280667D01*
X165104145Y-69279167D01*
X165078190Y-69276749D01*
X165060922Y-69273194D01*
X165049562Y-69268282D01*
X165041332Y-69261795D01*
X165036817Y-69257138D01*
X165030021Y-69248889D01*
X165024712Y-69238669D01*
X165020706Y-69223800D01*
X165017821Y-69201602D01*
X165015874Y-69169393D01*
X165014681Y-69124496D01*
X165014061Y-69064228D01*
X165013829Y-68985911D01*
X165013800Y-68919994D01*
X165013871Y-68827628D01*
X165014208Y-68755117D01*
X165014998Y-68699737D01*
X165016426Y-68658765D01*
X165018679Y-68629478D01*
X165021943Y-68609153D01*
X165026404Y-68595066D01*
X165032248Y-68584495D01*
X165037197Y-68577811D01*
X165060594Y-68548067D01*
X165350774Y-68548067D01*
X165447343Y-68548260D01*
G37*
X165447343Y-68548260D02*
X165523701Y-68549174D01*
X165582217Y-68551311D01*
X165625255Y-68555175D01*
X165655183Y-68561267D01*
X165674368Y-68570090D01*
X165685176Y-68582146D01*
X165689973Y-68597939D01*
X165691127Y-68617970D01*
X165691133Y-68620335D01*
X165690131Y-68642992D01*
X165685396Y-68660503D01*
X165674333Y-68673574D01*
X165654348Y-68682913D01*
X165622846Y-68689227D01*
X165577232Y-68693222D01*
X165514913Y-68695606D01*
X165433293Y-68697086D01*
X165408277Y-68697414D01*
X165166200Y-68700467D01*
X165162814Y-68765378D01*
X165159429Y-68830289D01*
X165327576Y-68830289D01*
X165393266Y-68830531D01*
X165440172Y-68831556D01*
X165472083Y-68833811D01*
X165492791Y-68837742D01*
X165506084Y-68843798D01*
X165515755Y-68852424D01*
X165515817Y-68852493D01*
X165533356Y-68886112D01*
X165532722Y-68922448D01*
X165514314Y-68953423D01*
X165510671Y-68956607D01*
X165497741Y-68964812D01*
X165480024Y-68970521D01*
X165453570Y-68974162D01*
X165414432Y-68976167D01*
X165358662Y-68976964D01*
X165322994Y-68977045D01*
X165160555Y-68977045D01*
X165160555Y-69135089D01*
X165407161Y-69135089D01*
X165488580Y-69135231D01*
X165550410Y-69135814D01*
X165595637Y-69137068D01*
X165627248Y-69139227D01*
X165648231Y-69142523D01*
X165661573Y-69147189D01*
X165670261Y-69153457D01*
X165672450Y-69155733D01*
X165688614Y-69187280D01*
X165689797Y-69223168D01*
X165676536Y-69254285D01*
X165666043Y-69264271D01*
X165655129Y-69269769D01*
X165638217Y-69274022D01*
X165612633Y-69277180D01*
X165575701Y-69279392D01*
X165524746Y-69280806D01*
X165457094Y-69281572D01*
X165370069Y-69281838D01*
X165350394Y-69281845D01*
X165261911Y-69281787D01*
X165193227Y-69281467D01*
X165141564Y-69280667D01*
X165104145Y-69279167D01*
X165078190Y-69276749D01*
X165060922Y-69273194D01*
X165049562Y-69268282D01*
X165041332Y-69261795D01*
X165036817Y-69257138D01*
X165030021Y-69248889D01*
X165024712Y-69238669D01*
X165020706Y-69223800D01*
X165017821Y-69201602D01*
X165015874Y-69169393D01*
X165014681Y-69124496D01*
X165014061Y-69064228D01*
X165013829Y-68985911D01*
X165013800Y-68919994D01*
X165013871Y-68827628D01*
X165014208Y-68755117D01*
X165014998Y-68699737D01*
X165016426Y-68658765D01*
X165018679Y-68629478D01*
X165021943Y-68609153D01*
X165026404Y-68595066D01*
X165032248Y-68584495D01*
X165037197Y-68577811D01*
X165060594Y-68548067D01*
X165350774Y-68548067D01*
X165447343Y-68548260D01*
G36*
X166235309Y-68548275D02*
G01*
X166364288Y-68552636D01*
X166473991Y-68565861D01*
X166566226Y-68588741D01*
X166642802Y-68622070D01*
X166705527Y-68666638D01*
X166756212Y-68723236D01*
X166796663Y-68792658D01*
X166797459Y-68794351D01*
X166821601Y-68856483D01*
X166830203Y-68911509D01*
X166823231Y-68966887D01*
X166800654Y-69030073D01*
X166796372Y-69039689D01*
X166767172Y-69095966D01*
X166734356Y-69139451D01*
X166692002Y-69176417D01*
X166634190Y-69213135D01*
X166630831Y-69215052D01*
X166580504Y-69239227D01*
X166523621Y-69257282D01*
X166456527Y-69269839D01*
X166375565Y-69277522D01*
X166277082Y-69280953D01*
X166242286Y-69281251D01*
X166076594Y-69281845D01*
X166053197Y-69252100D01*
X166046257Y-69242319D01*
X166040842Y-69230897D01*
X166036765Y-69215095D01*
X166033837Y-69192175D01*
X166031867Y-69159396D01*
X166031225Y-69135089D01*
X166187844Y-69135089D01*
X166281726Y-69135089D01*
X166336664Y-69133483D01*
X166393060Y-69129255D01*
X166439345Y-69123292D01*
X166442139Y-69122790D01*
X166524348Y-69100736D01*
X166588114Y-69067600D01*
X166635452Y-69021847D01*
X166668382Y-68961939D01*
X166674108Y-68946061D01*
X166679721Y-68921333D01*
X166677291Y-68896902D01*
X166665467Y-68864400D01*
X166658340Y-68848434D01*
X166635000Y-68806006D01*
X166606880Y-68776240D01*
X166575940Y-68755511D01*
X166513966Y-68728537D01*
X166434651Y-68708998D01*
X166342253Y-68697746D01*
X166275333Y-68695270D01*
X166187844Y-68694822D01*
X166187844Y-69135089D01*
X166031225Y-69135089D01*
X166030668Y-69114021D01*
X166030050Y-69053311D01*
X166029825Y-68974526D01*
X166029800Y-68912920D01*
X166029800Y-68603485D01*
X166057509Y-68575776D01*
X166069806Y-68564544D01*
X166083103Y-68556853D01*
X166101672Y-68552040D01*
X166129786Y-68549446D01*
X166171717Y-68548410D01*
X166231737Y-68548270D01*
X166235309Y-68548275D01*
G37*
X166235309Y-68548275D02*
X166364288Y-68552636D01*
X166473991Y-68565861D01*
X166566226Y-68588741D01*
X166642802Y-68622070D01*
X166705527Y-68666638D01*
X166756212Y-68723236D01*
X166796663Y-68792658D01*
X166797459Y-68794351D01*
X166821601Y-68856483D01*
X166830203Y-68911509D01*
X166823231Y-68966887D01*
X166800654Y-69030073D01*
X166796372Y-69039689D01*
X166767172Y-69095966D01*
X166734356Y-69139451D01*
X166692002Y-69176417D01*
X166634190Y-69213135D01*
X166630831Y-69215052D01*
X166580504Y-69239227D01*
X166523621Y-69257282D01*
X166456527Y-69269839D01*
X166375565Y-69277522D01*
X166277082Y-69280953D01*
X166242286Y-69281251D01*
X166076594Y-69281845D01*
X166053197Y-69252100D01*
X166046257Y-69242319D01*
X166040842Y-69230897D01*
X166036765Y-69215095D01*
X166033837Y-69192175D01*
X166031867Y-69159396D01*
X166031225Y-69135089D01*
X166187844Y-69135089D01*
X166281726Y-69135089D01*
X166336664Y-69133483D01*
X166393060Y-69129255D01*
X166439345Y-69123292D01*
X166442139Y-69122790D01*
X166524348Y-69100736D01*
X166588114Y-69067600D01*
X166635452Y-69021847D01*
X166668382Y-68961939D01*
X166674108Y-68946061D01*
X166679721Y-68921333D01*
X166677291Y-68896902D01*
X166665467Y-68864400D01*
X166658340Y-68848434D01*
X166635000Y-68806006D01*
X166606880Y-68776240D01*
X166575940Y-68755511D01*
X166513966Y-68728537D01*
X166434651Y-68708998D01*
X166342253Y-68697746D01*
X166275333Y-68695270D01*
X166187844Y-68694822D01*
X166187844Y-69135089D01*
X166031225Y-69135089D01*
X166030668Y-69114021D01*
X166030050Y-69053311D01*
X166029825Y-68974526D01*
X166029800Y-68912920D01*
X166029800Y-68603485D01*
X166057509Y-68575776D01*
X166069806Y-68564544D01*
X166083103Y-68556853D01*
X166101672Y-68552040D01*
X166129786Y-68549446D01*
X166171717Y-68548410D01*
X166231737Y-68548270D01*
X166235309Y-68548275D01*
G36*
X168961665Y-68550034D02*
G01*
X168981255Y-68557035D01*
X168982010Y-68557377D01*
X169008613Y-68577678D01*
X169023270Y-68598561D01*
X169026138Y-68608352D01*
X169025996Y-68621361D01*
X169021961Y-68639895D01*
X169013146Y-68666257D01*
X168998669Y-68702752D01*
X168977645Y-68751687D01*
X168949188Y-68815365D01*
X168912415Y-68896093D01*
X168892175Y-68940216D01*
X168855625Y-69018985D01*
X168821315Y-69091423D01*
X168790552Y-69154880D01*
X168764648Y-69206708D01*
X168744910Y-69244259D01*
X168732650Y-69264884D01*
X168730224Y-69267733D01*
X168699183Y-69280302D01*
X168664121Y-69278619D01*
X168636000Y-69263332D01*
X168634854Y-69262089D01*
X168623668Y-69245154D01*
X168604904Y-69212170D01*
X168580875Y-69167380D01*
X168553897Y-69115032D01*
X168544201Y-69095742D01*
X168471014Y-68949150D01*
X168391240Y-69108393D01*
X168362767Y-69163415D01*
X168336350Y-69211132D01*
X168314148Y-69247893D01*
X168298319Y-69270044D01*
X168292954Y-69274741D01*
X168251257Y-69281102D01*
X168216849Y-69267733D01*
X168206728Y-69253446D01*
X168189214Y-69221692D01*
X168165735Y-69175597D01*
X168137720Y-69118285D01*
X168106599Y-69052880D01*
X168073799Y-68982507D01*
X168040750Y-68910291D01*
X168008881Y-68839355D01*
X167979619Y-68772825D01*
X167954395Y-68713826D01*
X167934636Y-68665481D01*
X167921772Y-68630915D01*
X167917231Y-68613253D01*
X167917277Y-68612613D01*
X167928326Y-68590388D01*
X167950410Y-68567753D01*
X167951710Y-68566768D01*
X167978853Y-68551425D01*
X168003958Y-68551574D01*
X168013368Y-68554466D01*
X168024834Y-68560718D01*
X168037010Y-68573014D01*
X168051357Y-68593908D01*
X168069336Y-68625949D01*
X168092407Y-68671688D01*
X168122030Y-68733677D01*
X168148745Y-68790898D01*
X168179480Y-68857226D01*
X168207021Y-68916874D01*
X168229938Y-68966725D01*
X168246798Y-69003664D01*
X168256173Y-69024573D01*
X168257540Y-69027845D01*
X168263689Y-69022497D01*
X168277822Y-69000109D01*
X168298057Y-68963946D01*
X168322515Y-68917277D01*
X168332248Y-68898022D01*
X168365217Y-68833004D01*
X168390643Y-68785654D01*
X168410612Y-68753219D01*
X168427210Y-68732946D01*
X168442524Y-68722082D01*
X168458640Y-68717875D01*
X168469143Y-68717400D01*
X168487670Y-68719042D01*
X168503904Y-68725831D01*
X168520035Y-68740566D01*
X168538251Y-68766044D01*
X168560739Y-68805061D01*
X168589689Y-68860414D01*
X168605662Y-68891903D01*
X168631570Y-68942087D01*
X168654167Y-68983704D01*
X168671458Y-69013242D01*
X168681450Y-69027189D01*
X168682809Y-69027770D01*
X168689261Y-69016793D01*
X168703708Y-68988290D01*
X168724703Y-68945244D01*
X168750797Y-68890638D01*
X168780546Y-68827454D01*
X168795180Y-68796071D01*
X168833250Y-68715078D01*
X168863905Y-68652756D01*
X168888737Y-68607071D01*
X168909337Y-68575989D01*
X168927298Y-68557478D01*
X168944210Y-68549504D01*
X168961665Y-68550034D01*
G37*
X168961665Y-68550034D02*
X168981255Y-68557035D01*
X168982010Y-68557377D01*
X169008613Y-68577678D01*
X169023270Y-68598561D01*
X169026138Y-68608352D01*
X169025996Y-68621361D01*
X169021961Y-68639895D01*
X169013146Y-68666257D01*
X168998669Y-68702752D01*
X168977645Y-68751687D01*
X168949188Y-68815365D01*
X168912415Y-68896093D01*
X168892175Y-68940216D01*
X168855625Y-69018985D01*
X168821315Y-69091423D01*
X168790552Y-69154880D01*
X168764648Y-69206708D01*
X168744910Y-69244259D01*
X168732650Y-69264884D01*
X168730224Y-69267733D01*
X168699183Y-69280302D01*
X168664121Y-69278619D01*
X168636000Y-69263332D01*
X168634854Y-69262089D01*
X168623668Y-69245154D01*
X168604904Y-69212170D01*
X168580875Y-69167380D01*
X168553897Y-69115032D01*
X168544201Y-69095742D01*
X168471014Y-68949150D01*
X168391240Y-69108393D01*
X168362767Y-69163415D01*
X168336350Y-69211132D01*
X168314148Y-69247893D01*
X168298319Y-69270044D01*
X168292954Y-69274741D01*
X168251257Y-69281102D01*
X168216849Y-69267733D01*
X168206728Y-69253446D01*
X168189214Y-69221692D01*
X168165735Y-69175597D01*
X168137720Y-69118285D01*
X168106599Y-69052880D01*
X168073799Y-68982507D01*
X168040750Y-68910291D01*
X168008881Y-68839355D01*
X167979619Y-68772825D01*
X167954395Y-68713826D01*
X167934636Y-68665481D01*
X167921772Y-68630915D01*
X167917231Y-68613253D01*
X167917277Y-68612613D01*
X167928326Y-68590388D01*
X167950410Y-68567753D01*
X167951710Y-68566768D01*
X167978853Y-68551425D01*
X168003958Y-68551574D01*
X168013368Y-68554466D01*
X168024834Y-68560718D01*
X168037010Y-68573014D01*
X168051357Y-68593908D01*
X168069336Y-68625949D01*
X168092407Y-68671688D01*
X168122030Y-68733677D01*
X168148745Y-68790898D01*
X168179480Y-68857226D01*
X168207021Y-68916874D01*
X168229938Y-68966725D01*
X168246798Y-69003664D01*
X168256173Y-69024573D01*
X168257540Y-69027845D01*
X168263689Y-69022497D01*
X168277822Y-69000109D01*
X168298057Y-68963946D01*
X168322515Y-68917277D01*
X168332248Y-68898022D01*
X168365217Y-68833004D01*
X168390643Y-68785654D01*
X168410612Y-68753219D01*
X168427210Y-68732946D01*
X168442524Y-68722082D01*
X168458640Y-68717875D01*
X168469143Y-68717400D01*
X168487670Y-68719042D01*
X168503904Y-68725831D01*
X168520035Y-68740566D01*
X168538251Y-68766044D01*
X168560739Y-68805061D01*
X168589689Y-68860414D01*
X168605662Y-68891903D01*
X168631570Y-68942087D01*
X168654167Y-68983704D01*
X168671458Y-69013242D01*
X168681450Y-69027189D01*
X168682809Y-69027770D01*
X168689261Y-69016793D01*
X168703708Y-68988290D01*
X168724703Y-68945244D01*
X168750797Y-68890638D01*
X168780546Y-68827454D01*
X168795180Y-68796071D01*
X168833250Y-68715078D01*
X168863905Y-68652756D01*
X168888737Y-68607071D01*
X168909337Y-68575989D01*
X168927298Y-68557478D01*
X168944210Y-68549504D01*
X168961665Y-68550034D01*
G36*
X169405614Y-68554877D02*
G01*
X169429327Y-68569647D01*
X169455978Y-68591227D01*
X169455978Y-68912773D01*
X169455893Y-69006830D01*
X169455529Y-69080932D01*
X169454724Y-69137704D01*
X169453313Y-69179768D01*
X169451133Y-69209748D01*
X169448021Y-69230267D01*
X169443814Y-69243949D01*
X169438348Y-69253416D01*
X169434472Y-69258082D01*
X169403034Y-69278575D01*
X169367233Y-69277739D01*
X169335873Y-69260264D01*
X169309222Y-69238684D01*
X169309222Y-68591227D01*
X169335873Y-68569647D01*
X169361594Y-68553949D01*
X169382600Y-68548067D01*
X169405614Y-68554877D01*
G37*
X169405614Y-68554877D02*
X169429327Y-68569647D01*
X169455978Y-68591227D01*
X169455978Y-68912773D01*
X169455893Y-69006830D01*
X169455529Y-69080932D01*
X169454724Y-69137704D01*
X169453313Y-69179768D01*
X169451133Y-69209748D01*
X169448021Y-69230267D01*
X169443814Y-69243949D01*
X169438348Y-69253416D01*
X169434472Y-69258082D01*
X169403034Y-69278575D01*
X169367233Y-69277739D01*
X169335873Y-69260264D01*
X169309222Y-69238684D01*
X169309222Y-68591227D01*
X169335873Y-68569647D01*
X169361594Y-68553949D01*
X169382600Y-68548067D01*
X169405614Y-68554877D01*
G36*
X170180065Y-68548163D02*
G01*
X170258772Y-68548542D01*
X170319863Y-68549333D01*
X170365817Y-68550670D01*
X170399114Y-68552683D01*
X170422236Y-68555506D01*
X170437662Y-68559269D01*
X170447871Y-68564105D01*
X170452813Y-68567822D01*
X170478457Y-68600358D01*
X170481559Y-68634138D01*
X170465711Y-68664826D01*
X170455348Y-68677089D01*
X170444196Y-68685450D01*
X170428035Y-68690657D01*
X170402642Y-68693457D01*
X170363798Y-68694596D01*
X170307280Y-68694821D01*
X170296180Y-68694822D01*
X170150244Y-68694822D01*
X170150244Y-68965756D01*
X170150148Y-69051154D01*
X170149711Y-69116864D01*
X170148712Y-69165774D01*
X170146928Y-69200773D01*
X170144137Y-69224749D01*
X170140117Y-69240593D01*
X170134645Y-69251191D01*
X170127666Y-69259267D01*
X170094734Y-69279112D01*
X170060354Y-69277548D01*
X170029176Y-69254906D01*
X170026886Y-69252100D01*
X170019429Y-69241492D01*
X170013747Y-69229081D01*
X170009601Y-69211850D01*
X170006750Y-69186784D01*
X170004954Y-69150867D01*
X170003972Y-69101083D01*
X170003564Y-69034417D01*
X170003489Y-68958589D01*
X170003489Y-68694822D01*
X169864127Y-68694822D01*
X169804322Y-68694418D01*
X169762918Y-68692840D01*
X169735748Y-68689547D01*
X169718646Y-68683992D01*
X169707443Y-68675631D01*
X169706083Y-68674178D01*
X169689725Y-68640939D01*
X169691172Y-68603362D01*
X169709978Y-68570645D01*
X169717250Y-68564298D01*
X169726627Y-68559266D01*
X169740609Y-68555396D01*
X169761696Y-68552537D01*
X169792389Y-68550535D01*
X169835189Y-68549239D01*
X169892595Y-68548498D01*
X169967110Y-68548158D01*
X170061233Y-68548068D01*
X170081260Y-68548067D01*
X170180065Y-68548163D01*
G37*
X170180065Y-68548163D02*
X170258772Y-68548542D01*
X170319863Y-68549333D01*
X170365817Y-68550670D01*
X170399114Y-68552683D01*
X170422236Y-68555506D01*
X170437662Y-68559269D01*
X170447871Y-68564105D01*
X170452813Y-68567822D01*
X170478457Y-68600358D01*
X170481559Y-68634138D01*
X170465711Y-68664826D01*
X170455348Y-68677089D01*
X170444196Y-68685450D01*
X170428035Y-68690657D01*
X170402642Y-68693457D01*
X170363798Y-68694596D01*
X170307280Y-68694821D01*
X170296180Y-68694822D01*
X170150244Y-68694822D01*
X170150244Y-68965756D01*
X170150148Y-69051154D01*
X170149711Y-69116864D01*
X170148712Y-69165774D01*
X170146928Y-69200773D01*
X170144137Y-69224749D01*
X170140117Y-69240593D01*
X170134645Y-69251191D01*
X170127666Y-69259267D01*
X170094734Y-69279112D01*
X170060354Y-69277548D01*
X170029176Y-69254906D01*
X170026886Y-69252100D01*
X170019429Y-69241492D01*
X170013747Y-69229081D01*
X170009601Y-69211850D01*
X170006750Y-69186784D01*
X170004954Y-69150867D01*
X170003972Y-69101083D01*
X170003564Y-69034417D01*
X170003489Y-68958589D01*
X170003489Y-68694822D01*
X169864127Y-68694822D01*
X169804322Y-68694418D01*
X169762918Y-68692840D01*
X169735748Y-68689547D01*
X169718646Y-68683992D01*
X169707443Y-68675631D01*
X169706083Y-68674178D01*
X169689725Y-68640939D01*
X169691172Y-68603362D01*
X169709978Y-68570645D01*
X169717250Y-68564298D01*
X169726627Y-68559266D01*
X169740609Y-68555396D01*
X169761696Y-68552537D01*
X169792389Y-68550535D01*
X169835189Y-68549239D01*
X169892595Y-68548498D01*
X169967110Y-68548158D01*
X170061233Y-68548068D01*
X170081260Y-68548067D01*
X170180065Y-68548163D01*
G36*
X171445823Y-68553533D02*
G01*
X171477202Y-68575776D01*
X171504911Y-68603485D01*
X171504911Y-68912920D01*
X171504838Y-69004799D01*
X171504495Y-69076840D01*
X171503692Y-69131780D01*
X171502241Y-69172360D01*
X171499952Y-69201317D01*
X171496636Y-69221391D01*
X171492105Y-69235321D01*
X171486169Y-69245845D01*
X171481514Y-69252100D01*
X171450783Y-69276673D01*
X171415496Y-69279341D01*
X171383245Y-69264271D01*
X171372588Y-69255374D01*
X171365464Y-69243557D01*
X171361167Y-69224526D01*
X171358991Y-69193992D01*
X171358228Y-69147662D01*
X171358155Y-69111871D01*
X171358155Y-68977045D01*
X170861444Y-68977045D01*
X170861444Y-69099700D01*
X170860931Y-69155787D01*
X170858876Y-69194333D01*
X170854508Y-69220361D01*
X170847056Y-69238897D01*
X170838047Y-69252100D01*
X170807144Y-69276604D01*
X170772196Y-69279506D01*
X170738738Y-69262089D01*
X170729604Y-69252959D01*
X170723152Y-69240855D01*
X170718897Y-69222001D01*
X170716352Y-69192620D01*
X170715029Y-69148937D01*
X170714443Y-69087175D01*
X170714375Y-69073000D01*
X170713891Y-68956631D01*
X170713641Y-68860727D01*
X170713723Y-68783177D01*
X170714231Y-68721869D01*
X170715262Y-68674690D01*
X170716913Y-68639530D01*
X170719279Y-68614276D01*
X170722457Y-68596817D01*
X170726544Y-68585041D01*
X170731634Y-68576835D01*
X170737266Y-68570645D01*
X170769128Y-68550844D01*
X170802357Y-68553533D01*
X170833735Y-68575776D01*
X170846433Y-68590126D01*
X170854526Y-68605978D01*
X170859042Y-68628554D01*
X170861006Y-68663078D01*
X170861444Y-68714776D01*
X170861444Y-68830289D01*
X171358155Y-68830289D01*
X171358155Y-68711756D01*
X171358662Y-68657148D01*
X171360698Y-68620275D01*
X171365035Y-68596307D01*
X171372447Y-68580415D01*
X171380733Y-68570645D01*
X171412594Y-68550844D01*
X171445823Y-68553533D01*
G37*
X171445823Y-68553533D02*
X171477202Y-68575776D01*
X171504911Y-68603485D01*
X171504911Y-68912920D01*
X171504838Y-69004799D01*
X171504495Y-69076840D01*
X171503692Y-69131780D01*
X171502241Y-69172360D01*
X171499952Y-69201317D01*
X171496636Y-69221391D01*
X171492105Y-69235321D01*
X171486169Y-69245845D01*
X171481514Y-69252100D01*
X171450783Y-69276673D01*
X171415496Y-69279341D01*
X171383245Y-69264271D01*
X171372588Y-69255374D01*
X171365464Y-69243557D01*
X171361167Y-69224526D01*
X171358991Y-69193992D01*
X171358228Y-69147662D01*
X171358155Y-69111871D01*
X171358155Y-68977045D01*
X170861444Y-68977045D01*
X170861444Y-69099700D01*
X170860931Y-69155787D01*
X170858876Y-69194333D01*
X170854508Y-69220361D01*
X170847056Y-69238897D01*
X170838047Y-69252100D01*
X170807144Y-69276604D01*
X170772196Y-69279506D01*
X170738738Y-69262089D01*
X170729604Y-69252959D01*
X170723152Y-69240855D01*
X170718897Y-69222001D01*
X170716352Y-69192620D01*
X170715029Y-69148937D01*
X170714443Y-69087175D01*
X170714375Y-69073000D01*
X170713891Y-68956631D01*
X170713641Y-68860727D01*
X170713723Y-68783177D01*
X170714231Y-68721869D01*
X170715262Y-68674690D01*
X170716913Y-68639530D01*
X170719279Y-68614276D01*
X170722457Y-68596817D01*
X170726544Y-68585041D01*
X170731634Y-68576835D01*
X170737266Y-68570645D01*
X170769128Y-68550844D01*
X170802357Y-68553533D01*
X170833735Y-68575776D01*
X170846433Y-68590126D01*
X170854526Y-68605978D01*
X170859042Y-68628554D01*
X170861006Y-68663078D01*
X170861444Y-68714776D01*
X170861444Y-68830289D01*
X171358155Y-68830289D01*
X171358155Y-68711756D01*
X171358662Y-68657148D01*
X171360698Y-68620275D01*
X171365035Y-68596307D01*
X171372447Y-68580415D01*
X171380733Y-68570645D01*
X171412594Y-68550844D01*
X171445823Y-68553533D01*
D11*
X130673000Y-87107000D03*
X130673000Y-109967000D03*
X133213000Y-87107000D03*
X133213000Y-109967000D03*
X135753000Y-87107000D03*
X135753000Y-109967000D03*
X138293000Y-87107000D03*
X138293000Y-109967000D03*
X140833000Y-87107000D03*
X140833000Y-109967000D03*
X143373000Y-87107000D03*
X143373000Y-109967000D03*
X145913000Y-87107000D03*
X145913000Y-109967000D03*
X148453000Y-87107000D03*
X148453000Y-109967000D03*
X150993000Y-87107000D03*
X150993000Y-109967000D03*
X153533000Y-87107000D03*
X153533000Y-109967000D03*
X156073000Y-87107000D03*
X156073000Y-109967000D03*
X158613000Y-87107000D03*
X158613000Y-109967000D03*
X161153000Y-87107000D03*
X161153000Y-109967000D03*
X163693000Y-87107000D03*
X163693000Y-109967000D03*
X166233000Y-87107000D03*
X166233000Y-109967000D03*
D12*
X168773000Y-87107000D03*
X168773000Y-109967000D03*
D11*
X171313000Y-87107000D03*
X171313000Y-109967000D03*
X173853000Y-87107000D03*
X173853000Y-109967000D03*
X176393000Y-87107000D03*
X176393000Y-109967000D03*
D13*
X152517000Y-69073000D03*
X152517000Y-66533000D03*
X152517000Y-63993000D03*
X152517000Y-61453000D03*
D14*
X158867000Y-79741000D03*
X158867000Y-82281000D03*
X148707000Y-82281000D03*
X148707000Y-79741000D03*
X148707000Y-77201000D03*
X148707000Y-74661000D03*
G04 #@! TA.AperFunction,ComponentPad*
G36*
G01*
X168951000Y-73912000D02*
X168951000Y-75662000D01*
G75*
G02*
X168076000Y-76537000I-875000J0D01*
G01*
X166326000Y-76537000D01*
G75*
G02*
X165451000Y-75662000I0J875000D01*
G01*
X165451000Y-73912000D01*
G75*
G02*
X166326000Y-73037000I875000J0D01*
G01*
X168076000Y-73037000D01*
G75*
G02*
X168951000Y-73912000I0J-875000D01*
G01*
G37*
G04 #@! TD.AperFunction*
G04 #@! TA.AperFunction,ComponentPad*
G36*
G01*
X171701000Y-78487000D02*
X171701000Y-80487000D01*
G75*
G02*
X170951000Y-81237000I-750000J0D01*
G01*
X169451000Y-81237000D01*
G75*
G02*
X168701000Y-80487000I0J750000D01*
G01*
X168701000Y-78487000D01*
G75*
G02*
X169451000Y-77737000I750000J0D01*
G01*
X170951000Y-77737000D01*
G75*
G02*
X171701000Y-78487000I0J-750000D01*
G01*
G37*
G04 #@! TD.AperFunction*
D15*
X164201000Y-79487000D03*
D16*
X120768000Y-69320001D03*
X120768000Y-71320001D03*
X120768000Y-73320001D03*
X120768000Y-75320001D03*
X120768000Y-77320001D03*
X143468000Y-67320001D03*
X143468000Y-69320001D03*
X143468000Y-71320001D03*
X143468000Y-73320001D03*
X143468000Y-75320001D03*
X143468000Y-77320001D03*
D17*
X143468000Y-79320001D03*
D16*
X125568000Y-81550001D03*
X130648000Y-81550001D03*
X128108000Y-81550001D03*
X133188000Y-81550001D03*
X135728000Y-81550001D03*
X138268000Y-81550001D03*
D18*
X130673000Y-90663000D03*
D19*
X133213000Y-90663000D03*
X135753000Y-90663000D03*
X138293000Y-90663000D03*
X140833000Y-90663000D03*
X143373000Y-90663000D03*
X145913000Y-90663000D03*
X148453000Y-90663000D03*
X150993000Y-90663000D03*
X153533000Y-90663000D03*
X156073000Y-90663000D03*
X158613000Y-90663000D03*
X161153000Y-90663000D03*
X163693000Y-90663000D03*
X166233000Y-90663000D03*
X168773000Y-90663000D03*
X171313000Y-90663000D03*
X173853000Y-90663000D03*
X176393000Y-90663000D03*
D20*
X82365000Y-61095000D03*
X176365000Y-61095000D03*
X82365000Y-115095000D03*
X176365000Y-115095000D03*
D18*
X130673000Y-105680001D03*
D19*
X133213000Y-105680001D03*
X135753000Y-105680001D03*
X138293000Y-105680001D03*
X140833000Y-105680001D03*
X143373000Y-105680001D03*
X145913000Y-105680001D03*
X148453000Y-105680001D03*
X150993000Y-105680001D03*
X153533000Y-105680001D03*
X156073000Y-105680001D03*
X158613000Y-105680001D03*
X161153000Y-105680001D03*
X163693000Y-105680001D03*
X166233000Y-105680001D03*
X168773000Y-105680001D03*
X171313000Y-105680001D03*
X173853000Y-105680001D03*
X176393000Y-105680001D03*
D21*
X85690000Y-68850001D03*
X85690000Y-70120001D03*
X86960000Y-68850001D03*
X86960000Y-70120001D03*
X88230000Y-68850001D03*
X88230000Y-70120001D03*
X89500000Y-68850001D03*
X89500000Y-70120001D03*
X90770000Y-68850001D03*
X90770000Y-70120001D03*
D22*
X113630000Y-65040001D03*
X118710000Y-68215001D03*
X110455000Y-65040001D03*
X118710000Y-72025001D03*
X121529000Y-109967000D03*
X116449000Y-109967000D03*
X121529000Y-105903000D03*
X116449000Y-105903000D03*
X103749000Y-72883000D03*
X120615000Y-99965001D03*
X112360000Y-94250001D03*
X97625000Y-68339000D03*
X153533000Y-72883000D03*
X152009000Y-72883000D03*
X120615000Y-96790001D03*
X114265000Y-96790001D03*
X95621000Y-71359000D03*
D23*
X85690000Y-68850001D02*
X85690000Y-70120001D01*
D24*
X85690000Y-70120001D02*
X85690000Y-72660001D01*
D25*
X111725000Y-108855001D02*
X111725000Y-112665001D01*
X111725000Y-112665001D02*
X113630000Y-114570001D01*
X85690000Y-82820001D02*
X111725000Y-108855001D01*
X85690000Y-72660001D02*
X85690000Y-82820001D01*
X118710000Y-113935001D02*
X119345000Y-114570001D01*
X119345000Y-114570001D02*
X166335000Y-114570001D01*
X113630000Y-114570001D02*
X119345000Y-114570001D01*
D24*
X85690000Y-68850001D02*
X85690000Y-66310001D01*
X85690000Y-66310001D02*
X88230000Y-63770001D01*
D25*
X112360000Y-63770001D02*
X113630000Y-65040001D01*
X109820000Y-64405001D02*
X110455000Y-65040001D01*
X109820000Y-63770001D02*
X109820000Y-64405001D01*
X88230000Y-63770001D02*
X109820000Y-63770001D01*
X109820000Y-63770001D02*
X112360000Y-63770001D01*
X118710000Y-68215001D02*
X118710000Y-72025001D01*
X119605000Y-67320001D02*
X118710000Y-68215001D01*
X143468000Y-67320001D02*
X119605000Y-67320001D01*
X119090598Y-67320001D02*
X119605000Y-67320001D01*
X176393000Y-105680001D02*
X176393000Y-109967000D01*
X171983465Y-114570001D02*
X166335000Y-114570001D01*
X175503010Y-111050456D02*
X171983465Y-114570001D01*
X175503010Y-110856990D02*
X175503010Y-111050456D01*
X176393000Y-109967000D02*
X175503010Y-110856990D01*
X126720593Y-79208000D02*
X118710000Y-79208000D01*
X128108000Y-80595407D02*
X126720593Y-79208000D01*
X128108000Y-81550001D02*
X128108000Y-80595407D01*
X118710000Y-79208000D02*
X118710000Y-113935001D01*
X118710000Y-72025001D02*
X118710000Y-79208000D01*
D26*
X131064000Y-86630001D02*
X131064000Y-87230001D01*
D25*
X82365000Y-61095000D02*
X82365000Y-62650001D01*
D24*
X163693000Y-105680001D02*
X163693000Y-110983000D01*
D25*
X125568000Y-81550001D02*
X125568000Y-84034000D01*
X128641000Y-87107000D02*
X130673000Y-87107000D01*
X125568000Y-84034000D02*
X128641000Y-87107000D01*
X130673000Y-109967000D02*
X130673000Y-105680001D01*
X130673000Y-109967000D02*
X121529000Y-109967000D01*
X121751999Y-105680001D02*
X121529000Y-105903000D01*
X130673000Y-105680001D02*
X121751999Y-105680001D01*
X116449000Y-105903000D02*
X116449000Y-109967000D01*
D26*
X103749000Y-72883000D02*
X116449000Y-85583000D01*
D25*
X116449000Y-105903000D02*
X116449000Y-85583000D01*
X116449000Y-85583000D02*
X116449000Y-62215000D01*
X117211000Y-61453000D02*
X152517000Y-61453000D01*
X116449000Y-62215000D02*
X117211000Y-61453000D01*
X150017000Y-61453000D02*
X152517000Y-61453000D01*
X148707000Y-62763000D02*
X150017000Y-61453000D01*
X148707000Y-74661000D02*
X148707000Y-62763000D01*
D26*
X145669000Y-99965001D02*
X127219000Y-99965001D01*
X151384000Y-105680001D02*
X145669000Y-99965001D01*
X89500000Y-68736199D02*
X89500000Y-68850001D01*
X94580000Y-66310001D02*
X90135000Y-66310001D01*
X89500000Y-66945001D02*
X89500000Y-68850001D01*
X90135000Y-66310001D02*
X89500000Y-66945001D01*
X112360000Y-94250001D02*
X112360000Y-84090001D01*
X96609000Y-68339000D02*
X96637000Y-68311000D01*
X112360000Y-84090001D02*
X96609000Y-68339000D01*
X96609000Y-68339000D02*
X94580000Y-66310001D01*
X96609000Y-68339000D02*
X97625000Y-68339000D01*
X127219000Y-99965001D02*
X120615000Y-99965001D01*
D24*
X150993000Y-105680001D02*
X150993000Y-109967000D01*
X148453000Y-105680001D02*
X148453000Y-109967000D01*
X145913000Y-109967000D02*
X145913000Y-105680001D01*
X143373000Y-105680001D02*
X143373000Y-109967000D01*
X140833000Y-105680001D02*
X140833000Y-109967000D01*
X138293000Y-105680001D02*
X138293000Y-109967000D01*
X135753000Y-105680001D02*
X135753000Y-109967000D01*
X133213000Y-105680001D02*
X133213000Y-109967000D01*
X150993000Y-87107000D02*
X150993000Y-90663000D01*
X148453000Y-87107000D02*
X148453000Y-90663000D01*
X143373000Y-87107000D02*
X143373000Y-90663000D01*
D26*
X154017010Y-68033010D02*
X152517000Y-66533000D01*
X154017010Y-72398990D02*
X154017010Y-68033010D01*
X153533000Y-72883000D02*
X154017010Y-72398990D01*
X143881000Y-87107000D02*
X148707000Y-82281000D01*
X143373000Y-87107000D02*
X143881000Y-87107000D01*
X141224000Y-86630001D02*
X141224000Y-87230001D01*
D24*
X140833000Y-87107000D02*
X140833000Y-90663000D01*
D26*
X138684000Y-86630001D02*
X138649000Y-86630001D01*
X138649000Y-86630001D02*
X138684000Y-86665001D01*
D24*
X138293000Y-87107000D02*
X138293000Y-90663000D01*
D26*
X136144000Y-86630001D02*
X136144000Y-87230001D01*
X136144000Y-86630001D02*
X136109000Y-86630001D01*
D24*
X135753000Y-87107000D02*
X135753000Y-90663000D01*
D26*
X152009000Y-69581000D02*
X152517000Y-69073000D01*
X152009000Y-72883000D02*
X152009000Y-69581000D01*
X135753000Y-87107000D02*
X138801000Y-84059000D01*
X144389000Y-84059000D02*
X148707000Y-79741000D01*
X138801000Y-84059000D02*
X144389000Y-84059000D01*
X133604000Y-86630001D02*
X133604000Y-87230001D01*
D24*
X133213000Y-87107000D02*
X133213000Y-86599000D01*
X133213000Y-86599000D02*
X133213000Y-90663000D01*
X173853000Y-109967000D02*
X173853000Y-105680001D01*
X171313000Y-105680001D02*
X171313000Y-109967000D01*
X168773000Y-105680001D02*
X168773000Y-109967000D01*
X166233000Y-105680001D02*
X166233000Y-109967000D01*
D26*
X161544000Y-105680001D02*
X161509000Y-105680001D01*
D24*
X161153000Y-105680001D02*
X161153000Y-109967000D01*
X158613000Y-105680001D02*
X158613000Y-109967000D01*
X156073000Y-105680001D02*
X156073000Y-109967000D01*
D26*
X90770000Y-68850001D02*
X91385182Y-68850001D01*
X107905091Y-94240092D02*
X107905091Y-85369910D01*
X110455000Y-96790001D02*
X107905091Y-94240092D01*
X114265000Y-96790001D02*
X110455000Y-96790001D01*
X95519591Y-71460409D02*
X95621000Y-71359000D01*
X93995591Y-71460409D02*
X95519591Y-71460409D01*
X91385182Y-68850001D02*
X93995591Y-71460409D01*
X93995591Y-71460409D02*
X107905091Y-85369910D01*
X148174000Y-96790001D02*
X153924000Y-102540001D01*
X153924000Y-102540001D02*
X153924000Y-105680001D01*
X120615000Y-96790001D02*
X148174000Y-96790001D01*
D24*
X153533000Y-105680001D02*
X153533000Y-109967000D01*
X176393000Y-87107000D02*
X176393000Y-90663000D01*
X173853000Y-87107000D02*
X173853000Y-90663000D01*
X171313000Y-87107000D02*
X171313000Y-90663000D01*
X168773000Y-87107000D02*
X168773000Y-90663000D01*
X166233000Y-87107000D02*
X166233000Y-90663000D01*
X163693000Y-87107000D02*
X163693000Y-90663000D01*
X161153000Y-87107000D02*
X161153000Y-90663000D01*
X158613000Y-87107000D02*
X158613000Y-90663000D01*
D26*
X134878000Y-77320001D02*
X143468000Y-77320001D01*
X130648000Y-81550001D02*
X134878000Y-77320001D01*
X144849002Y-75938999D02*
X143468000Y-77320001D01*
X149312761Y-75938999D02*
X144849002Y-75938999D01*
X149969001Y-76595239D02*
X149312761Y-75938999D01*
X158613000Y-85583000D02*
X149969001Y-76939001D01*
X149969001Y-76939001D02*
X149969001Y-76595239D01*
X158613000Y-87107000D02*
X158613000Y-85583000D01*
D24*
X156073000Y-87107000D02*
X156073000Y-90663000D01*
D26*
X135418000Y-79320001D02*
X143468000Y-79320001D01*
X133188000Y-81550001D02*
X135418000Y-79320001D01*
X144309002Y-78478999D02*
X143468000Y-79320001D01*
X149312761Y-78478999D02*
X144309002Y-78478999D01*
X156073000Y-85239238D02*
X149312761Y-78478999D01*
X156073000Y-87107000D02*
X156073000Y-85239238D01*
D24*
X153533000Y-87107000D02*
X153533000Y-90663000D01*
M02*
